<?xml version="1.0" encoding="UTF-8" standalone="no"?>
<!-- Created with Inkscape (http://www.inkscape.org/) -->

<svg
   version="1.1"
   id="svg198"
   width="629.80609"
   height="351.95703"
   viewBox="0 0 629.80613 351.95703"
   sodipodi:docname="me2.svg"
   inkscape:version="1.2.2 (732a01da63, 2022-12-09, custom)"
   xmlns:inkscape="http://www.inkscape.org/namespaces/inkscape"
   xmlns:sodipodi="http://sodipodi.sourceforge.net/DTD/sodipodi-0.dtd"
   xmlns="http://www.w3.org/2000/svg"
   xmlns:svg="http://www.w3.org/2000/svg">
  <defs
     id="defs202" />
  <sodipodi:namedview
     id="namedview200"
     pagecolor="#ffffff"
     bordercolor="#000000"
     borderopacity="0.25"
     inkscape:showpageshadow="2"
     inkscape:pageopacity="0.0"
     inkscape:pagecheckerboard="0"
     inkscape:deskcolor="#d1d1d1"
     showgrid="false"
     inkscape:zoom="0.98603159"
     inkscape:cx="61.864144"
     inkscape:cy="48.172899"
     inkscape:window-width="1846"
     inkscape:window-height="1016"
     inkscape:window-x="0"
     inkscape:window-y="0"
     inkscape:window-maximized="1"
     inkscape:current-layer="svg198" />
  <g
     inkscape:groupmode="layer"
     id="layer1"
     inkscape:label="Layer 1"
     transform="translate(-3.9345147,-2.8725642)">
    <path
       style="fill:#000000;stroke-width:1.60786"
       d="m 177.51042,353.23234 c -2.87405,-0.82984 -5.22554,-2.44321 -5.22554,-3.58522 0,-4.84885 11.83957,-15.63135 23.48177,-21.38524 6.62918,-3.27632 12.42109,-6.55244 12.87092,-7.28027 0.4498,-0.72783 2.40312,-1.33651 4.34065,-1.3526 1.93754,-0.0161 6.63576,-2.13905 10.44046,-4.71768 3.80473,-2.57862 7.71458,-4.95405 8.68854,-5.2787 0.97396,-0.32469 2.26811,-4.46642 2.87587,-9.20389 0.94617,-7.37538 0.54418,-9.61706 -2.79652,-15.59421 -4.19264,-7.50144 -6.20592,-8.46558 -9.18114,-4.39671 -1.66886,2.28229 -2.24007,2.04769 -4.89376,-2.00983 -4.53309,-6.93114 -6.7442,-8.70199 -9.53049,-7.63279 -1.39218,0.53424 -2.53125,1.56605 -2.53125,2.29294 0,1.08768 -8.41969,6.54748 -27.33362,17.7247 -1.32648,0.78389 -7.60554,3.96226 -13.95348,7.06305 -6.34793,3.10077 -11.99804,6.37618 -12.55581,7.27865 -1.51886,2.45757 -4.04004,1.97648 -4.04004,-0.77093 0,-3.08309 -0.85216,-3.03226 -6.73834,0.40196 -2.6525,1.54757 -6.30533,5.7079 -8.11741,9.2452 -5.97343,11.66051 -10.8524,16.75277 -17.88408,18.66589 -7.48179,2.03558 -31.584042,0.79305 -36.590525,-1.88634 -3.220136,-1.72337 -6.633511,-2.32262 -23.121569,-4.05918 -8.048272,-0.84767 -11.645767,-0.30476 -21.706104,3.2757 -6.632421,2.36049 -15.142613,4.57226 -18.911539,4.91505 -5.8556071,0.53259 -7.2264778,0.0526 -9.4224376,-3.29881 -3.1211208,-4.76344 -2.0608675,-10.01085 3.313165,-16.39752 4.8541536,-5.76884 15.1307096,-13.00844 19.4092836,-13.67341 1.759857,-0.27351 3.923275,-0.91899 4.807598,-1.43437 0.884323,-0.5154 3.6577,-1.42777 6.163067,-2.02748 2.505361,-0.59971 7.374854,-2.87035 10.821096,-5.04588 3.446246,-2.17552 7.07535,-3.95548 8.064682,-3.95548 1.861735,0 9.627988,-3.15298 18.84644,-7.65137 7.349511,-3.5864 15.890019,-13.48163 17.949768,-20.79702 2.760765,-9.80511 9.704245,-18.22703 22.597225,-27.40872 15.44288,-10.99758 26.80203,-21.60048 29.23029,-27.28423 1.05434,-2.46786 3.98441,-6.47068 6.51125,-8.89517 4.0867,-3.92112 4.54053,-5.34224 4.10783,-12.86288 -0.42061,-7.31001 -0.96597,-8.52294 -4.02812,-8.95855 -4.94134,-0.70294 -5.84934,-5.03159 -4.54713,-21.67771 0.93793,-11.98953 0.75044,-14.29982 -1.10278,-13.58868 -12.03377,4.6178 -22.64231,6.20228 -36.70043,5.48155 -8.36366,-0.42878 -17.739043,-1.2643 -20.834173,-1.8567 -8.206832,-1.57076 -16.42621,-2.23526 -15.439135,-1.24819 2.217636,2.21764 -2.882249,6.642 -9.608358,8.33565 -6.28045,1.58144 -8.076545,1.48029 -11.307699,-0.63684 -4.516327,-2.95922 -4.511649,-2.92002 -1.531265,-12.82309 1.768922,-5.87767 1.878598,-8.3665 0.468238,-10.62488 -1.223957,-1.95986 -2.454382,-2.44084 -3.667839,-1.43376 -2.114787,1.75512 -27.83052,-10.65496 -33.906046,-16.36262 C 11.010436,104.79348 10.277595,97.616825 13.789718,94.104697 15.049648,92.844768 20.29529,90.166099 25.4467,88.152094 53.99119,76.992308 63.435259,69.797141 71.250994,53.255115 76.57099,41.995319 80.879772,38.253979 93.584687,33.862631 c 7.818453,-2.702382 8.885773,-3.636634 10.425963,-9.126128 3.4652,-12.350497 17.44365,-18.826312 28.3524,-13.134849 3.75309,1.958114 4.76601,1.910078 8.03719,-0.381149 2.05859,-1.4418963 4.46738,-2.7061322 5.35287,-2.8094146 0.88548,-0.1032899 2.55709,-0.2979916 3.71468,-0.432685 1.1576,-0.1346884 1.73159,-0.8486429 1.27554,-1.5865525 -1.84951,-2.9925603 22.95531,0.2946755 24.92244,3.3028235 0.58363,0.8924876 4.98988,0.7528256 11.0778,-0.3511264 14.14353,-2.5647114 31.69276,-2.2920988 36.04551,0.5599371 5.95342,3.9008359 45.52624,5.2152119 62.13204,2.0636589 7.46939,-1.417592 18.64549,-3.3091748 24.83575,-4.2035125 6.19026,-0.8943397 15.23447,-2.3572251 20.09825,-3.2508584 11.59803,-2.1309335 86.78994,-2.205998 105.3148,-0.105139 7.9589,0.9026001 20.25903,2.7660566 27.33361,4.1410112 7.07458,1.3749546 17.56587,3.2870187 23.31397,4.2490297 15.74622,2.635319 58.11819,15.524333 61.84466,18.812369 1.8005,1.588657 7.7542,4.96159 13.23042,7.495407 5.47622,2.533816 9.52476,5.305917 8.99678,6.160238 -0.52803,0.854316 -0.17435,1.067744 0.78584,0.474318 1.95164,-1.206171 13.22173,3.655469 13.22173,5.70352 0,0.720532 1.81542,1.310064 4.03427,1.310064 4.14667,0 14.45612,8.423144 14.45612,11.811111 0,1.018297 1.0853,1.85241 2.41178,1.853575 7.0981,0.006 28.94148,18.893757 28.94148,25.025079 0,2.532318 -8.13311,10.288342 -13.93427,13.288252 -6.27341,3.24411 -7.04544,5.23309 -8.53321,21.98353 -1.45903,16.42682 -6.68945,38.09698 -13.29439,55.07993 -5.36572,13.79669 -5.48898,21.62862 -0.50567,32.13021 1.53571,3.23624 2.35341,6.59398 1.81719,7.46164 -0.53628,0.86768 -0.23968,2.03206 0.65907,2.58751 0.89874,0.55545 1.63409,2.77607 1.63409,4.93469 0,2.76256 -0.89076,3.92475 -3.00811,3.92475 -2.71125,0 -2.87139,0.75389 -1.62273,7.63733 0.76202,4.20053 2.43284,10.16971 3.713,13.26484 2.89133,6.99055 6.07022,38.85874 4.69982,47.11584 -0.75147,4.52799 -1.63564,5.87723 -3.40615,5.19781 -3.24913,-1.2468 -6.80727,1.99031 -6.80727,6.19301 0,4.58582 -5.60842,14.48529 -14.47074,25.54246 l -7.23537,9.02726 -26.52968,0.32825 c -43.54189,0.53873 -59.66717,1.09954 -60.67789,2.11024 -1.75157,1.75157 -17.24399,0.93933 -21.3087,-1.11719 -5.70554,-2.88667 -5.73376,-6.44094 -0.1021,-12.85504 2.70128,-3.07659 4.91143,-6.28762 4.91143,-7.13561 0,-2.93736 13.76667,-16.09953 20.35379,-19.46002 3.63944,-1.85672 11.55469,-4.16461 17.58943,-5.12867 15.95912,-2.54948 19.69196,-6.60623 16.62698,-18.06981 -2.64247,-9.88321 -4.32353,-11.48024 -8.91659,-8.47077 -6.87349,4.50371 -8.5616,3.29336 -8.4499,-6.0585 0.10753,-9.01339 -3.64637,-20.43496 -6.71658,-20.43496 -1.00878,0 -3.0991,1.56219 -4.64521,3.47155 -3.25667,4.0218 -7.17553,2.64762 -5.70072,-1.99901 0.58758,-1.85135 0.21807,-3.0804 -0.92607,-3.0804 -1.11184,0 -1.5541,-1.337 -1.0632,-3.21411 0.46226,-1.76778 0.27032,-3.56652 -0.42659,-3.99722 -1.67642,-1.03612 -6.47032,18.26654 -6.47032,26.05282 0,4.72009 -0.7982,6.48508 -3.48616,7.70886 -1.91741,0.87293 -4.03819,2.67247 -4.71285,3.99895 -5.53409,10.88065 -14.31679,30.7622 -14.34111,32.46423 -0.0711,4.97417 -13.89742,27.72011 -18.48463,30.4094 -6.95243,4.07589 -46.49428,4.39497 -48.73376,0.39327 -1.68687,-3.01427 -12.6799,-2.57082 -43.6849,1.7622 -10.72592,1.49897 -17.43334,1.79836 -18.40999,0.82171 -0.97663,-0.97663 -0.77078,-1.5364 0.56505,-1.5364 1.15579,0 1.71356,-1.01083 1.23946,-2.24628 -0.47406,-1.23546 0.42277,-4.67226 1.99303,-7.63733 1.57023,-2.96509 3.32343,-7.30848 3.89597,-9.652 0.6999,-2.86481 2.75638,-4.90323 6.27623,-6.22116 2.87939,-1.07812 8.12939,-3.03974 11.66668,-4.35915 5.45987,-2.03653 19.9673,-4.55898 34.23546,-5.95262 4.97543,-0.48597 7.62256,-3.55755 10.48588,-12.16725 2.49106,-7.49031 1.4495,-11.25502 -3.11386,-11.25502 -1.21821,0 -2.10005,-0.54265 -1.95966,-1.20589 0.14039,-0.66324 -0.28921,-2.65297 -0.95465,-4.42162 -0.66544,-1.76865 -1.95339,-5.20545 -2.86212,-7.63733 -0.90871,-2.43189 -2.19262,-4.42162 -2.85311,-4.42162 -1.75508,0 -6.69915,-18.6421 -6.30229,-23.76337 0.18641,-2.40579 0.22987,-6.73179 0.0965,-9.61333 -0.20686,-4.46954 -0.65582,-5.01513 -3.05622,-3.71403 -5.17243,2.80364 -25.75557,8.14926 -31.37843,8.14926 -3.05549,0 -8.73146,0.439 -12.61327,0.97558 l -7.05781,0.97559 v 23.54426 c 0,12.95971 -0.68389,24.03596 -1.52123,24.63797 -0.83667,0.60155 -2.88836,0.36202 -4.55931,-0.53223 -1.67096,-0.89426 -3.32329,-1.34075 -3.67186,-0.99218 -0.34855,0.34855 -1.0516,7.09989 -1.56232,15.00297 -1.36081,21.05749 -3.45272,27.97036 -10.18698,33.66353 -10.52275,8.896 -16.42697,10.54976 -35.3901,9.9127 -24.99955,-0.83985 -59.17999,2.61441 -67.40847,6.81226 -7.00845,3.57544 -16.65123,4.16773 -25.63264,1.57444 z"
       id="path316" />
    <g
       id="layer5"
       inkscape:label="Body"
       style="fill:#803300"
       transform="translate(3.9345147,2.8725642)">
      <path
         style="fill:#803300;stroke-width:1.60786"
         d="m 121.25332,22.204242 c 3.29991,-1.768646 7.13046,-3.215719 8.51234,-3.215719 1.38188,0 2.06534,-0.723537 1.5188,-1.60786 -2.68219,-4.339872 -18.77424,-0.06008 -19.79993,5.265928 -0.70217,3.646047 2.40308,3.505437 9.76879,-0.442349 z"
         id="path504"
         transform="translate(-3.9345147,-2.8725642)" />
      <path
         style="fill:#803300;stroke-width:1.60786"
         d="m 517.97469,340.68547 c 5.74809,0.36077 19.84601,0.66113 31.32864,0.66744 l 20.87755,0.0111 2.27633,-4.82358 c 1.25197,-2.65297 4.3276,-7.18834 6.83476,-10.07861 2.50716,-2.89027 4.96869,-7.23149 5.46999,-9.64716 1.62348,-7.82306 7.87957,-18.35134 11.80897,-19.87332 3.63568,-1.40822 3.78827,-2.03443 2.99605,-12.29561 -0.45925,-5.94651 -2.76954,-16.60012 -5.1343,-23.6747 -6.83144,-20.43712 -8.06387,-29.17465 -4.81458,-34.13366 2.43033,-3.70917 2.4857,-5.08246 0.52989,-13.14171 -2.6689,-10.99769 -2.8738,-27.24986 -0.40951,-32.47224 4.3556,-9.23006 10.24574,-24.97729 10.24152,-27.38067 -0.003,-1.43957 0.98592,-5.05725 2.19653,-8.03929 1.21067,-2.98184 2.66558,-12.2953 3.23316,-20.69636 1.23016,-18.20758 2.8345,-24.93377 5.93637,-24.88778 1.26287,0.0186 5.44537,-2.056823 9.29443,-4.612315 l 6.99831,-4.646357 -3.78259,-3.915731 c -2.08042,-2.153653 -5.49868,-5.669268 -7.59608,-7.812479 -2.0974,-2.143207 -6.25774,-4.35529 -9.24519,-4.915735 -2.98731,-0.560248 -5.43155,-1.661808 -5.43155,-2.447715 0,-0.785901 -1.08531,-1.428919 -2.41179,-1.428919 -3.15347,0 -3.05423,1.410128 0.93195,13.242954 2.70563,8.03153 3.16236,12.241012 2.39325,22.057347 -0.92537,11.81016 -1.89094,16.04547 -8.99713,39.46517 -1.87828,6.19026 -4.43252,14.79942 -5.6761,19.13146 -1.24357,4.33204 -2.63578,8.2512 -3.09387,8.70925 -1.96284,1.96287 -0.50045,-12.83131 2.51369,-25.42892 1.79849,-7.51674 4.29198,-18.00802 5.54113,-23.31396 3.45042,-14.65609 3.68215,-31.324597 0.52688,-37.900688 -1.45446,-3.031337 -3.62396,-7.682137 -4.82112,-10.335105 -2.6903,-5.961988 -19.49987,-22.517048 -27.10338,-26.693032 -3.09513,-1.699899 -9.03758,-5.541598 -13.20541,-8.537101 -4.30077,-3.091056 -13.6877,-7.322185 -21.7061,-9.78395 -7.77053,-2.385668 -16.66059,-5.243413 -19.75572,-6.350543 -3.09513,-1.107132 -10.3305,-2.886316 -16.0786,-3.953744 -5.74809,-1.067427 -13.07054,-2.624722 -16.2721,-3.460655 -9.64331,-2.517889 -22.7753,-5.104075 -28.74796,-5.661563 -21.44173,-2.0013694 -44.78513,-2.8998509 -68.33404,-2.6301631 -29.40728,0.3367808 -31.15831,0.4601584 -62.70652,4.4183021 -31.31856,3.929332 -32.91338,4.195404 -33.80624,5.640093 -0.8752,1.416089 2.51563,1.948345 30.57095,4.798701 9.71678,0.987204 17.95968,2.087711 18.31754,2.445572 1.29295,1.292943 -3.09646,5.069213 -9.40643,8.0925 -7.37948,3.535713 -7.95539,4.824371 -2.86207,6.404073 3.35762,1.041365 11.22473,4.359415 22.912,9.663412 8.33775,3.783896 29.0911,5.246923 46.62793,3.287083 8.84323,-0.988281 16.80213,-2.227981 17.68646,-2.754892 1.84355,-1.098449 12.082,-3.627261 24.92182,-6.155494 12.38962,-2.43958 50.82616,-2.736512 58.72923,-0.453718 6.98299,2.01706 17.87101,9.20576 15.73426,10.388411 -0.71821,0.397543 -6.37064,0.825661 -12.5609,0.951396 -11.90015,0.241731 -26.97014,2.782205 -31.88086,5.374466 -1.61667,0.853402 -4.00764,1.141716 -5.31328,0.640697 -2.02493,-0.777033 -1.94736,-1.496872 0.52761,-4.896862 1.59582,-2.192256 4.12497,-4.008655 5.62034,-4.036446 5.39186,-0.10019 4.69316,-3.266246 -0.7208,-3.266246 -10.65011,0 -24.26493,3.537713 -34.48909,8.961747 -11.09293,5.884912 -14.85923,6.59133 -19.5439,3.665699 -2.26678,-1.41563 -5.99966,-1.229114 -16.08944,0.803929 -7.22581,1.455973 -17.28349,2.649512 -22.35038,2.652316 -9.50185,0.0053 -31.48027,-5.473099 -35.74223,-8.90913 -1.32648,-1.069423 -5.19348,-2.838114 -8.59333,-3.930423 -8.74505,-2.809624 -29.63117,-12.609167 -30.75703,-14.43088 -0.51875,-0.839321 1.97283,-2.311231 5.53681,-3.270909 3.56396,-0.959679 6.47994,-2.362083 6.47994,-3.116452 0,-1.596535 -7.61845,-3.777923 -9.38384,-2.686863 -1.75525,1.084811 -33.50858,-4.734211 -42.87159,-7.856527 -15.28473,-5.097043 -60.45564,-9.124734 -66.21126,-5.903764 -2.32755,1.302544 -2.95616,3.744307 -3.07056,11.927255 -0.12672,9.063702 -0.79708,11.17657 -5.62751,17.736868 -3.01601,4.096103 -6.65226,7.475678 -8.08057,7.510167 -1.42831,0.03467 -4.32759,1.328896 -6.44286,2.87646 -8.11782,5.939152 -10.65438,6.845865 -12.59845,4.503409 -2.04199,-2.460452 -0.69331,-9.936487 2.1214,-11.759312 3.02508,-1.959056 7.45788,-11.056229 7.45788,-15.305335 0,-5.894317 -4.12909,-8.793463 -8.57182,-6.018511 -1.91792,1.19794 -5.11932,2.357352 -7.11422,2.576469 l -3.62709,0.398394 3.15007,-4.423865 c 5.81293,-8.163499 7.30631,-8.751224 14.34526,-5.64564 7.32391,3.231299 9.86647,7.648234 9.10694,15.820571 -0.59881,6.442885 0.17617,7.133234 3.33552,2.971295 2.51819,-3.317299 2.91919,-15.419563 0.65132,-19.657114 -3.88205,-7.253654 -22.12437,-5.155654 -31.09594,3.576258 -2.49992,2.433131 -6.00825,4.423875 -7.79631,4.423875 -1.78805,0 -5.53096,0.971494 -8.31758,2.158876 -14.36438,6.120691 -23.25368,9.524273 -27.815688,10.650222 -7.616677,1.879874 -16.682538,9.494466 -17.768461,14.924072 -0.517048,2.585222 -1.922508,5.077399 -3.123252,5.538167 -1.20074,0.460767 -2.183167,1.71534 -2.183167,2.787938 0,5.376697 -19.069818,20.790222 -35.372911,28.590803 -5.408981,2.588046 -5.317907,2.496684 -5.676776,5.694566 -0.173619,1.547133 -1.066134,4.621815 -1.983365,6.832615 -1.195827,2.88232 -1.144199,4.52576 0.182472,5.80837 2.640222,2.55255 13.608578,7.87396 21.144475,10.25846 8.9521,2.83261 12.256438,6.66164 11.032012,12.78378 -0.540587,2.70295 -1.615984,4.91445 -2.389766,4.91445 -2.930867,0 -1.254498,4.65524 2.054568,5.7055 2.725191,0.86493 4.533511,-0.17833 8.501673,-4.90487 l 5.040223,-6.00347 13.606396,3.37219 c 21.631587,5.36114 37.780857,4.77137 56.190847,-2.0521 6.82441,-2.52938 7.32447,-2.51849 9.31503,0.20299 3.47503,4.75102 4.11882,10.06578 2.37117,19.57513 -0.91241,4.96455 -1.38174,9.32351 -1.04299,9.68657 0.33876,0.36302 1.94352,-0.54139 3.56614,-2.00983 4.429,-4.00821 5.1088,-3.36473 5.1088,4.83569 0,10.78519 3.23205,28.25169 5.76384,31.14867 1.19084,1.36259 2.98415,6.29628 3.98514,10.96375 1.00099,4.66746 2.78896,8.85813 3.97328,9.31259 1.1843,0.45447 1.75979,1.85173 1.27886,3.10502 -0.48095,1.2533 -0.15099,2.27872 0.73342,2.27872 2.01068,0 3.88038,-4.6119 2.66618,-6.57653 -0.49724,-0.80452 -0.13783,-1.46276 0.7987,-1.46276 0.97512,0 1.70275,-3.49268 1.70275,-8.17328 0,-5.16154 0.64289,-7.95901 1.74468,-7.59174 1.67981,0.55994 11.10021,22.84762 11.1123,26.29056 0.0131,3.56317 15.4089,32.04055 16.911,31.27881 0.87191,-0.44217 1.55382,-4.25122 1.51537,-8.46456 -0.0387,-4.2228 0.62448,-7.42918 1.4774,-7.14488 2.64826,0.88276 6.07199,12.93774 5.22901,18.41136 -0.83716,5.43562 2.03249,10.06095 6.24199,10.06095 1.20875,0 4.59387,2.18854 7.52249,4.86344 5.21181,4.76024 5.32478,5.14737 5.32478,18.24698 0,12.59045 -2.47491,21.90966 -5.8186,21.90966 -0.69057,0 -4.4718,2.17061 -8.40274,4.82357 -3.93096,2.65297 -8.17254,4.82358 -9.42577,4.82358 -3.05293,0 -15.75191,6.1996 -15.72084,7.67486 0.13893,6.59132 13.16837,7.99582 59.46619,6.41009 25.81121,-0.88407 30.48189,-1.83428 34.63716,-7.04666 1.73115,-2.17154 4.7747,-5.8336 6.76344,-8.1379 2.52407,-2.9246 3.59326,-6.18269 3.54094,-10.79022 -0.0412,-3.63031 0.26324,-12.75062 0.67652,-20.26736 0.41332,-7.51674 0.80961,-15.01738 0.88068,-16.66809 0.12752,-2.9628 1.78496,-3.0324 8.25314,-0.34659 1.98563,0.82451 2.61622,-0.37192 3.0818,-5.84704 0.835,-9.81922 0.76132,-13.94796 -0.39699,-22.24717 -1.36178,-9.75717 -2.55815,-12.5478 -6.21939,-14.50724 -5.89951,-3.15731 -1.32761,-4.82745 10.41242,-3.80366 7.74298,0.67521 15.29362,0.20671 22.99739,-1.42693 14.5911,-3.09414 18.25104,-4.81777 52.64198,-24.79144 4.94858,-2.87405 9.60342,-5.22554 10.3441,-5.22554 0.74068,0 5.27375,-2.1055 10.07348,-4.67886 4.79974,-2.57338 11.81041,-5.58462 15.5793,-6.69167 9.35528,-2.74796 10.78383,-4.80692 8.23177,-11.86451 -1.60495,-4.43843 -1.63431,-6.13275 -0.13215,-7.63482 2.87418,-2.87418 2.33753,-5.81972 -1.16621,-6.40105 -3.01809,-0.50075 -3.02136,-0.6061 -0.12863,-4.15077 1.98225,-2.429 5.19723,-3.8517 9.67953,-4.28344 6.26666,-0.60361 6.6382,-0.41588 5.60638,2.83305 -1.91157,6.01894 -2.36502,20.28005 -0.77761,24.45527 0.8379,2.20385 4.61118,8.06321 8.38507,13.02082 10.6558,13.9981 21.43741,31.31897 23.61174,37.93274 2.55313,7.76596 4.95597,9.18705 4.95597,2.93105 0,-3.26388 0.7981,-4.91848 2.3725,-4.91848 2.70241,0 16.25481,22.24429 17.7782,29.18037 0.82926,3.77552 1.64168,4.42253 4.61592,3.67603 4.84347,-1.21563 7.15939,1.94638 8.43895,11.52195 1.13389,8.48545 5.82658,18.95657 7.66959,17.11358 0.62124,-0.62126 0.36529,0.8807 -0.56893,3.33771 -0.93412,2.457 -6.22488,8.75958 -11.75712,14.00574 -8.83353,8.37668 -10.84748,9.54204 -16.53438,9.56768 -3.56161,0.0161 -7.90283,0.97993 -9.64715,2.14191 -1.74433,1.16199 -4.78087,2.20092 -6.74784,2.30876 -1.96701,0.10788 -5.94643,2.88412 -8.84322,6.16955 -2.8968,3.28544 -6.53308,7.42196 -8.08065,9.1923 -5.15298,5.89472 -3.60905,6.38114 16.07859,5.06583 10.39079,-0.69419 23.59534,-0.96698 29.34344,-0.60621 z"
         id="path480"
         transform="translate(-3.9345147,-2.8725642)" />
      <path
         style="fill:#803300;stroke-width:1.60786"
         d="m 32.160423,324.44973 c 6.86794,-5.00649 27.407803,-4.44451 53.300036,1.45829 3.979452,0.90724 12.152132,1.68102 18.161511,1.71953 9.56312,0.0613 11.36831,-0.41598 14.47073,-3.82571 5.80226,-6.37704 10.77997,-13.381 10.77997,-15.16808 0,-4.4659 20.07776,-19.58627 21.26769,-16.0165 0.8867,2.66013 11.28466,0.27228 15.36414,-3.52832 1.88661,-1.75765 4.38483,-3.19572 5.55158,-3.19572 3.01228,0 20.68594,-9.31991 24.64639,-12.99686 1.82564,-1.69496 4.09972,-3.08174 5.05351,-3.08174 3.50345,0 3.32405,-4.59934 -0.49024,-12.56934 -2.15132,-4.49517 -4.6241,-8.61345 -5.49507,-9.15175 -0.871,-0.53829 -1.58362,-2.70216 -1.58362,-4.80859 0,-2.10642 -0.72354,-4.27703 -1.60786,-4.82358 -0.88432,-0.54654 -1.60786,-2.75986 -1.60786,-4.91847 0,-2.15862 -0.72354,-3.92476 -1.60786,-3.92476 -0.88432,0 -1.60786,0.64614 -1.60786,1.43584 0,1.76382 -4.16366,3.56441 -10.04912,4.34578 -3.96976,0.52703 -4.42161,0.095 -4.42161,-4.22698 0,-2.64769 -0.64107,-6.07036 -1.4246,-7.60593 -0.78351,-1.53557 -3.07781,-6.5905 -5.09841,-11.2332 -2.02061,-4.64269 -4.22102,-8.44126 -4.88979,-8.44126 -0.66879,0 -3.25836,2.45305 -5.75464,5.45122 -3.92803,4.71783 -18.17228,17.11711 -33.12338,28.83317 -10.36321,8.12088 -16.81627,15.20222 -20.13591,22.09637 -1.944144,4.03757 -3.534815,7.91258 -3.534815,8.61113 0,2.26202 -7.718228,10.52045 -15.094169,16.15063 -3.956138,3.01978 -12.126999,7.38596 -18.157472,9.70261 -6.030474,2.31665 -14.220413,5.54226 -18.199865,7.16803 -3.979453,1.62577 -10.347014,3.88073 -14.150138,5.01104 -3.803123,1.1303 -8.144344,3.03421 -9.647157,4.23091 -2.343999,1.86653 -1.361113,2.02809 6.914769,1.13662 5.305936,-0.57154 10.008926,-1.0407 10.451087,-1.04255 4.92807,-0.0206 7.931481,0.76303 10.54574,2.75211 2.849615,2.16817 2.45681,2.28901 -4.516266,1.38932 -5.411925,-0.69826 -7.637333,-0.42377 -7.637333,0.94208 0,1.06011 -1.26619,1.76699 -2.813755,1.57084 -3.56329,-0.45165 -11.837525,1.71476 -14.470736,3.78879 -1.105403,0.87068 -2.009824,3.01995 -2.009824,4.77619 0,2.636 0.7295,3.01006 4.180944,2.1438 2.299519,-0.57714 6.098087,-2.44688 8.441263,-4.15496 z"
         id="path498"
         transform="translate(-3.9345147,-2.8725642)" />
      <path
         style="fill:#803300;stroke-width:1.60786"
         d="m 364.76373,335.42552 c 5.48894,-1.56258 12.54543,-1.37843 37.26626,0.9725 34.13233,3.24598 33.66327,3.33184 41.01994,-7.50883 5.4095,-7.97133 10.61037,-20.11114 10.61037,-24.76654 0,-2.12951 1.01429,-5.47433 2.25397,-7.43294 1.23967,-1.95862 2.78103,-6.0935 3.42525,-9.18863 0.6442,-3.09513 2.52407,-7.35305 4.17748,-9.46203 1.65339,-2.10898 3.00618,-5.56369 3.00618,-7.67713 0,-2.61933 1.27963,-4.32912 4.01965,-5.37088 2.21081,-0.84054 4.04489,-2.4506 4.07575,-3.57789 0.0306,-1.12728 1.10191,-7.83791 2.38014,-14.91249 2.9756,-16.46889 3.05949,-15.39336 -1.63455,-20.95797 -10.49255,-12.4385 -22.1519,-27.63169 -23.7094,-30.8955 -0.94949,-1.98973 -2.63554,-3.61769 -3.74676,-3.61769 -3.50755,0 -15.90664,5.88036 -18.18328,8.62355 -1.20116,1.44731 -3.96946,2.63147 -6.15177,2.63147 -2.39624,0 -5.64435,1.91055 -8.20047,4.82358 -2.32794,2.65297 -5.35759,4.82358 -6.73255,4.82358 -4.61724,0 -9.85108,4.86294 -8.79955,8.17598 0.7416,2.3366 0.19772,3.07903 -2.25565,3.07903 -1.77809,0 -4.35923,1.60807 -5.73586,3.57349 -1.37662,1.9654 -2.50296,2.68894 -2.50296,1.60786 0,-1.08109 -0.59819,-1.96563 -1.32931,-1.96563 -1.98288,0 1.12559,15.43332 5.51338,27.37343 2.12038,5.77 3.88125,11.19652 3.91305,12.05895 0.0317,0.86242 1.75514,3.64329 3.82961,6.17969 3.7065,4.53182 3.82875,4.55965 7.0623,1.60786 1.80979,-1.65208 4.40068,-3.91152 5.75755,-5.02096 1.35687,-1.10944 3.24547,-4.908 4.19687,-8.44126 0.9514,-3.53326 2.37248,-6.42409 3.15795,-6.42409 3.06667,0 6.89194,11.00417 7.68522,22.10807 0.90797,12.70974 3.07684,14.83525 7.7931,7.63733 1.44857,-2.2108 3.22274,-4.01965 3.94261,-4.01965 2.31349,0 6.3196,16.93758 6.11841,25.86818 -0.13652,6.06227 -1.32634,10.44552 -3.97346,14.63882 -2.07817,3.29205 -3.96955,6.92043 -4.20304,8.06307 -0.61366,3.00306 -4.25584,4.25806 -12.48347,4.30142 l -7.23537,0.0382 7.5572,-3.93489 c 8.35613,-4.35086 11.6709,-9.78281 13.20622,-21.64114 1.20454,-9.30356 -1.18512,-13.79404 -4.02442,-7.56242 -2.33354,5.12159 -11.23706,10.77819 -16.96489,10.77819 -2.23396,0 -3.78241,-0.54266 -3.44099,-1.2059 5.84267,-11.35041 10.24002,-30.17708 7.45106,-31.90076 -0.75481,-0.46658 -1.37239,0.1876 -1.37239,1.45364 0,1.26604 -3.16193,5.21647 -7.02652,8.77874 -4.56833,4.21093 -7.38315,8.36071 -8.04589,11.86176 -0.56066,2.9617 -2.70989,7.49687 -4.77607,10.07812 -3.51909,4.39639 -4.90881,4.82459 -21.97368,6.77054 -24.17803,2.75706 -32.46922,5.8063 -36.81563,13.53969 -1.84966,3.29106 -3.36305,6.61467 -3.36305,7.38578 0,1.92048 16.96016,1.01593 25.26146,-1.34729 z"
         id="path496"
         transform="translate(-3.9345147,-2.8725642)" />
      <path
         style="fill:#803300;stroke-width:1.60786"
         d="m 198.96761,339.37362 c -0.39392,-0.39392 -3.30278,0.21907 -6.46411,1.36223 -3.71456,1.34319 -5.74789,3.10984 -5.74789,4.99399 0,2.58958 0.72269,2.43728 6.46413,-1.36222 3.55526,-2.35277 6.14181,-4.60006 5.74787,-4.994 z"
         id="path478"
         transform="translate(-3.9345147,-2.8725642)" />
    </g>
    <path
       style="fill:#d45500;stroke-width:1.60786"
       d="m 20.59124,101.72395 c 1.302067,-3.393135 -0.871217,-5.22506 -2.723687,-2.295881 -1.968355,3.112411 -1.928885,4.777011 0.113264,4.777011 0.912076,0 2.086767,-1.11651 2.610423,-2.48113 z"
       id="path502" />
    <path
       style="fill:#000000;stroke-width:1.60786"
       d="m 79.02902,311.36707 c 0,-1.35724 2.905553,-3.07397 7.102504,-4.1965 8.902814,-2.38112 17.443026,-8.0771 26.350416,-17.57463 5.04174,-5.37576 7.40466,-6.90049 8.69469,-5.61046 1.29003,1.29003 1.20335,2.45597 -0.31896,4.29023 -5.91455,7.12662 8.29245,1.65863 20.87787,-8.03547 3.97945,-3.06522 9.04421,-6.83479 11.25502,-8.37682 2.2108,-1.54202 6.06503,-4.80443 8.56493,-7.2498 6.08675,-5.95397 7.86887,-5.6015 7.23743,1.43144 -0.30182,3.36205 0.24585,6.1431 1.27971,6.49796 2.40304,0.8248 11.26105,-6.75382 16.74935,-14.3302 2.80706,-3.87503 4.7041,-5.32647 5.21652,-3.99114 1.15064,2.9985 -6.70453,18.80866 -9.34496,18.80866 -1.21448,0 -5.58671,2.28016 -9.71605,5.06701 -7.7089,5.20268 -21.95356,9.13138 -22.89272,6.31386 -0.28088,-0.84259 -6.53001,2.35117 -13.887,7.09724 -7.35697,4.74604 -16.52479,9.47698 -20.37291,10.51316 -3.84813,1.03619 -10.44998,3.63396 -14.67079,5.7728 -9.664997,4.89763 -22.12505,6.90963 -22.12505,3.57266 z"
       id="path500" />
    <path
       style="fill:#000000;stroke-width:1.60786"
       d="m 115.20586,130.43902 c 1.76865,-0.39965 5.49568,-1.76279 8.28229,-3.0292 2.78662,-1.26641 6.80489,-2.30256 8.9295,-2.30256 9.20765,0 26.85708,-12.25835 29.29518,-20.34683 0.86493,-2.86947 -0.13627,-4.1155 -5.83097,-7.256874 -9.08287,-5.010402 -10.10981,-9.377067 -2.20526,-9.377067 3.15996,0 5.7454,-0.741449 5.7454,-1.647659 0,-2.32083 -5.66259,-4.138922 -16.86088,-5.413538 -10.15681,-1.156066 -14.43735,-3.297991 -9.42869,-4.717992 9.25034,-2.62256 13.27525,-2.567923 21.48768,0.291675 18.17171,6.327476 20.87753,8.70756 14.45744,12.716979 -3.13811,1.959775 -3.14214,2.0682 -0.18717,5.023159 4.36873,4.368731 2.64736,10.128707 -5.85212,19.582187 -9.9317,11.04645 -26.4459,17.71673 -43.0088,17.37178 -4.42161,-0.0921 -6.59222,-0.49441 -4.82358,-0.89407 z"
       id="path490" />
    <path
       style="fill:#000000;stroke-width:1.60786"
       d="m 364.82606,176.29784 c -2.43189,-0.8882 -4.42161,-2.26436 -4.42161,-3.05815 0,-1.85675 4.24669,-2.68559 20.09824,-3.92258 7.18376,-0.56058 16.01139,-2.39629 19.99407,-4.15773 14.28529,-6.31809 34.69493,-21.33674 32.91325,-24.21957 -0.46292,-0.749 -3.33135,-1.36181 -6.37428,-1.36181 -7.72844,0 -6.8969,-2.41583 1.65579,-4.81043 3.95361,-1.10695 9.52069,-3.73336 12.37131,-5.83647 2.85061,-2.10311 5.87226,-3.82384 6.71478,-3.82384 3.59244,0 15.77405,-12.04029 21.17218,-20.92657 5.56876,-9.167166 8.83937,-11.990477 8.8191,-7.612938 -0.0367,7.883978 -3.68605,21.293948 -7.26835,26.707158 -3.87274,5.85209 -4.62779,6.29063 -8.10388,4.70682 -3.17334,-1.44587 -4.87812,-1.07363 -9.90249,2.16223 -3.33807,2.14983 -7.96939,4.73388 -10.29181,5.74232 -3.22722,1.40133 -4.05431,2.71581 -3.50875,5.57638 0.50724,2.65964 -0.71367,5.10954 -4.21869,8.46527 -2.71288,2.59734 -4.93251,6.03414 -4.93251,7.63734 0,1.77274 -1.17507,2.9149 -2.99888,2.9149 -1.64939,0 -4.72442,1.33827 -6.83341,2.97393 -15.41435,11.95486 -40.95383,17.93149 -54.88406,12.84374 z"
       id="path488" />
    <path
       style="fill:#000000;stroke-width:1.60786"
       d="m 325.74888,195.71299 c -2.03688,-3.29576 1.81531,-4.62286 18.6258,-6.41666 9.25854,-0.98795 20.9712,-3.17276 26.02816,-4.85513 10.64229,-3.54052 10.90378,-3.5761 10.90378,-1.48367 0,0.86635 -3.07503,3.13416 -6.8334,5.03956 -3.75837,1.90541 -7.19517,4.01018 -7.63733,4.67727 -2.79125,4.21113 -38.72016,6.86828 -41.08701,3.03863 z"
       id="path486" />
    <path
       style="fill:#000000;stroke-width:1.60786"
       d="m 569.95528,311.21701 c 0.49693,-1.98972 2.02857,-7.57394 3.40314,-12.40935 4.77489,-16.79697 2.45253,-40.49333 -5.51547,-56.27787 -4.76599,-9.44144 -19.67929,-24.84736 -22.99143,-23.75095 -1.07526,0.35594 -2.59177,3.62261 -3.36998,7.2593 -1.35306,6.32265 -5.07641,9.92236 -7.49951,7.25038 -0.62771,-0.69223 -2.36541,-5.03208 -3.86147,-9.64413 -3.08056,-9.49671 -23.02651,-33.40546 -25.73229,-30.84473 -0.8401,0.79505 -2.06605,1.44556 -2.72426,1.44556 -2.51073,0 -12.29033,-10.72854 -15.3893,-16.88252 -1.78127,-3.5373 -4.74301,-9.0947 -6.58165,-12.34981 -3.34945,-5.9298 -3.68275,-13.72548 -1.09132,-25.5242 1.88546,-8.58447 3.54178,-4.94848 4.37103,9.59543 0.65005,11.40074 1.55268,15.3628 4.41601,19.38401 3.05538,4.29083 4.30142,4.9 8.24922,4.03291 2.57464,-0.56548 4.65023,-0.34152 4.65023,0.5018 0,0.83775 5.62058,7.22618 12.49011,14.19652 6.86958,6.97036 14.28583,15.38129 16.48056,18.69097 4.66299,7.03173 7.00785,6.99769 7.71004,-0.1119 0.27685,-2.80596 1.21031,-5.10172 2.07383,-5.10172 8.54874,0 34.9001,23.73315 38.38268,34.56898 1.1368,3.53729 2.8454,7.40886 3.79681,8.60346 2.30059,2.88875 2.66829,5.30728 2.96971,19.53408 0.54492,25.71917 -0.18993,34.75619 -3.10879,38.22347 -1.54757,1.83843 -4.04628,5.56683 -5.55275,8.28532 -3.21783,5.80693 -6.9146,6.68551 -5.57515,1.32504 z"
       id="path484" />
    <path
       style="fill:#000000;stroke-width:1.60786"
       d="m 273.22085,312.11424 c 0.46115,-2.48321 1.60661,-5.01363 2.5455,-5.62315 1.05254,-0.68331 1.90425,-11.16375 2.22129,-27.33361 0.71211,-36.31771 4.12593,-51.06572 10.14244,-43.81627 1.05727,1.27393 2.65686,2.31622 3.55466,2.31622 2.0436,0 0.45085,-14.80657 -3.02677,-28.13754 -2.43951,-9.3515 -2.98153,-10.98238 -6.83845,-20.57586 -0.99442,-2.4735 -1.80805,-4.825 -1.80805,-5.22555 0,-1.97855 3.15419,-0.24484 7.36935,4.05063 2.57928,2.62841 5.23225,4.79902 5.89549,4.82358 0.66324,0.0246 1.20589,-2.83861 1.20589,-6.36262 0,-6.6191 -7.05393,-20.63444 -13.09392,-26.0161 -2.08961,-1.86184 -3.28218,-5.78196 -3.91314,-12.86288 l -0.90755,-10.18488 6.73707,11.78094 c 3.70539,6.47952 7.73616,12.16435 8.9573,12.63294 1.22114,0.46859 2.22024,1.76231 2.22024,2.87492 0,1.1126 1.55678,4.00206 3.45953,6.42099 3.62253,4.60532 8.62767,22.40959 10.79145,38.38732 l 1.2717,9.39058 -4.37751,-0.8755 -4.37751,-0.87551 0.55663,20.82152 c 0.42161,15.76989 -0.0211,22.20424 -1.82463,26.52069 -2.36949,5.671 -5.39153,6.23735 -5.61889,1.05301 -0.0656,-1.49537 -1.38066,-5.57662 -2.92237,-9.06945 -4.13897,-9.37702 -5.59487,-4.96235 -5.23808,15.88323 0.16757,9.79055 -0.15004,22.97727 -0.70587,29.30388 -0.88151,10.03422 -1.45016,11.59881 -4.45375,12.25414 -1.89378,0.41317 -4.6171,1.24805 -6.05184,1.85526 -2.14318,0.90701 -2.45903,0.29841 -1.77021,-3.41093 z"
       id="path482" />
    <path
       style="fill:#000000;stroke-width:1.60786"
       d="m 102.26194,77.955044 c -2.697548,-1.03813 -7.038769,-3.4255 -9.64716,-5.305274 -2.608395,-1.879768 -7.094027,-3.926986 -9.968076,-4.549363 -6.38474,-1.382629 -6.586536,-3.910068 -0.80393,-10.068834 6.215252,-6.619553 12.064042,-10.133399 16.607547,-9.977522 2.140969,0.07346 9.138309,-0.391112 15.549649,-1.032382 8.16897,-0.817059 11.65698,-0.631974 11.65698,0.618559 0,2.405418 -5.33679,5.113345 -10.07741,5.113345 -5.84106,0 -6.24207,1.50661 -1.912,7.183615 4.77462,6.25985 4.87082,8.169128 0.75201,14.924454 -3.44452,5.649431 -4.69143,5.966697 -12.15761,3.093402 z"
       id="path492" />
    <path
       style="fill:#ffff00;stroke-width:1.60786"
       d="m 107.97049,66.511555 c 0,-8.112335 -3.85921,-12.150122 -11.612773,-12.150122 -6.076805,0 -5.620329,2.152245 0.961244,4.532174 4.602849,1.664406 5.582479,2.934404 6.450439,8.362297 1.38057,8.633613 4.20109,8.13387 4.20109,-0.744349 z"
       id="path494" />
  </g>
</svg>
