<?xml version="1.0" encoding="UTF-8"?>
<!DOCTYPE svg PUBLIC "-//W3C//DTD SVG 1.1//EN" "http://www.w3.org/Graphics/SVG/1.1/DTD/svg11.dtd">
<svg version="1.1" xmlns="http://www.w3.org/2000/svg" xmlns:xlink="http://www.w3.org/1999/xlink" x="0" y="0" width="1068.537" height="743.957" viewBox="0, 0, 1068.537, 743.957">
  <defs>
    <clipPath id="Clip_1">
      <path d="M68.457,62.976 L1061.277,62.976 L1061.277,655.548 L68.457,655.548 z"/>
    </clipPath>
    <clipPath id="Clip_2">
      <path d="M32.457,146.091 L1044.297,146.091 L1044.297,718.914 L32.457,718.914 z"/>
    </clipPath>
    <clipPath id="Clip_3">
      <path d="M713.457,270.213 L757.677,270.213 L757.677,333.522 L713.457,333.522 z"/>
    </clipPath>
    <clipPath id="Clip_4">
      <path d="M1020.057,414.48 L1041.057,414.48 L1041.057,424.962 L1020.057,424.962 z"/>
    </clipPath>
    <clipPath id="Clip_5">
      <path d="M363.477,28.026 L742.827,28.026 L742.827,178.14 L363.477,178.14 z"/>
    </clipPath>
    <clipPath id="Clip_6">
      <path d="M739.677,415.419 L858.957,415.419 L858.957,494.217 L739.677,494.217 z"/>
    </clipPath>
  </defs>
  <g id="GraphicMama">
    <path d="M848.61,709.905 C854.202,701.685 857.601,688.083 849.372,680.766 C866.991,688.026 872.595,706.494 848.61,709.905 M838.347,708.198 C843.642,698.289 840.834,682.614 828.594,677.466 L828.819,677.397 C853.551,680.373 855.837,701.601 838.347,708.198 M849.132,674.154 C843.36,673.251 837.726,671.616 832.518,668.979 C828.693,667.05 824.796,664.581 820.281,660.945 C813.336,654.924 807.447,648.129 803.214,640.095 C803.778,639.525 792.303,651.327 794.688,648.807 C800.277,657.87 810.159,666.879 821.775,675.861 C818.403,675.576 814.578,675.93 810.258,677.1 C845.787,679.512 838.659,708.072 807.9,708.651 L792.498,707.508 L792.456,707.478 L763.674,705.351 C747.102,704.307 736.557,688.56 731.856,676.605 C732.381,676.377 714.69,682.953 715.707,682.638 C724.377,694.638 740.568,720.534 756.561,720.534 C766.017,719.97 795.9,720.702 820.068,720.534 C824.697,720.534 831.714,718.164 836.16,718.137 C841.284,718.137 846.378,718.137 851.193,718.137 C876.276,718.167 882.603,679.311 849.132,674.139 M1055.283,435.747 C1053.432,442.188 1051.188,448.011 1048.788,452.847 C1042.593,466.647 1024.734,482.58 1011.072,425.442 C1011.072,403.632 1045.077,410.583 1053.264,424.059 C1055.451,427.965 1056.453,431.715 1055.283,435.747 M1036.239,404.124 C1030.368,403.491 1025.115,403.617 1020.555,404.76 C1003.731,397.683 982.923,396.471 986.706,385.797 C990.885,371.502 993.51,362.973 989.361,351.807 C1020.036,344.913 1037.511,270.972 996.123,263.286 C997.815,260.265 988.344,273.009 989.205,271.197 C1013.259,272.481 1019.892,325.404 982.485,343.038 C980.031,338.583 976.968,334.044 973.299,329.25 L966.141,321.948 C958.686,314.631 951.429,308.202 944.289,302.691 L939.615,299.181 C894.333,266.418 853.185,270.195 795.675,310.134 C812.247,182.634 737.559,221.094 705.093,246.231 C681.378,264.585 656.775,308.937 675.336,346.845 L681.801,357.405 C690.117,368.541 702.861,378.777 721.299,387.192 C719.463,385.923 631.689,324.642 722.271,250.461 C811.908,187.965 775.914,338.331 775.914,338.331 C860.484,271.071 915.66,281.235 964.122,336.456 C978.702,356.193 977.532,363.48 971.646,390.492 C968.442,403.434 991.155,402.885 1008.546,412.005 C1006.131,414.852 1004.238,418.503 1002.927,423.102 C998.268,439.368 1019.358,470.454 1035.645,475.122 C1035.717,475.122 1035.774,475.164 1035.846,475.179 C1028.379,500.778 1007.007,524.04 989.292,528.156 C940.179,531.792 906.501,545.442 870.957,496.464 C883.365,543.396 930.681,543.297 981.342,538.632 C926.925,580.473 823.344,601.83 758.043,571.914 C752.607,572.112 751.128,572.013 745.959,571.719 C764.268,587.763 798.711,596.487 837.345,596.811 L866.184,595.557 C917.595,590.622 964.758,575.61 995.46,539.703 C1016.448,538.236 1046.376,504.783 1052.175,469.257 C1059.546,461.433 1064.811,448.041 1067.664,438.072 C1072.335,421.818 1057.752,406.464 1036.239,404.124 M313.332,699.612 C311.694,706.212 307.191,711.456 301.137,711.54 L287.091,710.103 C289.647,705.366 290.988,699.132 290.676,693.015 C291.369,693.237 280.068,689.472 282.858,690.42 C283.761,699.837 277.845,709.554 269.376,709.68 L259.185,709.65 C263.274,700.821 262.038,687.414 252.729,680.943 C249.981,679.335 249.981,679.335 246.3,678.03 C240.711,676.566 233.439,676.899 224.205,680.073 C261.372,677.76 258.21,708.24 242.076,709.608 L206.799,709.2 C181.857,709.68 145.155,670.107 134.4,604.002 C126.246,598.941 114.468,590.829 116.529,592.782 L117.402,603.468 C117.372,649.959 162.786,721.662 192.219,720.957 C201.717,721.395 242.682,725.652 250.8,720.957 C258.21,723.141 272.199,724.947 282.15,721.167 C290.097,724.707 306.669,723.411 311.964,721.407 C317.751,719.448 323.286,709.68 325.812,701.715 C326.757,701.946 312.153,699.3 313.332,699.612 M710.937,695.808 C707.028,693.003 702.948,690.111 698.91,687.18 C685.416,679.155 685.416,679.155 676.962,672.153 C671.391,667.341 669.909,665.277 664.623,658.35 C663.009,660.264 659.394,663.348 655.194,664.833 C659.535,669.372 662.274,672.129 666.435,675.801 C675.018,683.349 684.585,690.036 695.199,695.808 C720.831,700.755 715.044,733.32 699.912,733.533 L685.866,732.078 C694.536,716.106 689.283,682.893 654.036,695.004 C691.923,692.661 685.089,731.43 668.151,731.658 L657.96,731.658 C664.665,717.18 657.099,690.351 622.98,702.066 C660.147,699.768 656.985,730.248 640.851,731.616 L605.577,731.208 C575.466,730.263 536.322,678.453 521.826,625.473 C520.881,645.519 528.843,672.702 542.109,695.553 L549.945,709.878 C562.662,727.569 580.083,741.54 592.407,741.54 C601.905,741.978 641.457,746.25 649.575,741.54 C656.985,743.739 670.974,745.545 680.925,741.765 C688.872,745.305 701.112,743.712 706.506,742.005 C723.303,737.154 726.861,707.283 710.937,695.823 M729.09,351.513 C715.185,351.513 708.156,336.867 708.156,315.324 C708.156,293.781 730.713,272.085 744.618,272.085 C758.523,272.085 762.729,296.601 762.729,318.144 C762.729,339.684 742.995,351.513 729.09,351.513 M768.375,318.144 C768.375,285.717 759.933,267.858 744.618,267.858 C726.621,267.858 701.1,291.33 701.1,315.324 C701.1,341.997 712.689,358.56 729.09,358.56 C745.494,358.56 768.375,343.179 768.375,318.144" fill="#36A9E1" id="path91838"/>
    <path d="M1067.661,438.087 C1064.808,448.053 1059.543,461.448 1052.175,469.269 C1046.373,504.801 1016.448,538.254 995.457,539.721 C964.755,575.628 917.595,590.637 866.184,595.572 C841.029,607.287 822.621,620.568 803.211,640.092 C807.447,648.129 813.333,654.924 820.278,660.945 C824.796,664.581 828.693,667.05 832.518,668.979 C837.726,671.616 843.357,673.254 849.129,674.154 C882.6,679.326 876.276,718.179 851.193,718.152 C846.378,718.182 841.281,718.182 836.16,718.152 C831.711,718.182 824.694,720.561 820.065,720.552 C795.9,720.702 766.017,719.973 756.558,720.522 C740.565,720.522 724.374,694.626 715.707,682.626 C709.215,684.633 705.501,686.151 698.91,687.168 C702.945,690.102 707.025,692.991 710.937,695.793 C726.858,707.259 723.3,737.127 706.503,741.978 C701.112,743.685 688.872,745.278 680.925,741.741 C670.974,745.515 656.985,743.712 649.572,741.513 C641.457,746.22 601.905,741.951 592.404,741.513 C580.08,741.513 562.662,727.542 549.942,709.851 C473.76,719.79 401.91,720.366 325.809,701.7 C323.283,709.668 317.748,719.436 311.961,721.398 C306.669,723.399 290.094,724.695 282.15,721.155 C272.196,724.935 258.207,723.132 250.797,720.945 C242.679,725.64 201.714,721.383 192.216,720.945 C162.783,721.65 117.372,649.947 117.402,603.453 L116.526,592.767 C91.146,568.704 64.113,540.48 41.4,507.492 C64.467,504.672 74.106,497.622 81.87,489.642 C45.876,479.184 41.64,463.986 12.702,433.716 C52.272,424.668 75.264,414.684 91.401,399.882 C60.696,393.003 41.346,382.641 20.82,347.721 C58.932,345.438 76.056,346.665 88.578,337.5 C71.439,337.194 56.463,333.609 38.112,324.462 C55.404,307.194 92.556,270.54 131.277,254.679 C115.398,254.679 90.807,257.565 64.227,265.251 C105.699,201.231 189.153,168.144 274.554,145.659 C256.287,142.134 247.722,132.969 223.977,134.382 C422.067,35.22 431.949,63.417 664.395,108.06 C658.959,90.846 643.968,74.946 622.047,51.204 C715.623,63.993 780.54,86.931 814.617,120.369 C822,103.956 825.657,95.274 823.905,68.586 C850.938,95.373 886.947,126.147 883.659,155.049 C908.826,137.904 929.58,99.291 933.066,80.328 C946.278,98.853 964.896,121.326 962.355,155.163 C987.723,129.21 1014.867,130.149 1042.224,123.57 C1015.473,148.59 1004.097,168.54 989.457,192.267 C1021.713,186.306 1035.054,187.359 1055.874,201.105 C1020.711,219.714 1010.052,238.383 996.12,263.274 C1037.508,270.96 1017.21,342.081 986.535,348.978 C990.684,360.141 990.882,371.493 986.706,385.788 C982.92,396.462 1003.728,397.668 1020.555,404.748 C1025.115,403.605 1030.368,403.476 1036.239,404.112 C1057.752,406.452 1072.332,421.806 1067.661,438.06" fill="#7F4C2F" id="path91840"/>
    <path d="M823.431,671.058 C821.766,671.058 798.021,640.074 798.021,640.074 L765.084,677.397 L768.378,652.26 L721.17,677.397 L748.617,712.881 L860.133,712.881 C878.166,696.102 869.307,677.397 823.431,671.058 M176.448,709.695 L313.329,716.172 L321.372,693.033 C251.499,672.705 206.091,656.856 123.747,588.822 C118.977,607.797 144.816,681.564 176.448,709.695 M660.762,661.851 C641.784,655.479 609.879,654.339 572.166,655.551 C577.818,631.527 591.564,611.208 618.279,596.829 L531.228,603.861 C526.758,605.034 521.748,614.667 521.823,625.476 C533.571,680.004 558.24,709.185 584.4,735.438 L701.562,738.726 C713.883,734.577 720.273,724.635 715.665,703.953 z M1013.586,406.308 C976.632,400.218 975.444,390.684 979.197,351.516 C1019.997,329.235 1028.202,288.051 993.297,266.124 C976.221,281.643 971.421,302.178 968.307,329.265 C912.996,280.611 878.091,264.678 787.758,321.966 C792.129,267.342 803.121,205.374 728.148,238.824 C692.124,265.176 660.402,293.853 682.296,351.516 L577.98,380.211 C615.741,401.97 657.657,411.876 701.097,417.42 C671.958,433.914 634.365,446.457 602.625,454.056 C668.817,489.432 662.52,482.388 703.503,487.827 C684.873,506.67 664.02,517.779 640.74,520.455 C693.759,571.401 715.665,564.819 750.219,567.78 C813.264,617.769 938.502,585.909 991.224,538.308 C1012.536,515.388 1042.269,494.385 1047.402,469.509 C1068.534,422.859 1059.216,408.798 1013.586,406.308" fill="#FFB4B4" id="path91842"/>
    <g clip-path="url(#Clip_1)" id="g91846" opacity="0.2">
      <path d="M542.994,577.542 C556.107,564.3 572.109,553.638 594.753,548.913 C534.267,480.267 418.068,512.223 363.15,548.913 C452.886,535.857 506.457,540.696 542.523,560.157 C504.624,576.168 480.663,598.257 465.288,624.09 C531.231,603.858 555.993,593.754 614.751,597.63 C588.744,610.113 571.107,631.482 572.166,655.548 L602.28,655.548 C607.869,632.346 620.355,605.835 656.394,592.497 C630.864,574.011 584.4,566.088 542.994,577.542 M359.016,482.619 C369.453,476.691 415.878,464.079 450.3,458.811 C444.609,445.323 430.425,434.673 419.715,432.465 C432.555,425.193 459.807,420.198 488.412,415.419 C444,415.599 401.202,418.848 367.485,439.383 C394.713,441.582 419.187,443.304 432.42,454.422 C375.279,460.908 331.569,472.506 297.375,490.137 C328.896,493.269 343.32,492.612 375.483,507.813 C371.106,492.873 366.207,486.87 359.016,482.619 M1019.172,408.687 C1007.277,405.966 994.149,402.432 986.331,396.246 C985.98,395.238 985.635,394.221 985.362,393.153 C983.988,387.783 984.78,382.209 984.315,376.767 C983.523,367.479 981.522,357.723 976.845,349.635 C961.098,297.075 878.742,258.387 797.061,320.067 C796.125,319.539 795.189,319.008 794.322,318.327 C793.626,317.784 792.969,317.19 792.336,316.566 C793.173,307.845 792,298.35 791.574,289.86 C791.067,279.792 790.101,269.868 787.965,260.004 C786.171,251.724 784.104,241.512 778.947,234.549 C774.585,228.654 767.532,226.821 760.482,226.974 C733.854,229.374 713.463,243.426 696.168,260.565 C690.786,266.421 684.708,274.695 681.273,283.353 C678.441,288.339 677.106,294.18 678.282,299.511 C678.252,299.541 678.246,299.565 678.228,299.595 C678.132,299.766 678.228,299.886 678.417,299.946 C678.63,300.261 679.38,300.141 679.452,299.775 C679.482,299.664 679.494,299.556 679.515,299.448 C679.596,299.325 679.677,299.202 679.761,299.076 C690.129,287.643 700.158,275.994 713.046,267.249 C716.139,265.152 719.349,263.232 722.661,261.501 C731.643,258.339 741.297,257.694 751.311,261.018 C784.53,272.031 768.96,312.003 775.302,337.11 C775.98,338.481 776.49,337.968 778.011,337.485 C827.244,317.436 884.796,306.231 937.599,354.405 C971.64,390.519 959.424,421.998 1011.069,425.457 C1042.845,413.775 1054.992,430.602 1044.288,462.636 C1044.339,462.591 1044.384,462.54 1044.435,462.495 C1042.416,466.656 1030.146,497.469 1011.393,507.102 C997.737,514.614 982.188,518.217 967.053,521.397 C936.183,527.892 907.995,527.481 881.319,509.088 C880.281,507.765 877.56,506.841 876.405,505.611 C876.291,505.488 875.772,505.497 875.883,505.749 C880.692,516.81 889.749,524.409 900.453,528.507 C903.384,529.905 906.414,531.033 909.297,531.942 C922.794,536.205 937.242,536.037 951.237,535.707 C965.625,535.371 980.685,535.101 994.776,531.891 C1000.236,530.646 1005.591,528.783 1009.866,525.039 C1011.468,523.632 1021.203,514.41 1023.855,511.851 C1028.754,507.126 1036.416,500.448 1037.988,493.572 C1040.199,490.785 1047.06,465.459 1049.442,457.305 C1066.473,437.211 1071.69,403.362 1019.172,408.687 M253.383,346.341 C266.157,335.532 310.314,325.08 350.076,316.029 C286.968,321.663 223.926,327.354 187.389,357.969 C241.029,365.37 275.217,376.827 303.027,391.452 C291.849,357.969 277.554,352.479 253.383,346.341 M144.834,226.65 C229.95,197.664 309.405,144.636 425.475,172.23 C402.816,161.673 339.042,146.295 315.492,140.511 C278.697,138.159 267.459,134.814 242.802,129.342 C242.424,129.573 242.169,129.777 242.088,129.939 C240.678,132.759 274.554,145.686 274.554,145.686 C208.821,166.203 161.946,189 132.66,213.921 C129.351,216.156 89.634,251.886 89.634,251.886 L131.277,254.703 C94.773,275.763 74.85,296.163 68.463,316.029 C122.154,280.539 177.324,254.487 233.22,233.088 C208.116,225.921 179.337,222.99 144.834,226.65 M713.286,116.274 C748.191,118.827 778.185,127.101 820.005,176.412 C837.075,161.424 843.9,146.016 841.944,125.004 C860.229,147.513 868.677,187.74 859.902,220.548 C900.084,201.048 940.464,181.623 954.945,152.496 C954.915,126.462 949.059,106.029 935.181,93.285 C920.124,129.45 893.457,153.36 880.767,164.478 C873.765,129.912 858.93,100.929 827.004,84.123 C826.695,101.097 825.048,118.338 816.399,136.989 C782.361,104.847 724.317,80.643 646.512,62.976 L675.561,110.667 C675.561,110.667 708.957,148.59 712.929,156.573 C716.016,162.378 730.254,168.708 742.83,178.14 C736.731,160.095 721.551,128.223 713.286,116.274 M526.056,209.592 C541.455,197.433 577.98,183.51 625.338,168.708 C558.462,174.888 497.118,186.216 455.475,215.886 C515.748,226.593 564.717,241.806 598.515,263.064 C579.813,231.267 566.925,218.919 526.056,209.592" fill="#FFFFFF" id="path91844"/>
    </g>
    <g clip-path="url(#Clip_2)" id="g91850" opacity="0.2">
      <path d="M902.907,416.781 C903.177,418.419 905.529,418.365 906.663,417.762 C916.104,412.737 920.241,403.176 923.223,393.156 C926.232,383.043 927.819,373.344 925.002,362.862 C919.491,342.342 889.062,334.134 870.513,338.172 C851.814,342.243 830.682,351.201 821.028,368.661 C816.795,376.314 817.326,386.247 817.419,394.824 C817.47,399.117 818.01,403.452 819.408,407.52 C821.04,412.272 822.567,413.97 826.614,416.745 C827.52,417.366 829.407,417.183 829.653,415.95 C830.34,412.527 830.211,411.468 829.71,408.825 C830.889,401.826 836.946,394.458 842.238,391.011 C849.483,386.292 858.123,383.871 866.589,382.512 C875.469,381.09 885.135,381.258 892.788,386.559 C896.292,388.986 899.229,392.331 900.969,396.228 C902.295,399.204 902.388,401.937 904.098,404.598 C903.075,408.573 902.202,412.491 902.907,416.781 M792.402,573.174 C791.25,572.937 790.098,572.706 788.949,572.469 C788.895,572.439 788.853,572.433 788.799,572.421 C788.769,572.421 788.733,572.421 788.706,572.391 C789.198,572.472 789.69,572.541 790.185,572.628 C792.996,573.135 795.777,573.702 798.543,574.293 C796.503,573.882 794.457,573.507 792.402,573.165 M284.685,707.841 C284.415,708.246 284.127,708.63 283.833,709.002 C280.947,710.598 277.965,711.891 275.07,711.738 C277.251,707.172 277.44,701.382 275.745,696.705 C273.324,690.036 266.634,685.146 259.926,681.957 C267.549,683.37 276.054,685.203 285.864,687.441 C286.068,691.209 286.776,695.052 286.689,698.826 C286.611,702.135 286.587,704.958 284.685,707.841 M253.872,708.132 C248.721,707.826 243.384,708.708 238.272,708.828 C233.394,708.945 228.459,709.059 223.542,708.963 C215.625,707.694 208.296,706.443 202.224,699.702 C199.089,696.219 197.244,692.208 195.534,688.125 C215.457,681.06 229.584,677.142 250.905,680.412 C254.283,684.126 257.028,688.686 257.667,693.612 C258.414,699.354 255.732,703.383 253.872,708.132 M1031.397,454.275 C1028.421,449.73 1025.658,445.074 1023.18,440.271 C1022.754,436.965 1021.167,433.443 1020.3,430.371 C1018.371,423.549 1016.709,416.238 1012.293,410.568 C1012.563,409.299 1010.175,409.398 1009.512,409.728 C1003.626,412.653 999.636,421.635 998.895,427.866 C997.728,437.649 999.357,447.606 1002.249,456.978 C1006.98,472.311 1021.503,484.614 1037.694,479.865 C1036.614,485.673 1035.171,491.139 1032.012,496.506 C1028.043,503.247 1022.322,508.782 1016.388,513.801 C1010.721,518.598 1004.76,523.134 998.658,527.367 C995.577,529.506 991.92,531.312 988.533,533.358 C971.916,536.265 956.064,540.234 938.727,538.953 C928.98,538.23 919.164,536.316 909.855,533.352 C903.816,531.429 896.988,529.236 890.871,526.155 C890.7,525.987 890.529,525.825 890.367,525.654 C882.576,517.515 877.596,507.678 872.877,497.628 C872.49,496.8 870.711,496.887 870.54,497.829 C865.401,526.116 895.143,542.967 918.339,548.745 C932.118,552.177 946.827,553.326 960.972,551.994 C962.814,551.82 965.277,551.565 967.989,551.16 C964.776,553.272 961.404,555.204 958.119,557.238 C950.115,558.972 942.243,561.9 934.377,563.958 C924.666,566.493 914.961,569.049 905.19,571.35 C885.363,576.024 865.197,578.802 844.791,578.211 C824.964,577.638 805.356,573.012 785.757,570.279 C769.575,568.023 753.426,569.004 737.232,570.243 C703.851,563.634 662.238,544.815 640.743,520.446 C668.538,514.644 692.406,505.947 703.506,487.818 C680.13,486.564 644.46,473.31 602.628,454.044 C642.738,448.575 681.327,433.695 701.1,417.411 C664.815,412.629 644.16,410.088 574.311,380.658 C611.937,377.526 641.127,372.273 667.119,359.466 C676.158,368.862 698.577,384.165 720.435,386.742 C705.138,375.363 698.088,368.709 692.856,360.201 C690,355.554 686.715,351.105 683.862,346.374 C683.466,345.534 676.311,329.619 675.075,323.985 C674.229,320.118 676.731,303.915 678.087,299.859 C680.637,292.224 683.424,284.574 687.114,277.404 C690.291,271.227 726.036,243.066 740.688,238.623 C749.943,235.818 759.468,233.796 769.071,232.716 C769.794,232.635 783.135,247.149 785.586,255.714 C787.347,261.882 787.833,268.482 788.511,274.848 C789.075,280.194 784.65,304.845 784.845,305.484 C784.122,308.724 783.957,312.015 784.572,315.297 C784.788,316.44 787.752,315.489 787.872,315.333 C788.043,315.387 864.957,279.366 908.973,285.186 C913.8,287.16 917.451,291.072 921.747,293.679 C923.595,296.481 926.184,299.034 929.181,301.593 C936.249,307.629 944.118,312.297 951.783,317.49 C956.226,320.496 960.558,323.664 964.419,327.399 C967.197,330.084 969.231,332.979 972.588,334.581 C979.368,344.385 982.533,344.25 993.786,341.139 C1002.27,327.651 1002.27,296.637 982.509,280.83 C985.317,272.097 988.647,263.541 992.82,255.351 C997.68,245.82 1003.617,236.796 1010.67,228.738 C1016.952,221.562 1036.692,203.466 1040.754,201.999 C1041.75,201.642 1040.784,200.817 1040.073,200.979 C1025.385,204.324 1011.825,209.511 999.738,218.763 C987.384,228.222 977.076,240.045 968.709,253.11 C959.946,266.781 946.956,296.598 946.2,295.053 C946.443,292.272 946.068,289.218 946.278,286.284 C946.845,278.412 948.012,270.621 949.482,262.872 C952.284,248.157 956.709,233.31 961.92,219.225 C965.388,212.775 996.462,169.929 999.624,166.506 C1002.666,163.209 1013.466,146.049 1013.022,146.082 C982.707,155.541 928.596,223.446 926.418,259.59 C895.659,243.888 836.373,248.586 811.731,267.138 C811.989,258.057 809.082,199.245 754.59,203.367 C651.453,218.04 629.337,272.553 637.11,317.841 C641.337,334.347 643.209,336.441 648.225,343.248 C621.681,355.155 574.725,370.749 529.35,380.166 C569.817,423.162 590.52,429.036 623.457,430.917 C613.278,439.167 590.754,446.658 564.639,451.593 C586.002,477.888 625.602,496.272 651.687,501.405 C636.402,508.878 608.964,517.245 582.99,520.674 C637.428,603.441 669.981,623.967 714.003,632.586 L664.623,658.356 L663.948,660.162 C661.461,659.643 658.794,659.196 655.923,658.83 L573.279,657.534 C573.882,655.221 574.518,652.932 575.247,650.706 C577.314,644.409 592.872,616.065 592.872,616.065 L618.279,596.82 C590.682,589.764 548.61,595.911 489.966,617.166 C489.966,617.169 489.936,617.166 489.921,617.166 C482.292,618.465 474.783,620.451 467.214,622.077 C474.003,612.807 481.131,603.726 487.662,594.279 C504.342,580.491 523.935,568.5 548.64,559.668 C508.605,542.625 445.911,538.176 350.076,552.147 C438.72,559.41 442.629,583.05 473.703,603.999 C467.211,612.981 470.307,613.905 463.932,622.959 C463.35,623.787 464.649,624.207 465.288,624.072 C470.967,622.866 476.649,621.891 482.4,621.342 C462.441,635.835 461.172,642.219 458.298,661.17 C463.587,658.107 468.987,655.155 474.45,652.332 C476.673,659.703 479.031,666.24 481.5,672.069 C348.495,673.218 230.937,637.092 75.762,515.028 C86.475,538.656 101.514,561.741 120.69,583.278 C118.467,606.402 137.7,671.385 161.286,700.062 C165.594,698.676 169.614,697.32 173.415,696.003 C181.29,705.855 194.82,711.525 206.742,713.433 C215.292,714.801 224.04,714.828 232.665,714.426 C235.98,714.273 239.688,714.348 243.432,714.264 C242.883,714.618 242.454,715.053 242.289,715.644 C242.157,716.112 242.484,716.514 242.937,716.649 C244.266,717.039 245.724,716.931 247.188,716.589 C252.627,718.302 258.96,718.536 265.227,718.437 C266.271,718.74 267.546,718.671 268.35,718.371 C272.19,718.263 275.943,718.113 279.372,718.188 C284.415,718.299 297.387,720.693 301.926,715.998 C309.702,712.125 306.636,698.739 301.212,690.996 C303.975,691.647 306.822,692.316 309.78,693.015 L309.726,692.982 C366.096,707.49 431.316,713.133 504.882,706.284 L548.172,702.276 C538.002,680.466 524.352,657.864 522.141,633.321 C544.863,625.674 566.472,620.217 583.755,621.651 C570.78,637.446 567.582,650.229 561.816,687.957 C603.57,673.998 641.232,668.376 672.882,675.006 C678.603,678.897 684.753,681.69 691.965,680.736 C692.784,680.628 693.624,680.499 694.467,680.364 C698.67,680.049 702.867,679.227 707.178,678.759 C711.294,678.312 717.231,677.265 721.575,678.543 C728.148,698.07 739.617,707.913 752.853,714.273 C754.095,713.538 781.023,716.652 790.452,716.511 C794.166,716.454 797.826,716.316 801.414,716.004 C808.458,715.77 836.196,715.785 842.952,715.287 C847.473,715.347 851.973,715.128 856.419,714.144 C859.305,713.505 867.819,710.604 865.083,706.32 C865.527,702.735 857.697,684.963 850.233,683.01 C851.931,690.3 852.138,694.212 849.594,701.244 C849.711,694.635 842.043,681.729 831.402,679.734 C833.307,683.748 835.899,691.992 836.031,697.764 C835.722,698.691 832.827,700.272 832.527,700.317 C827.586,701.07 823.068,702.522 817.971,702.522 C812.661,702.522 807.258,702.324 801.966,701.889 C794.43,701.268 785.535,700.764 777.981,697.893 C798.576,682.794 808.779,669.714 810.123,658.347 C810.123,658.347 798.483,644.943 798.024,640.056 L854.304,594.876 C857.664,594.435 861.012,593.829 864.351,593.064 C865.974,592.692 867.882,592.311 869.868,591.864 C882.693,589.716 895.371,586.971 908.037,583.293 C918.597,580.227 929.043,576.765 939.132,572.376 C945.363,569.664 952.929,566.853 958.818,562.677 C966.081,560.421 973.407,555.588 979.077,551.16 C981.345,549.39 983.418,547.524 985.44,545.574 C987.006,544.527 988.293,543.306 989.184,541.887 C991.887,539.349 995.094,537 996.675,533.679 C996.738,533.631 996.804,533.589 996.867,533.541 C997.23,533.262 997.281,533.013 997.17,532.8 C997.764,532.392 998.355,531.981 998.937,531.567 C1007.76,526.722 1015.956,520.029 1022.589,512.892 C1031.889,504.372 1042.602,491.559 1041.744,478.236 C1042.821,477.51 1043.643,476.43 1043.688,475.344 C1044.09,475.113 1044.339,474.747 1044.282,474.192 C1043.544,467.145 1035.195,460.065 1031.397,454.266 M146.808,453.699 C118.407,465.774 84.696,464.508 32.469,440.775 C44.019,462.132 66.9,481.347 107.337,497.232 C124.713,483.273 138.51,468.843 146.808,453.699 M113.988,398.484 C124.104,391.434 130.02,384.681 134.454,380.862 C102.84,386.337 76.299,372.144 49.761,357.951 C62.652,382.557 82.362,398.28 113.988,398.484 M115.752,332.928 C126.696,324.744 132.393,318.459 134.454,313.491 C109.986,324.09 87.873,325.527 68.463,316.011 C74.964,330.546 88.392,338.427 115.752,332.928 M319.638,447.825 C336.627,447.363 347.502,450.636 363.723,453.465 C339.726,455.343 280.908,469.005 243.501,512.676 L373.692,506.553 C356.901,496.815 332.535,490.809 297.375,490.119 C338.676,472.632 382.452,457.896 436.326,453.624 C436.326,453.624 418.539,441.363 367.485,439.365 C388.542,427.971 418.185,416.34 474.798,415.725 C428.892,397.575 350.547,406.287 319.638,447.825 M186.333,353.679 C207.975,339.978 275.22,317.655 329.517,318.672 C283.968,307.788 204.918,310.137 136.926,364.647 C165.156,383.445 230.874,386.367 303.03,391.434 z M460.887,213.48 C503.985,186.003 542.526,184.668 600.507,171.378 C554.523,160.467 451.242,168.894 377.604,229.356 C479.709,259.149 515.469,263.046 598.518,263.046 C561.342,243.207 517.914,225.753 460.887,213.48" fill="#300C00" id="path91848"/>
    </g>
    <path d="M746.97,270.213 C706.038,278.019 701.364,311.049 708.156,340.233 C716.706,360.858 743.205,357.267 759.204,340.233 C770.142,313.212 766.857,279.243 746.97,270.213" fill="#F46262" id="path91852"/>
    <g clip-path="url(#Clip_3)" id="g91856" opacity="0.5">
      <path d="M715.689,287.133 C713.79,294.489 713.325,302.409 713.496,309.129 C713.775,320.013 718.329,335.361 732.078,333.342 C743.127,331.719 751.476,322.086 756.609,312.006 C757.47,306.759 757.761,301.434 757.662,296.388 C757.509,288.477 756.576,279.783 752.334,273.561 C750.699,272.229 748.917,271.098 746.97,270.213 C732.213,273.027 722.178,279.123 715.689,287.133" fill="#FF8F8F" id="path91854"/>
    </g>
    <path d="M1042.014,407.964 C1038.54,407.349 1026.534,407.733 1024.119,408.159 C986.592,414.201 1021.848,465.009 1030.797,467.034 C1041.303,469.41 1049.28,464.427 1054.917,455.982 C1062.129,445.179 1069.782,417.891 1042.014,407.964" fill="#5B5D60" id="path91858"/>
    <path d="M1047.393,433.044 C1047.024,432.636 1046.655,432.225 1046.262,431.829 C1036.863,422.394 1022.556,418.389 1008.804,417.864 C1001.046,434.46 1023.843,465.462 1030.797,467.034 C1033.122,467.562 1035.318,467.709 1037.397,467.553 C1044.438,460.146 1049.508,451.203 1048.896,440.763 C1048.743,438.153 1048.221,435.555 1047.393,433.044" fill="#3C3C3B" id="path91860"/>
    <g clip-path="url(#Clip_4)" id="g91864" opacity="0.3">
      <path d="M1041.048,419.721 C1041.048,422.616 1036.35,424.962 1030.554,424.962 C1024.755,424.962 1020.057,422.616 1020.057,419.721 C1020.057,416.826 1024.755,414.48 1030.554,414.48 C1036.35,414.48 1041.048,416.826 1041.048,419.721" fill="#F6F6F6" id="path91862"/>
    </g>
    <path d="M625.338,168.708 C548.406,168.708 464.781,194.676 431.949,217.107 C502.713,229.002 555.237,245.004 598.518,263.064 C560.883,237.534 503.601,214.356 465.828,212.877 C502.656,192.927 561.801,180.903 625.338,168.708 M350.076,316.029 C270.081,314.607 223.5,330.366 165.156,358.563 C222.213,367.95 254.553,376.185 303.027,391.452 C254.991,367.416 224.613,359.436 199.035,355.743 C236.472,341.052 257.616,327.069 350.076,316.029 M729.09,351.513 C715.185,351.513 708.156,336.867 708.156,315.324 C708.156,293.784 730.713,272.088 744.618,272.088 C758.523,272.088 762.729,296.601 762.729,318.144 C762.729,339.684 742.995,351.513 729.09,351.513 M744.618,267.858 C726.621,267.858 701.097,291.33 701.097,315.324 C701.097,341.997 712.686,358.563 729.09,358.563 C745.494,358.563 768.375,343.182 768.375,318.144 C768.375,285.72 759.933,267.858 744.618,267.858 M372.663,439.383 C399.438,422.058 434.235,418.632 488.412,415.419 C437.229,410.709 396.123,416.334 350.076,443.613 C389.319,443.979 411.762,442.683 426.303,453.144 C378.984,452.313 319.26,470.4 275.22,495.774 C324.3,495.126 352.149,499.398 375.483,507.816 C365.844,496.917 334.308,486.852 303.495,490.137 C338.106,471.456 385.719,460.8 444.654,455.994 C428.985,445.518 409.758,435.945 372.663,439.383 M199.035,355.743 C236.472,341.052 257.616,327.069 350.076,316.029 C270.081,314.607 223.5,330.366 165.156,358.563 C222.213,367.95 254.553,376.185 303.027,391.452 C254.991,367.416 224.613,359.436 199.035,355.743 M350.076,443.613 C389.319,443.979 411.762,442.683 426.303,453.144 C378.984,452.313 319.26,470.4 275.22,495.774 C324.3,495.126 352.149,499.398 375.483,507.816 C365.844,496.917 334.308,486.852 303.495,490.137 C338.106,471.456 385.719,460.8 444.654,455.994 C428.985,445.518 409.758,435.945 372.663,439.383 C399.438,422.058 434.235,418.632 488.412,415.419 C437.229,410.709 396.123,416.334 350.076,443.613 M465.828,212.877 C502.656,192.927 561.801,180.903 625.338,168.708 C548.406,168.708 464.781,194.676 431.949,217.107 C502.713,229.002 555.237,245.004 598.518,263.064 C560.883,237.534 503.601,214.356 465.828,212.877 M729.09,351.513 C715.185,351.513 708.156,336.867 708.156,315.324 C708.156,293.784 730.713,272.088 744.618,272.088 C758.523,272.088 762.729,296.601 762.729,318.144 C762.729,339.684 742.995,351.513 729.09,351.513 M744.618,267.858 C726.621,267.858 701.097,291.33 701.097,315.324 C701.097,341.997 712.686,358.563 729.09,358.563 C745.494,358.563 768.375,343.182 768.375,318.144 C768.375,285.72 759.933,267.858 744.618,267.858 M1055.283,435.762 C1053.432,442.203 1051.188,448.026 1048.788,452.862 C1042.59,466.662 1024.734,482.595 1011.069,425.457 C1011.069,403.647 1045.077,410.598 1053.264,424.074 C1055.451,427.98 1056.453,431.73 1055.283,435.762 M989.289,528.171 C940.179,531.81 906.498,545.457 870.957,496.479 C883.365,543.411 930.681,543.312 981.342,538.647 C926.925,580.488 823.341,601.848 758.043,571.932 C767.076,571.86 776.265,571.368 785.556,570.492 C736.5,563.091 680.742,562.389 651.453,522.561 C679.965,516.345 699.573,501.822 711.444,484.497 C668.802,478.152 645.099,472.515 611.22,453.483 C646.329,449.436 681.207,438.258 715.68,414.009 C669.633,409.68 627.369,400.716 584.4,381.585 C630.42,374.775 663.495,366.78 681.801,357.42 C690.117,368.559 702.861,378.792 721.299,387.21 C719.463,385.941 631.689,324.657 722.271,250.476 C811.908,187.98 775.914,338.346 775.914,338.346 C860.481,271.086 915.66,281.25 964.122,336.471 C978.702,356.208 977.529,363.498 971.646,390.507 C968.439,403.449 991.152,402.9 1008.543,412.02 C1006.128,414.87 1004.238,418.521 1002.927,423.117 C998.268,439.383 1019.355,470.469 1035.645,475.137 C1035.717,475.137 1035.774,475.179 1035.843,475.194 C1028.376,500.793 1007.004,524.055 989.289,528.171 M768.615,666.357 L773.556,645.213 C744.195,662.1 714.819,674.604 685.416,679.173 C676.395,672.111 668.574,664.992 664.623,658.365 C647.697,651.261 614.991,647.328 578.403,654.375 C584.4,635.274 594.072,615.831 629.925,595.446 C587.463,581.772 536.055,595.884 476.766,616.311 C485.574,595.953 515.289,578.586 559.344,558.51 C507.357,537.363 420.897,532.896 350.076,552.168 C442.224,543.468 491.235,544.653 536.055,560.625 C499.707,570.537 469.821,604.566 453.828,631.818 C504.165,615.564 565.812,595.446 607.692,600.45 C577.824,611.955 570.933,636.753 561.816,662.481 C604.671,658.632 637.449,658.773 655.194,664.848 C666.372,677.058 679.698,687.39 695.196,695.823 C720.831,700.77 715.044,733.335 699.912,733.548 L685.866,732.096 C694.533,716.124 689.283,682.908 654.036,695.019 C691.923,692.679 685.089,731.448 668.151,731.673 L657.96,731.673 C664.665,717.195 657.099,690.366 622.98,702.084 C660.147,699.786 656.985,730.266 640.851,731.631 L605.577,731.223 C575.466,730.278 536.322,678.468 521.826,625.488 C520.878,645.537 528.84,672.717 542.109,695.568 C361.398,710.415 216.159,702.183 75.759,515.061 C90.483,511.734 105.87,499.074 119.985,486.387 C85.896,472.488 57.297,470.949 32.466,440.808 C57.876,438.693 92.106,420.015 113.985,398.517 C81.702,383.544 66.33,376.596 49.758,357.984 C70.044,357.633 95.283,351.288 115.752,332.961 C94.338,329.325 82.41,324.504 68.463,316.044 C88.224,299.481 132.675,265.068 173.979,246.261 C157.041,241.326 124.686,240.792 105.87,244.851 C153.51,190.926 219.744,184.062 315.492,140.529 C293.964,134.016 277.236,128.643 253.62,128.475 C325.641,94.104 412.185,28.452 705.798,146.802 C697.569,127.458 686.544,102.42 664.395,79.443 C753.327,96.303 781.488,127.248 819.192,157.446 C833.082,137.709 839.745,121.311 836.133,96.825 C857.517,121.059 863.898,147.111 871.422,194.565 C906.486,171.543 931.653,136.299 934.011,104.817 C949.017,130.503 948.072,155.556 943.908,186.177 C937.344,195.255 931.443,205.518 926.475,217.122 C953.535,192.042 977.772,160.266 1010.238,146.166 C967.749,182.214 945.954,256.029 939.615,299.211 C894.333,266.448 853.185,270.225 795.675,310.167 C812.247,182.664 737.559,221.124 705.093,246.261 C681.378,264.615 656.775,308.967 675.336,346.875 C655.419,359.001 614.214,369.249 566.052,380.19 C606.126,400.983 642.276,416.49 689.565,416.844 C673.248,434.013 636.546,441.276 594.282,452.088 C627.483,481.128 661.275,490.758 695.211,488.742 C691.245,503.022 664.395,510.96 632.397,518.346 C660.684,555.861 701.058,569.973 745.959,571.749 C764.268,587.793 798.711,596.52 837.345,596.844 C808.62,610.941 789.237,632.229 768.615,666.372 M821.775,675.876 C818.4,675.594 814.575,675.945 810.255,677.115 C845.787,679.527 838.659,708.087 807.9,708.666 L792.498,707.526 L792.456,707.496 L763.674,705.369 C747.102,704.325 736.557,688.578 731.856,676.626 C742.344,672.057 752.721,666.261 762.969,659.313 L758.733,692.442 C770.406,676.665 782.196,662.031 794.685,648.81 C800.277,657.876 810.159,666.882 821.775,675.864 M828.819,677.4 C853.551,680.376 855.837,701.604 838.347,708.201 C843.642,698.292 840.834,682.617 828.594,677.469 z M848.61,709.908 C854.199,701.688 857.601,688.086 849.372,680.769 C866.991,688.029 872.592,706.497 848.61,709.908 M301.137,711.558 L287.091,710.121 C289.644,705.384 290.985,699.153 290.676,693.033 C298.2,695.43 305.754,697.629 313.332,699.63 C311.694,706.23 307.191,711.474 301.137,711.558 M269.376,709.698 L259.182,709.668 C265.887,695.193 258.321,668.364 224.205,680.091 C261.372,677.781 258.21,708.258 242.076,709.629 L206.799,709.218 C181.857,709.698 145.155,670.125 134.397,604.02 C180.84,645.06 230.937,672.774 282.855,690.441 C283.761,699.858 277.845,709.572 269.376,709.698 M1037.991,201.135 C977.928,235.266 973.182,286.44 966.141,321.969 C958.686,314.649 951.429,308.223 944.289,302.709 C947.901,272.655 955.863,242.865 971.856,212.484 C999.708,196.767 1018.212,196.581 1037.991,201.135 M982.485,343.056 C980.028,338.601 976.965,334.062 973.296,329.271 C976.374,307.11 981.201,288.063 989.205,271.215 C1013.259,272.499 1019.892,325.422 982.485,343.056 M1036.239,404.142 C1030.368,403.509 1025.115,403.635 1020.555,404.778 C1003.731,397.701 982.923,396.489 986.706,385.818 C990.885,371.523 993.51,362.991 989.361,351.825 C1020.033,344.934 1037.511,270.99 996.12,263.307 C1010.055,238.41 1029.183,218.337 1064.343,199.728 C1043.523,185.982 1028.772,180.693 996.516,186.657 C1011.156,162.933 1015.473,148.623 1042.224,123.6 C1014.87,130.182 987.723,129.237 962.355,155.193 C964.896,121.356 946.278,98.886 933.066,80.361 C929.58,99.324 908.829,137.937 883.659,155.079 C886.95,126.18 850.938,95.403 823.905,68.616 C825.657,95.304 822,103.989 814.62,120.399 C780.543,86.958 715.623,64.02 622.047,51.234 C643.971,74.976 658.962,90.879 664.395,108.09 C531.114,41.127 341.253,28.44 211.275,135.822 C235.017,134.412 243.585,140.757 261.852,144.279 C176.448,166.767 100.053,205.491 58.581,269.508 C85.161,261.825 105.516,257.526 121.398,257.526 C82.677,273.387 49.758,307.221 32.466,324.492 C50.817,333.642 61.56,337.221 78.696,337.533 C66.174,346.695 58.935,345.468 20.82,347.751 C41.346,382.671 46.581,398.673 77.286,405.552 C61.149,420.357 39.567,421.878 0,430.929 C28.938,461.196 40.23,479.214 76.227,489.675 C68.463,497.655 64.467,504.702 41.403,507.522 C64.116,540.51 91.146,568.734 116.526,592.8 L117.402,603.486 C117.372,649.98 162.786,721.68 192.216,720.975 C201.717,721.413 242.682,725.67 250.797,720.975 C258.21,723.162 272.199,724.965 282.15,721.188 C290.097,724.725 306.669,723.429 311.964,721.425 C317.751,719.466 323.283,709.698 325.812,701.733 C401.91,720.399 473.76,719.82 549.945,709.881 C562.662,727.572 580.083,741.543 592.404,741.543 C601.905,741.981 641.457,746.253 649.575,741.543 C656.985,743.742 670.974,745.548 680.925,741.771 C688.872,745.308 701.112,743.715 706.506,742.008 C723.303,737.16 726.858,707.286 710.937,695.826 C707.025,693.021 702.948,690.132 698.91,687.198 C705.501,686.181 709.215,684.66 715.707,682.656 C724.377,694.656 740.565,720.552 756.558,720.552 C766.017,719.988 795.9,720.72 820.068,720.552 C824.697,720.582 831.714,718.182 836.16,718.155 C841.284,718.185 846.378,718.185 851.193,718.155 C876.276,718.185 882.6,679.332 849.132,674.157 C843.36,673.254 837.726,671.619 832.518,668.982 C828.693,667.053 824.796,664.587 820.278,660.948 C813.336,654.927 807.447,648.132 803.214,640.098 C822.621,620.571 841.029,607.29 866.184,595.575 C917.595,590.643 964.755,575.628 995.46,539.721 C1016.448,538.254 1046.376,504.801 1052.175,469.275 C1059.546,461.451 1064.811,448.059 1067.661,438.09 C1072.335,421.836 1057.752,406.485 1036.239,404.142 M199.035,355.746 C236.472,341.055 257.616,327.072 350.076,316.032 C270.081,314.61 223.5,330.369 165.156,358.566 C222.213,367.953 254.553,376.188 303.027,391.455 C254.991,367.419 224.613,359.439 199.035,355.746 M350.076,443.616 C389.319,443.982 411.762,442.686 426.303,453.147 C378.984,452.316 319.26,470.403 275.22,495.777 C324.3,495.129 352.149,499.401 375.483,507.819 C365.844,496.92 334.308,486.855 303.495,490.14 C338.106,471.459 385.719,460.803 444.654,455.997 C428.985,445.521 409.758,435.948 372.663,439.386 C399.438,422.061 434.235,418.635 488.412,415.422 C437.229,410.712 396.123,416.337 350.076,443.616 M625.338,168.711 C548.406,168.711 464.781,194.679 431.949,217.11 C502.713,229.005 555.237,245.007 598.518,263.067 C560.883,237.537 503.601,214.359 465.828,212.88 C502.656,192.93 561.801,180.906 625.338,168.711 M729.09,351.516 C715.185,351.516 708.156,336.87 708.156,315.327 C708.156,293.787 730.713,272.091 744.618,272.091 C758.523,272.091 762.729,296.604 762.729,318.147 C762.729,339.687 742.995,351.516 729.09,351.516 M744.618,267.861 C726.621,267.861 701.097,291.333 701.097,315.327 C701.097,342 712.686,358.566 729.09,358.566 C745.494,358.566 768.375,343.185 768.375,318.147 C768.375,285.723 759.933,267.861 744.618,267.861" fill="#4C2311" id="path91866"/>
    <path d="M848.61,709.905 C854.202,701.685 857.601,688.083 849.372,680.766 C866.991,688.026 872.595,706.494 848.61,709.905 M838.347,708.198 C843.642,698.289 840.834,682.614 828.594,677.466 L828.819,677.397 C853.551,680.373 855.837,701.601 838.347,708.198 M849.132,674.154 C843.36,673.251 837.726,671.616 832.518,668.979 C828.693,667.05 824.796,664.581 820.281,660.945 C813.336,654.924 807.447,648.129 803.214,640.095 C803.778,639.525 792.303,651.327 794.688,648.807 C800.277,657.87 810.159,666.879 821.775,675.861 C818.403,675.576 814.578,675.93 810.258,677.1 C845.787,679.512 838.659,708.072 807.9,708.651 L792.498,707.508 L792.456,707.478 L763.674,705.351 C747.102,704.307 736.557,688.56 731.856,676.605 C732.381,676.377 714.69,682.953 715.707,682.638 C724.377,694.638 740.568,720.534 756.561,720.534 C766.017,719.97 795.9,720.702 820.068,720.534 C824.697,720.534 831.714,718.164 836.16,718.137 C841.284,718.137 846.378,718.137 851.193,718.137 C876.276,718.167 882.603,679.311 849.132,674.139 M1055.283,435.747 C1053.432,442.188 1051.188,448.011 1048.788,452.847 C1042.593,466.647 1024.734,482.58 1011.072,425.442 C1011.072,403.632 1045.077,410.583 1053.264,424.059 C1055.451,427.965 1056.453,431.715 1055.283,435.747 M1036.239,404.124 C1030.368,403.491 1025.115,403.617 1020.555,404.76 C1003.731,397.683 982.923,396.471 986.706,385.797 C990.885,371.502 993.51,362.973 989.361,351.807 C1020.036,344.913 1037.511,270.972 996.123,263.286 C997.815,260.265 988.344,273.009 989.205,271.197 C1013.259,272.481 1019.892,325.404 982.485,343.038 C980.031,338.583 976.968,334.044 973.299,329.25 L966.141,321.948 C958.686,314.631 951.429,308.202 944.289,302.691 L939.615,299.181 C894.333,266.418 853.185,270.195 795.675,310.134 C812.247,182.634 737.559,221.094 705.093,246.231 C681.378,264.585 656.775,308.937 675.336,346.845 L681.801,357.405 C690.117,368.541 702.861,378.777 721.299,387.192 C719.463,385.923 631.689,324.642 722.271,250.461 C811.908,187.965 775.914,338.331 775.914,338.331 C860.484,271.071 915.66,281.235 964.122,336.456 C978.702,356.193 977.532,363.48 971.646,390.492 C968.442,403.434 991.155,402.885 1008.546,412.005 C1006.131,414.852 1004.238,418.503 1002.927,423.102 C998.268,439.368 1019.358,470.454 1035.645,475.122 C1035.717,475.122 1035.774,475.164 1035.846,475.179 C1028.379,500.778 1007.007,524.04 989.292,528.156 C940.179,531.792 906.501,545.442 870.957,496.464 C883.365,543.396 930.681,543.297 981.342,538.632 C926.925,580.473 823.344,601.83 758.043,571.914 C752.607,572.112 751.128,572.013 745.959,571.719 C764.268,587.763 798.711,596.487 837.345,596.811 L866.184,595.557 C917.595,590.622 964.758,575.61 995.46,539.703 C1016.448,538.236 1046.376,504.783 1052.175,469.257 C1059.546,461.433 1064.811,448.041 1067.664,438.072 C1072.335,421.818 1057.752,406.464 1036.239,404.124 M313.332,699.612 C311.694,706.212 307.191,711.456 301.137,711.54 L287.091,710.103 C289.647,705.366 290.988,699.132 290.676,693.015 C291.369,693.237 280.068,689.472 282.858,690.42 C283.761,699.837 277.845,709.554 269.376,709.68 L259.185,709.65 C263.274,700.821 262.038,687.414 252.729,680.943 C249.981,679.335 249.981,679.335 246.3,678.03 C240.711,676.566 233.439,676.899 224.205,680.073 C261.372,677.76 258.21,708.24 242.076,709.608 L206.799,709.2 C181.857,709.68 145.155,670.107 134.4,604.002 C126.246,598.941 114.468,590.829 116.529,592.782 L117.402,603.468 C117.372,649.959 162.786,721.662 192.219,720.957 C201.717,721.395 242.682,725.652 250.8,720.957 C258.21,723.141 272.199,724.947 282.15,721.167 C290.097,724.707 306.669,723.411 311.964,721.407 C317.751,719.448 323.286,709.68 325.812,701.715 C326.757,701.946 312.153,699.3 313.332,699.612 M710.937,695.808 C707.028,693.003 702.948,690.111 698.91,687.18 C685.416,679.155 685.416,679.155 676.962,672.153 C671.391,667.341 669.909,665.277 664.623,658.35 C663.009,660.264 659.394,663.348 655.194,664.833 C659.535,669.372 662.274,672.129 666.435,675.801 C675.018,683.349 684.585,690.036 695.199,695.808 C720.831,700.755 715.044,733.32 699.912,733.533 L685.866,732.078 C694.536,716.106 689.283,682.893 654.036,695.004 C691.923,692.661 685.089,731.43 668.151,731.658 L657.96,731.658 C664.665,717.18 657.099,690.351 622.98,702.066 C660.147,699.768 656.985,730.248 640.851,731.616 L605.577,731.208 C575.466,730.263 536.322,678.453 521.826,625.473 C520.881,645.519 528.843,672.702 542.109,695.553 L549.945,709.878 C562.662,727.569 580.083,741.54 592.407,741.54 C601.905,741.978 641.457,746.25 649.575,741.54 C656.985,743.739 670.974,745.545 680.925,741.765 C688.872,745.305 701.112,743.712 706.506,742.005 C723.303,737.154 726.861,707.283 710.937,695.823 M729.09,351.513 C715.185,351.513 708.156,336.867 708.156,315.324 C708.156,293.781 730.713,272.085 744.618,272.085 C758.523,272.085 762.729,296.601 762.729,318.144 C762.729,339.684 742.995,351.513 729.09,351.513 M768.375,318.144 C768.375,285.717 759.933,267.858 744.618,267.858 C726.621,267.858 701.1,291.33 701.1,315.324 C701.1,341.997 712.689,358.56 729.09,358.56 C745.494,358.56 768.375,343.179 768.375,318.144" fill="#E5644E" id="path91868"/>
    <path d="M729.09,351.513 C715.185,351.513 708.156,336.867 708.156,315.324 C708.156,293.781 730.713,272.085 744.618,272.085 C758.523,272.085 762.729,296.601 762.729,318.144 C762.729,339.684 742.995,351.513 729.09,351.513 M744.618,267.858 C726.621,267.858 701.097,291.333 701.097,315.324 C701.097,341.997 712.686,358.56 729.09,358.56 C745.494,358.56 768.375,343.179 768.375,318.144 C768.375,285.717 759.933,267.858 744.618,267.858" fill="#C12D2D" id="path91870"/>
    <path d="M1053.264,424.074 C1055.451,427.98 1056.453,431.73 1055.283,435.762 C1053.432,442.203 1051.188,448.026 1048.788,452.862 C1042.593,466.662 1024.734,482.595 1011.072,425.457 C1011.072,403.647 1045.077,410.598 1053.264,424.074 M1002.927,423.117 C998.268,439.383 1019.358,470.469 1035.645,475.137 C1035.717,475.167 1035.774,475.179 1035.846,475.194 C1041.351,475.932 1047.63,473.118 1052.175,469.272 C1059.546,461.448 1064.811,448.056 1067.664,438.087 C1072.335,421.833 1057.752,406.482 1036.239,404.139 C1030.368,403.506 1025.115,403.632 1020.555,404.775 C1012.44,407.577 1008.546,412.02 1008.546,412.02 C1006.131,414.87 1004.238,418.521 1002.927,423.117" fill="#2D2D2D" id="path91872"/>
    <path d="M633.807,138.159 L376.629,130.194 C356.133,118.917 334.536,108.921 311.892,100.788 C279.441,89.112 244.869,81.288 208.452,79.062 C282.843,51.654 311.652,48.765 374.652,61.452 C363.195,43.263 348.636,26.649 322.311,16.917 C376.431,16.482 450.3,44.184 503.349,85.884 L509.277,87.027 C495.795,54.885 488.607,20.898 459.714,0.003 C542.787,30.24 582.171,69.108 616.305,114.138 C616.305,114.168 616.305,114.18 616.305,114.18 C622.233,121.989 627.993,129.984 633.795,138.159" fill="#7F4C2F" id="path91874"/>
    <g clip-path="url(#Clip_5)" id="g91878" opacity="0.2">
      <path d="M363.486,30.087 C428.736,60.927 470.442,98.403 491.235,141.762 C499.428,127.941 507.639,106.857 510.051,94.233 C474.615,51.207 425.685,29.946 363.486,30.087 M705.798,146.79 L670.02,132.597 L616.302,114.138 C585.015,72.393 542.637,35.409 497.856,28.029 C622.278,149.91 584.4,146.094 742.83,178.14 C733.518,170.817 720,168.708 705.798,146.79" fill="#FFFFFF" id="path91876"/>
    </g>
    <path d="M497.856,28.026 C508.287,44.295 515.118,76.128 510.051,94.23 C469.242,64.173 446.064,51.048 363.486,30.084 C383.529,48.882 388.284,58.155 399.834,80.244 C346.899,62.973 305.85,58.746 255.966,73.308 C295.362,76.89 311.622,81.963 335.055,92.142 L311.892,100.785 C279.441,89.112 244.869,81.288 208.449,79.062 C282.84,51.654 303.846,49.173 367.593,57.222 C355.194,37.989 344.478,30.801 322.308,16.917 C388.308,15.465 430.059,25.689 493.008,58.74 C493.008,58.74 483.969,22.335 459.714,-0 C526.527,19.038 580.431,55.494 609.717,86.586 C619.737,97.221 607.605,102.657 616.302,114.135 C616.302,114.165 616.302,114.177 616.302,114.177 C575.733,81.048 544.479,47.946 497.841,28.026" fill="#4C2311" id="path91880"/>
    <path d="M918.078,389.403 C918.078,364.329 900.066,350.568 874.959,350.568 C846.018,350.568 821.358,367.017 821.358,389.868 C821.358,430.221 846.018,439.536 871.206,439.341 C896.313,439.341 918.078,421.527 918.078,389.403" fill="#7F4C2F" id="path91882"/>
    <path d="M910.359,389.967 C910.359,367.368 900.483,357.507 877.857,357.507 C855.231,357.507 827.007,371.598 827.007,394.197 C827.007,416.796 846.762,433.704 869.388,433.704 C892.014,433.704 910.359,412.566 910.359,389.967" fill="#002D12" id="path91884"/>
    <path d="M872.988,385.137 C872.988,385.107 872.988,385.092 872.988,385.068 C872.988,375.705 865.389,368.115 856.014,368.115 C846.636,368.115 839.037,375.705 839.037,385.068 C839.037,394.434 846.636,402.024 856.014,402.024 C858.003,402.024 859.908,401.661 861.687,401.034 C863.559,403.803 866.736,405.624 870.333,405.624 C876.096,405.624 880.764,400.956 880.764,395.205 C880.764,390.366 877.461,386.31 872.985,385.137" fill="#F6F6F6" id="path91886"/>
    <path d="M827.052,332.871 C825.465,340.92 852.078,336.222 879.24,334.944 C893.745,334.26 916.479,340.596 917.205,336.924 C919.284,326.37 910.488,311.328 893.376,307.965 C865.959,302.544 829.485,320.526 827.052,332.871" fill="#7F4C2F" id="path91888"/>
    <g clip-path="url(#Clip_6)" id="g91900" opacity="0.5">
      <path d="M802.428,440.892 C802.428,445.545 798.651,449.319 793.989,449.319 C789.333,449.319 785.553,445.545 785.553,440.892 C785.553,436.239 789.333,432.465 793.989,432.465 C798.651,432.465 802.428,436.239 802.428,440.892" fill="#E5644E" id="path91890"/>
      <path d="M777.189,468.09 C777.189,472.077 773.952,475.311 769.959,475.311 C765.966,475.311 762.729,472.077 762.729,468.09 C762.729,464.103 765.966,460.869 769.959,460.869 C773.952,460.869 777.189,464.103 777.189,468.09" fill="#E5644E" id="path91892"/>
      <path d="M821.358,484.764 C821.358,489.984 817.122,494.217 811.893,494.217 C806.667,494.217 802.428,489.984 802.428,484.764 C802.428,479.544 806.667,475.311 811.893,475.311 C817.122,475.311 821.358,479.544 821.358,484.764" fill="#E5644E" id="path91894"/>
      <path d="M750.264,420.705 C750.264,423.624 747.894,425.991 744.969,425.991 C742.047,425.991 739.677,423.624 739.677,420.705 C739.677,417.786 742.047,415.419 744.969,415.419 C747.894,415.419 750.264,417.786 750.264,420.705" fill="#E5644E" id="path91896"/>
      <path d="M858.957,470.874 C858.957,473.598 856.746,475.809 854.016,475.809 C851.286,475.809 849.075,473.598 849.075,470.874 C849.075,468.15 851.286,465.939 854.016,465.939 C856.746,465.939 858.957,468.15 858.957,470.874" fill="#E5644E" id="path91898"/>
    </g>
  </g>
</svg>
