<?xml version="1.0" encoding="UTF-8" standalone="no"?>
<!-- Created with Inkscape (http://www.inkscape.org/) -->

<svg
   xmlns:dc="http://purl.org/dc/elements/1.1/"
   xmlns:cc="http://creativecommons.org/ns#"
   xmlns:rdf="http://www.w3.org/1999/02/22-rdf-syntax-ns#"
   xmlns:svg="http://www.w3.org/2000/svg"
   xmlns="http://www.w3.org/2000/svg"
   xmlns:xlink="http://www.w3.org/1999/xlink"
   xmlns:sodipodi="http://sodipodi.sourceforge.net/DTD/sodipodi-0.dtd"
   xmlns:inkscape="http://www.inkscape.org/namespaces/inkscape"
   width="286.01254"
   height="226.23949"
   id="svg2"
   version="1.1"
   inkscape:version="0.48.1 "
   sodipodi:docname="cucumber.svg">
  <title
     id="title3029">Cucumber</title>
  <defs
     id="defs4">
    <inkscape:path-effect
       effect="spiro"
       id="path-effect3024"
       is_visible="true" />
    <linearGradient
       id="linearGradient3865">
      <stop
         style="stop-color:#dd2828;stop-opacity:1;"
         offset="0"
         id="stop3867" />
      <stop
         style="stop-color:#000000;stop-opacity:0;"
         offset="1"
         id="stop3869" />
    </linearGradient>
    <linearGradient
       inkscape:collect="always"
       id="linearGradient3825">
      <stop
         style="stop-color:#00aa44;stop-opacity:1;"
         offset="0"
         id="stop3827" />
      <stop
         style="stop-color:#00aa44;stop-opacity:0;"
         offset="1"
         id="stop3829" />
    </linearGradient>
    <inkscape:path-effect
       effect="spiro"
       id="path-effect3046"
       is_visible="true" />
    <inkscape:path-effect
       effect="spiro"
       id="path-effect3037"
       is_visible="true" />
    <inkscape:path-effect
       effect="spiro"
       id="path-effect3033"
       is_visible="true" />
    <inkscape:path-effect
       effect="spiro"
       id="path-effect3029"
       is_visible="true" />
    <inkscape:path-effect
       effect="spiro"
       id="path-effect3025"
       is_visible="true" />
    <inkscape:path-effect
       effect="spiro"
       id="path-effect3021"
       is_visible="true" />
    <inkscape:path-effect
       effect="spiro"
       id="path-effect3017"
       is_visible="true" />
    <inkscape:path-effect
       effect="spiro"
       id="path-effect3013"
       is_visible="true" />
    <inkscape:path-effect
       effect="spiro"
       id="path-effect3008"
       is_visible="true" />
    <inkscape:path-effect
       effect="spiro"
       id="path-effect3003"
       is_visible="true" />
    <inkscape:path-effect
       effect="spiro"
       id="path-effect2998"
       is_visible="true" />
    <linearGradient
       inkscape:collect="always"
       xlink:href="#linearGradient3825"
       id="linearGradient3831"
       x1="317.14288"
       y1="42.362194"
       x2="497.14288"
       y2="250.93362"
       gradientUnits="userSpaceOnUse" />
    <radialGradient
       inkscape:collect="always"
       xlink:href="#linearGradient3825"
       id="radialGradient3863"
       cx="61.283489"
       cy="587.38818"
       fx="61.283489"
       fy="587.38818"
       r="142.56744"
       gradientTransform="matrix(0.11821182,0.42085345,-0.70511634,0.19805727,468.21606,445.26031)"
       gradientUnits="userSpaceOnUse" />
    <linearGradient
       inkscape:collect="always"
       xlink:href="#linearGradient3825"
       id="linearGradient3890"
       gradientUnits="userSpaceOnUse"
       x1="317.14288"
       y1="42.362194"
       x2="497.14288"
       y2="250.93362" />
    <linearGradient
       inkscape:collect="always"
       xlink:href="#linearGradient3825"
       id="linearGradient3826"
       gradientUnits="userSpaceOnUse"
       x1="317.14288"
       y1="42.362194"
       x2="497.14288"
       y2="250.93362"
       gradientTransform="matrix(0.33593676,0,0,0.33593676,94.582018,149.3015)" />
    <linearGradient
       inkscape:collect="always"
       xlink:href="#linearGradient3825"
       id="linearGradient3880"
       gradientUnits="userSpaceOnUse"
       gradientTransform="matrix(0.33593676,0,0,0.33593676,94.582018,149.3015)"
       x1="317.14288"
       y1="42.362194"
       x2="497.14288"
       y2="250.93362" />
  </defs>
  <sodipodi:namedview
     id="base"
     pagecolor="#ffffff"
     bordercolor="#666666"
     borderopacity="1.0"
     inkscape:pageopacity="0.0"
     inkscape:pageshadow="2"
     inkscape:zoom="1.1593883"
     inkscape:cx="31.671291"
     inkscape:cy="-39.773087"
     inkscape:document-units="px"
     inkscape:current-layer="layer1"
     showgrid="false"
     inkscape:window-width="1920"
     inkscape:window-height="1058"
     inkscape:window-x="1912"
     inkscape:window-y="-8"
     inkscape:window-maximized="1"
     fit-margin-top="0"
     fit-margin-left="0"
     fit-margin-right="0"
     fit-margin-bottom="0" />
  <metadata
     id="metadata7">
    <rdf:RDF>
      <cc:Work
         rdf:about="">
        <dc:format>image/svg+xml</dc:format>
        <dc:type
           rdf:resource="http://purl.org/dc/dcmitype/StillImage" />
        <dc:title>Cucumber</dc:title>
        <dc:date>2015</dc:date>
        <dc:creator>
          <cc:Agent>
            <dc:title>arking</dc:title>
          </cc:Agent>
        </dc:creator>
        <dc:subject>
          <rdf:Bag>
            <rdf:li>cucumber</rdf:li>
            <rdf:li>fruit</rdf:li>
          </rdf:Bag>
        </dc:subject>
      </cc:Work>
    </rdf:RDF>
  </metadata>
  <g
     inkscape:label="Ebene 1"
     inkscape:groupmode="layer"
     id="layer1"
     transform="translate(-66.972114,-173.61346)">
    <g
       id="g3864">
      <path
         sodipodi:nodetypes="cccc"
         inkscape:connector-curvature="0"
         id="path2996"
         d="M 347.0145,184.16863 C 311.18601,131.58613 106.07832,292.29821 85.943644,297.42731 36.008508,334.5774 94.28946,425.64621 158.88991,390.52978 221.59811,321.74273 386.25129,265.6988 347.0145,184.16863"
         style="fill:#217821;stroke:none" />
      <path
         sodipodi:nodetypes="ccc"
         inkscape:connector-curvature="0"
         id="path3001"
         d="M 140.65335,399.16815 C 189.85186,384.2147 152.517,272.94714 84.266591,297.99334 42.890404,337.77209 84.114962,404.44413 140.65335,399.16815 z"
         style="fill:#c6e9af;stroke:none" />
      <path
         sodipodi:nodetypes="cccc"
         inkscape:connector-curvature="0"
         id="path3044"
         d="M 87.863283,295.02776 C 165.40006,256.84147 276.16028,160.93074 339.33594,176.49008 L 133.4547,304.14604 c -12.68214,-8.34486 -34.259943,-8.26557 -50.778387,-5.1015"
         style="fill:url(#linearGradient3880);fill-opacity:1;stroke:none" />
      <g
         transform="translate(68.042208,-3.6756899)"
         id="g3820">
        <g
           id="g3817">
          <path
             sodipodi:nodetypes="cccccc"
             inkscape:connector-curvature="0"
             d="M 68.797567,400.05837 C 123.35223,385.95723 76.32894,282.11876 17.261774,304.96512 -9.8157371,333.06958 -1.2100628,393.9598 68.797567,400.05837 z m 0.851231,3.47027 C 124.90362,389.36383 81.388971,273.59557 15.525428,302.18209 -18.81016,327.35812 0.56408684,402.92761 69.648798,403.52864 z"
             style="fill:#aade87;stroke:none"
             id="path3022-7" />
        </g>
        <path
           style="fill:#c6e9af;fill-opacity:1;stroke:none"
           d="m 33.41325,302.48474 c -5.391395,0.0616 -10.859376,1.14544 -15.823715,3.16648 -14.6519837,15.34924 -17.89711456,39.96405 -8.5155275,58.86628 5.4522655,11.47865 15.2144015,20.47777 26.5738655,25.98719 10.066207,5.01029 21.195114,7.82732 32.380884,8.69053 3.142823,-0.15512 6.119828,-1.69196 8.921079,-3.09744 7.285946,-3.88239 12.379419,-11.17363 14.198602,-19.19341 1.647567,-7.50855 1.113723,-15.36806 -0.629593,-22.81729 -2.821492,-11.28384 -8.329983,-21.93904 -15.852698,-30.78048 -6.18822,-7.14287 -13.589593,-13.38703 -22.396593,-17.06529 -5.910837,-2.62355 -12.384188,-3.91975 -18.856304,-3.75657 z"
           id="path3047"
           inkscape:connector-curvature="0" />
      </g>
      <g
         transform="matrix(0.33593676,0,0,0.33593676,94.582018,149.3015)"
         style="stroke:none"
         id="g3049">
        <path
           style="fill:#87de87;stroke:none"
           d="m 66.670068,523.04225 4.04061,44.44671 35.355342,-1.01015 c 6.10433,-30.70418 -12.125903,-40.88279 -39.395952,-43.43656"
           id="path3006"
           inkscape:connector-curvature="0"
           sodipodi:nodetypes="cccc" />
        <path
           style="fill:#87de87;stroke:none"
           d="m 58.588848,577.59049 c 3.096024,-20.42356 2.285119,-39.17272 -4.040611,-55.55839 -16.295772,-0.57005 -29.495013,4.27883 -40.406101,13.13198 14.815571,21.05982 29.631141,33.43314 44.446712,42.42641"
           id="path3011"
           inkscape:connector-curvature="0"
           sodipodi:nodetypes="cccc" />
        <path
           style="fill:#87de87;stroke:none"
           d="M 47.47717,584.66155 C 35.683272,571.20603 22.568835,559.73132 8.0812204,550.31637 c -4.524593,18.60013 -3.5306438,36.28049 0,53.53808 14.1269466,-2.41778 27.9261856,-6.14639 39.3959496,-19.1929"
           id="path3015"
           inkscape:connector-curvature="0"
           sodipodi:nodetypes="cccc" />
        <path
           style="fill:#87de87;stroke:none"
           d="m 72.904298,587.69201 c 7.482381,-8.5433 18.93078,-12.58391 34.345192,-12.12183 8.86661,16.37097 11.6544,34.47874 11.11168,53.53809 -17.76298,-13.15275 -33.080332,-26.9169 -45.456872,-41.41626"
           id="path3019"
           inkscape:connector-curvature="0"
           sodipodi:nodetypes="cccc" />
        <path
           style="fill:#87de87;stroke:none"
           d="m 72.730983,601.83415 c -9.090078,27.36704 -3.877349,47.08344 17.677667,36.36549 30.90415,-3.07625 4.464107,-30.18486 -17.677667,-36.36549 z"
           id="path3023"
           inkscape:connector-curvature="0"
           sodipodi:nodetypes="ccc" />
        <path
           style="fill:#87de87;stroke:none"
           d="m 57.578695,600.82399 c 5.744267,17.7769 7.703028,32.71467 8.08122,46.46702 C 48.65568,642.88222 31.651446,639.3057 14.647211,620.52197"
           id="path3031"
           inkscape:connector-curvature="0"
           sodipodi:nodetypes="ccc" />
      </g>
    </g>
  </g>
  <g
     inkscape:groupmode="layer"
     id="layer2"
     inkscape:label="Ebene"
     transform="translate(-66.972114,-173.61346)" />
</svg>
