<?xml version="1.0" encoding="UTF-8" standalone="no"?>
<!-- Created with Inkscape (http://www.inkscape.org/) -->

<svg
   xmlns:dc="http://purl.org/dc/elements/1.1/"
   xmlns:cc="http://creativecommons.org/ns#"
   xmlns:rdf="http://www.w3.org/1999/02/22-rdf-syntax-ns#"
   xmlns:svg="http://www.w3.org/2000/svg"
   xmlns="http://www.w3.org/2000/svg"
   xmlns:sodipodi="http://sodipodi.sourceforge.net/DTD/sodipodi-0.dtd"
   xmlns:inkscape="http://www.inkscape.org/namespaces/inkscape"
   width="500"
   height="500"
   viewBox="0 0 500.00001 500.00001"
   id="svg2"
   version="1.1"
   inkscape:version="0.91 r13725"
   sodipodi:docname="pumkin.svg">
  <defs
     id="defs4" />
  <sodipodi:namedview
     id="base"
     pagecolor="#ffffff"
     bordercolor="#666666"
     borderopacity="1.0"
     inkscape:pageopacity="0.0"
     inkscape:pageshadow="2"
     inkscape:zoom="0.74612403"
     inkscape:cx="358.70434"
     inkscape:cy="174.89507"
     inkscape:document-units="px"
     inkscape:current-layer="layer1"
     showgrid="false"
     units="px"
     inkscape:window-width="1366"
     inkscape:window-height="705"
     inkscape:window-x="-8"
     inkscape:window-y="-8"
     inkscape:window-maximized="1" />
  <metadata
     id="metadata7">
    <rdf:RDF>
      <cc:Work
         rdf:about="">
        <dc:format>image/svg+xml</dc:format>
        <dc:type
           rdf:resource="http://purl.org/dc/dcmitype/StillImage" />
        <dc:title></dc:title>
      </cc:Work>
    </rdf:RDF>
  </metadata>
  <g
     inkscape:label="Layer 1"
     inkscape:groupmode="layer"
     id="layer1"
     transform="translate(0,-552.36216)">
    <path
       style="fill:#f7a31a;fill-opacity:1;fill-rule:evenodd;stroke:#000000;stroke-width:2.79440713;stroke-linecap:butt;stroke-linejoin:miter;stroke-miterlimit:4;stroke-dasharray:none;stroke-opacity:1"
       d="m 291.55953,725.86192 c 0,0 16.87226,-13.36184 27.30564,-16.08549 16.3811,-4.27629 52.68381,-8.04274 52.68381,-8.04274 0,0 -26.32343,-12.86211 -40.47658,-15.41527 -13.92837,-2.51262 -32.33017,-4.50503 -42.40405,0.33512 -12.09204,5.80981 -27.19905,20.75986 -21.20202,32.17098 2.98745,5.6845 18.63208,-0.67023 18.63208,-0.67023 z"
       id="path4174"
       inkscape:connector-curvature="0"
       sodipodi:nodetypes="cscasacc" />
    <path
       style="fill:#f7a31a;fill-opacity:1;fill-rule:evenodd;stroke:#000000;stroke-width:2.79440713;stroke-linecap:butt;stroke-linejoin:miter;stroke-miterlimit:4;stroke-dasharray:none;stroke-opacity:1"
       d="m 215.10378,725.52681 c -6.28886,-3.56548 -17.65245,-18.57893 -14.77717,-29.15496 4.03369,-14.83699 8.96644,-18.38487 22.80822,-20.7771 16.66049,-2.87936 50.62889,-0.72083 64.89104,8.71298 5.02862,3.32623 7.32568,8.26999 6.42485,14.40993 -1.69877,11.57874 -12.25668,17.51624 -23.12947,20.44197 -17.93154,4.82515 -39.94672,15.59193 -56.21747,6.36718 z"
       id="path4176"
       inkscape:connector-curvature="0"
       sodipodi:nodetypes="sssssss" />
    <path
       style="fill:#f7a31a;fill-opacity:1;fill-rule:evenodd;stroke:#000000;stroke-width:2.74184084;stroke-linecap:butt;stroke-linejoin:miter;stroke-miterlimit:4;stroke-dasharray:none;stroke-opacity:1"
       d="m 115.51852,704.74972 c 0,0 28.98166,9.3446 44.01026,10.72365 18.56163,1.70326 73.56458,1.67558 73.56458,1.67558 0,0 -17.68193,-30.45059 -28.5906,-35.18701 -8.89957,-3.8641 -37.92286,-1.88448 -51.72008,0.67023 -18.00281,3.3334 -33.92219,11.13835 -43.36778,17.76106 -2.39131,1.67665 6.10362,4.35649 6.10362,4.35649 z"
       id="path4180"
       inkscape:connector-curvature="0"
       sodipodi:nodetypes="cscsssc" />
    <path
       style="fill:#f7a31a;fill-opacity:1;fill-rule:evenodd;stroke:#000000;stroke-width:2.74184084;stroke-linecap:butt;stroke-linejoin:miter;stroke-miterlimit:4;stroke-dasharray:none;stroke-opacity:1"
       d="m 282.2435,717.14894 c 9.27838,4.07697 17.02387,5.71544 22.16576,14.74504 20.51685,36.02941 16.94053,86.7912 17.98959,128.68394 0.98505,39.33775 5.18426,82.72709 -12.84971,117.29003 -3.70995,7.11029 -9.99516,12.32367 -17.02588,15.75037 -10.46496,5.10055 -19.94425,6.94578 -31.48178,6.36719 -6.90518,-0.34627 -21.98697,4.27369 -25.37818,-2.01069 -10.11941,-18.75273 -15.26091,-53.25894 -19.5958,-81.09768 -5.2222,-33.53706 -9.95193,-68.00028 -6.74609,-101.87479 1.96258,-20.73773 8.22879,-41.01163 15.74088,-60.32059 4.32581,-11.119 7.5152,-24.28273 16.70462,-31.50076 8.42503,-6.6176 20.30439,-6.86262 30.8393,-7.37251 3.23738,-0.15668 6.65058,0.0281 9.63729,1.34045 z"
       id="path4158"
       inkscape:connector-curvature="0"
       sodipodi:nodetypes="sssssssssssss" />
    <path
       style="fill:#f7a31a;fill-opacity:1;fill-rule:evenodd;stroke:#000000;stroke-width:2.74184084;stroke-linecap:butt;stroke-linejoin:miter;stroke-miterlimit:4;stroke-dasharray:none;stroke-opacity:1"
       d="m 225.70477,723.181 c 3.86715,2.66402 14.44432,2.57766 10.60102,9.38321 -32.88015,58.2228 -32.22003,116.33158 -20.88077,165.54652 8.18879,35.54124 30.1968,102.88017 30.1968,102.88017 0,0 -32.32644,1.493 -48.1864,-0.3352 -13.4847,-1.55436 -27.55889,-2.68623 -39.8341,-8.71295 -18.339,-9.00381 -35.87191,-22.25752 -47.54393,-39.54349 -14.859466,-22.0065 -21.377368,-49.76333 -25.056937,-76.40609 -2.812266,-20.36285 -1.043884,-41.4363 2.569943,-61.66104 3.685771,-20.62739 10.01224,-41.02477 19.274564,-59.65037 6.84463,-13.76384 14.30547,-28.43514 26.3419,-37.53282 8.39094,-6.34224 19.27908,-8.65786 29.55434,-10.05342 7.55108,-1.02558 15.25309,0.34805 22.80823,1.34047 6.60497,0.86759 13.29562,1.77794 19.59581,4.02136 7.25128,2.58207 14.16577,6.31909 20.55953,10.72365 z"
       id="path4160"
       inkscape:connector-curvature="0"
       sodipodi:nodetypes="ssscssssaasaaas" />
    <path
       style="fill:#f7a31a;fill-opacity:1;fill-rule:evenodd;stroke:#000000;stroke-width:2.74184084;stroke-linecap:butt;stroke-linejoin:miter;stroke-miterlimit:4;stroke-dasharray:none;stroke-opacity:1"
       d="m 153.7464,990.26719 c 0,0 -48.85821,-15.43469 -69.388433,-30.49541 C 60.553748,942.30929 40.302455,919.90071 29.425452,891.74355 18.696442,863.96949 18.005607,832.09323 23.321843,802.93823 27.76098,778.59341 38.72844,754.75505 54.161153,735.91535 66.163438,721.2634 81.915375,707.997 99.777623,703.07414 c 11.847607,-3.26521 24.502007,1.46285 36.621667,3.35115 7.14533,1.11328 24.73569,1.67558 24.73569,1.67558 0,0 -28.68365,15.43457 -36.94291,26.47402 -19.75687,26.40732 -30.113973,61.11874 -32.766761,94.50227 -2.644284,33.27644 4.525261,67.92907 17.347111,98.52363 10.02009,23.9092 44.97398,62.6664 44.97398,62.6664 z"
       id="path4162"
       inkscape:connector-curvature="0"
       sodipodi:nodetypes="csssssscsssc" />
    <path
       style="fill:#e7a323;fill-opacity:1;fill-rule:evenodd;stroke:none;stroke-width:2.79999995;stroke-linecap:butt;stroke-linejoin:miter;stroke-miterlimit:4;stroke-dasharray:none;stroke-opacity:1"
       d="m 129.97443,711.11689 c 0,0 -31.308533,7.00833 -44.010253,16.4206 -12.78841,9.47653 -22.393356,24.61548 -29.554319,38.20305 -10.748761,20.3952 -21.205199,42.22633 -22.808245,65.34731 -2.051259,29.58575 17.347113,87.12975 17.347113,87.12975 0,0 -17.914087,-24.89325 -21.844512,-39.54351 -5.022908,-18.72237 -4.772991,-39.21167 -1.284971,-58.30991 3.915698,-21.43999 13.991254,-41.39625 24.414454,-60.32058 6.401577,-11.62269 13.264082,-23.58205 23.129472,-32.171 11.765157,-10.24292 21.657305,-17.63317 36.942931,-18.7664 4.72874,-0.35057 17.66833,2.01069 17.66833,2.01069 z"
       id="path4164"
       inkscape:connector-curvature="0"
       sodipodi:nodetypes="casacsssssc" />
    <path
       style="fill:#f7a31a;fill-opacity:1;fill-rule:evenodd;stroke:#000000;stroke-width:2.74184084;stroke-linecap:butt;stroke-linejoin:miter;stroke-miterlimit:4;stroke-dasharray:none;stroke-opacity:1"
       d="m 336.21228,704.4146 c 4.35475,-8.48458 21.20194,-10.51309 42.40404,-8.71298 19.28325,1.63721 46.71203,7.75739 63.28483,23.45801 24.50477,23.21515 37.8014,59.38756 42.0828,93.83204 4.56448,36.722 2.63087,78.03319 -15.41966,109.91752 -15.31218,27.04734 -44.29094,44.57252 -71.95837,56.96945 -21.93346,9.82772 -70.67341,12.06411 -70.67341,12.06411 0,0 56.40501,-36.02266 68.74595,-63.67173 18.02195,-40.37698 9.52898,-111.97035 -4.17615,-154.15263 -11.55021,-35.54973 -60.37247,-57.85307 -54.29003,-69.70379 z"
       id="path4168"
       inkscape:connector-curvature="0"
       sodipodi:nodetypes="ssassacsss" />
    <path
       style="fill:#f7a31a;fill-opacity:1;fill-rule:evenodd;stroke:#000000;stroke-width:2.74184084;stroke-linecap:butt;stroke-linejoin:miter;stroke-miterlimit:4;stroke-dasharray:none;stroke-opacity:1"
       d="m 287.38339,720.50009 c 0,0 21.40477,-13.68605 33.40923,-14.0748 17.59975,-0.56995 36.82906,5.36994 50.11387,17.42594 23.99038,21.77132 35.02602,56.87484 42.40405,89.14044 6.46014,28.25145 7.77173,59.05396 0.64249,87.12975 -6.3395,24.96571 -19.37999,49.16344 -37.26417,67.02288 -11.34833,11.33263 -35.86698,20.97213 -55.57498,26.13891 -12.0754,3.16578 -37.26416,2.68092 -37.26416,2.68092 l 2.89118,-6.03205 c 0,0 23.46015,-44.51878 28.26937,-69.03357 5.28133,-26.92142 2.25262,-55.05943 0,-82.43815 -2.47193,-30.04404 -6.1438,-60.36226 -14.77717,-89.14043 -3.03336,-10.11132 -12.84971,-28.81984 -12.84971,-28.81984 z"
       id="path4166"
       inkscape:connector-curvature="0"
       sodipodi:nodetypes="cssssssccsaac" />
    <path
       style="fill:#e8c27c;fill-opacity:1;fill-rule:evenodd;stroke:#000000;stroke-width:3.73967528;stroke-linecap:butt;stroke-linejoin:miter;stroke-miterlimit:4;stroke-dasharray:none;stroke-opacity:1"
       d="m 272.60621,717.14894 c 4.8084,-12.70275 -5.15914,-27.49646 -2.56994,-40.88396 3.59894,-18.60828 10.66712,-38.49953 24.41445,-50.93739 12.27895,-11.10933 30.14253,-18.2848 46.25896,-16.08548 9.65912,1.31813 14.82904,14.94427 24.41446,16.75571 4.75432,0.89848 10.67028,0.1623 14.13467,-3.35114 5.54931,-5.62788 8.63346,-15.95207 5.78237,-23.458 -5.6031,-14.75096 -23.74146,-21.84336 -38.54913,-25.46871 -16.14065,-3.9517 -34.01292,-0.88913 -49.47138,5.36184 -16.13495,6.52451 -30.23445,18.70707 -41.76156,32.17099 -8.56425,10.00323 -14.23591,22.51275 -19.27457,34.85189 -6.02961,14.76588 -7.45599,31.21462 -12.84971,46.24579 -2.85525,7.95696 -11.76222,14.76865 -10.27976,23.12289 0.9235,5.20432 6.67666,8.16091 10.92224,11.05877 4.25976,2.90754 10.62956,6.26953 14.13469,6.03207 6.95138,-0.47093 17.97868,-2.58095 24.41446,-5.36184 6.13364,-2.65035 8.55467,-5.49611 10.27975,-10.05343 z"
       id="path4170"
       inkscape:connector-curvature="0"
       sodipodi:nodetypes="sssssssssssasasss" />
    <path
       style="fill:#d6a751;fill-opacity:0.38509318;fill-rule:evenodd;stroke:none;stroke-width:1.01917183;stroke-linecap:butt;stroke-linejoin:miter;stroke-miterlimit:4;stroke-dasharray:none;stroke-opacity:1"
       d="m 248.19177,725.86192 c 2.64438,-19.80146 -0.87895,-47.20574 6.42485,-69.03357 5.97092,-17.84437 15.40334,-35.78366 29.55434,-47.58624 13.54794,-11.2996 31.48314,-18.72823 48.82889,-18.76641 12.53347,-0.0276 24.74968,29.9536 33.73049,29.49008 3.85019,-0.19872 9.15822,-23.33721 6.74609,-26.47405 -8.64838,-11.24675 -31.85407,-12.38876 -45.61646,-11.05877 -19.01266,1.83735 -38.10224,10.59846 -52.68381,23.458 -13.0204,11.48274 -21.29825,28.39001 -27.62688,44.90534 -6.31413,16.47749 -15.79629,32.54722 -16.70462,50.26716 -0.27541,5.37273 -4.77913,13.86184 -1.28498,19.10151 3.69596,5.54227 18.30705,8.13094 18.63209,5.69695 z"
       id="path4172"
       inkscape:connector-curvature="0"
       sodipodi:nodetypes="sassssssssas" />
    <path
       style="fill:#fbc96b;fill-opacity:0.44099379;fill-rule:evenodd;stroke:none;stroke-width:2.79999995;stroke-linecap:butt;stroke-linejoin:miter;stroke-miterlimit:4;stroke-dasharray:none;stroke-opacity:1"
       d="m 138.96923,776.79931 c 19.38658,-5.67649 55.59882,12.08123 44.3315,29.49007 -18.50067,28.58491 -3.38768,56.99656 -6.1036,80.09234 -2.10702,17.91768 -2.96952,32.01299 -20.2383,33.17634 -15.40244,1.03761 -31.2037,-10.58675 -40.47658,-23.45802 -12.67213,-17.58961 -18.14064,-42.73916 -14.13469,-64.34196 4.06194,-21.90471 16.03019,-48.92949 36.62167,-54.95877 z"
       id="path4182"
       inkscape:connector-curvature="0"
       sodipodi:nodetypes="sssssss" />
    <path
       style="fill:#fbc96b;fill-opacity:0.44099379;fill-rule:evenodd;stroke:none;stroke-width:2.79999995;stroke-linecap:butt;stroke-linejoin:miter;stroke-miterlimit:4;stroke-dasharray:none;stroke-opacity:1"
       d="m 235.43338,782.2285 c 5.27651,-3.58828 14.2976,0.70849 17.9896,6.03206 17.44933,25.16056 -1.76341,62.12909 -0.64249,93.1618 1.07616,29.79379 29.22555,70.30892 7.06734,89.14043 -2.94216,2.50045 -8.37776,-0.414 -10.92226,-3.35114 -24.98073,-28.83552 -19.05821,-75.77448 -20.55953,-114.60912 -0.9111,-23.56723 -11.87347,-57.49337 7.06734,-70.37403 z"
       id="path4184"
       inkscape:connector-curvature="0"
       sodipodi:nodetypes="ssssaas" />
    <path
       style="fill:#fbc96b;fill-opacity:0.44099379;fill-rule:evenodd;stroke:none;stroke-width:2.79999995;stroke-linecap:butt;stroke-linejoin:miter;stroke-miterlimit:4;stroke-dasharray:none;stroke-opacity:1"
       d="m 303.44552,723.181 c 16.39578,24.75946 22.59097,49.73917 23.77196,78.41678 1.52763,37.09481 7.72287,74.22685 5.13989,111.25798 -1.53624,22.02432 -2.25577,45.52193 -12.20723,65.01219 -2.27811,4.46175 -10.27976,10.72367 -10.27976,10.72367 0,0 12.47815,-0.5993 16.70461,-4.69161 18.9638,-18.36188 21.35449,-49.79839 25.69943,-76.40608 5.71826,-35.01768 4.72303,-71.3876 0,-106.56638 -2.81128,-20.93943 -7.87482,-41.95885 -16.70463,-60.99082 -3.67668,-7.92481 -6.84037,-18.45355 -14.77717,-21.44733 -5.61757,-2.11897 -20.74228,-0.43551 -17.3471,4.6916 z"
       id="path4186"
       inkscape:connector-curvature="0"
       sodipodi:nodetypes="sssscsssass" />
    <path
       style="fill:#fbc96b;fill-opacity:0.44099379;fill-rule:evenodd;stroke:none;stroke-width:2.79999995;stroke-linecap:butt;stroke-linejoin:miter;stroke-miterlimit:4;stroke-dasharray:none;stroke-opacity:1"
       d="m 362.95339,704.58708 c 0,0 54.62008,31.34283 70.35214,56.63435 16.09332,25.87227 23.30829,58.30237 23.77197,89.14043 0.32504,21.61734 -4.72867,44.09268 -14.77717,63.0015 -11.3081,21.27909 -48.8289,52.27785 -48.8289,52.27785 0,0 13.49234,-23.89707 17.9896,-36.86258 8.22001,-23.69807 15.375,-48.53362 16.06213,-73.72517 0.69799,-25.58931 -3.39899,-51.84208 -12.20722,-75.73586 -6.29066,-17.06447 -14.86537,-31.47325 -24.73569,-46.58089 -6.562,-10.04392 -27.62686,-28.14963 -27.62686,-28.14963 z"
       id="path4188"
       inkscape:connector-curvature="0"
       sodipodi:nodetypes="cssscssssc" />
    <path
       style="fill:#fbc96b;fill-opacity:0.44099379;fill-rule:evenodd;stroke:none;stroke-width:2.79999995;stroke-linecap:butt;stroke-linejoin:miter;stroke-miterlimit:4;stroke-dasharray:none;stroke-opacity:1"
       d="m 78.896845,899.11608 c 4.077775,-18.84509 -5.882195,-41.81963 -6.746105,-64.6771 -0.860313,-22.76241 1.174601,-46.42382 8.994799,-67.6931 3.148212,-8.56246 19.525501,-15.0699 14.777169,-22.78778 -3.518134,-5.71832 -14.269866,-0.4854 -19.274568,3.35114 -23.688805,18.15957 -25.887751,53.78289 -25.699414,84.44884 0.154463,25.15067 1.969008,58.50642 22.486986,71.71447 3.685867,2.37272 4.507457,0.0508 5.461133,-4.35647 z"
       id="path4190"
       inkscape:connector-curvature="0"
       sodipodi:nodetypes="ssssssss" />
    <path
       style="fill:#000000;fill-rule:evenodd;stroke:#000000;stroke-width:0.99800247;stroke-linecap:butt;stroke-linejoin:miter;stroke-miterlimit:4;stroke-dasharray:none;stroke-opacity:1"
       d="m 375.40389,598.18333 c -5.10491,0.84521 -8.94779,5.787 -9.95852,12.39924 -0.59878,3.91721 -1.48729,9.98389 1.92745,11.729 4.90426,2.50631 11.46158,-3.27852 14.45593,-8.04275 1.47252,-2.34286 1.11347,-5.61974 0.64248,-8.37786 -0.26888,-1.57458 -0.91385,-3.1565 -1.92745,-4.35648 -1.33572,-1.58134 -3.14446,-3.68153 -5.13989,-3.35115 z"
       id="path4192"
       inkscape:connector-curvature="0"
       sodipodi:nodetypes="assaaaa" />
  </g>
</svg>
