<svg xmlns="http://www.w3.org/2000/svg" xmlns:xlink="http://www.w3.org/1999/xlink" width="793" zoomAndPan="magnify" viewBox="0 0 594.95996 842.24997" height="1122" preserveAspectRatio="xMidYMid meet" version="1.0"><path fill="#000000" d="M 410.785156 51.414062 C 401.269531 59.578125 389.105469 66.078125 374.390625 70.863281 C 360.195312 75.488281 356.554688 76.425781 343.972656 78.972656 C 324.992188 82.769531 320.832031 83.132812 298.214844 83.132812 C 270.554688 83.132812 259.53125 82.09375 239.25 77.570312 C 221.519531 73.617188 205.871094 68.988281 194.640625 64.363281 C 188.296875 61.761719 174.359375 55.160156 171.1875 53.285156 C 168.277344 51.570312 167.445312 51.414062 165.988281 52.144531 C 164.636719 52.871094 156.058594 54.273438 153.09375 54.273438 C 145.347656 54.273438 136.039062 59.890625 127.929688 69.457031 C 124.496094 73.515625 118.414062 82.507812 115.34375 88.074219 C 112.433594 93.324219 105.414062 109.910156 102.136719 119.324219 C 100.527344 124.003906 98.5 129.722656 97.71875 132.011719 C 96.9375 134.246094 96.003906 136.636719 95.636719 137.316406 C 95.066406 138.355469 95.171875 138.667969 96.261719 139.863281 C 96.9375 140.640625 99.332031 142.515625 101.566406 144.074219 C 103.75 145.632812 105.570312 146.984375 105.570312 147.089844 C 105.570312 147.195312 105.308594 147.921875 104.996094 148.753906 C 104.6875 149.535156 103.644531 153.019531 102.65625 156.449219 C 101.671875 159.882812 100.734375 163.054688 100.578125 163.519531 C 100.265625 164.71875 105.101562 167.734375 115.554688 172.828125 C 127.980469 178.964844 138.328125 182.449219 150.285156 184.632812 C 153.976562 185.308594 158.292969 185.515625 167.550781 185.515625 L 179.871094 185.566406 L 180.183594 186.867188 C 180.390625 187.597656 182.265625 192.277344 184.394531 197.320312 C 192.609375 216.871094 194.328125 224.722656 192.351562 233.71875 C 191.832031 236.265625 191.101562 240.164062 190.792969 242.402344 C 189.335938 253.0625 188.347656 255.972656 184.5 260.757812 C 183.199219 262.316406 182.054688 263.929688 181.898438 264.394531 C 181.742188 264.8125 180.546875 265.488281 179.351562 265.851562 C 175.921875 266.839844 167.550781 271.3125 161.828125 275.109375 C 140.613281 289.304688 104.894531 323.050781 77.804688 354.558594 C 64.023438 370.628906 49.207031 390.023438 41.511719 402.242188 C 39.222656 405.933594 37.039062 408.898438 36.625 408.898438 C 35.425781 408.898438 34.699219 414.304688 35.117188 420.285156 C 35.636719 428.085938 37.609375 439.523438 39.535156 445.296875 C 41.09375 450.132812 44.214844 456.527344 46.554688 459.59375 L 47.75 461.15625 L 43.589844 471.292969 C 29.96875 504.832031 15.667969 548.199219 9.636719 574.195312 C 8.234375 580.230469 7.558594 582.414062 6.777344 582.933594 C 4.488281 584.542969 5.894531 586.519531 13.015625 591.773438 C 18.371094 595.671875 28.5625 602.535156 33.554688 605.605469 C 35.269531 606.644531 36.988281 607.734375 37.351562 607.945312 C 37.921875 608.308594 37.457031 610.855469 34.90625 620.839844 C 33.191406 627.652344 31.113281 636.644531 30.28125 640.804688 C 27.992188 651.984375 25.339844 668.730469 25.652344 669.664062 C 25.859375 670.082031 26.535156 670.652344 27.265625 670.964844 C 27.941406 671.222656 28.667969 671.691406 28.875 672.003906 C 29.914062 673.71875 52.480469 686.824219 65.378906 693.21875 C 68.339844 694.675781 70.210938 695.921875 70.210938 696.441406 C 70.210938 696.859375 69.640625 701.332031 68.914062 706.324219 C 66.886719 720.675781 65.949219 730.867188 66.574219 731.488281 C 66.832031 731.75 67.09375 732.582031 67.09375 733.207031 C 67.09375 736.898438 73.59375 743.707031 80.402344 747.246094 C 84.355469 749.324219 87.421875 750.261719 99.589844 753.070312 C 105.464844 754.472656 108.273438 756.136719 115.242188 762.636719 C 121.066406 767.992188 123.664062 769.605469 128.707031 771.058594 C 132.917969 772.308594 145.761719 771.890625 158.292969 770.070312 C 168.902344 768.511719 174.257812 768.40625 180.546875 769.5 C 187.621094 770.695312 191.257812 772.097656 197.601562 776 C 206.648438 781.511719 211.539062 783.175781 220.273438 783.644531 C 226.617188 783.953125 232.179688 783.332031 245.28125 780.628906 C 257.96875 778.027344 264.105469 778.703125 281.574219 784.628906 C 295.460938 789.363281 302.632812 791.078125 309.914062 791.441406 C 320.886719 791.960938 326.1875 790.402344 343.710938 781.5625 C 362.273438 772.152344 366.695312 771.578125 380.835938 776.832031 C 393.628906 781.613281 404.339844 783.277344 411.203125 781.667969 C 415.363281 780.679688 422.796875 776.832031 427.632812 773.191406 C 430.179688 771.320312 433.820312 768.980469 435.691406 768.042969 C 438.8125 766.535156 439.539062 766.378906 443.804688 766.484375 C 448.015625 766.535156 448.847656 766.742188 452.382812 768.40625 C 454.515625 769.449219 456.644531 770.488281 457.0625 770.746094 C 457.476562 771.007812 461.222656 772.308594 465.382812 773.710938 C 475.832031 777.089844 481.085938 777.300781 489.402344 774.648438 C 492.992188 773.503906 499.023438 769.34375 502.296875 765.808594 C 507.601562 760.035156 516.078125 751.976562 519.457031 749.429688 C 524.710938 745.476562 527.152344 745.164062 537.449219 747.191406 C 542.179688 748.128906 545.921875 747.710938 548.992188 745.839844 C 550.550781 744.851562 550.65625 744.644531 550.65625 741.679688 C 550.65625 738.351562 547.585938 713.238281 544.882812 694.46875 C 544 688.332031 543.375 683.289062 543.480469 683.183594 C 543.582031 683.132812 546.808594 681.46875 550.65625 679.542969 C 557.832031 675.957031 565.835938 671.171875 572.128906 666.699219 C 574.054688 665.347656 576.082031 664.203125 576.652344 664.203125 C 578.109375 664.203125 578.003906 663.113281 576.027344 655.105469 C 574.417969 648.5 565.472656 621.410156 560.117188 606.746094 C 558.664062 602.742188 557.621094 599.3125 557.832031 599.105469 C 558.039062 598.894531 561.003906 596.972656 564.433594 594.734375 C 567.867188 592.550781 572.597656 589.378906 574.9375 587.714844 C 577.226562 586 579.355469 584.648438 579.617188 584.648438 C 579.875 584.648438 580.65625 584.078125 581.332031 583.347656 C 582.371094 582.257812 582.425781 581.894531 581.957031 580.644531 C 581.644531 579.863281 580.292969 574.976562 579.042969 569.828125 C 576.082031 557.972656 573.117188 548.769531 567.035156 532.390625 C 558.246094 508.835938 550.550781 491.46875 537.550781 465.625 C 530.117188 450.910156 529.390625 449.195312 530.21875 448.726562 C 531.574219 448 535.886719 443.214844 539.371094 438.640625 C 542.90625 433.960938 550.136719 419.765625 551.070312 415.761719 C 552.527344 409.417969 551.539062 401.878906 548.730469 396.988281 C 548.003906 395.742188 546.597656 393.089844 545.558594 391.167969 C 539.527344 379.414062 507.964844 343.328125 482.175781 318.683594 C 476.039062 312.804688 473.546875 310.101562 474.222656 310.101562 C 474.792969 310.101562 475.261719 310.414062 475.261719 310.726562 C 475.3125 311.089844 475.625 310.828125 476.039062 310.101562 C 479.941406 302.925781 476.925781 255.710938 471.308594 236.371094 C 470.582031 233.976562 469.699219 231.324219 469.28125 230.492188 C 468.5 228.984375 468.5 228.984375 464.707031 229.296875 L 460.910156 229.660156 L 458.984375 223.578125 C 455.605469 213.074219 451.707031 205.015625 448.535156 201.792969 C 447.339844 200.648438 446.195312 200.648438 445.726562 201.894531 C 445.519531 202.46875 443.75 203.714844 441.828125 204.753906 C 428.570312 211.617188 408.082031 231.792969 400.28125 245.625 L 397.996094 249.679688 L 395.757812 238.398438 L 393.523438 227.167969 L 394.617188 222.953125 C 396.070312 217.285156 400.023438 206.417969 405.171875 193.992188 L 409.433594 183.75 L 411.304688 183.75 C 415.519531 183.695312 429.140625 182.605469 434.183594 181.875 C 442.660156 180.679688 465.121094 174.390625 473.234375 171.007812 C 481.5 167.523438 486.753906 163.105469 485.089844 161.027344 C 484.722656 160.609375 483.683594 158.007812 482.800781 155.253906 C 481.863281 152.496094 480.980469 149.847656 480.773438 149.429688 C 480.511719 148.859375 481.863281 147.558594 485.609375 144.800781 C 488.414062 142.722656 491.277344 140.488281 491.953125 139.757812 L 493.09375 138.5625 L 491.898438 135.546875 C 489.246094 128.785156 484.933594 117.609375 482.800781 111.992188 C 475.730469 92.960938 466.109375 76.375 456.800781 66.960938 C 449.78125 59.890625 444.21875 55.574219 438.605469 52.921875 C 432.207031 49.804688 428.828125 49.023438 420.925781 48.761719 L 414.164062 48.503906 Z M 425.136719 51.933594 C 432.050781 52.871094 437.460938 54.742188 442.242188 57.863281 C 447.496094 61.292969 455.347656 68.15625 458.519531 71.953125 C 466.578125 81.832031 475.363281 98.886719 482.28125 117.972656 C 484.722656 124.835938 487.480469 132.0625 488.363281 134.089844 C 489.246094 136.066406 490.027344 137.992188 490.183594 138.300781 C 490.496094 139.082031 478.847656 146.621094 472.296875 149.898438 C 456.230469 157.90625 439.382812 162.898438 420.40625 165.289062 C 416.714844 165.707031 413.386719 166.171875 413.125 166.277344 C 412.761719 166.433594 412.554688 162.117188 412.554688 153.121094 C 412.554688 142.722656 412.347656 138.511719 411.617188 133.832031 C 410.007812 123.898438 408.757812 122.078125 410.007812 131.542969 C 410.992188 138.925781 410.992188 152.808594 410.007812 163.519531 C 408.652344 178.027344 408.289062 179.277344 401.945312 194.925781 C 397.164062 206.523438 393.261719 217.859375 392.796875 221.34375 C 392.585938 222.902344 392.171875 223.785156 391.753906 223.785156 C 391.339844 223.785156 391.027344 223.996094 391.027344 224.304688 C 391.027344 224.566406 390.507812 224.828125 389.882812 224.828125 C 389.257812 224.828125 386.242188 225.503906 383.226562 226.386719 C 377.144531 228.101562 358.789062 231.222656 341.113281 233.613281 C 326.863281 235.484375 325.875 235.589844 315.113281 236.265625 C 310.382812 236.578125 303.621094 237.148438 300.035156 237.566406 C 289.0625 238.8125 276.53125 239.488281 275.960938 238.917969 C 275.597656 238.554688 272.582031 238.34375 268.367188 238.34375 C 260.519531 238.34375 248.195312 237.617188 241.019531 236.734375 C 233.6875 235.902344 213.929688 232.625 209.042969 231.535156 C 203.113281 230.183594 196.042969 228 196.042969 227.53125 C 195.78125 217.910156 193.753906 210.578125 187.046875 194.925781 C 182.265625 183.695312 179.507812 172.933594 177.324219 157.230469 C 175.402344 143.242188 174.722656 134.453125 174.722656 122.132812 C 174.722656 111.160156 173.632812 94.105469 172.851562 92.023438 C 172.644531 91.558594 172.230469 91.246094 171.917969 91.347656 C 171.1875 91.609375 171.398438 130.816406 172.175781 140.589844 C 172.75 147.507812 174.570312 162.898438 175.089844 164.976562 L 175.402344 166.226562 L 167.394531 165.914062 C 155.851562 165.445312 144.046875 163.210938 134.949219 159.726562 C 132.660156 158.839844 130.734375 157.90625 130.632812 157.644531 C 130.527344 157.4375 130.058594 157.230469 129.59375 157.230469 C 127.929688 157.230469 109.675781 146.414062 101.046875 140.277344 L 97.769531 137.9375 L 99.382812 133.675781 C 100.265625 131.335938 102.347656 125.5625 103.957031 120.832031 C 110.976562 100.65625 119.402344 83.964844 128.085938 73.097656 C 132.765625 67.273438 139.054688 61.761719 143.785156 59.421875 C 147.480469 57.601562 148.621094 57.289062 153.511719 56.875 C 156.527344 56.613281 160.53125 55.992188 162.402344 55.523438 L 165.730469 54.636719 L 167.757812 56.824219 C 168.847656 58.070312 169.785156 59.421875 169.835938 59.839844 C 170.148438 61.917969 175.089844 73.304688 175.503906 72.890625 C 175.765625 72.683594 172.539062 63.375 171.550781 61.347656 C 170.617188 59.421875 182.886719 73.097656 189.074219 80.792969 C 194.328125 87.398438 209.199219 103.722656 215.59375 109.910156 C 230.515625 124.367188 243.464844 131.492188 256.824219 132.582031 C 268.628906 133.570312 280.222656 127.019531 290 113.863281 C 294.417969 107.9375 296.289062 104.453125 298.007812 98.992188 C 299.460938 94.261719 300.035156 93.429688 300.035156 96.132812 C 300.035156 101.644531 304.039062 113.1875 308.042969 119.167969 C 313.761719 127.746094 320.105469 131.230469 330.246094 131.230469 C 341.421875 131.230469 356.761719 123.742188 367.578125 113.03125 C 371.945312 108.714844 382.1875 96.914062 386.140625 91.660156 C 390.976562 85.214844 395.96875 79.027344 399.292969 75.386719 C 401.113281 73.359375 404.285156 69.511719 406.367188 66.753906 C 408.445312 64.050781 410.941406 61.035156 411.929688 60.148438 L 413.699219 58.433594 L 413.332031 62.230469 C 413.125 64.257812 412.605469 67.480469 412.191406 69.355469 C 411.359375 72.992188 410.628906 77.984375 410.992188 77.621094 C 411.566406 77.050781 413.957031 66.441406 414.6875 61.398438 C 415.101562 58.277344 415.726562 55.316406 415.984375 54.792969 C 416.246094 54.328125 416.347656 53.753906 416.195312 53.597656 C 416.039062 53.441406 416.039062 52.820312 416.246094 52.246094 C 416.660156 50.945312 417.179688 50.894531 425.136719 51.933594 Z M 414.425781 52.402344 C 414.425781 52.507812 414.007812 52.921875 413.542969 53.285156 C 412.710938 53.960938 412.65625 53.910156 413.332031 53.078125 C 414.007812 52.246094 414.425781 51.988281 414.425781 52.402344 Z M 177.429688 59.683594 C 188.660156 66.339844 201.292969 71.589844 217.726562 76.320312 C 232.386719 80.535156 244.816406 83.238281 256.253906 84.691406 C 261.871094 85.421875 267.902344 86.253906 269.617188 86.511719 C 271.332031 86.824219 276.480469 87.03125 281.054688 87.03125 C 285.632812 87.03125 291.300781 87.1875 293.691406 87.398438 L 298.007812 87.707031 L 297.644531 89.320312 C 296.757812 93.429688 294.628906 100.085938 293.273438 103.046875 C 289.84375 110.378906 281.367188 120.46875 274.972656 124.78125 C 269.199219 128.632812 265.457031 129.828125 259.21875 129.828125 C 247.3125 129.828125 235.246094 123.898438 221.054688 111.003906 C 216.375 106.792969 199.109375 88.074219 191.882812 79.492188 C 186.945312 73.566406 179.714844 65.507812 173.214844 58.695312 C 170.773438 56.148438 169.214844 54.429688 169.785156 54.898438 C 170.355469 55.367188 173.789062 57.5 177.429688 59.683594 Z M 410.890625 56.925781 C 406.9375 62.386719 390.871094 82.457031 386.972656 86.773438 C 385.464844 88.488281 383.382812 91.089844 382.394531 92.597656 C 379.953125 96.289062 368.410156 108.925781 363.9375 112.875 C 352.914062 122.496094 341.371094 127.695312 330.710938 127.800781 C 322.339844 127.851562 317.191406 125.5625 312.359375 119.53125 C 306.792969 112.667969 303.621094 103.777344 301.855469 90.203125 L 301.492188 87.398438 L 309.1875 87.707031 C 314.851562 87.96875 318.078125 87.863281 321.09375 87.292969 C 341.683594 83.707031 351.667969 81.675781 359.570312 79.492188 C 368.617188 77.050781 384.578125 71.382812 390.246094 68.625 C 396.175781 65.714844 404.960938 60.148438 409.484375 56.457031 C 410.941406 55.261719 412.242188 54.328125 412.449219 54.273438 C 412.65625 54.273438 411.980469 55.46875 410.890625 56.925781 Z M 111.394531 150.417969 C 113.214844 151.511719 117.007812 153.796875 119.816406 155.410156 L 124.964844 158.425781 L 118.777344 160.195312 C 111.914062 162.117188 103.59375 163.78125 103.179688 163.3125 C 103.023438 163.15625 103.699219 160.816406 104.6875 158.164062 C 105.621094 155.511719 106.765625 152.238281 107.128906 150.832031 C 107.492188 149.480469 107.859375 148.390625 107.960938 148.390625 C 108.015625 148.390625 109.574219 149.273438 111.394531 150.417969 Z M 481.1875 158.425781 L 481.550781 160.347656 L 479.523438 160.347656 C 476.871094 160.347656 472.191406 159.515625 467.617188 158.164062 L 463.925781 157.125 L 471.257812 153.382812 L 478.640625 149.691406 L 479.734375 153.070312 C 480.355469 154.992188 480.980469 157.386719 481.1875 158.425781 Z M 465.539062 159.882812 C 467.929688 160.816406 475.78125 162.273438 480.148438 162.535156 C 483.476562 162.792969 482.957031 163.78125 478.277344 166.121094 C 472.765625 168.878906 470.375 169.707031 458.621094 172.878906 C 453.320312 174.285156 448.585938 175.585938 448.066406 175.742188 C 447.078125 176.050781 453.628906 167.160156 458.570312 161.492188 C 460.597656 159.152344 461.636719 158.320312 462.210938 158.582031 C 462.679688 158.789062 464.1875 159.363281 465.539062 159.882812 Z M 457.21875 159.933594 C 456.90625 160.296875 455.660156 161.910156 454.410156 163.46875 C 453.109375 165.082031 450.824219 168.148438 449.316406 170.332031 C 446.664062 174.179688 443.230469 176.988281 441.097656 176.988281 C 437.773438 176.988281 426.695312 171.269531 425.242188 168.773438 L 424.355469 167.265625 L 431.480469 166.121094 C 440.789062 164.5625 445.777344 163.367188 452.121094 161.179688 C 454.984375 160.195312 457.425781 159.363281 457.53125 159.363281 C 457.632812 159.308594 457.476562 159.621094 457.21875 159.933594 Z M 129.695312 163.417969 C 131.621094 168.355469 133.699219 171.476562 137.964844 175.585938 C 142.175781 179.691406 142.433594 179.640625 131.671875 176.105469 C 126.003906 174.234375 114.667969 169.65625 108.066406 166.589844 C 106.453125 165.808594 106.609375 165.027344 108.378906 165.027344 C 109.886719 165.027344 118.414062 162.792969 122.988281 161.179688 C 125.015625 160.503906 126.992188 159.882812 127.511719 159.882812 C 128.085938 159.828125 128.761719 160.921875 129.695312 163.417969 Z M 145.710938 166.328125 C 151.898438 167.785156 161.882812 169.1875 166.5625 169.1875 C 169.578125 169.242188 169.734375 169.292969 168.746094 170.019531 C 165.625 172.464844 151.535156 178.496094 147.0625 179.328125 C 145.191406 179.691406 145.085938 179.640625 140.042969 174.390625 C 136.976562 171.21875 134.167969 167.734375 133.023438 165.652344 C 131.933594 163.730469 131.046875 162.011719 131.046875 161.855469 C 131.046875 161.703125 133.128906 162.324219 135.726562 163.3125 C 138.273438 164.25 142.800781 165.601562 145.710938 166.328125 Z M 416.558594 172.828125 C 413.542969 175.6875 411.046875 177.976562 410.992188 177.871094 C 410.839844 177.714844 411.929688 168.980469 412.136719 168.722656 C 412.347656 168.460938 417.859375 167.785156 420.144531 167.734375 L 421.964844 167.679688 Z M 177.011719 175.011719 C 177.738281 178.238281 178.519531 181.410156 178.675781 182.03125 C 178.988281 183.175781 178.882812 183.226562 174.878906 183.226562 C 171.136719 183.226562 158.035156 182.136719 151.691406 181.304688 L 149.140625 180.992188 L 154.03125 179.328125 C 159.75 177.40625 166.195312 174.078125 169.835938 171.21875 C 171.5 169.917969 172.957031 169.242188 173.996094 169.242188 L 175.609375 169.1875 Z M 426.851562 172.621094 C 429.140625 174.179688 432.46875 176.15625 434.234375 176.9375 L 437.40625 178.390625 L 431.21875 179.222656 C 427.839844 179.691406 422.070312 180.316406 418.324219 180.628906 C 414.632812 180.941406 411.097656 181.253906 410.527344 181.410156 C 409.851562 181.511719 410.316406 180.886719 411.824219 179.691406 C 413.125 178.652344 416.039062 175.949219 418.324219 173.765625 C 420.613281 171.527344 422.535156 169.707031 422.589844 169.707031 C 422.640625 169.707031 424.566406 171.007812 426.851562 172.621094 Z M 450.511719 211.464844 C 452.644531 215.933594 457.789062 229.453125 457.476562 229.816406 C 457.375 229.871094 455.085938 230.339844 452.382812 230.804688 C 448.484375 231.480469 434.445312 234.808594 430.023438 236.109375 C 429.609375 236.214844 431.6875 233.976562 434.703125 231.117188 C 438.761719 227.21875 440.007812 225.761719 439.539062 225.292969 C 438.707031 224.460938 438.136719 224.878906 430.699219 231.847656 C 424.773438 237.460938 423.628906 238.292969 420.144531 239.59375 C 414.996094 241.570312 410.785156 243.703125 406.417969 246.507812 L 402.832031 248.796875 L 404.027344 246.820312 C 408.34375 239.4375 421.394531 224.878906 430.648438 217.183594 C 437.199219 211.722656 446.714844 205.484375 447.496094 206.160156 C 447.859375 206.472656 449.210938 208.863281 450.511719 211.464844 Z M 391.289062 229.871094 C 391.703125 233.25 393.992188 246.40625 394.460938 247.914062 C 394.769531 248.796875 394.617188 248.796875 393.054688 247.707031 C 386.242188 242.921875 374.910156 233.042969 374.910156 231.847656 C 374.910156 231.535156 376.832031 230.804688 379.222656 230.234375 C 381.5625 229.609375 384.789062 228.621094 386.347656 228 C 390.714844 226.386719 390.921875 226.4375 391.289062 229.871094 Z M 204.257812 233.925781 C 204.519531 234.1875 201.242188 235.851562 197.1875 237.460938 L 193.964844 238.8125 L 194.222656 237.667969 C 194.328125 237.046875 194.691406 235.226562 195.003906 233.613281 L 195.574219 230.703125 L 199.839844 232.210938 C 202.179688 233.042969 204.152344 233.820312 204.257812 233.925781 Z M 372.828125 231.898438 C 372.828125 232.523438 366.277344 244.011719 363.9375 247.445312 C 362.535156 249.421875 360.453125 252.074219 359.207031 253.269531 L 356.96875 255.402344 L 353.070312 254.414062 C 350.9375 253.839844 346.363281 253.164062 342.929688 252.800781 L 336.691406 252.230469 L 332.429688 249.472656 C 327.539062 246.300781 319.273438 240.320312 319.273438 239.855469 C 319.273438 239.386719 323.953125 238.449219 328.113281 238.085938 C 333.726562 237.617188 356.8125 234.394531 365.03125 232.9375 C 373.246094 231.429688 372.828125 231.480469 372.828125 231.898438 Z M 467.460938 235.589844 C 470.738281 247.339844 473.648438 272.246094 474.117188 293.359375 L 474.480469 307.554688 L 472.140625 307.191406 C 470.839844 306.980469 469.332031 306.566406 468.761719 306.203125 C 468.191406 305.839844 466.371094 305.628906 464.757812 305.683594 C 463.09375 305.683594 461.742188 305.527344 461.742188 305.265625 C 461.742188 305.058594 461.535156 304.953125 461.273438 305.164062 C 460.546875 305.578125 439.851562 300.117188 431.585938 297.3125 C 419 293.046875 410.214844 289.304688 406.835938 286.753906 C 403.820312 284.519531 403.558594 284.15625 403.039062 281.503906 C 401.269531 272.871094 400.4375 267.722656 400.804688 267.414062 C 401.425781 266.789062 419.78125 262.316406 427.269531 260.964844 C 431.167969 260.238281 438.394531 259.300781 443.386719 258.832031 C 454.722656 257.84375 456.074219 257.429688 450.824219 256.542969 C 446.300781 255.765625 439.644531 256.128906 430.648438 257.585938 C 420.925781 259.195312 405.898438 262.835938 401.632812 264.605469 C 400.59375 265.019531 399.660156 265.332031 399.605469 265.28125 C 399.554688 265.175781 399.085938 264.03125 398.566406 262.679688 L 397.683594 260.238281 L 399.660156 257.84375 C 400.804688 256.542969 403.351562 254.308594 405.328125 252.957031 C 409.382812 250.148438 417.492188 245.9375 417.960938 246.351562 C 418.117188 246.507812 418.949219 246.195312 419.832031 245.675781 C 424.046875 243.128906 444.53125 237.460938 455.761719 235.746094 C 461.898438 234.808594 466.371094 234.03125 466.785156 233.71875 C 466.835938 233.71875 467.148438 234.550781 467.460938 235.589844 Z M 227.863281 238.554688 C 239.511719 240.53125 247.675781 241.464844 252.71875 241.464844 C 254.433594 241.464844 255.941406 241.671875 256.097656 241.984375 C 257.035156 243.492188 250.015625 249.316406 238.160156 256.855469 C 231.710938 261.015625 229.007812 262.523438 225.835938 263.773438 L 223.238281 264.8125 L 220.117188 260.546875 C 218.402344 258.207031 215.90625 254.414062 214.605469 252.125 C 212.316406 248.171875 207.429688 237.773438 206.753906 235.433594 L 206.441406 234.34375 L 211.589844 235.539062 C 214.449219 236.160156 221.730469 237.511719 227.863281 238.554688 Z M 379.121094 239.59375 C 383.488281 243.910156 390.039062 248.640625 393.367188 249.835938 C 394.460938 250.253906 395.238281 250.929688 395.394531 251.65625 C 395.550781 252.28125 395.8125 253.113281 395.96875 253.527344 C 396.125 253.894531 396.019531 254.515625 395.757812 254.933594 C 395.394531 255.503906 394.875 255.246094 393.316406 253.738281 C 390.871094 251.398438 388.167969 250.617188 383.539062 250.980469 C 379.328125 251.34375 372.882812 254.152344 371.527344 256.179688 C 371.113281 256.855469 370.59375 258.625 370.386719 260.082031 L 370.074219 262.730469 L 367.679688 260.914062 C 366.382812 259.871094 363.988281 258.46875 362.429688 257.6875 L 359.519531 256.335938 L 363.210938 252.695312 C 367.214844 248.746094 371.632812 242.347656 373.453125 237.929688 C 374.078125 236.472656 374.648438 235.226562 374.699219 235.226562 C 374.753906 235.226562 376.730469 237.203125 379.121094 239.59375 Z M 205.402344 237.359375 C 205.402344 237.667969 206.648438 240.738281 208.15625 244.222656 C 211.484375 251.761719 215.542969 258.46875 218.816406 261.902344 L 221.261719 264.34375 L 219.441406 264.03125 C 218.453125 263.875 211.796875 262.472656 204.726562 260.914062 C 197.65625 259.351562 191.625 258.105469 191.3125 258.105469 C 191.050781 258.105469 190.84375 258.46875 190.84375 258.882812 C 190.84375 259.300781 191 259.664062 191.15625 259.664062 C 191.363281 259.664062 196.5625 260.808594 202.75 262.265625 C 217.671875 265.644531 222.613281 266.582031 233.738281 268.191406 C 251.9375 270.792969 257.347656 271.15625 278.714844 271.105469 C 289.738281 271.050781 299.929688 271.050781 301.386719 271.050781 L 303.988281 271.105469 L 304.765625 274.328125 L 305.546875 277.605469 L 280.589844 277.5 C 254.277344 277.34375 245.023438 276.925781 230.308594 275.265625 C 212.941406 273.289062 202.800781 271 190.792969 266.371094 L 186.789062 264.8125 L 187.203125 263.148438 C 187.410156 262.210938 188.296875 260.339844 189.179688 258.9375 C 190.792969 256.390625 191.777344 252.851562 192.921875 245.519531 L 193.546875 241.570312 L 197.289062 240.164062 C 199.320312 239.4375 201.761719 238.242188 202.75 237.566406 C 204.464844 236.371094 205.402344 236.265625 205.402344 237.359375 Z M 313.5 240.320312 C 313.085938 240.839844 311.941406 242.402344 310.953125 243.804688 C 305.597656 251.242188 291.195312 267.984375 290.15625 267.984375 C 289.480469 267.984375 276.6875 258.574219 270.917969 253.839844 C 267.902344 251.398438 263.84375 247.707031 261.816406 245.675781 L 258.230469 241.984375 L 270.136719 241.828125 C 276.742188 241.777344 284.125 241.726562 286.621094 241.726562 C 289.0625 241.726562 291.300781 241.570312 291.507812 241.308594 C 291.714844 241.101562 293.429688 240.945312 295.304688 240.894531 C 297.175781 240.839844 301.800781 240.53125 305.496094 240.164062 C 309.238281 239.855469 312.667969 239.488281 313.242188 239.488281 C 314.074219 239.386719 314.125 239.488281 313.5 240.320312 Z M 326.707031 249.003906 C 328.214844 250.148438 330.035156 251.5 330.710938 251.96875 C 332.011719 252.851562 332.011719 252.851562 328.890625 252.851562 C 324.835938 252.90625 313.5 254.257812 308.71875 255.246094 C 306.636719 255.660156 304.921875 256.023438 304.816406 256.023438 C 304.714844 256.023438 305.648438 254.777344 306.898438 253.21875 C 308.144531 251.65625 310.746094 248.171875 312.773438 245.46875 L 316.414062 240.582031 L 320.210938 243.753906 C 322.289062 245.46875 325.253906 247.859375 326.707031 249.003906 Z M 264.9375 252.4375 C 269.667969 256.855469 274.710938 260.808594 280.953125 264.917969 L 287.140625 269.023438 L 273.414062 269.023438 C 259.320312 269.023438 253.757812 268.660156 239.460938 266.890625 C 226.980469 265.382812 227.550781 265.644531 231.453125 263.460938 C 241.695312 257.792969 251.730469 250.566406 255.578125 246.042969 L 257.136719 244.222656 L 259.738281 247.132812 C 261.195312 248.746094 263.535156 251.136719 264.9375 252.4375 Z M 390.714844 255.558594 C 391.910156 256.597656 392.691406 257.792969 392.898438 259.039062 C 393.105469 260.082031 393.785156 262.109375 394.40625 263.5625 C 396.070312 267.414062 397.164062 271.832031 397.734375 277.34375 C 398.046875 280.097656 398.410156 283.011719 398.617188 283.894531 C 398.929688 285.402344 398.828125 285.507812 395.707031 286.910156 C 392.796875 288.261719 391.910156 288.367188 385.566406 288.417969 L 378.652344 288.523438 L 376.675781 286.910156 C 373.867188 284.726562 372.933594 281.503906 372.257812 272.457031 C 371.582031 263.71875 371.839844 260.289062 373.402344 257.792969 C 374.753906 255.609375 376.105469 254.984375 380.628906 254.464844 C 387.648438 253.683594 388.738281 253.789062 390.714844 255.558594 Z M 345.113281 257.636719 C 347.820312 257.949219 351.980469 258.730469 354.320312 259.40625 C 359.152344 260.808594 366.121094 263.929688 367.109375 265.125 C 367.472656 265.539062 368.203125 265.902344 368.722656 265.902344 C 369.398438 265.902344 369.710938 266.269531 369.710938 266.996094 C 369.710938 267.878906 369.5 268.035156 368.566406 267.777344 C 361.648438 265.902344 351.71875 266.113281 343.453125 268.191406 C 333.15625 270.84375 323.226562 276.875 320.519531 282.128906 L 319.6875 283.738281 L 321.144531 283.375 C 321.925781 283.167969 324.367188 281.761719 326.5 280.253906 C 333.363281 275.417969 339.449219 272.871094 347.820312 271.3125 C 353.175781 270.324219 362.691406 270.273438 366.328125 271.261719 L 368.929688 271.988281 L 366.070312 272.871094 C 362.015625 274.222656 349.585938 279.578125 345.425781 281.867188 C 339.082031 285.246094 328.058594 292.007812 322.445312 295.855469 L 316.984375 299.652344 L 315.582031 296.324219 C 312.667969 289.613281 305.234375 264.085938 305.234375 261.015625 C 305.234375 260.082031 308.199219 259.40625 317.453125 258.417969 C 329.828125 257.011719 337.785156 256.804688 345.113281 257.636719 Z M 303.308594 266.789062 L 303.675781 268.503906 L 292.910156 268.503906 L 297.070312 264.394531 L 301.28125 260.289062 L 302.113281 262.679688 C 302.582031 264.03125 303.15625 265.902344 303.308594 266.789062 Z M 184.605469 267.308594 C 180.808594 272.507812 174.621094 294.554688 172.175781 311.507812 C 171.1875 318.160156 170.253906 331.316406 170.824219 330.121094 C 170.929688 329.808594 171.917969 324.558594 172.90625 318.421875 C 176.078125 299.546875 178.726562 288.160156 182.367188 277.65625 C 184.449219 271.675781 185.488281 269.441406 186.476562 268.867188 C 186.890625 268.660156 187.203125 268.140625 187.203125 267.722656 C 187.203125 267.101562 187.621094 267.152344 189.4375 267.933594 C 190.636719 268.453125 195.160156 270.0625 199.472656 271.519531 C 209.199219 274.847656 220.167969 276.925781 239.71875 279.214844 C 248.296875 280.253906 301.230469 280.878906 304.351562 280.046875 C 305.960938 279.578125 306.273438 279.632812 306.273438 280.253906 C 306.273438 280.722656 306.480469 280.929688 306.691406 280.777344 C 306.898438 280.621094 307.988281 283.269531 309.082031 286.597656 C 310.175781 289.925781 311.785156 294.191406 312.566406 296.011719 C 313.398438 297.832031 313.96875 299.753906 313.8125 300.273438 C 313.65625 300.792969 312.617188 301.46875 311.578125 301.835938 C 310.539062 302.199219 307.886719 303.289062 305.753906 304.277344 C 303.621094 305.265625 295.40625 308.230469 287.554688 310.882812 C 270.136719 316.757812 258.023438 321.28125 243.617188 327.261719 C 205.140625 343.277344 168.640625 361.632812 146.90625 375.878906 C 139.472656 380.714844 130.476562 387.683594 127.667969 390.75 C 125.640625 392.882812 126.421875 392.414062 133.386719 387.265625 C 145.972656 377.957031 158.5 370.210938 176.804688 360.539062 C 212.527344 341.5625 262.078125 320.554688 295.09375 310.363281 C 298.527344 309.269531 303.050781 307.867188 305.128906 307.191406 L 308.976562 305.996094 L 308.144531 307.242188 C 307.367188 308.386719 307.417969 308.800781 309.132812 313.636719 C 311.265625 319.824219 314.699219 327.15625 317.871094 332.460938 L 320.210938 336.359375 L 319.117188 337.246094 C 316.621094 339.21875 300.398438 350.191406 293.796875 354.402344 C 270.917969 368.910156 250.273438 379.363281 223.859375 389.917969 C 217.570312 392.414062 212.214844 394.648438 211.953125 394.910156 C 211.746094 395.117188 213.929688 394.492188 216.894531 393.558594 C 246.375 384.09375 279.445312 366.832031 313.398438 343.222656 L 321.300781 337.765625 L 323.015625 340.417969 C 324.992188 343.484375 331.960938 352.375 335.027344 355.703125 L 337.054688 357.941406 L 334.558594 360.902344 C 330.140625 366.207031 311.941406 384.09375 305.753906 389.191406 C 277.726562 412.484375 244.867188 431.984375 216.007812 442.4375 C 201.710938 447.636719 178.726562 452.992188 165.730469 454.1875 C 156.316406 455.070312 135.933594 454.5 126.886719 453.148438 C 114.824219 451.378906 106.972656 449.507812 96.9375 446.128906 C 83.835938 441.707031 67.09375 433.335938 64.335938 429.851562 C 63.765625 429.175781 63.039062 428.707031 62.671875 428.863281 C 61.839844 429.175781 45.828125 416.851562 45.152344 415.34375 C 44.839844 414.667969 43.226562 413.058594 41.5625 411.757812 C 39.847656 410.40625 38.496094 409.15625 38.496094 408.949219 C 38.496094 408.742188 39.585938 407.179688 40.886719 405.464844 C 42.238281 403.800781 46.816406 397.71875 51.128906 392 C 71.511719 364.90625 85.96875 348.058594 107.390625 326.273438 C 136.039062 297.257812 159.125 278.070312 175.246094 270.0625 L 178.625 268.398438 L 173.164062 274.015625 C 170.148438 277.136719 165.105469 282.59375 161.984375 286.183594 C 158.8125 289.769531 153.355469 295.957031 149.765625 300.015625 C 146.179688 304.019531 140.875 310.152344 137.964844 313.585938 L 132.609375 319.878906 L 134.273438 320.449219 C 135.15625 320.761719 135.933594 321.023438 135.988281 321.023438 C 136.089844 321.023438 138.429688 318.265625 141.238281 314.886719 C 144.046875 311.558594 148.257812 306.671875 150.546875 304.121094 C 152.886719 301.523438 158.347656 295.335938 162.765625 290.34375 C 169.578125 282.542969 185.070312 265.902344 185.539062 265.902344 C 185.589844 265.902344 185.175781 266.527344 184.605469 267.308594 Z M 370.074219 277.34375 C 370.59375 279.789062 370.542969 279.945312 369.5 279.945312 C 368.253906 279.945312 366.070312 283.425781 357.957031 298.402344 C 350.472656 312.234375 343.917969 326.066406 342.671875 330.589844 C 342.046875 332.824219 341.632812 334.75 341.789062 334.851562 C 342.203125 335.320312 344.804688 330.796875 349.847656 320.710938 C 355.359375 309.738281 362.167969 296.945312 367.628906 287.429688 L 370.957031 281.609375 L 372.152344 285.300781 C 372.777344 287.328125 373.816406 289.667969 374.390625 290.445312 C 375.6875 292.164062 375.898438 297.207031 374.960938 301.46875 C 374.597656 302.875 374.285156 304.851562 374.179688 305.890625 C 373.921875 308.4375 368.617188 327.574219 366.015625 335.21875 C 364.875 338.597656 362.429688 344.679688 360.507812 348.734375 C 358.632812 352.792969 356.292969 357.992188 355.304688 360.28125 C 354.320312 362.566406 353.433594 364.492188 353.382812 364.59375 C 352.863281 365.0625 344.386719 357.941406 340.746094 353.988281 C 329.464844 341.769531 319.585938 326.378906 314.59375 313.171875 C 311.890625 305.996094 311.472656 306.773438 322.601562 299.339844 C 335.652344 290.601562 364.925781 275.109375 368.980469 274.796875 C 369.292969 274.742188 369.8125 275.886719 370.074219 277.34375 Z M 412.085938 294.398438 C 413.230469 295.125 420.976562 300.898438 429.246094 307.242188 C 445.726562 319.878906 457.375 328.40625 464.132812 332.773438 C 468.605469 335.683594 474.117188 338.492188 474.53125 338.023438 C 474.792969 337.765625 469.175781 333.5 456.699219 324.453125 C 447.496094 317.851562 428.308594 303.289062 426.644531 301.730469 C 425.761719 300.847656 426.074219 300.898438 428.878906 302.042969 C 430.699219 302.769531 434.808594 304.070312 437.980469 304.902344 C 445 306.671875 462.9375 310.101562 465.433594 310.101562 C 467.046875 310.101562 468.292969 311.140625 478.484375 320.917969 C 502.820312 344.160156 520.652344 363.761719 540.671875 389.554688 L 544.414062 394.339844 L 542.230469 394.027344 C 539.164062 393.558594 526.738281 389.292969 518.9375 386.019531 C 505.261719 380.351562 483.734375 369.328125 481.761719 367.039062 C 480.199219 365.21875 474.585938 361.527344 474.273438 362.046875 C 474.117188 362.308594 468.449219 358.667969 461.742188 353.9375 C 435.171875 335.269531 412.449219 315.40625 400.074219 300.015625 C 397.109375 296.324219 394.667969 293.097656 394.667969 292.839844 C 394.667969 292.632812 395.082031 292.421875 395.601562 292.421875 C 396.851562 292.421875 401.945312 289.875 401.945312 289.199219 C 401.945312 288.730469 407.613281 291.644531 412.085938 294.398438 Z M 395.65625 299.234375 C 406.210938 313.171875 420.820312 327.054688 444.269531 345.410156 C 450.25 350.035156 471.933594 365.425781 476.351562 368.132812 C 479.210938 369.847656 479.421875 370.160156 489.402344 386.902344 C 513.011719 426.523438 522.628906 443.789062 536.148438 470.773438 C 555.023438 508.628906 568.175781 541.957031 575.5625 570.660156 L 578.578125 582.414062 L 570.308594 587.820312 C 565.785156 590.785156 560.328125 594.164062 558.195312 595.308594 C 556.113281 596.453125 552.839844 598.273438 550.914062 599.363281 C 537.917969 606.746094 495.957031 623.230469 470.0625 631.082031 C 423.785156 645.226562 376.988281 654.378906 331.492188 658.226562 C 282.773438 662.28125 221.363281 659.367188 168.746094 650.425781 C 138.742188 645.328125 105.464844 636.074219 82.171875 626.246094 C 69.535156 620.941406 41.148438 606.902344 38.441406 604.5625 C 37.976562 604.199219 34.960938 602.222656 31.683594 600.195312 C 25.234375 596.191406 10.9375 586.15625 9.898438 584.910156 C 9.117188 583.972656 10.9375 576.226562 15.980469 558.910156 C 26.378906 523.449219 41.40625 482.421875 55.601562 450.859375 C 58.824219 443.734375 63.246094 434.480469 63.714844 433.960938 C 63.816406 433.855469 65.117188 434.585938 66.625 435.570312 C 81.601562 444.984375 102.917969 452.628906 122.882812 455.644531 C 151.117188 459.957031 175.347656 457.828125 206.910156 448.363281 C 218.347656 444.878906 228.074219 441.03125 240.5 434.894531 C 264.625 422.988281 285.839844 409.15625 307.054688 391.425781 C 314.332031 385.34375 329.308594 370.679688 335.234375 363.867188 L 338.875 359.707031 L 341.421875 361.996094 C 345.738281 365.949219 349.171875 367.976562 351.925781 368.183594 C 354.683594 368.390625 356.292969 367.714844 355.304688 366.726562 C 354.527344 365.949219 354.890625 364.960938 358.996094 357.785156 C 363.105469 350.554688 367.578125 341.664062 369.34375 337.140625 C 373.140625 327.519531 378.445312 306.980469 378.914062 300.222656 C 379.070312 297.519531 379.433594 294.867188 379.691406 294.347656 C 380.054688 293.566406 380.941406 293.464844 385.722656 293.464844 L 391.289062 293.464844 Z M 516.234375 387.785156 C 524.96875 391.21875 536.667969 394.960938 540.515625 395.585938 C 544.988281 396.367188 545.820312 396.832031 546.910156 399.433594 C 549.148438 404.738281 549.5625 409.625 548.316406 415.085938 C 546.703125 421.84375 537.449219 437.964844 531 445.191406 L 528.503906 448 L 523.617188 438.953125 C 515.972656 424.859375 491.433594 382.585938 486.285156 374.683594 C 485.710938 373.800781 488.105469 374.785156 496.527344 378.945312 C 502.609375 381.960938 511.503906 385.914062 516.234375 387.785156 Z M 51.753906 424.757812 C 54.925781 427.253906 58.253906 429.902344 59.191406 430.632812 L 60.90625 432.035156 L 56.539062 441.394531 C 54.144531 446.542969 51.390625 452.574219 50.453125 454.757812 C 49.519531 456.996094 48.53125 458.816406 48.375 458.816406 C 47.855469 458.816406 43.851562 450.183594 42.394531 445.816406 C 40.316406 439.730469 38.441406 428.34375 38.132812 419.816406 L 37.871094 412.277344 L 41.925781 416.28125 C 44.214844 418.464844 48.632812 422.3125 51.753906 424.757812 Z M 563.34375 624.6875 C 572.128906 650.683594 572.023438 650.164062 569.839844 654.378906 C 569.320312 655.46875 568.175781 658.691406 567.347656 661.605469 C 566.515625 664.515625 565.683594 667.011719 565.527344 667.167969 C 565.371094 667.324219 564.121094 667.167969 562.769531 666.910156 C 561.417969 666.597656 558.296875 665.972656 555.855469 665.503906 C 545.714844 663.582031 521.484375 654.742188 505.835938 647.253906 C 493.5625 641.378906 492.941406 641.222656 491.171875 643.199219 C 489.714844 644.808594 484.414062 653.441406 481.242188 659.265625 C 480.148438 661.242188 476.5625 667.011719 473.285156 672.003906 C 467.566406 680.636719 466.679688 681.675781 456.074219 692.492188 C 443.90625 704.761719 437.148438 710.585938 429.246094 715.371094 C 423.472656 718.90625 424.722656 718.855469 415.464844 715.527344 C 394.980469 708.144531 371.582031 694.257812 352.34375 678.089844 C 347.300781 673.824219 346.050781 672.992188 345.582031 673.617188 C 345.269531 674.03125 343.972656 675.019531 342.671875 675.851562 C 341.371094 676.683594 335.910156 680.636719 330.453125 684.640625 C 312.617188 697.796875 310.226562 699.40625 303.933594 702.941406 C 296.445312 707.15625 277.882812 716.929688 270.65625 720.519531 C 260.050781 725.71875 235.300781 734.921875 231.765625 734.921875 C 229.890625 734.921875 228.4375 734.296875 223.496094 731.386719 C 207.898438 722.078125 200.980469 716.460938 183.824219 698.992188 C 164.117188 678.921875 155.433594 668.574219 151.273438 660.148438 C 150.078125 657.808594 149.039062 655.886719 148.882812 655.886719 C 148.726562 655.886719 147.945312 656.457031 147.113281 657.183594 C 142.902344 660.722656 116.90625 672.472656 106.816406 675.382812 C 90.386719 680.167969 70.210938 684.484375 64.285156 684.484375 L 60.4375 684.484375 L 57.421875 680.011719 C 51.910156 671.746094 39.484375 645.328125 37.507812 637.53125 C 36.933594 635.398438 36.207031 633.164062 35.894531 632.640625 C 35.425781 631.914062 35.84375 629.574219 37.976562 621.046875 C 39.429688 615.171875 40.730469 610.335938 40.835938 610.230469 C 40.9375 610.128906 43.851562 611.582031 47.335938 613.507812 C 66.574219 624.113281 88.359375 633.371094 109.054688 639.765625 C 153.355469 653.492188 198.539062 660.410156 260.984375 663.164062 C 328.890625 666.128906 400.804688 656.25 471.882812 634.203125 C 495.539062 626.871094 528.089844 614.078125 546.234375 604.925781 C 551.121094 602.484375 555.125 600.507812 555.125 600.507812 C 555.179688 600.507812 558.871094 611.375 563.34375 624.6875 Z M 39.742188 650.425781 C 43.644531 659.316406 51.753906 675.28125 54.769531 679.960938 C 58.460938 685.628906 58.511719 685.730469 57.941406 685.417969 C 57.679688 685.265625 53.15625 682.769531 47.855469 679.804688 C 37.976562 674.34375 31.839844 670.546875 30.695312 669.144531 C 30.332031 668.730469 29.707031 668.363281 29.34375 668.363281 C 28.929688 668.363281 28.617188 668.105469 28.617188 667.792969 C 28.617188 665.972656 33.453125 639.039062 34.128906 637.167969 C 34.285156 636.75 35.0625 638.257812 35.84375 640.546875 C 36.625 642.832031 38.390625 647.253906 39.742188 650.425781 Z M 502.507812 649.386719 C 516.128906 656.507812 541.140625 665.246094 556.167969 668.207031 L 563.1875 669.558594 L 560.691406 671.121094 C 556.582031 673.667969 543.324219 680.480469 543.011719 680.167969 C 542.855469 680.011719 541.660156 680.53125 540.359375 681.363281 C 537.917969 682.871094 519.09375 690.621094 506.976562 695.144531 C 488.9375 701.851562 466.371094 708.765625 446.144531 713.65625 C 439.125 715.371094 432.9375 716.878906 432.363281 717.035156 C 431.792969 717.191406 432.625 716.566406 434.183594 715.578125 C 440.371094 711.78125 445.726562 707.363281 454.410156 698.835938 C 465.433594 688.019531 469.644531 683.027344 475.988281 673.410156 C 481.03125 665.765625 487.167969 655.15625 488.832031 651.414062 C 489.613281 649.542969 493.148438 644.964844 493.769531 644.964844 C 493.925781 644.964844 497.828125 646.941406 502.507812 649.386719 Z M 573.378906 662.851562 C 572.597656 663.476562 571.296875 664.359375 570.464844 664.878906 L 568.957031 665.765625 L 570.726562 660.304688 C 571.714844 657.339844 572.492188 654.480469 572.546875 653.960938 C 572.597656 653.441406 573.117188 655 573.6875 657.394531 L 574.78125 661.707031 Z M 149.714844 663.683594 C 153.71875 671.898438 164.273438 684.328125 184.082031 704.242188 C 198.433594 718.699219 203.425781 722.804688 215.230469 730.085938 C 221.519531 733.984375 222.039062 734.402344 220.222656 734.140625 C 219.078125 733.984375 211.226562 733.050781 202.800781 732.0625 C 181.433594 729.460938 175.554688 728.527344 165.261719 726.082031 C 126.730469 716.878906 105.207031 709.234375 74.371094 693.949219 L 62.152344 687.863281 L 66.3125 687.5 C 74.683594 686.71875 99.640625 680.894531 111.03125 676.996094 C 121.898438 673.304688 140.980469 664.515625 145.605469 661.03125 C 146.335938 660.511719 147.167969 660.097656 147.425781 660.097656 C 147.738281 660.097656 148.726562 661.707031 149.714844 663.683594 Z M 362.636719 690.515625 C 367.941406 694.625 376.78125 700.238281 387.597656 706.324219 C 392.953125 709.339844 409.070312 716.046875 415.257812 717.8125 C 418.585938 718.75 421.082031 719.582031 420.820312 719.6875 C 417.335938 720.621094 384.320312 727.328125 379.328125 728.109375 C 358.113281 731.4375 338.460938 733.515625 318.234375 734.660156 C 302.425781 735.597656 250.847656 736.324219 244.660156 735.703125 L 240.550781 735.335938 L 249.597656 732.320312 C 264.054688 727.589844 267.015625 726.238281 288.386719 714.746094 C 309.082031 703.671875 313.035156 701.070312 336.585938 683.183594 L 345.84375 676.164062 L 351.199219 681 C 354.109375 683.601562 359.257812 687.914062 362.636719 690.515625 Z M 540.253906 685.628906 C 540.253906 685.992188 540.722656 689.476562 541.296875 693.324219 C 542.230469 699.925781 546.546875 734.089844 547.273438 740.953125 L 547.640625 744.175781 L 544.933594 744.75 C 542.75 745.214844 541.503906 745.164062 537.550781 744.28125 C 534.898438 743.707031 530.898438 743.242188 528.660156 743.242188 C 521.589844 743.242188 517.949219 745.683594 504.117188 759.566406 C 494.136719 769.605469 492.003906 771.164062 486.128906 772.671875 C 478.226562 774.699219 472.347656 773.453125 454.984375 765.964844 C 450.09375 763.882812 449.9375 763.882812 443.542969 763.832031 C 437.042969 763.78125 436.992188 763.78125 433.09375 765.703125 C 430.910156 766.796875 427.320312 769.082031 425.03125 770.851562 C 422.796875 772.621094 418.6875 775.117188 415.984375 776.46875 C 411.304688 778.703125 410.734375 778.808594 405.847656 779.015625 C 399.503906 779.273438 393.261719 777.921875 382.65625 774.023438 C 378.808594 772.566406 374.285156 771.164062 372.621094 770.851562 C 363.675781 769.1875 355.410156 771.113281 343.554688 777.507812 C 340.902344 778.910156 335.859375 781.40625 332.324219 783.019531 C 316.828125 790.089844 308.613281 789.882812 284.175781 781.71875 C 265.144531 775.324219 258.957031 774.699219 245.4375 777.664062 C 231.296875 780.730469 226.667969 781.355469 220.273438 781.09375 C 212.785156 780.78125 208.15625 779.222656 200.152344 774.386719 C 192.507812 769.8125 189.023438 768.355469 181.484375 766.847656 C 173.789062 765.234375 169.316406 765.289062 156.683594 767.003906 C 149.453125 767.941406 143.890625 768.355469 138.066406 768.40625 L 129.746094 768.460938 L 126.367188 766.796875 C 124.082031 765.703125 121.167969 763.46875 117.21875 759.777344 C 110.199219 753.277344 106.351562 750.882812 100.996094 749.742188 C 87.476562 746.828125 85.394531 746.257812 81.339844 744.28125 C 77.335938 742.355469 71.617188 738.042969 70.472656 736.066406 C 69.433594 734.246094 69.796875 726.964844 71.566406 712.5625 C 72.550781 704.449219 73.488281 697.691406 73.59375 697.585938 C 73.644531 697.484375 76.035156 698.574219 78.84375 699.980469 C 100.683594 710.898438 124.496094 719.167969 156.007812 726.808594 C 194.535156 736.117188 205.351562 737.675781 239.25 738.613281 C 292.753906 740.121094 342.203125 737.363281 381.929688 730.710938 C 397.941406 728.003906 444.582031 717.503906 463.5625 712.300781 C 486.285156 706.0625 518.886719 694.46875 535.578125 686.667969 C 539.371094 684.898438 540.253906 684.691406 540.253906 685.628906 Z M 540.253906 685.628906 " fill-opacity="1" fill-rule="nonzero"/><path fill="#000000" d="M 410.007812 79.753906 C 409.796875 80.636719 409.746094 81.519531 409.902344 81.625 C 410.007812 81.78125 410.265625 81.105469 410.472656 80.222656 C 410.890625 78.039062 410.472656 77.621094 410.007812 79.753906 Z M 410.007812 79.753906 " fill-opacity="1" fill-rule="nonzero"/><path fill="#000000" d="M 409.277344 83.183594 C 409.277344 83.757812 409.433594 83.914062 409.589844 83.496094 C 409.746094 83.132812 409.695312 82.664062 409.539062 82.507812 C 409.382812 82.300781 409.226562 82.613281 409.277344 83.183594 Z M 409.277344 83.183594 " fill-opacity="1" fill-rule="nonzero"/><path fill="#000000" d="M 408.757812 85.265625 C 408.757812 85.835938 408.914062 85.992188 409.070312 85.578125 C 409.226562 85.214844 409.175781 84.746094 409.019531 84.589844 C 408.863281 84.382812 408.707031 84.691406 408.757812 85.265625 Z M 408.757812 85.265625 " fill-opacity="1" fill-rule="nonzero"/><path fill="#000000" d="M 408.238281 87.34375 C 408.238281 87.917969 408.394531 88.074219 408.550781 87.65625 C 408.707031 87.292969 408.652344 86.824219 408.5 86.667969 C 408.34375 86.460938 408.1875 86.773438 408.238281 87.34375 Z M 408.238281 87.34375 " fill-opacity="1" fill-rule="nonzero"/><path fill="#000000" d="M 407.71875 89.425781 C 407.71875 89.996094 407.875 90.152344 408.03125 89.738281 C 408.1875 89.371094 408.132812 88.90625 407.976562 88.75 C 407.820312 88.539062 407.667969 88.851562 407.71875 89.425781 Z M 407.71875 89.425781 " fill-opacity="1" fill-rule="nonzero"/><path fill="#000000" d="M 402.621094 275.574219 C 402.207031 276.667969 402.933594 277.082031 407.925781 278.695312 C 418.6875 282.128906 435.640625 285.664062 441.097656 285.664062 C 443.648438 285.609375 443.75 285.609375 442.503906 284.933594 C 441.097656 284.15625 436.316406 282.960938 425.863281 280.722656 C 422.277344 279.945312 415.777344 278.28125 411.359375 277.03125 C 406.992188 275.785156 403.296875 274.742188 403.195312 274.742188 C 403.039062 274.742188 402.832031 275.109375 402.621094 275.574219 Z M 402.621094 275.574219 " fill-opacity="1" fill-rule="nonzero"/></svg>