<?xml version="1.0" encoding="utf-8"?>
<svg version="1.1" id="Layer_1" xmlns="http://www.w3.org/2000/svg" xmlns:xlink="http://www.w3.org/1999/xlink" x="0px" y="0px"
	 viewBox="0 0 1591.632 1670.816" enable-background="new 0 0 1591.632 1670.816" xml:space="preserve">
<g>
	<path fill="#817D7B" stroke="#817D7B" d="M223.948,44.375c0.89-2.835,4.808-3.842,7.026-1.849
		c9.56,7.305,19.039,14.745,28.518,22.176c18.866,15.148,37.485,32.706,45.74,56.076c3.058-10.885,6.52-21.727,11.829-31.763
		c7.012-13.737,16.586-26.025,27.339-37.021c5.383-5.403,10.883-10.714,16.72-15.627c2.156-1.889,5.883-0.84,6.876,1.838
		c10.025,21.406,17.723,44.083,20.978,67.57c0.405,3.018,0.741,6.06,1.018,9.106c1.187,13.662,0.691,27.478-1.547,41.012
		c-0.637,3.609-1.374,7.215-2.182,10.805c-0.634,2.166-0.782,5.011-3.058,6.167c-2.303,1.348-5.52,0.134-6.408-2.33
		c-0.733-1.793,0.081-3.672,0.423-5.428c5.364-21.638,5.504-44.405,1.397-66.273c-3.294-17.706-9.066-34.893-16.419-51.302
		c-10.829,9.879-21.106,20.512-29.325,32.698c-13.61,19.683-20.203,43.298-22.832,66.854c0.094,3.459-3.931,6.146-6.956,4.218
		c-2.735-1.487-2.237-4.927-2.442-7.507c-0.763-15.534-7.09-30.42-16.601-42.606c-14.155-18.202-33.219-31.533-51.136-45.694
		c-0.862-0.603-1.702-1.177-2.539-1.701c-3.787,13.138-6.69,26.606-7.345,40.293c-1.086,17.372,1.471,34.987,7.633,51.277
		c6.182,16.428,15.843,31.429,27.507,44.501c1.388,1.559,3.08,3.327,2.597,5.653c-1.19,13.913-2.522,27.806-4.136,41.678
		c-3.261,0.952-6.468,2.111-9.525,3.551c1.599-14.822,3.199-29.645,4.446-44.494c-14.366-16.284-26.055-35.204-32.28-56.097
		C209.62,108.86,213.338,74.923,223.948,44.375z"/>
	<path fill="#FFFFFF" stroke="#FFFFFF" d="M230.366,53.796c0.837,0.524,1.677,1.098,2.539,1.701
		c17.918,14.16,36.981,27.492,51.136,45.694c9.51,12.186,15.838,27.072,16.601,42.606c0.205,2.58-0.293,6.02,2.442,7.507
		c3.025,1.928,7.05-0.758,6.956-4.218c2.63-23.556,9.222-47.171,22.832-66.854c8.218-12.186,18.496-22.819,29.325-32.698
		c7.353,16.409,13.125,33.597,16.419,51.302c4.107,21.868,3.967,44.634-1.397,66.273c-0.342,1.756-1.156,3.634-0.423,5.428
		c0.888,2.464,4.105,3.678,6.408,2.33c2.275-1.156,2.423-4.001,3.058-6.167c24.41,27.042,39.424,63.085,38.444,99.751
		c-9.843,3.292-19.343,8.553-25.554,17.098c-4.701,5.708-6.606,12.928-8.885,19.784c-0.82-17.122-6.623-34.458-18.298-47.249
		c-8.73-9.685-21.153-16.235-34.282-16.777c-12.848-0.702-25.443,4.409-35.307,12.42c-11.146-12.666-29.267-19.19-45.758-14.527
		c1.614-13.872,2.945-27.765,4.136-41.678c0.483-2.327-1.209-4.095-2.597-5.653c-11.664-13.072-21.325-28.073-27.507-44.501
		c-6.162-16.29-8.719-33.905-7.633-51.277C223.676,80.402,226.579,66.934,230.366,53.796 M355.288,61.884
		c0.705,5.221,1.668,10.424,1.877,15.719c-1.58,1.96-1.436,4.675-2.191,6.98c-4.375,16.573-10.501,32.884-20.017,47.212
		c-3.65,5.706-8.791,10.242-12.684,15.754c-2.74-3.19-8.672-1.005-8.138,3.326c1.42,6.915,3.963,13.544,6.56,20.089
		c0.874,1.964,1.529,4.534,3.874,5.286c1.964,0.748,4.07-0.236,5.453-1.712c8.237-7.92,15.056-17.267,20.652-27.212
		c14.052-24.691,18.862-54.205,14.321-82.173c-0.6-2.503-0.252-5.782-2.702-7.349C359.394,55.666,354.774,58.303,355.288,61.884
		 M232.193,74.086c-0.838,1.82-0.121,3.975,1.349,5.267c2.819,2.874,5.669,5.756,8.197,8.92c3.187,12.885,7.849,25.5,9.499,38.77
		c1.912,9.296,2.238,19.12-0.516,28.291c-3.851-3.164-9.648,2.327-6.466,6.268c7.334,8.307,15.133,17.104,25.674,21.297
		c2.731,1.427,6.458-0.338,6.764-3.504c6.481-39.143-8.803-80.506-37.718-107.352C236.735,70.322,233.116,71.449,232.193,74.086z"/>
	<path fill="#999795" stroke="#999795" d="M355.288,61.884c-0.513-3.581,4.106-6.218,7.005-4.081
		c2.45,1.567,2.101,4.846,2.702,7.349c4.541,27.968-0.27,57.482-14.321,82.173c-5.596,9.945-12.415,19.292-20.652,27.212
		c-1.382,1.476-3.489,2.46-5.453,1.712c-2.345-0.752-3-3.322-3.874-5.286c-2.597-6.545-5.14-13.174-6.56-20.089
		c-0.534-4.331,5.398-6.516,8.138-3.326c2.2,5.26,2.791,11.169,5.722,16.139c20.656-23.316,31.752-54.959,29.171-86.085
		C356.956,72.308,355.992,67.105,355.288,61.884z"/>
	<path fill="#999795" stroke="#999795" d="M232.193,74.086c0.923-2.637,4.543-3.764,6.783-2.042
		c28.914,26.847,44.199,68.21,37.718,107.352c-0.306,3.166-4.033,4.931-6.764,3.504c-10.541-4.193-18.339-12.99-25.674-21.297
		c-3.182-3.941,2.616-9.432,6.466-6.268c5.514,5.987,10.963,12.198,17.811,16.722c2.912-30.036-7.069-60.981-26.794-83.783
		c-2.528-3.164-5.378-6.046-8.197-8.92C232.072,78.06,231.354,75.905,232.193,74.086z"/>
	<path fill="#E9F4F7" stroke="#E9F4F7" d="M354.973,84.582c0.755-2.305,0.611-5.02,2.191-6.98
		c2.581,31.126-8.515,62.769-29.171,86.085c-2.931-4.97-3.522-10.879-5.722-16.139c3.893-5.513,9.035-10.048,12.684-15.754
		C344.472,117.467,350.598,101.156,354.973,84.582z"/>
	<path fill="#E9F4F7" stroke="#E9F4F7" d="M241.738,88.273c19.725,22.802,29.706,53.747,26.794,83.783
		c-6.847-4.524-12.296-10.735-17.811-16.722c2.754-9.171,2.428-18.995,0.516-28.291C249.587,113.773,244.926,101.158,241.738,88.273
		z"/>
	<path fill="#FFF6D5" stroke="#FFF6D5" d="M388.973,105.776c34.058-0.256,68.446,2.862,101.153,12.815
		c32.149,9.55,61.675,26.799,87.061,48.597c26.078,21.65,48.808,47.985,79.161,63.997c16.28,8.622,34.474,13.258,52.812,14.569
		c3.291-0.203,6.003,3.439,4.395,6.473c-6.508,13.933-18.317,25.161-32.337,31.4c1.353,1.19,2.773,2.336,4.36,3.29
		c14.87,9.239,28.372,20.774,39.403,34.399c11.029,13.305,18.946,28.735,27.74,43.513c6.873,11.704,15.159,22.962,26.364,30.886
		c14.619,10.568,32.256,15.863,49.768,19.303c2.553,0.288,5.505,2.011,5.137,5.01c-1.015,9.264-4.858,18.028-10.225,25.584
		c21.674,6.043,40.996,20.078,53.283,38.947c12.256,18.41,17.977,40.75,17.607,62.771c-0.101,3.242-0.271,6.499-0.572,9.745
		c-1.908,19.731-9.13,38.781-20.323,55.106c-10.549,15.199-24.571,27.919-40.549,37.195
		c-32.398,18.683-72.219,23.176-108.252,13.669c-32.693-8.261-61.694-28.711-82.138-55.321c-4.453-5.558-8.056-11.714-12.002-17.616
		c-5.005,2.263-9.915,4.899-15.392,5.811c-17.177,3.118-34.848-0.162-51.154-5.767c-3.045-0.885-4.08-5.222-1.72-7.336
		c2.283-1.487,5.152-2.022,7.152-3.991c6.073-5.71,10.474-12.9,14.688-20.027c14.947-27.006,21.786-58.36,20.221-89.124
		c-5.787,4.619-11.87,9.148-19.116,11.162c-10.289,3.362-21.322,3.138-31.868,1.389c-2.933,1.501-4.316,5.04-6.75,7.249
		c-14.014,14.312-34.15,23.43-54.406,21.608c-8.291-0.55-16.14-3.593-23.421-7.427c-5.686-3.801-10.958-8.272-14.98-13.829
		c-6.395-8.05-9.741-17.95-12.053-27.83c-0.99-9.729-1.673-19.659,0.276-29.317c2.096-10.158,7.114-19.463,13.076-27.851
		c9.965-14.358,22.225-26.908,32.38-41.119c3.58-5.111,7.405-10.148,9.889-15.915c-6.129,3.26-11.913,7.188-18.533,9.42
		c-20.1,8.024-43.854,6.759-62.433-4.592c-8.526-5.492-16.414-12.509-21.051-21.671c-2.996-5.035-3.815-10.91-5.568-16.39
		c-0.085-3.76,0.384-7.488,0.21-11.233c2.28-6.856,4.184-14.076,8.885-19.784c6.212-8.544,15.711-13.806,25.554-17.098
		c0.98-36.666-14.034-72.709-38.444-99.751c0.808-3.591,1.545-7.196,2.182-10.805c24.105,24.468,40.548,56.758,44.453,91.02
		c0.762,6.068,0.917,12.188,1.151,18.302c11.462,0.345,22.465,7.362,27.059,17.958c4.805,9.701,3.727,21.874-2.404,30.733
		c-5.254,7.458-15.672,9.647-24.019,6.797c-3.308-1.078-3.864-6.018-0.975-7.887c1.814-1.465,4.185-0.464,6.272-0.275
		c4.603,0.96,9.896-0.891,12.168-5.192c6.438-10.823,1.41-26.479-10.348-31.19c-7.129-3.363-15.167-1.065-21.917,2.047
		c-9.332,4.329-16.729,12.823-19.234,22.859c-3.426,12.703,1.045,26.933,10.662,35.817c10.673,10.425,25.447,16.475,40.384,16.373
		c25.181-0.004,49.156-14.831,62.063-36.17c5.591-9.274,10.325-19.381,11.41-30.272c0.355-2.438,0.073-5.714,2.648-7.031
		c2.892-1.959,7.263,0.75,6.777,4.228c-0.657,14.088-6.47,27.343-13.873,39.143c-2.507,4.096-6.155,7.609-7.209,12.458
		c-2.217,8.083-6.743,15.181-10.895,22.354c-9.492,15.568-21.923,29.001-33.208,43.228c-6.32,8.121-12.528,16.575-16.135,26.315
		c-3.558,9.416-3.589,19.755-2.508,29.638c1.773,15.665,9.991,31.245,24.057,39.116c15.362,8.965,35.124,7.184,50.221-1.492
		c8.573-5.039,17.193-11.312,21.554-20.552c6.52-13.904,3.277-31.443-6.904-42.742c-4.742-5.228-11.973-8.914-19.134-7.277
		c-8.072,1.789-14.143,8.121-18.72,14.641c-1.544,2.048-2.929,5.107-5.953,4.971c-3.33,0.076-5.746-4.088-3.77-6.856
		c4.265-6.82,9.613-13.192,16.493-17.495c6.512-4.268,14.813-5.932,22.398-3.822c9.682,2.599,17.26,10.228,21.933,18.866
		c6.519,11.798,7.736,26.059,4.053,38.959c12.901,2.371,27.401,0.676,37.898-7.738c4.443-3.456,7.138-8.477,9.205-13.595
		c1.839-3.901,8.33-2.268,8.347,1.978c5.004,38.354-2.214,78.588-21.809,112.089c-3.737,6.634-8.577,12.521-13.399,18.367
		c10.236,2.652,20.905,4.142,31.484,3.134c6.015-0.668,12.311-2.057,17.158-5.911c0.088-3.141-3.832-6-2.309-9.389
		c1.384-3.81,7.32-3.571,8.542,0.262c12.87,27.464,33.682,51.374,59.863,66.857c34.987,20.976,79.519,25.109,117.747,10.858
		c26.959-9.821,50.279-29.591,63.563-55.112c18.359-34.579,16.408-80.061-7.907-111.307c-9.887-12.722-23.466-22.569-38.696-27.816
		c-19.354-6.541-41.435-5.424-59.63,4.093c-12.201,6.336-22.222,16.902-27.489,29.639c-5.151,12.229-5.458,26.463-0.671,38.859
		c3.308,8.61,9.511,16.333,17.874,20.464c9.839,5.213,23.028,4.739,31.707-2.58c5.875-4.795,7.544-14.905,1.388-20.157
		c-2.334,0.288-5.217,1.205-6.943-0.912c-2.332-2.336-1.065-6.689,2.127-7.476c6.022-2.482,12.719,1.451,15.243,7.06
		c5.311,9.336,2.069,21.655-5.896,28.416c-11.579,9.89-29.325,10.682-42.449,3.409c-15.248-7.871-24.096-24.77-25.339-41.483
		c-1.857-19.556,6.549-39.327,20.909-52.521c17.449-16.247,42.558-22.337,65.878-19.35c5.237-5.644,9.229-12.645,10.646-20.264
		c-18.262-3.72-36.467-9.868-51.515-21.138c-11.001-8.179-19.598-19.145-26.504-30.887c-9.28-15.297-17.301-31.51-28.929-45.236
		c-13.442-16.397-30.829-29.081-49.333-39.195c-3.511-1.555-3.146-7.259,0.603-8.244c13.306-4.077,26.509-11.884,33.281-24.422
		c-18.419-2.057-36.491-7.562-52.663-16.653c-30.382-16.881-53.354-43.54-79.954-65.355c-16.333-13.547-34.129-25.462-53.476-34.266
		c-39.153-18.009-82.834-23.332-125.556-23.06C389.715,111.836,389.378,108.793,388.973,105.776z"/>
	<path fill="#FFDD55" stroke="#FFDD55" d="M389.991,114.882c42.721-0.272,86.403,5.05,125.556,23.06
		c19.348,8.805,37.143,20.72,53.476,34.266c26.6,21.815,49.572,48.474,79.954,65.355c16.172,9.09,34.244,14.596,52.663,16.653
		c-6.772,12.539-19.976,20.345-33.281,24.422c-3.75,0.985-4.114,6.689-0.603,8.244c18.505,10.114,35.892,22.798,49.333,39.195
		c11.628,13.725,19.648,29.939,28.929,45.236c6.906,11.742,15.502,22.708,26.504,30.887c15.047,11.27,33.253,17.418,51.515,21.138
		c-1.417,7.618-5.409,14.62-10.646,20.264c-23.32-2.986-48.429,3.103-65.878,19.35c-14.36,13.194-22.766,32.965-20.909,52.521
		c1.243,16.713,10.091,33.612,25.339,41.483c13.124,7.274,30.869,6.481,42.449-3.409c7.965-6.76,11.207-19.08,5.896-28.416
		c-2.524-5.608-9.221-9.542-15.243-7.06c-3.192,0.787-4.459,5.14-2.127,7.476c1.726,2.117,4.609,1.2,6.943,0.912
		c6.156,5.252,4.487,15.361-1.388,20.157c-8.679,7.319-21.868,7.793-31.707,2.58c-8.363-4.131-14.566-11.854-17.874-20.464
		c-4.787-12.396-4.48-26.63,0.671-38.859c5.267-12.737,15.288-23.303,27.489-29.639c18.195-9.517,40.276-10.633,59.63-4.093
		c15.23,5.248,28.809,15.095,38.696,27.816c24.315,31.245,26.266,76.727,7.907,111.307c-13.284,25.521-36.604,45.292-63.563,55.112
		c-38.228,14.251-82.76,10.118-117.747-10.858c-26.181-15.483-46.993-39.394-59.863-66.857c-1.221-3.834-7.157-4.072-8.542-0.262
		c-1.523,3.389,2.397,6.248,2.309,9.389c-4.847,3.854-11.143,5.243-17.158,5.911c-10.579,1.008-21.247-0.483-31.484-3.134
		c4.822-5.846,9.662-11.733,13.399-18.367c19.594-33.501,26.813-73.735,21.809-112.089c-0.017-4.246-6.508-5.879-8.347-1.978
		c-2.067,5.118-4.761,10.139-9.205,13.595c-10.498,8.414-24.997,10.108-37.898,7.738c3.683-12.9,2.466-27.161-4.053-38.959
		c-4.672-8.638-12.251-16.267-21.933-18.866c-7.585-2.11-15.886-0.446-22.398,3.822c-6.88,4.303-12.228,10.675-16.493,17.495
		c-1.976,2.768,0.44,6.932,3.77,6.856c3.024,0.135,4.409-2.923,5.953-4.971c4.576-6.52,10.648-12.852,18.72-14.641
		c7.161-1.637,14.392,2.049,19.134,7.277c10.181,11.299,13.424,28.839,6.904,42.742c-4.362,9.24-12.981,15.514-21.554,20.552
		c-15.097,8.676-34.859,10.456-50.221,1.492c-14.066-7.871-22.283-23.45-24.057-39.116c-1.081-9.883-1.05-20.222,2.508-29.638
		c3.607-9.74,9.815-18.194,16.135-26.315c11.285-14.227,23.717-27.66,33.208-43.228c4.151-7.173,8.678-14.271,10.895-22.354
		c1.054-4.849,4.702-8.362,7.209-12.458c7.403-11.8,13.216-25.055,13.873-39.143c0.485-3.479-3.885-6.187-6.777-4.228
		c-2.575,1.316-2.293,4.593-2.648,7.031c-1.085,10.891-5.818,20.998-11.41,30.272c-12.907,21.338-36.882,36.165-62.063,36.17
		c-14.937,0.101-29.711-5.949-40.384-16.373c-9.617-8.884-14.087-23.114-10.662-35.817c2.505-10.036,9.902-18.53,19.234-22.859
		c6.75-3.112,14.788-5.41,21.917-2.047c11.758,4.712,16.786,20.367,10.348,31.19c-2.273,4.301-7.566,6.152-12.168,5.192
		c-2.086-0.189-4.458-1.19-6.272,0.275c-2.888,1.868-2.333,6.809,0.975,7.887c8.347,2.85,18.765,0.661,24.019-6.797
		c6.13-8.859,7.208-21.032,2.404-30.733c-4.595-10.596-15.597-17.613-27.059-17.958c-0.234-6.114-0.389-12.234-1.151-18.302
		c-3.905-34.262-20.348-66.551-44.453-91.02C390.683,142.36,391.178,128.544,389.991,114.882z"/>
	<path fill="#694747" stroke="#694747" d="M247.097,240.749c3.057-1.439,6.264-2.598,9.525-3.551
		c16.491-4.664,34.612,1.86,45.758,14.527c9.864-8.011,22.459-13.122,35.307-12.42c13.128,0.542,25.552,7.092,34.282,16.777
		c11.675,12.791,17.478,30.126,18.298,47.249c0.174,3.744-0.295,7.472-0.21,11.233c0.286,3.336-0.982,7.679-5.017,7.702
		c-3.024-0.426-6.034-0.803-9.03-1.111c-0.293-0.04-0.869-0.111-1.162-0.142c-1.546-0.206-3.011-0.387-4.486-0.567
		c-2.726-0.326-5.453-0.652-8.128-0.961c-12.909-1.599-25.826-3.017-38.715-4.607c-2.768-0.343-5.504-0.669-8.24-0.984
		c-1.545-0.186-2.996-0.308-4.488-0.447c-7.671-0.862-15.328-1.815-22.981-2.709c-2.718-0.347-5.441-0.623-8.13-0.841
		c-0.256,0.358-0.749,1.072-1.005,1.43c-0.08-0.445-0.25-1.325-0.341-1.77c-9.461-1.562-19.053-2.394-28.573-3.492
		c0.012,1.361,0.055,2.741,0.129,4.128l-0.5,0.014c0.054-1.426,0.138-2.844,0.243-4.243c-2.516-0.32-5.02-0.611-7.503-0.894
		c-1.555-0.185-3.018-0.346-4.513-0.525c-4.586-0.571-9.17-1.111-13.742-1.623c-3.04-0.375-6.077-0.7-9.094-1.016
		c-1.909-0.832-3.715-2.643-3.275-4.876C213.982,274.275,226.368,251.6,247.097,240.749 M247.181,251.29
		c-14.33,9.355-22.966,25.576-25.971,42.127c18.205,2.141,36.405,4.373,54.625,6.443c2.702-15.398,9.328-30.241,19.91-41.846
		c-4.436-4.858-9.879-8.906-16.108-11.108C268.908,242.896,256.603,245.033,247.181,251.29 M306.173,260.543
		c-11.546,10.529-18.595,25.35-21.276,40.606c32.087,3.754,64.146,7.701,96.25,11.274c0.863-16.826-3.159-34.482-13.858-47.8
		c-7.218-9.106-18.081-15.682-29.845-16.196C325.87,247.759,314.597,252.85,306.173,260.543z"/>
	<path fill="#F4D7D7" stroke="#F4D7D7" d="M247.181,251.29c9.422-6.258,21.727-8.394,32.456-4.384
		c6.229,2.202,11.672,6.25,16.108,11.108c-10.582,11.605-17.208,26.448-19.91,41.846c-18.22-2.07-36.421-4.302-54.625-6.443
		C224.215,276.867,232.851,260.646,247.181,251.29z"/>
	<path fill="#F4D7D7" stroke="#F4D7D7" d="M306.173,260.543c8.423-7.693,19.697-12.784,31.271-12.116
		c11.764,0.515,22.627,7.09,29.845,16.196c10.699,13.318,14.721,30.974,13.858,47.8c-32.104-3.573-64.164-7.519-96.25-11.274
		C287.579,285.893,294.627,271.071,306.173,260.543z"/>
	<path fill="#817D7B" stroke="#817D7B" d="M214.784,301.906c3.016,0.316,6.053,0.641,9.094,1.016
		c-0.496,12.624,2.267,25.608,9.26,36.263c5.032,7.742,12.7,14.023,21.76,16.314c10.839,2.831,22.545-0.917,30.915-8.056
		c-1.213-2.672-2.337-5.361-3.235-8.124c-0.514-1.528-1-3.077-1.384-4.604c-0.827-3.179-1.427-6.424-1.867-9.669
		c-0.619-4.555-0.66-9.15-0.65-13.718c0.256-0.358,0.748-1.072,1.005-1.43c2.689,0.218,5.412,0.494,8.13,0.841
		c-0.515,13.377,2.192,27.156,9.446,38.564c5.897,9.416,15.314,17.131,26.474,19.069c11.067,2.054,22.541-2.009,31.022-9.145
		c11.515-9.515,18.361-23.621,21.258-38.071c2.996,0.308,6.006,0.685,9.03,1.111c-2.979,16.048-10.498,31.602-22.797,42.553
		c-9.853,8.911-23.255,14.377-36.65,13.002c-14.496-1.221-27.28-10.421-35.207-22.303c-9.591,7.451-22.093,11.564-34.219,9.562
		c-6.682-1.049-12.889-3.964-18.425-7.756c-17.248,85.257-43.764,168.397-75.572,249.272c-4.244,10.975-8.695,21.864-13.01,32.814
		c23.02,3.878,46.446,5.465,69.771,4.545c20.123-1.034,40.637-3.687,59.137-12.112c-0.191,1.465-0.361,2.949-0.48,4.45
		c6.896-1.7,12.78-6.075,18.264-10.423c9.907-7.813,16.562-19.733,17.772-32.316c1.99-16.001-3.204-31.745-9.046-46.413
		c16.345-13.769,32.739-27.541,48.011-42.519c0.905-1.133,2.198-1.712,3.699-1.433c-14.909,15.595-30.538,30.467-46.254,45.235
		c7.665,18.501,12.367,39.998,4.954,59.341c-5.915,15.726-19.943,26.884-35.056,33.257c-19.329,8.312-40.535,11.102-61.403,12.076
		c-25.616,0.975-51.326-1.068-76.519-5.67c-3.159-0.347-4.76-4.175-3.206-6.814c5.192-12.953,10.445-25.889,15.482-38.911
		c32.006-81.65,58.736-165.616,75.552-251.775c-7.591-8.851-12.24-19.954-14.128-31.395
		C214.797,313.033,214.599,307.457,214.784,301.906z"/>
	<path fill="#FFFFFF" stroke="#FFFFFF" d="M223.878,302.922c4.572,0.511,9.156,1.052,13.742,1.623
		c-0.46,5.19-0.005,10.417,1.092,15.511c0.722-2.503,1.791-4.909,3.487-6.917c2.119-1.546,4.589-2.495,7.193-2.932l0.5-0.014
		c4.272,0.081,8.52,2.447,10.342,6.421c1.872,3.679,1.107,8.199-1.224,11.502c-2.233,2.375-5.256,3.732-8.387,4.385
		c-2.853-0.428-5.609-1.332-8.027-2.871c1.64,2.323,3.291,4.665,5.303,6.722c-4.636,2.087-9.831,1.989-14.762,2.834
		C226.145,328.53,223.381,315.546,223.878,302.922z"/>
	<path fill="#2C5AA0" stroke="#2C5AA0" d="M237.62,304.545c1.495,0.179,2.958,0.34,4.513,0.525c-0.169,2.686-0.166,5.38,0.066,8.069
		c-1.697,2.008-2.766,4.414-3.487,6.917C237.615,314.962,237.16,309.734,237.62,304.545z"/>
	<path fill="#D5E5FF" stroke="#D5E5FF" d="M242.133,305.07c2.483,0.282,4.987,0.573,7.503,0.894
		c-0.105,1.399-0.189,2.817-0.243,4.243c-2.605,0.437-5.074,1.386-7.193,2.932C241.967,310.45,241.964,307.756,242.133,305.07z"/>
	<path stroke="#000000" d="M249.763,306.065c9.52,1.097,19.112,1.93,28.573,3.492c0.09,0.445,0.26,1.324,0.341,1.77
		c-0.011,4.568,0.03,9.163,0.65,13.718c-5.15,5.438-13.84,7.128-20.315,3.07c2.33-3.303,3.095-7.822,1.224-11.502
		c-1.822-3.973-6.069-6.34-10.342-6.421C249.818,308.806,249.775,307.426,249.763,306.065z"/>
	<path fill="#F8F9F9" stroke="#F8F9F9" d="M287.811,310.737c7.653,0.894,15.31,1.847,22.981,2.709
		c-0.282,5.588,0.417,11.18,1.944,16.565c0.047-0.344,0.13-1.031,0.167-1.374c0.936,2.29,1.847,4.642,2.551,7.049
		c5.027,12.54,19.808,20.773,33.097,17.028c14.34-3.747,23.886-17.625,26.297-31.702c0.293,0.03,0.868,0.101,1.162,0.142
		c-2.897,14.45-9.743,28.556-21.258,38.071c-8.481,7.136-19.955,11.199-31.022,9.145c-11.159-1.938-20.577-9.653-26.474-19.069
		C290.003,337.893,287.296,324.114,287.811,310.737z"/>
	<path fill="#2C5AA0" stroke="#2C5AA0" d="M310.792,313.446c1.492,0.139,2.942,0.261,4.488,0.447
		c-0.013,2.465,0.073,4.923,0.281,7.393c-1.422,2.22-2.589,4.663-2.657,7.352c-0.037,0.343-0.121,1.03-0.167,1.374
		C311.209,324.627,310.51,319.035,310.792,313.446z"/>
	<path fill="#D5E5FF" stroke="#D5E5FF" d="M315.279,313.893c2.736,0.315,5.472,0.641,8.24,0.984
		c-0.005,0.661-0.026,1.985-0.032,2.636c-2.914,0.608-5.664,1.846-7.928,3.773C315.353,318.817,315.266,316.358,315.279,313.893z"/>
	<path stroke="#000000" d="M323.519,314.877c12.889,1.59,25.806,3.008,38.715,4.607c-1.754,7.661-6.452,15.191-13.99,18.217
		c-4.878,2.074-10.529,1.305-14.998-1.377c3.538-4.256,3.592-10.991-0.316-15.013c-2.384-2.653-5.977-3.802-9.443-3.797
		C323.494,316.862,323.514,315.539,323.519,314.877z"/>
	<path fill="#FFFFFF" stroke="#FFFFFF" d="M315.56,321.287c2.263-1.926,5.014-3.165,7.928-3.773
		c3.465-0.005,7.059,1.144,9.443,3.797c3.908,4.022,3.854,10.757,0.316,15.013c-2.531,2.405-5.866,3.603-9.185,4.439
		c-3.014-1.468-6.703-1.96-8.608-5.076c-0.704-2.406-1.615-4.758-2.551-7.049C312.972,325.949,314.138,323.506,315.56,321.287z"/>
	<path fill="#FFFFFF" stroke="#FFFFFF" d="M390.057,314.563c1.754,5.48,2.573,11.354,5.568,16.39
		c4.638,9.161,12.525,16.179,21.051,21.671c-10.56,16.952-20.868,34.078-31.699,50.869c-20.603,31.175-41.904,61.967-65.566,90.886
		c-4.505,6.676-10.304,12.298-15.393,18.492c-7.266,8.065-13.91,16.729-21.938,24.054c-2.249,1.985,0.264,4.63,1.039,6.751
		c11.195,21.087,10.389,46.573,2.692,68.67c-1.734,6.488-4.986,12.438-6.608,18.958c-0.281,0.139-0.844,0.408-1.135,0.538
		c-18.5,8.426-39.014,11.079-59.137,12.112c-23.326,0.92-46.751-0.667-69.771-4.545c4.316-10.95,8.766-21.839,13.01-32.814
		c31.808-80.875,58.324-164.015,75.572-249.272c5.536,3.792,11.743,6.706,18.425,7.756c12.125,2.003,24.627-2.11,34.219-9.562
		c7.927,11.883,20.711,21.083,35.207,22.303c13.395,1.376,26.797-4.09,36.65-13.002c12.299-10.95,19.818-26.505,22.797-42.553
		C389.075,322.242,390.343,317.899,390.057,314.563 M228.961,592.731c-5.152,4.827-8.344,12.105-7.002,19.205
		c0.845,3.148,5.332,4.326,7.568,1.861c2.134-2.058,0.787-5.232,1.577-7.759c1.52-5.512,6.459-9.332,11.546-11.42
		c7.734-3.088,17.344-2.869,24.156,2.319c2.797,1.954,4.565,6.161,2.088,9.083c-3.603,4.621-12.311,6.634-16.301,1.706
		c2.586,0.916,6.222,1.211,7.559-1.815c1.815-3.519-1.759-6.892-5.069-7.249c-7.033-1.356-14.355,6.482-10.668,13.284
		c4.938,8.86,17.692,9.498,25.754,4.755c5.563-3.052,9.82-9.25,8.936-15.781c-0.721-6.061-5.288-10.93-10.493-13.682
		C255.996,580.631,239.305,582.935,228.961,592.731 M170.472,599.911c-4.192,3.319-6.735,9.401-4.226,14.49
		c3.863,8.232,15.697,10.665,22.953,5.555c2.522-1.804,4.456-4.9,3.919-8.089c-0.687-5.853-9.057-9.192-13.323-4.886
		c-2.043,1.631-1.732,4.585-0.443,6.621c-2.263-0.438-6.522-2.383-4.403-5.251c5.716-6.548,17.485-5.813,23.06,0.63
		c2.034,2.076,0.569,5.581,2.872,7.498c2.312,2.337,6.787,0.972,7.471-2.229c0.658-4.923-1.625-9.936-5.289-13.154
		C194.344,593.165,179.703,592.465,170.472,599.911z"/>
	<path fill="#D5E5FF" stroke="#D5E5FF" d="M259.01,328.115c6.475,4.058,15.165,2.367,20.315-3.07c0.44,3.246,1.041,6.49,1.867,9.669
		c-3.272,2.265-6.866,4.212-10.841,4.822c-7.242,1.322-14.873-1.606-19.728-7.036C253.754,331.847,256.777,330.49,259.01,328.115z"
		/>
	<path fill="#D5E5FF" stroke="#D5E5FF" d="M362.234,319.484c2.675,0.309,5.402,0.635,8.128,0.961
		c-2.233,11.68-9.538,23.304-21.195,27.329c-8.805,3.241-19.128,0.055-25.106-7.012c3.319-0.836,6.653-2.034,9.185-4.439
		c4.469,2.682,10.12,3.451,14.998,1.377C355.782,334.676,360.48,327.146,362.234,319.484z"/>
	<path fill="#2C5AA0" stroke="#2C5AA0" d="M370.363,320.446c1.475,0.181,2.939,0.362,4.486,0.567
		c-2.411,14.076-11.957,27.955-26.297,31.702c-13.288,3.745-28.07-4.487-33.097-17.028c1.904,3.116,5.593,3.607,8.608,5.076
		c5.978,7.067,16.301,10.253,25.106,7.012C360.824,343.75,368.13,332.126,370.363,320.446z"/>
	<path fill="#2C5AA0" stroke="#2C5AA0" d="M242.596,329.629c2.418,1.539,5.174,2.444,8.027,2.871
		c4.855,5.43,12.486,8.359,19.728,7.036c3.975-0.61,7.57-2.557,10.841-4.822c0.384,1.527,0.87,3.076,1.384,4.604
		c-4.699,3.083-10.178,5.147-15.844,5.061c-7.066,0.088-13.855-3.137-18.834-8.028C245.887,334.294,244.236,331.951,242.596,329.629
		z"/>
	<path fill="#F7F8F9" stroke="#F7F8F9" d="M233.137,339.185c4.931-0.845,10.126-0.747,14.762-2.834
		c4.979,4.891,11.769,8.117,18.834,8.028c5.665,0.087,11.144-1.977,15.844-5.061c0.898,2.764,2.022,5.452,3.235,8.124
		c-8.371,7.138-20.076,10.887-30.915,8.056C245.837,353.208,238.169,346.927,233.137,339.185z"/>
	<path fill="#F4F9FB" stroke="#F4F9FB" d="M384.978,403.492c10.831-16.791,21.139-33.916,31.699-50.869
		c18.579,11.351,42.333,12.615,62.433,4.592c6.62-2.232,12.403-6.159,18.533-9.42c-2.484,5.768-6.309,10.805-9.889,15.915
		c-10.155,14.211-22.415,26.761-32.38,41.119c-5.962,8.387-10.98,17.692-13.076,27.851c-1.95,9.658-1.266,19.588-0.276,29.317
		c-8.003-11.527-13.763-24.378-20.658-36.561c2.475-3.684,4.938-7.386,7.193-11.215c8.156-13.554,15.658-27.885,18.734-43.529
		c0.534-2.17-0.958-4.092-2.656-5.189c-2.723-0.867-5.867,0.768-6.281,3.681c-3.665,17.006-12.421,32.343-21.735,46.838
		c-18.885,28.595-41.721,54.323-65.26,79.136c-15.214,15.826-30.899,31.202-47.102,46.013c-1.988,1.848-5.19,3.968-3.992,7.152
		c4.855,11.931,9.117,24.413,9.329,37.44c0.227,9.4-2.027,19.008-7.335,26.85c-5.602,8.373-14.025,14.453-23.053,18.691
		c1.621-6.52,4.874-12.47,6.608-18.958c7.697-22.097,8.503-47.583-2.692-68.67c-0.775-2.121-3.288-4.765-1.039-6.751
		c8.027-7.325,14.672-15.989,21.938-24.054c5.089-6.195,10.888-11.816,15.393-18.492
		C343.073,465.46,364.374,434.668,384.978,403.492z"/>
	<path fill="#898A8B" stroke="#898A8B" d="M438.353,369.184c0.413-2.913,3.558-4.548,6.281-3.681
		c-2.764,4.294-3.59,9.398-5.303,14.122c-3.27,8.936-4.441,18.561-8.821,27.091c-0.97,2.39-3.232,4.777-1.955,7.505
		c-2.255,3.829-4.718,7.532-7.193,11.215c-9.983,14.82-21.294,28.678-32.713,42.403c-2.532,2.546-4.967,5.185-7.148,8.037
		c-8.14,9.346-16.537,18.469-25.212,27.311c-1.502-0.279-2.794,0.3-3.699,1.433c-15.271,14.978-31.666,28.75-48.011,42.519
		c5.842,14.669,11.036,30.413,9.046,46.413c-1.21,12.582-7.864,24.502-17.772,32.316c-5.485,4.348-11.368,8.724-18.264,10.423
		c0.119-1.5,0.288-2.984,0.48-4.45c0.292-0.13,0.854-0.399,1.135-0.538c9.028-4.238,17.45-10.318,23.053-18.691
		c5.308-7.842,7.561-17.45,7.335-26.85c-0.212-13.027-4.474-25.509-9.329-37.44c-1.198-3.184,2.004-5.304,3.992-7.152
		c16.204-14.811,31.889-30.188,47.102-46.013c23.539-24.814,46.375-50.541,65.26-79.136
		C425.931,401.527,434.688,386.19,438.353,369.184z"/>
	<path fill="#817D7B" stroke="#817D7B" d="M439.331,379.625c1.713-4.724,2.539-9.828,5.303-14.122
		c1.697,1.097,3.19,3.019,2.656,5.189c-3.076,15.644-10.578,29.975-18.734,43.529c-1.277-2.728,0.985-5.115,1.955-7.505
		C434.89,398.185,436.06,388.56,439.331,379.625z"/>
	<path fill="#FFFFFF" stroke="#FFFFFF" d="M388.649,467.839c11.419-13.725,22.73-27.583,32.713-42.403
		c6.896,12.183,12.655,25.034,20.658,36.561c2.312,9.88,5.658,19.779,12.053,27.83c4.023,5.557,9.294,10.027,14.98,13.829
		c2.019,5.112,5.828,9.14,8.868,13.642c20.811,30.251,43.07,59.532,62.242,90.876c6.994,10.383,12.785,21.49,18.652,32.531
		c4.274,8.234,8.24,16.64,11.641,25.293c4.07,8.468,6.549,17.555,9.81,26.359c4.094,12.964,6.992,26.3,9.173,39.714
		c0.926,10.695,3.577,21.293,2.597,32.097c0.839,24.042-2.065,48.148-7.305,71.611c-9.681,44.538-27.917,86.701-49.165,126.845
		c-1.734,3.523-4.28,6.751-5.055,10.69c-9.17,89.156-29.073,176.776-51.882,263.321c-20.684,77.707-44.013,154.682-67.925,231.455
		c-0.442,1.453-1.244,2.779-2.047,4.085c-2.936-9.917-5.006-20.064-6.569-30.265c-0.104-2.867-3.314-5.144-5.98-3.992
		c-15.394,5.631-30.665,11.594-46.037,17.264c35.723-74.389,63.817-152.438,83.81-232.502
		c10.974-44.385,19.378-89.438,24.167-134.926c4.845-46.293,5.957-93.115,0.824-139.433c-2.755-24.383-7.401-48.588-14.542-72.073
		c-0.593-2.093-1.365-4.625-3.746-5.175c-3.348-1.215-6.941,2.524-5.565,5.826c10.474,33.936,15.678,69.332,17.339,104.757
		c-34.112-19.894-63.8-47.659-84.899-81.126c-29.86-47.006-41.741-103.614-40.815-158.797
		c18.049-33.096,36.655-66.109,50.25-101.377c8.572-22.046,15.225-44.914,18.614-68.351
		C400.681,537.318,398.266,501.553,388.649,467.839z"/>
	<path fill="#817D7B" stroke="#817D7B" d="M381.501,475.876c2.181-2.852,4.616-5.491,7.148-8.037
		c9.617,33.714,12.032,69.479,6.862,104.166c-3.389,23.438-10.042,46.305-18.614,68.351c-13.595,35.268-32.201,68.281-50.25,101.377
		c-0.927,55.183,10.954,111.791,40.815,158.797c21.099,33.467,50.787,61.233,84.899,81.126
		c-1.66-35.425-6.864-70.821-17.339-104.757c-1.376-3.302,2.217-7.042,5.565-5.826c2.381,0.55,3.154,3.082,3.746,5.175
		c7.141,23.485,11.787,47.69,14.542,72.073c5.133,46.318,4.021,93.14-0.824,139.433c-4.789,45.489-13.193,90.541-24.167,134.926
		c-19.993,80.064-48.087,158.113-83.81,232.502c15.371-5.67,30.643-11.633,46.037-17.264c2.666-1.152,5.875,1.124,5.98,3.992
		c1.563,10.201,3.633,20.347,6.569,30.265c0.091,0.314,0.254,0.934,0.334,1.24c-0.716,3.474-2.777,7.059-1.342,10.648
		c5.839,17.423,13.891,34.256,24.937,49.002c7.851,10.175,16.972,19.714,28.371,25.922c7.832-88.805,17.21-177.565,32.478-265.432
		c14.52-83.379,34.811-166.007,65.166-245.111c3.052-7.288,5.205-14.967,8.96-21.932c20.621,2.919,41.424,4.684,62.264,4.463
		c17.969-1.038,36.076-1.664,53.735-5.506c5.938-1.214,11.948-2.383,17.665-4.483c2.967-1.593,4.238-5.005,6.376-7.454
		c6.999-8.598,14.499-16.769,21.775-25.125c13.917-14.125,28.941-27.283,45.673-37.993c35.26-23.154,76.393-35.929,117.909-41.869
		c17.818-2.38,35.727-4.445,53.726-4.904c8.073,0.444,16.119-0.842,24.212-0.399c5.818,0.267,11.773-0.688,17.493,0.948
		c-7.086,23.568-10.493,48.369-8.805,72.975c2.235,35.186,15.534,69.132,35.875,97.752c21.62,30.657,50.249,55.8,81.361,76.508
		c15.915,10.47,32.557,19.859,49.945,27.675c2.825,0.89,3.922,4.372,2.46,6.885c-29.801,69.851-68.745,135.444-111.779,197.889
		c-24.418,35.641-50.415,70.147-76.539,104.541c4.198-2.338,8.004-5.3,12.056-7.879c1.923-1.473,4.79-0.706,6.152,1.215
		c10.616,12.542,19.337,26.825,31.89,37.643c3.715,3.234,7.646,6.253,11.831,8.894c0.405-3.934,0.082-7.958,1.054-11.791
		c1.407-3.481,7.03-3.421,8.256,0.192c3.961,10.86,11.033,20.166,18.333,28.996l0.228,0.265c-0.639,1.656-2.617,3.653-0.958,5.364
		c7.702,9.444,16.417,18.028,24.309,27.319c6.356-7.603,10.472-16.766,15.871-25.045c18.445-31.4,35.888-63.392,52.097-96.013
		c13.639-27.528,26.934-55.263,38.639-83.682c3.195-7.839,7.307-15.29,9.843-23.394c7.088-17.048,14.134-34.112,20.429-51.477
		c8.087-22.103,16.4-44.132,24.107-66.37c7.08-20.703,14.09-41.411,20.874-62.204c2.926-9.724,6.62-19.219,9.119-29.044
		c-12.727-12.359-24.052-26.195-33.111-41.467c-6.464-12.313-12.473-25.297-14.208-39.222c1.398-0.215,2.836-0.433,4.304-0.632
		c5.298,29.249,22.959,54.545,43.631,75.2c1.916,2.104,5.245,4.382,4.098,7.705c-21.091,65.795-43.387,131.261-69.127,195.408
		c-33.917,84.343-74.302,166.2-122.47,243.336c-1.258,2.129-3.893,1.817-5.958,1.656c-2.059-2.455-4.278-4.748-6.41-7.088
		c-11.74-12.857-23.958-25.4-33.753-39.861c-1.233,2.347-3.394,5.198-6.419,4.011c-9.535-4.863-18.108-11.503-25.744-18.948
		c-6.863-6.827-12.696-14.565-18.535-22.232c-2.254-2.962-4.431-5.97-6.911-8.706c-3.667,2.492-7.469,4.783-11.091,7.343
		c-6.413,3.37-12.719,6.972-19.445,9.712c-3.494-1.015-6.04-5.17-3.13-8.202c52.78-68.053,104.152-137.524,147.31-212.167
		c18.875-32.891,36.371-66.611,51.264-101.495c-35.17-16.587-67.888-38.528-96.21-65.205c-13.212-12.566-25.304-26.34-35.772-41.276
		c-30.903,22.859-60.395,47.916-85.98,76.685c-14.889,16.915-28.377,35.298-38.185,55.665
		c-8.006,16.649-13.572,34.865-13.392,53.484c-0.158,15.987,4.366,32.047,13.07,45.49c1.383,2.22,3.121,4.216,4.41,6.542
		c1.146,2.126-0.091,5.014-2.271,5.953c-2.257,0.544-4.575,0.631-6.835,0.824c-3.429,0.102-6.851,0.294-10.24,0.544
		c-21.036,1.156-42.224,1.1-63.092-2.053c-14.426-2.107-28.611-5.673-42.434-10.265c-3.138-1.069-6.195-2.294-9.31-3.325
		c-2.05,4.045-3.475,8.439-3.686,13.001c-2.303,9.912-2.684,20.245-2.657,30.399c-1.924,2.945-6.876,4.363-8.712,0.621
		c-14.261-37.205-17.722-78.939-7.402-117.611c5.569-21.282,14.968-41.471,26.992-59.865c18.526-28.13,42.709-52.166,69.162-72.85
		c23.583-18.557,49.162-34.394,75.416-48.864c-15.906-12.414-31.395-25.466-45.129-40.271
		c-12.779-13.707-24.171-28.981-31.759-46.206c-4.7-10.519-7.744-21.741-9.259-33.147c-36.525,14.836-68.448,39.648-94.022,69.457
		c-6.188,6.83-11.568,14.346-17.512,21.37c-7.859,3.007-16.297,4.43-24.526,6.11c-36.286,6.547-73.556,5.828-109.982,0.846
		c-12.848,31.661-24.069,63.974-33.779,96.724c-24.972,83.747-40.591,169.985-52.042,256.531
		c-7.62,57.8-13.291,115.839-18.58,173.901c0.184,3.453-3.328,5.574-6.445,4.664c-2.889-1.988-5.822-3.872-8.607-5.957
		c-13.796-10.543-24.686-24.459-33.063-39.577c-7.883-14.039-13.42-29.229-18.078-44.589c-2.104-8.281-4.129-16.588-5.532-25.006
		c-6.654,2.464-13.297,4.948-19.905,7.5c-7.448,2.729-14.86,5.525-22.261,8.35c-4.033,1.526-8.091,2.983-12.151,4.41
		c-1.951-2.041-4.412-4.799-2.494-7.684c35.347-71.96,63.472-147.467,83.959-224.98c10.416-39.76,18.841-80.076,24.464-120.803
		c5.662-40.59,8.469-81.626,7.403-122.611c-32.727-18.665-62.187-43.522-84.259-74.188c-14.841-20.339-26.334-43.008-34.624-66.745
		c-23.183-3.026-46.665-4.269-70.017-2.695c-21.604,1.645-43.597,5.53-62.889,15.862c-13.107,7.009-24.865,18.103-29.258,32.654
		c-4.978,15.953-0.775,33.187,6.511,47.727c7.996,15.995,19.528,29.937,32.149,42.493c23.368,23.046,50.84,41.467,79.254,57.69
		c2.923,1.454,2.672,5.138,1.091,7.529c-4.498,1.617-9.207,2.477-13.777,3.768c-21.968,5.135-43.839,10.965-66.253,13.817
		c-15.164,2.08-30.508,2.679-45.797,2.183c-3.972-0.372-7.969-0.531-11.907-0.996c1.547,9.38,2.755,18.914,1.769,28.457
		c-0.359,4.161-1.049,8.305-1.196,12.501c-1.651,2.396-5.137,4.014-7.529,1.682c-7.13-6.177-13.99-12.664-20.68-19.292
		c-22.003-21.816-41.877-45.931-57.824-72.535c-21.111-35.259-35.685-75.899-33.746-117.468
		c1.304-32.031,14.297-63.621,36.97-86.433c27.097-27.729,64.866-42.4,102.584-48.372c48.305-7.592,97.656-2.704,145.247,7.231
		c-0.885-10.988-1.372-22.013-1.328-33.034c0.019-2.375-0.365-4.933,1.007-7.01c12.862-23.038,25.607-46.169,36.891-70.021
		c16.926-35.934,30.246-74.218,33.102-114.087C390.433,527.395,387.752,501.154,381.501,475.876 M116.964,796.995
		c-17.823,8.66-34.165,20.696-46.733,36.102c-11.012,13.387-18.972,29.232-23.233,46.028c-5.586,21.613-5.19,44.454-0.748,66.239
		c4.942,24.285,14.672,47.404,27.042,68.812c19.126,32.869,44.286,61.954,72.35,87.486c1.223-11.361,0.062-22.872-3.212-33.788
		c-1.18-3.366,2.342-6.679,5.672-5.723c19.951,2.343,40.183,2.184,60.11-0.419c22.696-2.821,44.868-8.651,67.063-13.982
		c-26.161-15.935-51.567-33.575-73.154-55.469c-12.918-13.107-24.597-27.73-32.627-44.384c-7.353-15.237-11.384-32.883-7.279-49.608
		c3.519-15.173,13.886-28.016,26.667-36.585c16.463-11.133,36.023-16.635,55.479-19.667c28.668-4.267,57.848-3.201,86.566,0.071
		c-5.389-17.875-9.119-36.252-11.188-54.802c-45.344-10.198-92.491-14.924-138.778-8.882
		C158.89,781.452,137.044,787.21,116.964,796.995 M824.829,930.412c1.545,14.81,6.18,29.259,13.364,42.285
		c9.622,17.527,22.99,32.687,37.412,46.414c11.79,11.24,24.502,21.457,37.47,31.305c2.96,1.703,2.866,6.517-0.301,7.974
		c-44.813,23.932-88.036,52.414-122.574,90.063c-24.981,27.185-44.708,60.054-52.5,96.421c-5.748,26.472-5.115,54.275,1.473,80.532
		c1.559-8.479,2.65-17.798,8.658-24.476c1.375-1.886,3.932-2.72,6.101-1.606c15.574,6.036,31.697,10.722,48.207,13.419
		c23.966,4.085,48.414,3.769,72.596,2.18c-11.604-18.395-16.072-40.859-13.403-62.365c2.313-20.099,9.921-39.226,19.832-56.735
		c9.91-17.529,22.295-33.554,35.712-48.546c25.569-28.257,54.827-52.937,85.371-75.622c-16.935-26.407-28.278-56.608-31.252-87.918
		c-2.607-25.455,0.2-51.267,6.853-75.908C926.191,907.754,873.537,912.065,824.829,930.412z"/>
	<path fill="#F4F9FB" stroke="#F4F9FB" d="M585.5,480.836c7.246-2.014,13.329-6.543,19.116-11.162
		c1.565,30.764-5.274,62.118-20.221,89.124c-4.215,7.127-8.615,14.317-14.688,20.027c-2,1.969-4.869,2.504-7.152,3.991
		c-2.361,2.113-1.326,6.45,1.72,7.336c16.306,5.605,33.977,8.885,51.154,5.767c5.477-0.912,10.387-3.549,15.392-5.811
		c3.946,5.903,7.548,12.059,12.002,17.616c20.444,26.61,49.446,47.06,82.138,55.321c36.032,9.507,75.853,5.014,108.252-13.669
		c15.978-9.277,30-21.996,40.549-37.195c9.233,3.962,18.037,8.974,27.641,12.059c17.565,7.633,36.305,12.193,55.156,15.312
		c21.536,3.418,43.367,3.34,65.077,4.733c35.542,1.246,70.858,7.416,104.904,17.618c8.047,2.429,16.016,5.164,24.085,7.622
		c2.024,0.594,3.994,1.442,5.924,2.423c-17.736,9.055-34.26,20.472-48.682,34.231c-5.971,5.743-12.101,11.358-17.333,17.802
		c-6.346,7.592-13.403,14.611-19.145,22.703c-17.931,22.721-33.303,47.291-48.87,71.655c-1.442,1.921-2.642,4.015-3.224,6.369
		c-0.422-0.022-1.267-0.074-1.689-0.096c-1.595-0.032-3.064,0.749-3.793,2.12c-13.801,22.621-25.421,46.687-33.33,72.023
		c-50.093-0.31-100.956,3.529-148.742,19.509c-35.564,11.726-68.502,31.318-95.563,57.221
		c-13.622,12.713-25.622,27.038-37.133,41.631c-19.629,5.808-40.141,8.2-60.537,9.182c-21.649,0.827-43.401-0.153-64.818-3.429
		c19.34-46.264,42.338-91.034,69.393-133.264c1.244-2.037,3.063-4.455,1.776-6.891c-1.368-3.193-6.347-3.496-7.969-0.391
		c-42.343,65.693-74.944,137.377-99.344,211.539c-27.763,84.106-45.375,171.221-58.081,258.763
		c-9.514,65.771-16.198,131.912-22.249,198.089c-5.581-2.977-9.853-7.926-14.251-12.376c-16.638-18.324-26.929-41.435-33.97-64.927
		c-0.081-0.305-0.243-0.925-0.334-1.24c0.803-1.306,1.604-2.633,2.047-4.085c23.913-76.774,47.241-153.748,67.925-231.455
		c22.809-86.545,42.712-174.165,51.882-263.321c0.775-3.939,3.32-7.167,5.055-10.69c21.248-40.143,39.484-82.307,49.165-126.845
		c5.241-23.463,8.144-47.569,7.305-71.611c0.98-10.804-1.671-21.402-2.597-32.097c-2.181-13.414-5.079-26.75-9.173-39.714
		c-3.261-8.804-5.74-17.891-9.81-26.359c-3.401-8.654-7.367-17.059-11.641-25.293c-5.867-11.041-11.658-22.147-18.652-32.531
		c-19.173-31.343-41.431-60.625-62.242-90.876c-3.04-4.502-6.849-8.53-8.868-13.642c7.281,3.833,15.13,6.877,23.421,7.427
		c20.256,1.822,40.392-7.296,54.406-21.608c2.434-2.208,3.817-5.748,6.75-7.249C564.177,483.975,575.211,484.198,585.5,480.836z"/>
	<path fill="#817D7B" stroke="#817D7B" d="M228.961,592.731c10.344-9.796,27.035-12.1,39.653-5.493
		c5.205,2.752,9.772,7.621,10.493,13.682c0.883,6.531-3.374,12.729-8.936,15.781c-8.062,4.743-20.816,4.106-25.754-4.755
		c-3.686-6.802,3.635-14.64,10.668-13.284c3.309,0.357,6.884,3.73,5.069,7.249c-1.337,3.025-4.973,2.731-7.559,1.815
		c3.99,4.928,12.698,2.915,16.301-1.706c2.476-2.922,0.709-7.13-2.088-9.083c-6.812-5.187-16.423-5.407-24.156-2.319
		c-5.087,2.088-10.026,5.908-11.546,11.42c-0.79,2.528,0.557,5.702-1.577,7.759c-2.237,2.465-6.724,1.287-7.568-1.861
		C220.617,604.836,223.809,597.558,228.961,592.731z"/>
	<path fill="#817D7B" stroke="#817D7B" d="M170.472,599.911c9.231-7.447,23.872-6.747,32.593,1.186
		c3.664,3.217,5.947,8.231,5.289,13.154c-0.684,3.202-5.159,4.567-7.471,2.229c-2.303-1.917-0.838-5.422-2.872-7.498
		c-5.575-6.443-17.344-7.178-23.06-0.63c-2.119,2.868,2.139,4.813,4.403,5.251c-1.29-2.036-1.6-4.99,0.443-6.621
		c4.266-4.306,12.635-0.967,13.323,4.886c0.537,3.189-1.397,6.285-3.919,8.089c-7.256,5.109-19.09,2.676-22.953-5.555
		C163.737,609.313,166.279,603.231,170.472,599.911z"/>
	<path fill="#817D7B" stroke="#817D7B" d="M894.655,547.33c61.988,26.848,129.711,37.812,196.874,40.531
		c54.714,2.28,109.514-0.513,163.985-5.658c2.496-0.119,5.422-1.439,7.603,0.456c2.512,2.484,4.827,5.162,7.408,7.621
		c2.841,2.893,5.654,5.827,8.45,8.802c11.835,13.09,23.08,26.772,32.833,41.516c1.925,2.985,3.842,6,5.722,9.048
		c14.124,23.362,24.393,49.4,27.374,76.672c-1.878-1.696-3.79-3.309-5.774-4.797c-0.452-9.174-3.178-18.064-5.794-26.812
		c-10.19-30.921-28.323-58.599-49.504-83.085c-3.153-3.512-5.859-7.526-9.816-10.192c-1.067,0.804-2.093,1.624-3.078,2.462
		c-4.484-4.824-9.136-9.477-13.75-14.142c-1.287,0.808-2.485,1.901-4.052,1.847c-54.738,5.043-109.798,7.704-164.752,5.27
		c-66.272-2.859-132.902-13.957-194.301-39.794C894.384,553.829,894.554,550.572,894.655,547.33z"/>
	<path fill="#FFFFFF" stroke="#FFFFFF" d="M894.084,557.075c61.399,25.837,128.029,36.935,194.301,39.794
		c54.955,2.434,110.014-0.227,164.752-5.27c1.566,0.054,2.764-1.039,4.052-1.847c4.613,4.665,9.266,9.318,13.75,14.142l0.411,0.443
		c-3.422,5.07-7.977,9.255-11.305,14.389c-22.531,28.461-42.85,58.646-61.556,89.753c-9.355,16.4-18.064,33.177-26.163,50.233
		c-7.046,16.334-13.957,32.738-19.624,49.609c-30.341,11.803-57.889,32-75.886,59.363c-10.708,16.241-18.03,34.867-20.313,54.233
		c-2.454,20.53,1.062,41.666,9.765,60.408c5.579,11.671,12.761,22.613,21.606,32.08c19.494,21.155,45.777,35.339,73.411,42.711
		c8.721,18.12,17.582,36.249,28.783,52.989c5.656,9.412,12.003,18.377,18.646,27.112c4.073,6.294,9.508,11.565,13.59,17.849
		c-2.05,8.322-6.091,15.948-9.136,23.917c-3.83,8.964-7.484,17.996-10.912,27.123c-11.943,28.916-24.183,57.711-36.136,86.627
		c-2.234,5.751-5.264,11.154-7.58,16.871c-4.613,10.71-8.813,21.592-13.56,32.24c-4.766,9.488-8.26,19.551-12.736,29.17
		c-3.662,7.009-6.011,14.611-9.693,21.611c-20.449,46.45-41.714,92.554-64.231,138.053c-2.699,4.961-4.639,10.321-7.837,15.005
		c-7.3-8.83-14.371-18.137-18.333-28.996c-1.227-3.613-6.85-3.672-8.256-0.192c-0.972,3.832-0.649,7.857-1.054,11.791
		c-4.186-2.641-8.116-5.66-11.831-8.894c-12.553-10.818-21.274-25.101-31.89-37.643c-1.362-1.921-4.229-2.688-6.152-1.215
		c-4.052,2.578-7.858,5.541-12.056,7.879c26.125-34.394,52.122-68.9,76.539-104.541c43.034-62.445,81.978-128.038,111.779-197.889
		c1.462-2.513,0.365-5.994-2.46-6.885c-17.387-7.816-34.03-17.205-49.945-27.675c-31.113-20.708-59.741-45.851-81.361-76.508
		c-20.34-28.62-33.64-62.565-35.875-97.752c-1.688-24.606,1.719-49.407,8.805-72.975c2.272-7.416,4.821-14.73,7.616-21.961
		c6.882-17.424,15.536-34.117,25.196-50.157c1.905-2.483,0.831-6.066-1.911-7.363c0.582-2.353,1.782-4.448,3.224-6.369
		c15.567-24.363,30.939-48.934,48.87-71.655c5.742-8.092,12.798-15.111,19.145-22.703c5.232-6.445,11.363-12.059,17.333-17.802
		c14.422-13.759,30.947-25.176,48.682-34.231c-1.929-0.981-3.9-1.829-5.924-2.423c-8.069-2.458-16.038-5.193-24.085-7.622
		c-34.046-10.202-69.361-16.372-104.904-17.618c-21.71-1.393-43.54-1.315-65.077-4.733c-18.852-3.119-37.591-7.678-55.156-15.312
		c-9.604-3.085-18.408-8.097-27.641-12.059C884.954,595.856,892.176,576.806,894.084,557.075z"/>
	<path fill="#FFF6D5" stroke="#FFF6D5" d="M1445.683,524.698c2.551-2.407,7.322-1.027,7.603,2.67
		c1.55,14.439,2.764,29.541-1.935,43.562c-1.155,3.804-3.434,7.124-4.721,10.877c13.511,2.79,27.107,5.504,40.176,10.057
		c17.61,5.928,34.878,14.343,48.297,27.456c10.583,10.27,18.006,23.74,20.901,38.218c3.954,19.164,1.129,38.967-3.609,57.719
		c-10.07,38.504-27.978,74.285-40.631,111.923c-5.811,17.862-11.152,36.444-9.985,55.426c0.086,4.371,1.505,8.602,1.581,12.984
		c-0.285,3.034-4.231,4.524-6.641,2.954c-5.293-2.726-10.141-6.274-14.603-10.178c-11.246-9.565-18.536-22.993-22.299-37.121
		c-2.958,3.055-5.481,6.471-8.291,9.647c-11.995,13.814-25.663,26.14-40.428,36.907c-30.957,22.652-66.592,37.929-102.852,49.873
		c-3.437,1.164-7.046,1.86-10.22,3.638c5.961,12.577,7.893,27.04,4.902,40.685c-3.446,16.981-13.383,32.198-26.349,43.495
		c-15.307,13.268-34.736,21.136-54.555,24.593c-1.469,0.2-2.906,0.417-4.304,0.632c-1.62,0.19-3.19,0.376-4.729,0.571
		c-17.31,1.745-34.848-0.012-51.706-4.167c-27.634-7.372-53.917-21.556-73.411-42.711c-8.845-9.467-16.027-20.409-21.606-32.08
		c-8.703-18.742-12.219-39.878-9.765-60.408c2.283-19.366,9.604-37.992,20.313-54.233c17.997-27.363,45.545-47.56,75.886-59.363
		c11.698-4.75,23.989-7.686,36.228-10.65c-0.19-6.648-1.422-13.285-0.53-19.937c1.537-17.212,10.452-33.172,22.896-44.933
		c31.964-30.854,84.793-37.61,123.12-14.787c1.514,1.199,3.057,2.397,4.715,3.507c1.984,1.488,3.896,3.101,5.774,4.797
		c7.335,6.845,13.357,15.591,15.179,25.624c0.953,4.593,0.431,9.306,0.054,13.949c19.967,0.66,40.563-4.783,56.436-17.228
		c10.421-8.219,18.82-19.656,21.431-32.854c2.6-11.595-0.502-24.095-7.64-33.498c-7.938-10.72-19.794-17.759-32.02-22.57
		c-18.474-7.151-38.369-9.689-58.061-10.427c-7.592-0.146-15.208-0.482-22.755,0.331c-1.88-3.048-3.797-6.063-5.722-9.048
		c22.389-1.297,45.066-0.561,67.089,3.986c18.12,3.84,36.251,10.523,50.279,22.995c11.52,10.067,19.2,24.951,18.809,40.453
		c-0.22,18.615-10.763,35.817-25.036,47.201c-18.427,14.962-42.798,20.861-66.199,19.783c-9.557,17.125-30.099,26.901-49.418,24.565
		c-9.124-1.014-18.303-4.779-24.231-11.99c-3.396-3.997-5.416-9.709-3.467-14.799c2.466-6.908,10.168-10.616,17.183-10.41
		c3.577,0.018,7.453,1.788,8.776,5.345c0.977,2.588-1.765,4.847-4.126,5.028c-2.45,0.507-4.417-1.173-6.235-2.432
		c-2.104,0.724-4.375,1.659-5.279,3.844c-1.755,3.224-0.017,6.992,2.217,9.505c4.621,5.376,11.783,7.745,18.694,8.178
		c12.7,0.732,25.522-5.316,33.296-15.349c5.981-7.657,7.752-18.325,4.605-27.517c-4.843-13.965-17.384-23.722-30.481-29.565
		c-34.026-14.631-76.632-5.572-101.925,21.444c-9.541,10.112-16.299,23.151-17.566,37.12c-1.289,11.125,1.016,22.368,5.21,32.671
		c1.38,5.285-7.77,6.837-9.701,2.431c-1.026-2.124-1.768-4.357-2.741-6.455c-33.765,6.506-66.759,21.273-90.985,46.154
		c-12.899,13.184-23.266,28.992-29.415,46.437c-6.701,18.764-8.254,39.443-3.641,58.882c7.032,30.294,27.866,56.296,54.205,72.339
		c32.495,19.983,73.159,28.074,110.354,18.08c17.421-4.837,34.188-13.707,46.163-27.52c11.506-13.04,18.625-30.661,16.625-48.204
		c-1.938-17.938-13.586-33.896-28.878-43.006c-14.813-8.852-32.963-12.99-49.968-9.113c-9.132,2.262-18.203,7.194-23.172,15.444
		c-3.188,5.284-4.746,11.991-2.481,17.927c2.383,6.039,8.471,10.294,14.93,10.727c2.694,0.138,6.936,0.662,7.534-2.925
		c0.869-4.176,7.398-4.198,8.534-0.148c1.143,5.341-3.286,10.479-8.368,11.605c-8.552,1.952-18.098-0.416-24.517-6.451
		c-5.731-5.051-8.822-12.824-8.235-20.416c0.666-11.153,7.477-21.351,16.758-27.319c13.92-9.347,31.813-10.771,47.893-7.324
		c19.104,4.034,37.007,14.879,48.173,31.09c36.031-11.047,71.618-24.958,103.164-45.867c23.031-15.174,43.584-34.236,59.966-56.461
		c1.442-1.781,2.539-4.209,4.86-4.997c3.301-1.105,6.11,2.07,6.064,5.228c2.395,17.296,10.958,34.274,25.582,44.331
		c-1.402-19.196,3.151-38.186,8.941-56.347c12.581-39.296,31.646-76.316,42.054-116.336c4.935-19.846,7.819-41.277,1.198-61.081
		c-5.502-16.885-18.723-30.182-33.904-38.839c-22.553-12.945-48.309-18.771-73.731-22.907c-3.207-0.173-5.296-4.248-3.358-6.834
		c2.397-3.198,5.128-6.217,6.801-9.896c5.526-11.282,5.266-24.276,4.287-36.49c-32.421,22.191-66.948,42.28-104.965,53.131
		c-19.84,5.792-40.418,8.83-61.053,9.558c-2.796-2.976-5.609-5.91-8.45-8.802c5.149-0.579,10.334-0.34,15.518-0.701
		c21.433-1.213,42.658-5.486,62.971-12.432C1383.927,565.254,1415.652,545.805,1445.683,524.698z"/>
	<path fill="#FFDD55" stroke="#FFDD55" d="M1340.028,589.525c38.018-10.851,72.544-30.941,104.965-53.131
		c0.978,12.214,1.238,25.207-4.287,36.49c-1.674,3.679-4.404,6.699-6.801,9.896c-1.938,2.585,0.151,6.661,3.358,6.834
		c25.422,4.136,51.178,9.962,73.731,22.907c15.181,8.657,28.402,21.954,33.904,38.839c6.621,19.804,3.737,41.234-1.198,61.081
		c-10.408,40.02-29.474,77.041-42.054,116.336c-5.79,18.162-10.342,37.151-8.941,56.347c-14.625-10.057-23.188-27.035-25.582-44.331
		c0.046-3.158-2.763-6.333-6.064-5.228c-2.321,0.788-3.418,3.217-4.86,4.997c-16.382,22.225-36.936,41.287-59.966,56.461
		c-31.546,20.909-67.133,34.821-103.164,45.867c-11.166-16.211-29.069-27.057-48.173-31.09c-16.08-3.447-33.972-2.024-47.893,7.324
		c-9.281,5.968-16.092,16.165-16.758,27.319c-0.587,7.592,2.504,15.365,8.235,20.416c6.419,6.035,15.965,8.403,24.517,6.451
		c5.082-1.126,9.511-6.264,8.368-11.605c-1.136-4.05-7.665-4.028-8.534,0.148c-0.598,3.586-4.841,3.063-7.534,2.925
		c-6.46-0.433-12.548-4.688-14.93-10.727c-2.266-5.936-0.707-12.643,2.481-17.927c4.97-8.25,14.041-13.182,23.172-15.444
		c17.005-3.877,35.155,0.261,49.968,9.113c15.292,9.11,26.941,25.067,28.878,43.006c2,17.543-5.119,35.164-16.625,48.204
		c-11.974,13.813-28.742,22.682-46.163,27.52c-37.194,9.994-77.859,1.903-110.354-18.08c-26.339-16.043-47.173-42.046-54.205-72.339
		c-4.613-19.439-3.06-40.118,3.641-58.882c6.149-17.445,16.516-33.252,29.415-46.437c24.225-24.88,57.22-39.648,90.985-46.154
		c0.974,2.098,1.716,4.331,2.741,6.455c1.931,4.406,11.081,2.855,9.701-2.431c-4.194-10.303-6.499-21.545-5.21-32.671
		c1.267-13.969,8.025-27.007,17.566-37.12c25.293-27.016,67.899-36.075,101.925-21.444c13.097,5.843,25.638,15.6,30.481,29.565
		c3.147,9.192,1.376,19.859-4.605,27.517c-7.774,10.033-20.595,16.08-33.296,15.349c-6.911-0.433-14.073-2.802-18.694-8.178
		c-2.234-2.513-3.972-6.281-2.217-9.505c0.904-2.185,3.174-3.12,5.279-3.844c1.818,1.259,3.785,2.939,6.235,2.432
		c2.362-0.18,5.103-2.439,4.126-5.028c-1.323-3.556-5.199-5.327-8.776-5.345c-7.015-0.206-14.717,3.502-17.183,10.41
		c-1.949,5.09,0.071,10.803,3.467,14.799c5.928,7.211,15.108,10.975,24.231,11.99c19.319,2.336,39.861-7.44,49.418-24.565
		c23.401,1.078,47.772-4.821,66.199-19.783c14.273-11.385,24.816-28.586,25.036-47.201c0.392-15.502-7.289-30.386-18.809-40.453
		c-14.027-12.471-32.159-19.155-50.279-22.995c-22.024-4.547-44.701-5.283-67.089-3.986c-9.754-14.744-20.998-28.425-32.833-41.516
		C1299.61,598.355,1320.188,595.317,1340.028,589.525z"/>
	<path fill="#898A8B" stroke="#898A8B" d="M1270.938,603.894c0.985-0.838,2.011-1.659,3.078-2.462
		c3.957,2.667,6.663,6.68,9.816,10.192c21.182,24.486,39.315,52.164,49.504,83.085c2.616,8.747,5.342,17.637,5.794,26.812
		c-1.658-1.11-3.201-2.307-4.715-3.507c-5.58-33.407-22.554-63.778-43.1-90.26c-6.375-8.042-12.988-15.907-19.967-23.417
		L1270.938,603.894z"/>
	<path fill="#F4F9FB" stroke="#F4F9FB" d="M1260.044,618.726c3.328-5.134,7.882-9.319,11.305-14.389
		c6.98,7.51,13.593,15.375,19.967,23.417c20.546,26.483,37.519,56.853,43.1,90.26c-38.328-22.823-91.156-16.066-123.12,14.787
		c-12.444,11.761-21.359,27.721-22.896,44.933c-0.891,6.651,0.34,13.289,0.53,19.937c-12.239,2.963-24.531,5.9-36.228,10.65
		c5.667-16.871,12.578-33.276,19.624-49.609c8.099-17.056,16.808-33.833,26.163-50.233
		C1217.193,677.372,1237.513,647.187,1260.044,618.726z"/>
	<path fill="#F0F8F9" stroke="#F0F8F9" d="M116.964,796.995c20.08-9.785,41.926-15.543,63.997-18.572
		c46.287-6.043,93.434-1.316,138.778,8.882c2.069,18.55,5.799,36.928,11.188,54.802c-28.719-3.272-57.898-4.338-86.566-0.071
		c-19.456,3.032-39.016,8.535-55.479,19.667c-12.781,8.569-23.149,21.412-26.667,36.585c-4.105,16.725-0.074,34.371,7.279,49.608
		c8.03,16.654,19.709,31.277,32.627,44.384c21.587,21.895,46.993,39.534,73.154,55.469c-22.195,5.331-44.367,11.161-67.063,13.982
		c-19.926,2.603-40.159,2.763-60.11,0.419c-3.33-0.956-6.852,2.357-5.672,5.723c3.274,10.916,4.435,22.427,3.212,33.788
		c-28.064-25.532-53.224-54.617-72.35-87.486c-12.369-21.408-22.1-44.527-27.042-68.812c-4.442-21.785-4.838-44.625,0.748-66.239
		c4.26-16.796,12.221-32.64,23.233-46.028C82.799,817.691,99.141,805.655,116.964,796.995z"/>
	<path fill="#898A8B" stroke="#898A8B" d="M1013.81,826.732c0.728-1.372,2.198-2.152,3.793-2.12
		c-2.139,6.866-5.501,13.264-8.103,19.951c-4.862,11.468-9.6,22.987-13.762,34.718c-0.045,0.965,0.042,1.95,0.27,2.947
		c-2.795,7.231-5.344,14.545-7.616,21.961c-5.72-1.636-11.675-0.681-17.493-0.948c-8.093-0.443-16.139,0.844-24.212,0.399
		c-17.998,0.459-35.908,2.524-53.726,4.904c-41.516,5.94-82.648,18.714-117.909,41.869c-16.732,10.71-31.756,23.868-45.673,37.993
		c-7.276,8.356-14.776,16.527-21.775,25.125c-2.138,2.449-3.409,5.86-6.376,7.454c-5.717,2.1-11.728,3.269-17.665,4.483
		c-17.659,3.842-35.766,4.468-53.735,5.506c-20.839,0.221-41.642-1.544-62.264-4.463c-3.755,6.966-5.909,14.644-8.96,21.932
		c-30.355,79.104-50.646,161.732-65.166,245.111c-15.268,87.867-24.646,176.626-32.478,265.432
		c-11.399-6.208-20.519-15.747-28.371-25.922c-11.046-14.746-19.099-31.579-24.937-49.002c-1.435-3.589,0.626-7.174,1.342-10.648
		c7.041,23.492,17.332,46.603,33.97,64.927c4.398,4.45,8.67,9.398,14.251,12.376c6.051-66.177,12.735-132.318,22.249-198.089
		c12.705-87.543,30.318-174.657,58.081-258.763c24.4-74.163,57.002-145.846,99.344-211.539c1.622-3.105,6.601-2.801,7.969,0.391
		c1.287,2.437-0.532,4.854-1.776,6.891c-27.056,42.23-50.053,87-69.393,133.264c21.417,3.276,43.169,4.255,64.818,3.429
		c20.397-0.982,40.908-3.374,60.537-9.182c11.511-14.593,23.511-28.919,37.133-41.631c27.061-25.904,59.999-45.495,95.563-57.221
		c47.786-15.98,98.65-19.819,148.742-19.509C988.389,873.418,1000.009,849.353,1013.81,826.732z"/>
	<path fill="#817D7B" stroke="#817D7B" d="M1017.603,824.611c0.422,0.021,1.267,0.074,1.689,0.096
		c2.742,1.297,3.817,4.88,1.911,7.363c-9.66,16.04-18.314,32.733-25.196,50.157c-0.228-0.996-0.315-1.982-0.27-2.947
		c4.163-11.731,8.901-23.25,13.762-34.718C1012.102,837.875,1015.464,831.477,1017.603,824.611z"/>
	<path fill="#F0F8F9" stroke="#F0F8F9" d="M824.829,930.412c48.708-18.347,101.362-22.658,153.021-22.584
		c-6.653,24.64-9.461,50.453-6.853,75.908c2.974,31.31,14.317,61.511,31.252,87.918c-30.544,22.684-59.802,47.365-85.371,75.622
		c-13.417,14.992-25.803,31.017-35.712,48.546c-9.911,17.509-17.519,36.636-19.832,56.735c-2.669,21.506,1.799,43.97,13.403,62.365
		c-24.182,1.589-48.63,1.905-72.596-2.18c-16.51-2.697-32.633-7.383-48.207-13.419c-2.169-1.115-4.727-0.28-6.101,1.606
		c-6.008,6.678-7.099,15.997-8.658,24.476c-6.588-26.257-7.221-54.059-1.473-80.532c7.791-36.367,27.519-69.236,52.5-96.421
		c34.538-37.649,77.761-66.131,122.574-90.063c3.167-1.457,3.261-6.271,0.301-7.974c-12.968-9.848-25.68-20.065-37.47-31.305
		c-14.423-13.726-27.79-28.886-37.412-46.414C831.01,959.671,826.374,945.221,824.829,930.412z"/>
	<path fill="#6F5D17" stroke="#6F5D17" d="M277.088,1056.771c4.57-1.291,9.279-2.152,13.777-3.768
		c6.966,2.883,14.062,5.447,21.182,7.939c2.174,0.594,3.8,2.858,3.304,5.155c-2.304,12.106-5.764,24.019-10.614,35.356
		c-6.73,15.821-16.568,30.562-29.754,41.722c-13.686,11.765-30.823,19.318-48.736,21.484c-3.518,0.259-7.338,1.83-10.656,0.161
		c-22.665-14.74-43.477-32.29-61.886-52.086c0.146-4.197,0.837-8.34,1.196-12.501c14.539,15.732,30.532,30.022,47.042,43.657
		c5.316,3.957,10.091,8.781,15.697,12.277c11.441-0.705,22.874-3.304,33.258-8.224c12.964-6.167,24.229-15.675,32.625-27.313
		c11.289-15.359,17.915-33.607,22.112-52.062C296.121,1064.636,286.235,1061.54,277.088,1056.771z"/>
	<path fill="#C8AB37" stroke="#C8AB37" d="M210.835,1070.588c22.414-2.852,44.285-8.681,66.253-13.817
		c9.147,4.769,19.033,7.865,28.545,11.797c-4.198,18.454-10.824,36.703-22.112,52.062c-8.396,11.637-19.661,21.145-32.625,27.313
		c-31.962-20.831-61.599-45.635-85.858-75.171C180.326,1073.267,195.671,1072.668,210.835,1070.588z"/>
	<path fill="#FFF6D5" stroke="#FFF6D5" d="M154.9,1100.232c0.986-9.542-0.221-19.076-1.769-28.457
		c3.938,0.464,7.935,0.624,11.907,0.996c24.259,29.536,53.896,54.341,85.858,75.171c-10.384,4.921-21.817,7.519-33.258,8.224
		c-5.606-3.496-10.38-8.321-15.697-12.277C185.432,1130.255,169.438,1115.964,154.9,1100.232z"/>
	<path fill="#F4F9FB" stroke="#F4F9FB" d="M1161.285,1057.116c16.859,4.156,34.396,5.912,51.706,4.167
		c5.564,31.685,24.617,59.2,47.184,81.369c-23.795,74.823-49.537,149.126-80.059,221.5c-23.76,56.13-50.446,111.056-80.672,163.998
		c-8.431,14.524-16.607,29.252-25.853,43.28c-7.581-8.551-15.519-16.757-22.882-25.483l-0.228-0.265
		c3.198-4.684,5.138-10.044,7.837-15.005c22.517-45.498,43.781-91.603,64.231-138.053c3.682-7.001,6.031-14.602,9.693-21.611
		c4.476-9.619,7.971-19.682,12.736-29.17c4.747-10.649,8.947-21.531,13.56-32.24c2.317-5.716,5.346-11.12,7.58-16.871
		c11.953-28.916,24.193-57.712,36.136-86.627c3.428-9.127,7.082-18.159,10.912-27.123c3.045-7.969,7.086-15.595,9.136-23.917
		c-4.082-6.284-9.518-11.555-13.59-17.849c-6.642-8.735-12.989-17.7-18.646-27.112
		C1178.867,1093.365,1170.005,1075.235,1161.285,1057.116z"/>
	<path fill="#898A8B" stroke="#898A8B" d="M1212.991,1061.283c1.539-0.195,3.109-0.381,4.729-0.571
		c1.735,13.925,7.744,26.91,14.208,39.222c9.058,15.272,20.384,29.108,33.111,41.467c-2.499,9.825-6.193,19.321-9.119,29.044
		c-6.784,20.793-13.794,41.501-20.874,62.204c-7.707,22.238-16.02,44.267-24.107,66.37c-6.295,17.364-13.341,34.429-20.429,51.477
		c-2.536,8.105-6.648,15.555-9.843,23.394c-11.705,28.419-25,56.154-38.639,83.682c-16.208,32.62-33.652,64.613-52.097,96.013
		c-5.398,8.279-9.515,17.443-15.871,25.045c-7.892-9.291-16.607-17.875-24.309-27.319c-1.659-1.711,0.32-3.708,0.958-5.364
		c7.363,8.726,15.301,16.932,22.882,25.483c9.246-14.029,17.422-28.756,25.853-43.28c30.226-52.942,56.912-107.868,80.672-163.998
		c30.521-72.374,56.264-146.677,80.059-221.5C1237.608,1120.484,1218.555,1092.968,1212.991,1061.283z"/>
	<path fill="#FFF6D5" stroke="#FFF6D5" d="M753.094,1308.815c3.115,1.031,6.173,2.256,9.31,3.325
		c11.288,37.227,26.707,73.482,48.156,106.044c-4.941,1.587-9.921,3.026-14.972,4.17c-11.262-13.35-20.615-28.241-28.404-43.849
		c-8.683-17.862-15.236-36.949-17.776-56.689C749.62,1317.254,751.044,1312.86,753.094,1308.815z"/>
	<path fill="#C8AB37" stroke="#C8AB37" d="M762.404,1312.14c13.823,4.592,28.008,8.158,42.434,10.265
		c20.868,3.153,42.056,3.209,63.092,2.053c3.212,5.862,7.222,11.239,11.753,16.161c-0.305,7.172-2.845,14.326-5.196,21.166
		c-6.208,16.878-17.813,31.708-32.749,41.735c-9.57,6.428-20.119,11.44-31.179,14.664
		C789.112,1385.622,773.693,1349.367,762.404,1312.14z"/>
	<path fill="#6F5D17" stroke="#6F5D17" d="M746.751,1352.215c-0.027-10.155,0.354-20.487,2.657-30.399
		c2.54,19.74,9.093,38.828,17.776,56.689c7.789,15.608,17.142,30.499,28.404,43.849c5.051-1.144,10.031-2.583,14.972-4.17
		c11.06-3.224,21.608-8.236,31.179-14.664c14.936-10.027,26.541-24.857,32.749-41.735c2.351-6.84,4.891-13.994,5.196-21.166
		c-4.53-4.922-8.541-10.299-11.753-16.161c3.389-0.25,6.811-0.442,10.24-0.544c2.855,4.594,6.456,8.647,10.252,12.496
		c2.14,2.75,0.225,6.415-0.046,9.519c-4.327,23.782-16.76,46.35-36.079,61.162c-16.843,13.071-37.317,20.74-58.031,25.029
		c-3.387,0.13-5.12-3.279-7.117-5.397C769.268,1404.667,755.172,1379.359,746.751,1352.215z"/>
	<path fill="#FFF6D5" stroke="#FFF6D5" d="M373.987,1455.995c6.608-2.552,13.251-5.035,19.905-7.5
		c1.402,8.419,3.428,16.725,5.532,25.006c-13.524,46.661-31.561,91.906-51.746,136.055l-1.019-0.111
		c-12.695-3.907-24.947-9.246-36.346-16.056c19.725-34.531,38.026-69.978,52.468-107.076
		C366.79,1476.305,370.326,1466.119,373.987,1455.995z"/>
	<path fill="#C8AB37" stroke="#C8AB37" d="M351.726,1464.345c7.401-2.825,14.814-5.622,22.261-8.35
		c-3.661,10.124-7.197,20.31-11.206,30.318c-14.443,37.098-32.743,72.545-52.468,107.076c-6.005-3.629-12.086-7.194-17.625-11.476
		C313.653,1543.381,333.392,1504.181,351.726,1464.345z"/>
	<path fill="#6F5D17" stroke="#6F5D17" d="M339.574,1468.755c4.06-1.427,8.118-2.884,12.151-4.41
		c-18.334,39.836-38.073,79.036-59.039,117.568c5.539,4.282,11.62,7.846,17.625,11.476c11.4,6.81,23.651,12.149,36.346,16.056
		c19.389,6.308,40.219,6.398,60.3,4.015c13.203-1.606,26.309-3.907,39.387-6.316c1.385-16.501,2.752-32.99,4.218-49.476
		c2.786,2.085,5.718,3.97,8.607,5.957c-0.965,11.624-1.97,23.251-2.954,34.877c-0.513,4.693-0.562,9.443-1.377,14.116
		c-0.574,2.022-2.696,2.927-4.602,3.187c-24.774,4.234-49.72,9.33-74.988,8.039c-15.173-1.005-30.181-4.314-44.296-9.948
		c-15.759-6.113-30.162-15.113-44.013-24.691c-1.555-1.217-3.52-2.125-4.403-3.918c-0.997-1.996,0.154-4.087,1.119-5.805
		C303.358,1543.117,322.247,1506.299,339.574,1468.755z"/>
	<path fill="#C8AB37" stroke="#C8AB37" d="M347.677,1609.556c20.185-44.149,38.222-89.393,51.746-136.055
		c4.657,15.36,10.194,30.55,18.078,44.589c8.377,15.118,19.267,29.033,33.063,39.577c-1.467,16.486-2.833,32.976-4.218,49.476
		c-13.078,2.409-26.184,4.71-39.387,6.316c-20.081,2.383-40.912,2.293-60.3-4.015L347.677,1609.556z"/>
	<path fill="#C8AB37" stroke="#C8AB37" d="M963.336,1497.904c3.622-2.559,7.424-4.85,11.091-7.343
		c2.479,2.737,4.656,5.744,6.911,8.706c-20.771,31.507-42.927,62.247-68.378,90.176c-5.062,5.422-10.218,10.769-15.624,15.833
		c-5.176-2.764-10.487-5.469-14.916-9.326c23.054-29.018,47.433-56.943,70.953-85.582
		C956.718,1506.225,960.275,1502.258,963.336,1497.904z"/>
	<path fill="#6F5D17" stroke="#6F5D17" d="M943.891,1507.615c6.725-2.74,13.032-6.342,19.445-9.712
		c-3.06,4.354-6.618,8.321-9.963,12.465c-23.52,28.639-47.9,56.564-70.953,85.582c4.428,3.857,9.74,6.561,14.916,9.326
		c10.134,5.573,21.165,9.172,32.084,12.87c34.907,9.753,73.1,11.972,107.744-0.023c3.101-0.651,4.258-3.824,5.904-6.14
		c7.734-11.793,15.364-23.659,22.722-35.686c2.132,2.339,4.351,4.633,6.41,7.088c-7.904,12.686-16.018,25.235-24.194,37.749
		c-1.216,2.006-2.734,4.001-5.127,4.595c-33.834,12.731-71.355,11.698-106.203,3.854c-22.192-5.407-43.965-13.937-62.212-27.925
		c-2.532-1.441-4.467-4.875-2.266-7.419C895.339,1564.745,919.974,1536.461,943.891,1507.615z"/>
	<path fill="#FFF6D5" stroke="#FFF6D5" d="M912.959,1589.443c25.451-27.928,47.607-58.668,68.378-90.176
		c5.839,7.667,11.672,15.405,18.535,22.232c-22.373,32.998-46.048,65.113-70.454,96.646c-10.918-3.697-21.95-7.296-32.084-12.87
		C902.741,1600.212,907.898,1594.864,912.959,1589.443z"/>
	<path fill="#C8AB37" stroke="#C8AB37" d="M999.872,1521.499c7.636,7.445,16.21,14.086,25.744,18.948
		c3.026,1.187,5.186-1.664,6.419-4.011c9.795,14.461,22.014,27.004,33.753,39.861c-7.358,12.028-14.987,23.894-22.722,35.686
		c-1.646,2.315-2.803,5.488-5.904,6.14c-34.645,11.994-72.837,9.776-107.744,0.023
		C953.824,1586.612,977.499,1554.497,999.872,1521.499z"/>
</g>
</svg>
