<?xml version="1.0" encoding="UTF-8" standalone="no"?>
<!-- Created with Inkscape (http://www.inkscape.org/) -->
<svg xmlns:dc="http://purl.org/dc/elements/1.1/" xmlns:cc="http://creativecommons.org/ns#" xmlns:rdf="http://www.w3.org/1999/02/22-rdf-syntax-ns#" xmlns:svg="http://www.w3.org/2000/svg" xmlns="http://www.w3.org/2000/svg" xmlns:xlink="http://www.w3.org/1999/xlink" xmlns:sodipodi="http://sodipodi.sourceforge.net/DTD/sodipodi-0.dtd" xmlns:inkscape="http://www.inkscape.org/namespaces/inkscape" id="svg2" viewBox="0 0 666.73954 1032.2111" sodipodi:docname="sorvetea-aula103.svg" version="1.1" inkscape:version="0.91pre3 r13670">
  <defs id="defs4">
    <linearGradient id="linearGradient3697">
      <stop id="stop3699" style="stop-color:#ede1be" offset="0"/>
      <stop id="stop3701" style="stop-color:#cba843" offset="1"/>
    </linearGradient>
    <radialGradient id="radialGradient3613" gradientUnits="userSpaceOnUse" cy="456.10001" cx="363.70001" gradientTransform="matrix(1,0.37892,-0.56489,1.4908,257.65,-361.66)" r="278.35001" inkscape:collect="always">
      <stop id="stop3609" style="stop-color:#ffce08" offset="0"/>
      <stop id="stop3611" style="stop-color:#fff755" offset="1"/>
    </radialGradient>
    <filter id="filter3615" inkscape:collect="always">
      <feGaussianBlur id="feGaussianBlur3617" stdDeviation="6.7485291" inkscape:collect="always"/>
    </filter>
    <linearGradient id="linearGradient3641" y2="443.69" gradientUnits="userSpaceOnUse" x2="576.84998" y1="163.62" x1="257.10999" inkscape:collect="always">
      <stop id="stop3637" style="stop-color:#ffffff" offset="0"/>
      <stop id="stop3639" style="stop-color:#ffffff;stop-opacity:0" offset="1"/>
    </linearGradient>
    <filter id="filter3655" height="1.6772" width="1.2452" y="-0.33862001" x="-0.12258" inkscape:collect="always">
      <feGaussianBlur id="feGaussianBlur3657" stdDeviation="10.532089" inkscape:collect="always"/>
    </filter>
    <radialGradient id="radialGradient3703" xlink:href="#linearGradient3697" gradientUnits="userSpaceOnUse" cy="836.29999" cx="196.05" gradientTransform="matrix(0.99813,0.56431,-0.81335,1.4386,744.463,-441.745)" r="108.62" inkscape:collect="always"/>
    <clipPath id="clipPath4068" clipPathUnits="userSpaceOnUse">
      <path id="path4070" sodipodi:nodetypes="ccccccccc" style="fill:url(#radialGradient4072);fill-rule:evenodd" inkscape:connector-curvature="0" d="m -213.1,754.9 15.683,7.3372 c 27.97,13.086 39.952,46.138 26.866,74.108 l -50.95,157.05 c -17.231,36.83 -60.754,52.609 -97.584,35.378 l -20.651,-9.6615 c -36.83,-17.231 -52.609,-60.754 -35.378,-97.584 l 87.912,-139.77 c 13.086,-27.97 46.138,-39.952 74.108,-26.866 z"/>
    </clipPath>
    <radialGradient id="radialGradient4072" xlink:href="#linearGradient3697" gradientUnits="userSpaceOnUse" cy="836.29999" cx="196.05" gradientTransform="matrix(0.99813,0.56431,-0.81335,1.4386,210.85,-421.07)" r="108.62" inkscape:collect="always"/>
    <clipPath id="clipPath4074" clipPathUnits="userSpaceOnUse">
      <path id="path4076" sodipodi:nodetypes="ccccccccc" style="fill:url(#radialGradient4072);fill-rule:evenodd" inkscape:connector-curvature="0" d="m -213.1,754.9 15.683,7.3372 c 27.97,13.086 39.952,46.138 26.866,74.108 l -50.95,157.05 c -17.231,36.83 -60.754,52.609 -97.584,35.378 l -20.651,-9.6615 c -36.83,-17.231 -52.609,-60.754 -35.378,-97.584 l 87.912,-139.77 c 13.086,-27.97 46.138,-39.952 74.108,-26.866 z"/>
    </clipPath>
    <clipPath id="clipPath4080" clipPathUnits="userSpaceOnUse">
      <path id="path4082" sodipodi:nodetypes="ccccccccc" style="fill:url(#radialGradient4072);fill-rule:evenodd" inkscape:connector-curvature="0" d="m -213.1,754.9 15.683,7.3372 c 27.97,13.086 39.952,46.138 26.866,74.108 l -50.95,157.05 c -17.231,36.83 -60.754,52.609 -97.584,35.378 l -20.651,-9.6615 c -36.83,-17.231 -52.609,-60.754 -35.378,-97.584 l 87.912,-139.77 c 13.086,-27.97 46.138,-39.952 74.108,-26.866 z"/>
    </clipPath>
    <clipPath id="clipPath4086" clipPathUnits="userSpaceOnUse">
      <path id="path4088" sodipodi:nodetypes="ccccccccc" style="fill:url(#radialGradient4072);fill-rule:evenodd" inkscape:connector-curvature="0" d="m -213.1,754.9 15.683,7.3372 c 27.97,13.086 39.952,46.138 26.866,74.108 l -50.95,157.05 c -17.231,36.83 -60.754,52.609 -97.584,35.378 l -20.651,-9.6615 c -36.83,-17.231 -52.609,-60.754 -35.378,-97.584 l 87.912,-139.77 c 13.086,-27.97 46.138,-39.952 74.108,-26.866 z"/>
    </clipPath>
    <clipPath id="clipPath4092" clipPathUnits="userSpaceOnUse">
      <path id="path4094" sodipodi:nodetypes="ccccccccc" style="fill:url(#radialGradient4072);fill-rule:evenodd" inkscape:connector-curvature="0" d="m -213.1,754.9 15.683,7.3372 c 27.97,13.086 39.952,46.138 26.866,74.108 l -50.95,157.05 c -17.231,36.83 -60.754,52.609 -97.584,35.378 l -20.651,-9.6615 c -36.83,-17.231 -52.609,-60.754 -35.378,-97.584 l 87.912,-139.77 c 13.086,-27.97 46.138,-39.952 74.108,-26.866 z"/>
    </clipPath>
    <clipPath id="clipPath4098" clipPathUnits="userSpaceOnUse">
      <path id="path4100" sodipodi:nodetypes="ccccccccc" style="fill:url(#radialGradient4072);fill-rule:evenodd" inkscape:connector-curvature="0" d="m -213.1,754.9 15.683,7.3372 c 27.97,13.086 39.952,46.138 26.866,74.108 l -50.95,157.05 c -17.231,36.83 -60.754,52.609 -97.584,35.378 l -20.651,-9.6615 c -36.83,-17.231 -52.609,-60.754 -35.378,-97.584 l 87.912,-139.77 c 13.086,-27.97 46.138,-39.952 74.108,-26.866 z"/>
    </clipPath>
    <clipPath id="clipPath4104" clipPathUnits="userSpaceOnUse">
      <path id="path4106" sodipodi:nodetypes="ccccccccc" style="fill:url(#radialGradient4072);fill-rule:evenodd" inkscape:connector-curvature="0" d="m -213.1,754.9 15.683,7.3372 c 27.97,13.086 39.952,46.138 26.866,74.108 l -50.95,157.05 c -17.231,36.83 -60.754,52.609 -97.584,35.378 l -20.651,-9.6615 c -36.83,-17.231 -52.609,-60.754 -35.378,-97.584 l 87.912,-139.77 c 13.086,-27.97 46.138,-39.952 74.108,-26.866 z"/>
    </clipPath>
    <clipPath id="clipPath4110" clipPathUnits="userSpaceOnUse">
      <path id="path4112" sodipodi:nodetypes="ccccccccc" style="fill:url(#radialGradient4072);fill-rule:evenodd" inkscape:connector-curvature="0" d="m -213.1,754.9 15.683,7.3372 c 27.97,13.086 39.952,46.138 26.866,74.108 l -50.95,157.05 c -17.231,36.83 -60.754,52.609 -97.584,35.378 l -20.651,-9.6615 c -36.83,-17.231 -52.609,-60.754 -35.378,-97.584 l 87.912,-139.77 c 13.086,-27.97 46.138,-39.952 74.108,-26.866 z"/>
    </clipPath>
    <clipPath id="clipPath4116" clipPathUnits="userSpaceOnUse">
      <path id="path4118" sodipodi:nodetypes="ccccccccc" style="fill:url(#radialGradient4072);fill-rule:evenodd" inkscape:connector-curvature="0" d="m -213.1,754.9 15.683,7.3372 c 27.97,13.086 39.952,46.138 26.866,74.108 l -50.95,157.05 c -17.231,36.83 -60.754,52.609 -97.584,35.378 l -20.651,-9.6615 c -36.83,-17.231 -52.609,-60.754 -35.378,-97.584 l 87.912,-139.77 c 13.086,-27.97 46.138,-39.952 74.108,-26.866 z"/>
    </clipPath>
    <clipPath id="clipPath4122" clipPathUnits="userSpaceOnUse">
      <path id="path4124" sodipodi:nodetypes="ccccccccc" style="fill:url(#radialGradient4072);fill-rule:evenodd" inkscape:connector-curvature="0" d="m -213.1,754.9 15.683,7.3372 c 27.97,13.086 39.952,46.138 26.866,74.108 l -50.95,157.05 c -17.231,36.83 -60.754,52.609 -97.584,35.378 l -20.651,-9.6615 c -36.83,-17.231 -52.609,-60.754 -35.378,-97.584 l 87.912,-139.77 c 13.086,-27.97 46.138,-39.952 74.108,-26.866 z"/>
    </clipPath>
    <clipPath id="clipPath4128" clipPathUnits="userSpaceOnUse">
      <path id="path4130" sodipodi:nodetypes="ccccccccc" style="fill:url(#radialGradient4072);fill-rule:evenodd" inkscape:connector-curvature="0" d="m -213.1,754.9 15.683,7.3372 c 27.97,13.086 39.952,46.138 26.866,74.108 l -50.95,157.05 c -17.231,36.83 -60.754,52.609 -97.584,35.378 l -20.651,-9.6615 c -36.83,-17.231 -52.609,-60.754 -35.378,-97.584 l 87.912,-139.77 c 13.086,-27.97 46.138,-39.952 74.108,-26.866 z"/>
    </clipPath>
    <clipPath id="clipPath4134" clipPathUnits="userSpaceOnUse">
      <path id="path4136" sodipodi:nodetypes="ccccccccc" style="fill:url(#radialGradient4072);fill-rule:evenodd" inkscape:connector-curvature="0" d="m -213.1,754.9 15.683,7.3372 c 27.97,13.086 39.952,46.138 26.866,74.108 l -50.95,157.05 c -17.231,36.83 -60.754,52.609 -97.584,35.378 l -20.651,-9.6615 c -36.83,-17.231 -52.609,-60.754 -35.378,-97.584 l 87.912,-139.77 c 13.086,-27.97 46.138,-39.952 74.108,-26.866 z"/>
    </clipPath>
    <clipPath id="clipPath4140" clipPathUnits="userSpaceOnUse">
      <path id="path4142" sodipodi:nodetypes="ccccccccc" style="fill:url(#radialGradient4072);fill-rule:evenodd" inkscape:connector-curvature="0" d="m -213.1,754.9 15.683,7.3372 c 27.97,13.086 39.952,46.138 26.866,74.108 l -50.95,157.05 c -17.231,36.83 -60.754,52.609 -97.584,35.378 l -20.651,-9.6615 c -36.83,-17.231 -52.609,-60.754 -35.378,-97.584 l 87.912,-139.77 c 13.086,-27.97 46.138,-39.952 74.108,-26.866 z"/>
    </clipPath>
    <clipPath id="clipPath4146" clipPathUnits="userSpaceOnUse">
      <path id="path4148" sodipodi:nodetypes="ccccccccc" style="fill:url(#radialGradient4072);fill-rule:evenodd" inkscape:connector-curvature="0" d="m -213.1,754.9 15.683,7.3372 c 27.97,13.086 39.952,46.138 26.866,74.108 l -50.95,157.05 c -17.231,36.83 -60.754,52.609 -97.584,35.378 l -20.651,-9.6615 c -36.83,-17.231 -52.609,-60.754 -35.378,-97.584 l 87.912,-139.77 c 13.086,-27.97 46.138,-39.952 74.108,-26.866 z"/>
    </clipPath>
    <clipPath id="clipPath4152" clipPathUnits="userSpaceOnUse">
      <path id="path4154" sodipodi:nodetypes="ccccccccc" style="fill:url(#radialGradient4072);fill-rule:evenodd" inkscape:connector-curvature="0" d="m -213.1,754.9 15.683,7.3372 c 27.97,13.086 39.952,46.138 26.866,74.108 l -50.95,157.05 c -17.231,36.83 -60.754,52.609 -97.584,35.378 l -20.651,-9.6615 c -36.83,-17.231 -52.609,-60.754 -35.378,-97.584 l 87.912,-139.77 c 13.086,-27.97 46.138,-39.952 74.108,-26.866 z"/>
    </clipPath>
    <clipPath id="clipPath4158" clipPathUnits="userSpaceOnUse">
      <path id="path4160" sodipodi:nodetypes="ccccccccc" style="fill:url(#radialGradient4072);fill-rule:evenodd" inkscape:connector-curvature="0" d="m -213.1,754.9 15.683,7.3372 c 27.97,13.086 39.952,46.138 26.866,74.108 l -50.95,157.05 c -17.231,36.83 -60.754,52.609 -97.584,35.378 l -20.651,-9.6615 c -36.83,-17.231 -52.609,-60.754 -35.378,-97.584 l 87.912,-139.77 c 13.086,-27.97 46.138,-39.952 74.108,-26.866 z"/>
    </clipPath>
    <clipPath id="clipPath4164" clipPathUnits="userSpaceOnUse">
      <path id="path4166" sodipodi:nodetypes="ccccccccc" style="fill:url(#radialGradient4072);fill-rule:evenodd" inkscape:connector-curvature="0" d="m -213.1,754.9 15.683,7.3372 c 27.97,13.086 39.952,46.138 26.866,74.108 l -50.95,157.05 c -17.231,36.83 -60.754,52.609 -97.584,35.378 l -20.651,-9.6615 c -36.83,-17.231 -52.609,-60.754 -35.378,-97.584 l 87.912,-139.77 c 13.086,-27.97 46.138,-39.952 74.108,-26.866 z"/>
    </clipPath>
    <clipPath id="clipPath4170" clipPathUnits="userSpaceOnUse">
      <path id="path4172" sodipodi:nodetypes="ccccccccc" style="fill:url(#radialGradient4072);fill-rule:evenodd" inkscape:connector-curvature="0" d="m -213.1,754.9 15.683,7.3372 c 27.97,13.086 39.952,46.138 26.866,74.108 l -50.95,157.05 c -17.231,36.83 -60.754,52.609 -97.584,35.378 l -20.651,-9.6615 c -36.83,-17.231 -52.609,-60.754 -35.378,-97.584 l 87.912,-139.77 c 13.086,-27.97 46.138,-39.952 74.108,-26.866 z"/>
    </clipPath>
    <clipPath id="clipPath4176" clipPathUnits="userSpaceOnUse">
      <path id="path4178" sodipodi:nodetypes="ccccccccc" style="fill:url(#radialGradient4072);fill-rule:evenodd" inkscape:connector-curvature="0" d="m -213.1,754.9 15.683,7.3372 c 27.97,13.086 39.952,46.138 26.866,74.108 l -50.95,157.05 c -17.231,36.83 -60.754,52.609 -97.584,35.378 l -20.651,-9.6615 c -36.83,-17.231 -52.609,-60.754 -35.378,-97.584 l 87.912,-139.77 c 13.086,-27.97 46.138,-39.952 74.108,-26.866 z"/>
    </clipPath>
    <clipPath id="clipPath4182" clipPathUnits="userSpaceOnUse">
      <path id="path4184" sodipodi:nodetypes="ccccccccc" style="fill:url(#radialGradient4072);fill-rule:evenodd" inkscape:connector-curvature="0" d="m -213.1,754.9 15.683,7.3372 c 27.97,13.086 39.952,46.138 26.866,74.108 l -50.95,157.05 c -17.231,36.83 -60.754,52.609 -97.584,35.378 l -20.651,-9.6615 c -36.83,-17.231 -52.609,-60.754 -35.378,-97.584 l 87.912,-139.77 c 13.086,-27.97 46.138,-39.952 74.108,-26.866 z"/>
    </clipPath>
    <clipPath id="clipPath4188" clipPathUnits="userSpaceOnUse">
      <path id="path4190" sodipodi:nodetypes="ccccccccc" style="fill:url(#radialGradient4072);fill-rule:evenodd" inkscape:connector-curvature="0" d="m -213.1,754.9 15.683,7.3372 c 27.97,13.086 39.952,46.138 26.866,74.108 l -50.95,157.05 c -17.231,36.83 -60.754,52.609 -97.584,35.378 l -20.651,-9.6615 c -36.83,-17.231 -52.609,-60.754 -35.378,-97.584 l 87.912,-139.77 c 13.086,-27.97 46.138,-39.952 74.108,-26.866 z"/>
    </clipPath>
    <clipPath id="clipPath4194" clipPathUnits="userSpaceOnUse">
      <path id="path4196" sodipodi:nodetypes="ccccccccc" style="fill:url(#radialGradient4072);fill-rule:evenodd" inkscape:connector-curvature="0" d="m -213.1,754.9 15.683,7.3372 c 27.97,13.086 39.952,46.138 26.866,74.108 l -50.95,157.05 c -17.231,36.83 -60.754,52.609 -97.584,35.378 l -20.651,-9.6615 c -36.83,-17.231 -52.609,-60.754 -35.378,-97.584 l 87.912,-139.77 c 13.086,-27.97 46.138,-39.952 74.108,-26.866 z"/>
    </clipPath>
    <clipPath id="clipPath4200" clipPathUnits="userSpaceOnUse">
      <path id="path4202" sodipodi:nodetypes="ccccccccc" style="fill:url(#radialGradient4072);fill-rule:evenodd" inkscape:connector-curvature="0" d="m -213.1,754.9 15.683,7.3372 c 27.97,13.086 39.952,46.138 26.866,74.108 l -50.95,157.05 c -17.231,36.83 -60.754,52.609 -97.584,35.378 l -20.651,-9.6615 c -36.83,-17.231 -52.609,-60.754 -35.378,-97.584 l 87.912,-139.77 c 13.086,-27.97 46.138,-39.952 74.108,-26.866 z"/>
    </clipPath>
    <clipPath id="clipPath4206" clipPathUnits="userSpaceOnUse">
      <path id="path4208" sodipodi:nodetypes="ccccccccc" style="fill:url(#radialGradient4072);fill-rule:evenodd" inkscape:connector-curvature="0" d="m -213.1,754.9 15.683,7.3372 c 27.97,13.086 39.952,46.138 26.866,74.108 l -50.95,157.05 c -17.231,36.83 -60.754,52.609 -97.584,35.378 l -20.651,-9.6615 c -36.83,-17.231 -52.609,-60.754 -35.378,-97.584 l 87.912,-139.77 c 13.086,-27.97 46.138,-39.952 74.108,-26.866 z"/>
    </clipPath>
    <clipPath id="clipPath4212" clipPathUnits="userSpaceOnUse">
      <path id="path4214" sodipodi:nodetypes="ccccccccc" style="fill:url(#radialGradient4072);fill-rule:evenodd" inkscape:connector-curvature="0" d="m -213.1,754.9 15.683,7.3372 c 27.97,13.086 39.952,46.138 26.866,74.108 l -50.95,157.05 c -17.231,36.83 -60.754,52.609 -97.584,35.378 l -20.651,-9.6615 c -36.83,-17.231 -52.609,-60.754 -35.378,-97.584 l 87.912,-139.77 c 13.086,-27.97 46.138,-39.952 74.108,-26.866 z"/>
    </clipPath>
    <clipPath id="clipPath4218" clipPathUnits="userSpaceOnUse">
      <path id="path4220" sodipodi:nodetypes="ccccccccc" style="fill:url(#radialGradient4072);fill-rule:evenodd" inkscape:connector-curvature="0" d="m -213.1,754.9 15.683,7.3372 c 27.97,13.086 39.952,46.138 26.866,74.108 l -50.95,157.05 c -17.231,36.83 -60.754,52.609 -97.584,35.378 l -20.651,-9.6615 c -36.83,-17.231 -52.609,-60.754 -35.378,-97.584 l 87.912,-139.77 c 13.086,-27.97 46.138,-39.952 74.108,-26.866 z"/>
    </clipPath>
    <clipPath id="clipPath4224" clipPathUnits="userSpaceOnUse">
      <path id="path4226" sodipodi:nodetypes="ccccccccc" style="fill:url(#radialGradient4072);fill-rule:evenodd" inkscape:connector-curvature="0" d="m -213.1,754.9 15.683,7.3372 c 27.97,13.086 39.952,46.138 26.866,74.108 l -50.95,157.05 c -17.231,36.83 -60.754,52.609 -97.584,35.378 l -20.651,-9.6615 c -36.83,-17.231 -52.609,-60.754 -35.378,-97.584 l 87.912,-139.77 c 13.086,-27.97 46.138,-39.952 74.108,-26.866 z"/>
    </clipPath>
    <clipPath id="clipPath4230" clipPathUnits="userSpaceOnUse">
      <path id="path4232" sodipodi:nodetypes="ccccccccc" style="fill:url(#radialGradient4072);fill-rule:evenodd" inkscape:connector-curvature="0" d="m -213.1,754.9 15.683,7.3372 c 27.97,13.086 39.952,46.138 26.866,74.108 l -50.95,157.05 c -17.231,36.83 -60.754,52.609 -97.584,35.378 l -20.651,-9.6615 c -36.83,-17.231 -52.609,-60.754 -35.378,-97.584 l 87.912,-139.77 c 13.086,-27.97 46.138,-39.952 74.108,-26.866 z"/>
    </clipPath>
    <clipPath id="clipPath4236" clipPathUnits="userSpaceOnUse">
      <path id="path4238" sodipodi:nodetypes="ccccccccc" style="fill:url(#radialGradient4072);fill-rule:evenodd" inkscape:connector-curvature="0" d="m -213.1,754.9 15.683,7.3372 c 27.97,13.086 39.952,46.138 26.866,74.108 l -50.95,157.05 c -17.231,36.83 -60.754,52.609 -97.584,35.378 l -20.651,-9.6615 c -36.83,-17.231 -52.609,-60.754 -35.378,-97.584 l 87.912,-139.77 c 13.086,-27.97 46.138,-39.952 74.108,-26.866 z"/>
    </clipPath>
    <clipPath id="clipPath4242" clipPathUnits="userSpaceOnUse">
      <path id="path4244" sodipodi:nodetypes="ccccccccc" style="fill:url(#radialGradient4072);fill-rule:evenodd" inkscape:connector-curvature="0" d="m -213.1,754.9 15.683,7.3372 c 27.97,13.086 39.952,46.138 26.866,74.108 l -50.95,157.05 c -17.231,36.83 -60.754,52.609 -97.584,35.378 l -20.651,-9.6615 c -36.83,-17.231 -52.609,-60.754 -35.378,-97.584 l 87.912,-139.77 c 13.086,-27.97 46.138,-39.952 74.108,-26.866 z"/>
    </clipPath>
    <clipPath id="clipPath4248" clipPathUnits="userSpaceOnUse">
      <path id="path4250" sodipodi:nodetypes="ccccccccc" style="fill:url(#radialGradient4072);fill-rule:evenodd" inkscape:connector-curvature="0" d="m -213.1,754.9 15.683,7.3372 c 27.97,13.086 39.952,46.138 26.866,74.108 l -50.95,157.05 c -17.231,36.83 -60.754,52.609 -97.584,35.378 l -20.651,-9.6615 c -36.83,-17.231 -52.609,-60.754 -35.378,-97.584 l 87.912,-139.77 c 13.086,-27.97 46.138,-39.952 74.108,-26.866 z"/>
    </clipPath>
    <clipPath id="clipPath4254" clipPathUnits="userSpaceOnUse">
      <path id="path4256" sodipodi:nodetypes="ccccccccc" style="fill:url(#radialGradient4072);fill-rule:evenodd" inkscape:connector-curvature="0" d="m -213.1,754.9 15.683,7.3372 c 27.97,13.086 39.952,46.138 26.866,74.108 l -50.95,157.05 c -17.231,36.83 -60.754,52.609 -97.584,35.378 l -20.651,-9.6615 c -36.83,-17.231 -52.609,-60.754 -35.378,-97.584 l 87.912,-139.77 c 13.086,-27.97 46.138,-39.952 74.108,-26.866 z"/>
    </clipPath>
    <clipPath id="clipPath4260" clipPathUnits="userSpaceOnUse">
      <path id="path4262" sodipodi:nodetypes="ccccccccc" style="fill:url(#radialGradient4072);fill-rule:evenodd" inkscape:connector-curvature="0" d="m -213.1,754.9 15.683,7.3372 c 27.97,13.086 39.952,46.138 26.866,74.108 l -50.95,157.05 c -17.231,36.83 -60.754,52.609 -97.584,35.378 l -20.651,-9.6615 c -36.83,-17.231 -52.609,-60.754 -35.378,-97.584 l 87.912,-139.77 c 13.086,-27.97 46.138,-39.952 74.108,-26.866 z"/>
    </clipPath>
    <clipPath id="clipPath4266" clipPathUnits="userSpaceOnUse">
      <path id="path4268" sodipodi:nodetypes="ccccccccc" style="fill:url(#radialGradient4072);fill-rule:evenodd" inkscape:connector-curvature="0" d="m -213.1,754.9 15.683,7.3372 c 27.97,13.086 39.952,46.138 26.866,74.108 l -50.95,157.05 c -17.231,36.83 -60.754,52.609 -97.584,35.378 l -20.651,-9.6615 c -36.83,-17.231 -52.609,-60.754 -35.378,-97.584 l 87.912,-139.77 c 13.086,-27.97 46.138,-39.952 74.108,-26.866 z"/>
    </clipPath>
    <clipPath id="clipPath4272" clipPathUnits="userSpaceOnUse">
      <path id="path4274" sodipodi:nodetypes="ccccccccc" style="fill:url(#radialGradient4072);fill-rule:evenodd" inkscape:connector-curvature="0" d="m -213.1,754.9 15.683,7.3372 c 27.97,13.086 39.952,46.138 26.866,74.108 l -50.95,157.05 c -17.231,36.83 -60.754,52.609 -97.584,35.378 l -20.651,-9.6615 c -36.83,-17.231 -52.609,-60.754 -35.378,-97.584 l 87.912,-139.77 c 13.086,-27.97 46.138,-39.952 74.108,-26.866 z"/>
    </clipPath>
    <filter id="filter4315" inkscape:collect="always">
      <feGaussianBlur id="feGaussianBlur4317" stdDeviation="1.9649134" inkscape:collect="always"/>
    </filter>
    <filter id="filter4329" inkscape:collect="always">
      <feGaussianBlur id="feGaussianBlur4331" stdDeviation="0.56097255" inkscape:collect="always"/>
    </filter>
  </defs>
  <sodipodi:namedview id="base" bordercolor="#666666" inkscape:pageshadow="2" inkscape:window-y="0" pagecolor="#ffffff" inkscape:window-height="645" inkscape:window-maximized="0" inkscape:zoom="0.3236309" inkscape:window-x="0" showgrid="false" borderopacity="1.0" inkscape:current-layer="layer1" inkscape:cx="754.86078" inkscape:cy="524.47002" inkscape:window-width="782" inkscape:pageopacity="0.0" inkscape:document-units="px" fit-margin-top="0" fit-margin-left="0" fit-margin-right="0" fit-margin-bottom="0"/>
  <g id="layer1" inkscape:label="Camada 1" inkscape:groupmode="layer" transform="translate(-94.215676,-15.34287)">
    <g id="g3763">
      <g id="g3723">
        <path d="m 326.343,743.835 15.683,7.3372 c 27.97,13.086 39.952,46.138 26.866,74.108 l -50.957,157.06 c -17.231,36.83 -60.754,52.609 -97.584,35.377 l -20.651,-9.6615 c -36.837,-17.24 -52.615,-60.77 -35.38,-97.6 l 87.912,-139.77 c 13.086,-27.97 46.138,-39.952 74.108,-26.866 z" style="fill:#a17000;fill-rule:evenodd" sodipodi:nodetypes="ccccccccc" inkscape:connector-curvature="0" id="path3730"/>
        <path d="m 320.523,734.235 15.683,7.3372 c 27.97,13.086 39.952,46.138 26.866,74.108 l -50.957,157.06 c -17.231,36.83 -60.754,52.609 -97.584,35.377 l -20.651,-9.6615 c -36.836,-17.25 -52.615,-60.77 -35.384,-97.6 l 87.914,-139.77 c 13.086,-27.97 46.138,-39.952 74.108,-26.866 z" inkscape:connector-curvature="0" style="fill:url(#radialGradient3703);fill-rule:evenodd" sodipodi:nodetypes="ccccccccc" id="path2819"/>
        <path id="path3738" inkscape:connector-curvature="0" style="opacity:0.36399997;fill:#c38d10;filter:url(#filter4315)" clip-path="url(#clipPath4272)" d="m -218.93,674.83 c -0.80236,3.1435 -0.80752,3.5462 -2.2917,7.0375 -7.8493,18.465 -18.545,35.848 -28.371,53.27 -37.556,63.232 -81.824,122.27 -128.17,179.28 -12.497,15.37 -25.344,30.451 -38.017,45.676 -72.902,85.142 -150.45,166.18 -228.26,246.81 -22.321,23.301 -44.79,46.474 -67.785,69.114 -9.6837,9.5337 -19.41,18.808 -29.947,27.376 -6.6554,4.4585 -4.9886,3.782 -13.487,1.7076 l 6.6299,-0.2306 c -11.792,2.1242 -3.2399,1.2529 0.69124,-2.0341 10.941,-8.4399 20.995,-17.663 30.985,-27.226 23.503,-22.499 46.363,-45.668 69.027,-69.007 78.436,-80.264 156.3,-161.26 229.1,-246.72 12.6,-15.228 25.386,-30.304 37.801,-45.683 45.915,-56.88 89.619,-115.93 126.17,-179.33 9.4693,-17.4 19.792,-34.781 27.197,-53.224 1.4287,-3.5585 1.3734,-3.7732 2.0889,-6.9473 l 6.6409,0.1311 z" transform="translate(533.613,-20.67)"/>
        <path id="path3740" inkscape:connector-curvature="0" style="opacity:0.36399997;fill:#c38d10;filter:url(#filter4315)" clip-path="url(#clipPath4266)" d="m -191.77,657.36 c -2.727,20.845 -7.177,41.455 -13.077,61.633 -2.6002,8.8931 -5.5963,17.666 -8.3944,26.498 -21.586,61.453 -50.64,120.15 -84.183,175.92 -7.1966,11.966 -14.843,23.656 -22.265,35.484 -29.637,45.282 -63.478,87.536 -99.788,127.59 l -5.2458,-0.3898 c 5.3905,-5.8203 10.892,-11.54 16.172,-17.461 30.825,-34.567 58.974,-71.492 84.733,-109.97 7.4359,-11.822 15.105,-23.501 22.308,-35.466 33.49,-55.639 62.328,-114.32 83.26,-175.86 2.6833,-8.8271 5.5738,-17.594 8.0498,-26.481 5.6075,-20.129 9.7596,-40.701 11.82,-61.5 l 6.6107,0 z" transform="translate(533.613,-20.67)"/>
        <path id="path3742" inkscape:connector-curvature="0" style="opacity:0.36399997;fill:#c38d10;filter:url(#filter4315)" clip-path="url(#clipPath4260)" d="m -54.101,638.91 c -24.46,24.795 -45.93,52.484 -67.846,79.511 -54.634,67.943 -107.7,137.13 -159.68,207.12 -8.062,11.124 -16.167,22.218 -24.186,33.373 -16.394,22.807 -24.56,34.208 -39.799,57.042 -12.199,18.28 -23.83,36.93 -35.485,55.558 -4.3784,7.1424 -8.8768,14.196 -13.917,20.887 l -6.4072,-0.4265 c 5.3617,-6.5851 10.096,-13.615 14.654,-20.782 12.035,-18.577 23.996,-37.214 36.443,-55.52 15.805,-23.243 23.42,-33.695 40.345,-57.02 8.0869,-11.145 16.237,-22.245 24.355,-33.367 52.054,-69.769 105.01,-138.86 158.95,-207.19 21.452,-26.996 42.507,-54.491 65.973,-79.784 l 6.594,0.59244 z" transform="translate(533.613,-20.67)"/>
        <path id="path3744" inkscape:connector-curvature="0" style="opacity:0.36399997;fill:#c38d10;filter:url(#filter4315)" clip-path="url(#clipPath4254)" d="m -125.31,657.24 c -12.745,20.65 -27.537,40.037 -41.581,59.82 -47.633,68.464 -99.197,134.05 -151.77,198.75 -56.71,69.215 -117.2,135.18 -178.65,200.17 -19.791,19.46 -37.769,41.337 -60.291,57.822 l -6.2737,-0.6002 c 23.304,-16.034 41.773,-38.083 62.02,-57.568 62.031,-64.698 122.87,-130.61 179.57,-200.08 52.253,-64.571 103.5,-130.05 150.15,-198.83 13.638,-19.744 28.039,-39.12 40.217,-59.806 l 6.6084,0.30662 z" transform="translate(533.613,-20.67)"/>
        <path id="path3746" inkscape:connector-curvature="0" style="opacity:0.36399997;fill:#c38d10;filter:url(#filter4315)" clip-path="url(#clipPath4248)" d="m -187.27,605.25 c 0.50866,9.18 -1.7274,17.91 -4.3554,26.614 -1.0816,2.8726 -2.055,5.7882 -3.2448,8.6177 -3.6399,8.6564 -7.9142,16.951 -12.126,25.34 -10.226,20.368 -20.974,40.333 -32.128,60.208 -26.819,46.729 -53.849,93.325 -79.789,140.55 -13.878,25.2 -26.409,51.099 -39.382,76.766 l -6.0249,-0.28712 c 13.448,-25.56 26.184,-51.497 40.235,-76.74 26.09,-47.149 53.177,-93.719 79.829,-140.55 11.003,-19.862 21.551,-39.805 31.511,-60.209 4.1601,-8.5229 8.1691,-16.538 11.719,-25.296 1.1428,-2.8196 2.0725,-5.7209 3.1088,-8.5814 2.5245,-8.65 4.7201,-17.336 4.0034,-26.433 l 6.6438,0 z" transform="translate(533.613,-20.67)"/>
        <path id="path3748" inkscape:connector-curvature="0" style="opacity:0.36399997;fill:#c38d10;filter:url(#filter4315)" clip-path="url(#clipPath4242)" d="m -37.85,614.16 c -12.192,16.259 -24.374,32.554 -36.545,48.839 -48.445,64.698 -97.693,128.79 -146.82,192.97 -56.143,74.012 -113.26,147.27 -170.23,220.64 -20.935,26.908 -39.657,55.426 -59.949,82.799 l -6.1191,-0.3991 c 21.208,-27.075 40.349,-55.708 61.688,-82.691 57.533,-73.118 114.94,-146.33 171.01,-220.59 48.749,-64.055 97.587,-128.06 145.04,-193.08 11.801,-16.281 23.614,-32.57 35.298,-48.924 l 6.6301,0.42723 z" transform="translate(533.613,-20.67)"/>
        <path id="path3750" inkscape:connector-curvature="0" style="opacity:0.36399997;fill:#c38d10;filter:url(#filter4315)" clip-path="url(#clipPath4236)" d="m -149.41,661.12 c -5.859,22.727 -12.833,45.14 -19.751,67.56 -27.483,85.258 -55.631,170.3 -83.756,255.35 -26.218,78.508 -52.237,157.08 -78.427,235.6 -7.7108,22.584 -4.1052,12.297 -10.737,30.89 l -5.8995,-0.2103 c 7.1975,-18.549 3.305,-8.2808 11.566,-30.848 27.55,-78.214 53.705,-156.92 80.051,-235.54 27.956,-84.931 55.795,-169.91 82.041,-255.39 6.5195,-22.402 13.106,-44.805 18.257,-67.573 l 6.6564,0.1631 z" transform="translate(533.613,-20.67)"/>
        <path id="path3752" inkscape:connector-curvature="0" style="opacity:0.36399997;fill:#c38d10;filter:url(#filter4315)" clip-path="url(#clipPath4230)" d="m -106.54,542.2 c -0.15402,16.022 -3.9943,31.815 -7.1929,47.433 -16.16,71.174 -37.789,140.99 -59.194,210.72 -25.903,83.577 -54.596,166.25 -83.647,248.77 -10.829,30.907 -20.377,62.293 -33.18,92.465 l -6.0932,-0.2525 c 13.643,-29.973 23.531,-61.426 34.686,-92.369 29.766,-82.348 58.804,-164.99 84.456,-248.73 21.11,-69.644 42.331,-139.45 57.289,-210.72 2.9036,-15.581 6.4741,-31.389 6.217,-47.323 l 6.6604,0 z" transform="translate(533.613,-20.67)"/>
        <path id="path3754" inkscape:connector-curvature="0" style="opacity:0.36399997;fill:#c38d10;filter:url(#filter4315)" clip-path="url(#clipPath4224)" d="m -207.72,555.99 c -6.2475,23.183 -13.54,46.096 -20.709,69.009 -26.273,84.338 -52.632,168.65 -78.552,253.1 -18.372,61.212 -36.711,122.48 -52.078,184.53 -7.5297,30.407 -8.5943,36.757 -14.691,65.999 -4.2001,21.186 -7.514,42.528 -10.422,63.924 0,0 -6.2184,-0.095 -6.2184,-0.095 3.7002,-21.354 7.3378,-42.722 11.821,-63.93 6.4379,-29.139 7.6597,-35.703 15.403,-66.003 15.842,-61.99 34.376,-123.25 52.714,-184.53 25.749,-84.34 51.789,-168.59 76.819,-253.15 6.7728,-22.884 13.717,-45.773 19.273,-68.986 l 6.6409,0.13111 z" transform="translate(533.613,-20.67)"/>
        <path id="path3756" inkscape:connector-curvature="0" style="opacity:0.36399997;fill:#c38d10;filter:url(#filter4315)" clip-path="url(#clipPath4218)" d="m -185.03,587.31 c -2.8339,21.064 -7.6921,41.812 -12.626,62.468 -11.955,47.37 -25.296,94.444 -42.095,140.35 -14.249,38.939 -20.07,50.965 -36.597,89.368 -34.426,78.845 -77.627,153.28 -123.9,225.65 -13.434,20.672 -26.973,41.3 -42.159,60.736 l -6.0732,-0.4114 c 15.833,-19.221 29.834,-39.827 43.553,-60.593 16.562,-25.427 21.938,-33.241 38.152,-60.097 32.209,-53.349 61.556,-108.41 86.745,-165.43 6.4478,-15.07 13.178,-30.023 19.343,-45.211 24.277,-59.804 43.123,-121.62 57.679,-184.48 4.5692,-20.614 9.0459,-41.338 11.332,-62.347 l 6.6438,0 z" transform="translate(533.613,-20.67)"/>
        <path id="path3758" inkscape:connector-curvature="0" style="opacity:0.36399997;fill:#c38d10;filter:url(#filter4315)" clip-path="url(#clipPath4212)" d="m -158.66,730.94 c -9.5824,22.307 -21.073,43.646 -32.874,64.836 -39.472,70.172 -86.221,135.76 -133.85,200.53 -41.393,54.74 -83.76,108.76 -127.61,161.56 -12.501,14.418 -6.6498,7.9695 -17.412,19.472 l -6.0501,-0.4633 c 11.208,-11.42 5.1286,-5.0071 18.082,-19.386 44.804,-52.362 87.448,-106.55 129.11,-161.43 47.554,-64.691 93.898,-129.98 132.48,-200.55 11.422,-21.16 22.586,-42.454 31.49,-64.825 l 6.6326,0.2525 z" transform="translate(533.613,-20.67)"/>
        <path id="path3760" inkscape:connector-curvature="0" style="opacity:0.36399997;fill:#c38d10;filter:url(#filter4315)" clip-path="url(#clipPath4206)" d="m -178.29,616.19 c -0.59227,19.134 -5.9331,37.804 -10.492,56.268 -18.544,70.6 -49.254,137.13 -80.346,202.89 -31.259,63.821 -67.273,125.16 -103.28,186.38 l -5.3142,-0.2871 c 37.075,-60.801 73.287,-122.27 104.62,-186.27 30.869,-65.65 61.304,-132.16 78.814,-202.85 4.2367,-18.414 9.3064,-37.104 9.3409,-56.139 l 6.6604,0 z" transform="translate(533.613,-20.67)"/>
        <path id="path3762" inkscape:connector-curvature="0" style="opacity:0.36399997;fill:#c38d10;filter:url(#filter4315)" clip-path="url(#clipPath4200)" d="m -111.59,749.38 c -5.8953,20.588 -16.835,39.061 -27.409,57.499 -42.169,66.088 -88.902,129.16 -136.2,191.63 -51.751,67.535 -105.96,133.13 -162.45,196.75 -10.572,11.998 -21.481,23.581 -33.598,34.002 l -6.0618,-0.5308 c 2.7048,-2.2079 5.5348,-4.2706 8.1144,-6.6235 8.2266,-7.5037 19.439,-19.63 26.66,-27.206 57.423,-63.101 111.88,-128.82 163.68,-196.62 46.931,-62.333 93.198,-125.36 134.4,-191.68 10.249,-18.4 20.875,-36.862 26.258,-57.403 l 6.6035,0.18382 z" transform="translate(533.613,-20.67)"/>
        <path id="path3764" inkscape:connector-curvature="0" style="opacity:0.36399997;fill:#c38d10;filter:url(#filter4315)" clip-path="url(#clipPath4194)" d="m -145.22,682.12 c -7.7415,25.86 -18.158,50.862 -28.627,75.713 -15.794,37.522 -33.659,74.163 -53.319,109.81 -12.593,22.834 -22.008,38.349 -35.302,60.814 -28.988,48.484 -59.879,95.779 -89.661,143.77 -5.4458,8.9062 -11.269,17.548 -17.597,25.843 l -6.2959,-0.4203 c 6.6446,-8.1953 12.725,-16.796 18.345,-25.735 30.512,-47.718 61.588,-95.091 90.676,-143.7 13.323,-22.543 22.625,-37.868 35.21,-60.798 19.54,-35.601 37.182,-72.244 52.661,-109.79 10.183,-24.787 20.386,-49.756 27.307,-75.688 l 6.6035,0.18382 z" transform="translate(533.613,-20.67)"/>
        <path id="path3766" inkscape:connector-curvature="0" style="opacity:0.36399997;fill:#c38d10;filter:url(#filter4315)" clip-path="url(#clipPath4188)" d="m -176.6,607.62 c -5.11,13.947 -9.571,28.114 -14.336,42.179 -8.172,24.545 -16.257,49.131 -27.096,72.666 -8.6625,18.808 -14.763,29.497 -24.624,47.895 -4.8443,8.3605 -9.6028,16.771 -14.533,25.082 -10.517,17.727 -19.956,33.035 -31.451,50.147 -14.298,21.285 -29.545,41.963 -44.56,62.744 l -5.3264,-0.3359 c 15.226,-20.715 30.633,-41.36 44.997,-62.689 11.48,-17.047 20.954,-32.436 31.412,-50.124 4.9094,-8.3036 9.6389,-16.712 14.458,-25.068 9.9893,-18.784 15.639,-28.667 24.346,-47.862 10.672,-23.526 18.568,-48.087 26.444,-72.645 4.5862,-14.068 8.9066,-28.219 13.637,-42.241 l 6.6326,0.2525 z" transform="translate(533.613,-20.67)"/>
        <path id="path3768" inkscape:connector-curvature="0" style="opacity:0.36399997;fill:#c38d10;filter:url(#filter4315)" clip-path="url(#clipPath4182)" d="m -174.08,679.06 c -5.9233,18.619 -14.064,36.435 -22.124,54.199 -25.259,52.023 -53.99,102.43 -85.467,150.95 -7.7537,11.951 -15.888,23.65 -23.832,35.475 -37.546,52.713 -77.237,104.34 -122.5,150.74 -6.7411,6.9097 -13.811,13.491 -20.716,20.237 -13.955,12.812 -27.974,25.701 -43.415,36.741 -5.6624,4.0484 -10.119,7.2596 -16.871,8.5515 0,0 -6.4357,-0.9151 -6.4357,-0.9151 1.2258,-0.1582 2.5044,-0.085 3.6773,-0.4745 4.2046,-1.3964 10.581,-5.505 13.785,-7.7069 15.816,-10.87 30.145,-23.742 44.345,-36.59 6.9942,-6.7313 14.16,-13.289 20.983,-20.194 45.626,-46.18 85.491,-97.827 123.07,-150.63 7.926,-11.822 16.054,-23.51 23.778,-35.465 31.267,-48.392 59.604,-98.804 84.118,-150.94 7.7383,-17.723 15.572,-35.516 20.948,-54.133 l 6.6564,0.1631 z" transform="translate(533.613,-20.67)"/>
        <path id="path3770" inkscape:connector-curvature="0" style="opacity:0.36399997;fill:#c38d10;filter:url(#filter4315)" clip-path="url(#clipPath4176)" d="m -238.83,692.43 c -0.52055,17.148 -5.405,33.864 -9.7662,50.332 -18.74,65.122 -40.186,129.42 -62.653,193.34 -18.889,52.472 -39.453,104.35 -62.448,155.16 -8.9823,19.85 -18.443,39.188 -27.902,58.799 -9.8007,19.668 -19.295,39.572 -30.765,58.347 l -6.4673,-0.3729 c 12.596,-18.308 22.019,-38.614 32.383,-58.194 10.119,-20.518 18.807,-37.807 28.422,-58.759 23.272,-50.711 43.922,-102.58 62.676,-155.12 22.241,-63.829 43.406,-128.07 61.069,-193.34 4.101,-16.413 8.7715,-33.136 8.7903,-50.189 l 6.6604,0 z" transform="translate(533.613,-20.67)"/>
        <path id="path3772" inkscape:connector-curvature="0" style="opacity:0.36399997;fill:#c38d10;filter:url(#filter4315)" clip-path="url(#clipPath4170)" d="m -183.06,690.52 c -5.8621,27.526 -12.82,54.784 -19.883,82.022 -21.24,78.359 -43.587,156.43 -63.336,235.19 -4.7065,18.769 -9.15,37.603 -13.725,56.405 -21.75,90.203 -38.796,181.45 -54.715,272.84 -2.2558,15.539 -5.2386,30.989 -7.269,46.563 l -6.5513,-0.1223 c 3.8007,-15.339 5.6766,-31.093 9.0087,-46.528 17.427,-91.215 34.504,-182.54 56.391,-272.82 4.5588,-18.803 9.0057,-37.634 13.676,-56.41 19.568,-78.663 41.446,-156.73 61.637,-235.23 6.6071,-27.222 13.143,-54.457 18.125,-82.033 l 6.6409,0.1311 z" transform="translate(533.613,-20.67)"/>
        <path id="path3774" inkscape:connector-curvature="0" style="opacity:0.36399997;fill:#c38d10;filter:url(#filter4315)" clip-path="url(#clipPath4164)" d="m -194.27,596.35 c -5.2862,22.082 -8.9255,44.501 -12.666,66.882 -10.934,74.215 -20.85,148.58 -33.198,222.58 -9.8572,62.461 -23.508,124.19 -39.747,185.27 l -5.3424,-0.142 c 16.964,-60.957 30.908,-122.69 40.893,-185.2 2.2516,-13.445 4.6442,-26.868 6.7547,-40.336 9.4957,-60.597 17.001,-121.49 25.337,-182.26 3.3653,-22.378 6.6815,-44.772 11.327,-66.93 l 6.6409,0.13111 z" transform="translate(533.613,-20.67)"/>
        <path id="path3776" inkscape:connector-curvature="0" style="opacity:0.36399997;fill:#c38d10;filter:url(#filter4315)" clip-path="url(#clipPath4158)" d="m -264.96,622.28 c -17.369,59.822 -28.151,121.22 -38.381,182.58 -13.755,81.575 -20.42,164.06 -24.214,246.62 -0.29902,9.2468 -0.59805,18.494 -0.89707,27.74 l -5.0095,-0.019 c 0.40254,-9.2483 0.80508,-18.497 1.2076,-27.745 4.4706,-82.559 11.518,-165.02 24.962,-246.66 9.9202,-61.286 20.608,-122.48 35.917,-182.69 l 6.4145,0.17384 z" transform="translate(533.613,-20.67)"/>
        <path id="path3778" inkscape:connector-curvature="0" style="opacity:0.36399997;fill:#c38d10;filter:url(#filter4315)" clip-path="url(#clipPath4152)" d="m -221.18,578.67 c -7.3312,43.051 -16.865,85.644 -26.665,128.19 -26.703,112.03 -53.871,223.96 -80.726,335.95 -16.93,71.302 -34.383,142.5 -49.452,214.23 -5.9074,28.119 -8.8488,44.291 -14.018,71.589 -3.7669,17.765 -5.8475,35.876 -9.9437,53.573 l -6.4314,-0.1681 c 5.3055,-17.473 7.2915,-35.794 11.637,-53.498 4.149,-20.083 10.812,-52.573 14.974,-71.579 15.689,-71.661 33.377,-142.86 50.395,-214.21 26.853,-111.9 53.773,-223.78 79.331,-335.98 9.2896,-42.502 18.491,-85.05 24.275,-128.2 l 6.625,0.10942 z" transform="translate(533.613,-20.67)"/>
        <path id="path3780" inkscape:connector-curvature="0" style="opacity:0.36399997;fill:#c38d10;filter:url(#filter4315)" clip-path="url(#clipPath4146)" d="m -170.18,687.41 c -17.107,50.624 -35.711,100.74 -54.075,150.92 -28.913,80.044 -58.12,160.03 -83.754,241.21 -4.6677,14.781 -9.0368,29.654 -13.555,44.482 -14.885,48.198 -26.062,97.388 -36.774,146.64 l -6.1536,-0.1431 c 12.536,-48.998 23.705,-98.38 39.081,-146.61 4.5941,-14.827 9.0539,-29.697 13.782,-44.482 25.918,-81.042 54.969,-161.04 83.357,-241.23 17.878,-50.065 36.228,-100.05 51.541,-150.97 l 6.5508,0.19098 z" transform="translate(533.613,-20.67)"/>
        <path id="path3782" inkscape:connector-curvature="0" style="opacity:0.36399997;fill:#c38d10;filter:url(#filter4315)" clip-path="url(#clipPath4140)" d="m -154.18,690.58 c -10.912,34.398 -21.386,68.933 -31.841,103.47 -25.47,84.384 -52.591,168.25 -78.456,252.51 -16.947,55.775 -31.487,112.24 -47.351,168.32 -2.9128,9.695 -1.4607,5.5896 -4.0656,12.415 l -6.447,-0.2545 c 3.0336,-6.7183 1.3609,-2.6591 4.629,-12.331 17.409,-55.805 32.154,-112.4 49.367,-168.26 25.972,-84.146 52.933,-167.99 77.602,-252.53 10.05,-34.507 20.292,-68.963 29.93,-103.59 l 6.6327,0.2525 z" transform="translate(533.613,-20.67)"/>
        <path id="path3784" inkscape:connector-curvature="0" style="opacity:0.36399997;fill:#c38d10;filter:url(#filter4315)" clip-path="url(#clipPath4134)" d="m -97.842,670.09 c -5.1285,20.764 -12.953,40.778 -20.341,60.816 -26.536,68.53 -57.553,135.23 -87.904,202.13 -26.734,58.1 -50.885,117.34 -77.315,175.57 l -4.8048,9.9969 -6.0304,-0.2791 c 1.7162,-3.3223 3.4323,-6.6445 5.1485,-9.9668 27.853,-57.806 52.202,-117.2 79.004,-175.5 30.149,-66.787 60.857,-133.46 86.494,-202.14 7.0521,-20.006 14.622,-40.011 19.092,-60.792 l 6.6564,0.1631 z" transform="translate(533.613,-20.67)"/>
        <path id="path3786" inkscape:connector-curvature="0" style="opacity:0.36399997;fill:#c38d10;filter:url(#filter4315)" clip-path="url(#clipPath4128)" d="m -198.47,616.19 c -5.5173,33.473 -12.933,66.583 -20.198,99.71 -12.663,56.599 -26.435,112.95 -39.17,169.53 -8.0485,35.76 -12.315,56.872 -19.775,92.599 -11.588,60.181 -21.962,120.59 -31.418,181.14 -1.1109,6.8906 -2.0555,13.808 -3.4231,20.653 l -6.5212,-0.1498 c 1.8189,-6.7774 2.905,-13.711 4.2227,-20.599 10.876,-60.415 21.363,-120.9 33.297,-181.12 7.0806,-33.59 12.336,-59.018 19.844,-92.605 12.637,-56.536 26.136,-112.88 38.212,-169.54 6.8404,-33.056 13.946,-66.107 18.269,-99.61 l 6.6604,0 z" transform="translate(533.613,-20.67)"/>
        <path id="path3788" inkscape:connector-curvature="0" style="opacity:0.36399997;fill:#c38d10;filter:url(#filter4315)" clip-path="url(#clipPath4122)" d="m -232.11,696.91 c -0.2724,22.84 -3.5141,45.555 -6.1794,68.204 -1.3621,10.194 -2.6627,20.397 -4.0863,30.583 -5.7746,41.317 -11.873,82.581 -17.296,123.95 -5.739,43.778 -6.8219,54.026 -12.075,98.194 -10.252,83.998 -18.514,168.19 -23.346,252.67 -0.42497,24.648 -3.2013,49.4 -2.0922,74.069 l -6.3916,0.015 c -0.0449,-24.728 2.9208,-49.416 3.7066,-74.114 5.7185,-84.46 14.33,-168.65 24.5,-252.69 5.2686,-44.973 6.1742,-53.63 11.821,-98.203 5.2381,-41.348 11.06,-82.619 16.353,-123.96 1.304,-10.183 2.4521,-20.386 3.6782,-30.579 2.2866,-22.627 5.1796,-45.362 4.7466,-68.147 l 6.6604,0 z" transform="translate(533.613,-20.67)"/>
        <path id="path3792" inkscape:connector-curvature="0" style="opacity:0.36399997;fill:#c38d10;filter:url(#filter4315)" clip-path="url(#clipPath4116)" d="m -147.73,659.49 c -1.4417,2.9884 -3.5918,7.5072 -5.0286,10.08 -5.7262,10.252 -9.591,15.806 -16.578,26.181 -8.8098,13.082 -26.535,38.781 -34.686,50.636 -57.572,83.945 -118.14,165.76 -179.74,246.78 -41.699,55.447 -86.631,108.33 -129.34,162.97 l -5.6918,-0.3846 c 44.199,-54.011 89.488,-107.15 131.64,-162.81 61.603,-80.744 121.95,-162.47 178.55,-246.83 11.012,-16.44 22.871,-33.99 33.711,-50.683 6.521,-10.042 10.553,-16.119 15.866,-26.147 1.5905,-3.0019 3.2586,-6.8628 4.6905,-10.099 l 6.6084,0.30662 z" transform="translate(533.613,-20.67)"/>
        <path id="path3794" inkscape:connector-curvature="0" style="opacity:0.36399997;fill:#c38d10;filter:url(#filter4315)" clip-path="url(#clipPath4110)" d="m -152.2,802.29 c -27.985,27.212 -55.656,54.748 -83.373,82.232 -60.586,58.946 -121.59,117.45 -181.98,176.6 -29.437,28.997 -15.567,15.278 -41.626,41.138 l -5.1057,-0.407 c 26.628,-25.779 12.503,-12.088 42.368,-41.08 60.668,-58.809 121.67,-117.28 181.83,-176.61 27.161,-27.392 54.373,-54.735 81.258,-82.399 l 6.6359,0.52226 z" transform="translate(533.613,-20.67)"/>
        <path id="path3796" inkscape:connector-curvature="0" style="opacity:0.36399997;fill:#c38d10;filter:url(#filter4315)" clip-path="url(#clipPath4104)" d="m -63.352,529.54 c -20.632,20.88 -38.122,44.716 -55.918,67.992 -51.772,68.295 -99.537,139.5 -147.24,210.65 -58.896,88.232 -114.24,178.74 -168.46,269.9 -19.322,32.572 -38.128,65.441 -56.701,98.443 l -4.7247,-0.2448 c 18.976,-32.948 38.149,-65.78 57.686,-98.4 54.593,-90.98 110.05,-181.46 168.7,-269.91 47.351,-71.07 94.724,-142.19 145.65,-210.78 17.395,-23.267 34.516,-46.992 54.454,-68.178 l 6.5657,0.51673 z" transform="translate(533.613,-20.67)"/>
        <path id="path3798" inkscape:connector-curvature="0" style="opacity:0.36399997;fill:#c38d10;filter:url(#filter4315)" clip-path="url(#clipPath4098)" d="m -129.54,655.47 c -9.0762,36.294 -20.984,71.859 -32.712,107.37 -20.807,61.303 -44.512,121.55 -69.95,181.06 -13.595,31.495 -27.861,62.693 -41.82,94.027 l -5.4091,-0.2295 c 14.287,-31.265 28.751,-62.453 42.428,-93.992 25.547,-59.441 49.378,-119.62 69.844,-181.02 11.443,-35.418 23.258,-70.938 31.031,-107.37 l 6.588,0.16142 z" transform="translate(533.613,-20.67)"/>
        <path id="path3802" inkscape:connector-curvature="0" style="opacity:0.36399997;fill:#c38d10;filter:url(#filter4315)" clip-path="url(#clipPath4092)" d="m -227.63,670.28 c -2.1901,18.903 -10.371,36.556 -17.727,53.877 -32.536,69.28 -74.472,133.57 -116.1,197.61 -48.333,72.924 -96.45,146 -146.56,217.72 l -4.7802,-0.2949 c 51.128,-71.228 99.361,-144.46 147.64,-217.64 41.249,-63.915 82.818,-128.14 114.25,-197.61 7.0113,-17.255 14.945,-34.882 16.634,-53.658 l 6.6438,0 z" transform="translate(533.613,-20.67)"/>
        <path id="path3804" inkscape:connector-curvature="0" style="opacity:0.36399997;fill:#c38d10;filter:url(#filter4315)" clip-path="url(#clipPath4086)" d="m -118.3,591.68 c -9.4044,16.632 -19.079,33.108 -28.617,49.664 -40.863,74.351 -85.061,146.77 -129.4,219.07 -55.004,89.784 -111.03,178.93 -166.78,268.25 -6.431,10.526 -12.862,21.052 -19.293,31.578 l -4.4251,-0.245 c 6.5631,-10.52 13.126,-21.039 19.689,-31.559 56.391,-89.053 112.71,-178.15 167.49,-268.21 43.884,-72.192 87.654,-144.5 127.24,-219.17 9.1831,-16.544 18.499,-33.016 27.445,-49.69 l 6.6455,0.30834 z" transform="translate(533.613,-20.67)"/>
        <path id="path3806" inkscape:connector-curvature="0" style="opacity:0.36399997;fill:#c38d10;filter:url(#filter4315)" clip-path="url(#clipPath4080)" d="m -104.84,715.01 c -17.662,29.56 -36.648,58.285 -55.563,87.05 -54.826,84.182 -111.63,167.05 -167.64,250.44 -48.602,71.833 -97.354,143.56 -148.06,213.93 l -13.304,18.428 -5.3031,-0.3363 c 4.5799,-6.1328 9.1598,-12.266 13.74,-18.398 51.631,-70.038 100.87,-141.77 149.64,-213.82 55.87,-83.206 112.41,-165.98 166.27,-250.51 18.399,-28.691 36.967,-57.305 53.57,-87.09 l 6.6455,0.30834 z" transform="translate(533.613,-20.67)"/>
        <path id="path3808" inkscape:connector-curvature="0" style="opacity:0.36399997;fill:#c38d10;filter:url(#filter4315)" clip-path="url(#clipPath4074)" d="m -128.66,682.28 c -33.484,35.259 -63.062,74.044 -93.277,112.08 -62.056,78.698 -120.38,160.25 -178.28,242.02 -22.094,31.27 -43.804,62.798 -65.197,94.55 l -4.69,-0.2806 c 21.781,-31.689 43.842,-63.178 66.148,-94.501 58.143,-81.512 116.38,-163.01 177.85,-242.07 29.656,-37.931 58.74,-76.449 90.907,-112.31 l 6.5423,0.51489 z" transform="translate(533.613,-20.67)"/>
        <path id="path3810" inkscape:connector-curvature="0" style="opacity:0.36399997;fill:#c38d10;filter:url(#filter4315)" clip-path="url(#clipPath4068)" d="m -136.8,776.37 c -22.874,41.436 -42.349,84.686 -62.253,127.6 -20.969,45.473 -40.405,91.716 -57.229,138.89 -3.8705,10.854 -12.378,36.838 -16.297,48.72 -7.243,21.752 -3.7647,11.586 -10.376,30.52 l -5.8573,-0.2022 c 6.9924,-18.906 3.3206,-8.7509 10.947,-30.49 3.2313,-9.3961 14.008,-40.841 16.888,-48.717 17.225,-47.104 36.811,-93.339 57.737,-138.91 5.6942,-12.417 11.388,-24.833 17.083,-37.25 5.3005,-11.453 10.632,-22.891 15.901,-34.358 8.6655,-18.859 16.97,-37.891 26.871,-56.152 l 6.5842,0.34212 z" transform="translate(533.613,-20.67)"/>
        <path id="path4319" sodipodi:nodetypes="caccac" style="opacity:0.5;fill:#a17000;filter:url(#filter4329)" inkscape:connector-curvature="0" d="m 229.943,787.945 c 0,0 44.558,25.874 67.878,36.744 18.223,8.4938 56.097,22.158 56.097,22.158 l -12.902,41.512 c 0,0 -49.861,-25.914 -70.122,-44.878 -16.792,-15.718 -40.951,-55.536 -40.951,-55.536 z"/>
      </g>
      <g transform="translate(63.893,35.705)" id="g4637">
        <path id="rect2816" style="fill:#f2ac00;fill-rule:evenodd" inkscape:connector-curvature="0" d="m 469.31,59.062 c -54.884,0.56468 -107.07,31.91 -131.97,85.125 l -232.72,369.97 c -45.612,97.492 -3.8357,212.7 93.656,258.31 l 54.656,25.562 c 14.032,6.5649 28.432,11.305 42.938,14.344 3.7432,3.6877 8.4892,6.3615 12.906,9.1562 5.9806,3.7476 12.259,7.8359 15.562,14.312 3.1982,7.6432 1.1331,16.132 2.8125,24.062 1.9391,9.679 5.6936,18.877 8.4062,28.344 2.7464,8.4448 5.255,17.048 9.4688,24.906 3.8742,6.1305 12.116,8.873 18.938,6.5 3.9417,-1.2493 7.0185,-4.1929 9.4062,-7.4688 7.6355,-9.2572 12.553,-21.159 12.062,-33.281 -0.23231,-8.5333 -1.7966,-16.944 -2.5312,-25.438 -0.98706,-9.3886 -1.642,-19.002 0.3125,-28.312 1.1462,-3.8529 5.5631,-5.844 9.3438,-5.0625 2.2249,0.33225 4.0554,1.7278 5.5312,3.3438 4.8107,4.5781 7.2834,10.887 10.438,16.594 7.7118,15.937 12.145,33.255 20.281,49 4.9142,8.5145 14.966,13.137 24.594,13 8.6083,-0.0684 17.142,-4.0337 22.531,-10.781 5.2433,-6.4005 7.6921,-15.097 6.2188,-23.281 -1.4,-8.48 -6.25,-15.76 -10.65,-22.96 -4.7504,-7.5398 -9.6324,-15.509 -10.594,-24.562 -0.68122,-8.1411 3.0496,-16.233 9.0938,-21.594 3.7278,-3.4232 8.1922,-5.9138 12.094,-9.125 5.2145,-4.0557 10.417,-9.0022 12.094,-15.625 1.7689,-6.4661 0.61826,-13.182 0,-19.719 -0.29173,-5.7252 0.82719,-11.873 4.7812,-16.25 4.6326,-6.0215 9.578,-12.156 11.531,-19.656 3.7274,-10.981 6.3587,-22.424 7.2188,-34 l 128.4,-395.8 c 34.64,-74.04 2.95,-161.52 -71.09,-196.16 l -41.53,-19.438 c -20.823,-9.7422 -42.711,-14.221 -64.188,-14 z"/>
        <path id="path2825" sodipodi:nodetypes="cccsaaaaaaaaaasaacccc" style="fill:url(#radialGradient3613);fill-rule:evenodd;filter:url(#filter3615)" inkscape:connector-curvature="0" d="m 469.31,59.062 c -54.884,0.56468 -107.07,31.91 -131.97,85.125 l -232.72,369.97 c -45.612,97.492 -5.4842,212.5 93.656,249.24 18.377,6.8104 36.315,14.765 54.656,21.673 24.395,9.1877 55.237,7.8413 73.653,26.291 6.7002,6.7125 4.3874,18.836 9.5164,26.814 3.8427,5.977 8.2775,13.862 15.318,14.825 9.1584,1.2532 18.928,-5.7558 24.375,-13.224 6.4565,-8.8522 -2.6794,-25.742 6.0985,-32.299 6.8537,-5.1198 18.564,-2.3728 25.534,2.5875 9.1558,6.5158 3.887,26.112 14.2,30.576 11.141,4.823 28.768,-0.76479 34.585,-11.421 4.2828,-7.8463 -8.3396,-17.179 -6.701,-25.966 2.1028,-11.277 10.212,-22.052 20.031,-27.984 18.732,-11.316 20.205,-28.703 24.03,-45.39 3.6734,-16.027 -4.1827,-33.028 -1.7898,-49.296 20.48,-139.27 136.18,-399.71 136.18,-399.71 24.27,-81.82 21.1,-153.74 -52.94,-188.38 l -41.53,-19.438 c -20.823,-9.7422 -42.711,-14.221 -64.188,-14 z"/>
        <path id="path3625" style="fill:url(#linearGradient3641);fill-rule:evenodd" sodipodi:type="inkscape:offset" d="m 469.41602,69.193359 c -51.09269,0.525672 -99.65383,29.611923 -122.89454,79.287111 a 10.13317,10.13317 0 0 1 -0.60156,1.10156 L 113.61328,518.89648 C 83.44787,583.80666 94.118231,656.62456 134.98047,709.28125 209.83519,703.31756 289.26845,674.44113 363.10156,621.1582 547.4673,488.10753 624.96403,254.58022 546.2793,90.228516 l -17.07227,-7.988282 -0.002,0 C 509.77135,73.148406 489.41245,68.987624 469.41602,69.193359 Z" inkscape:original="M 469.3125 59.0625 C 414.42866 59.627177 362.24039 90.972886 337.34375 144.1875 L 104.625 514.15625 C 71.754507 584.41437 84.267923 663.86218 130.3125 719.84375 C 208.7942 714.71721 292.03084 684.94366 369.03125 629.375 C 558.03363 492.97822 637.89533 252.80576 553.9375 82.625 L 533.5 73.0625 C 512.67689 63.320337 490.78878 58.841539 469.3125 59.0625 z " inkscape:radius="-10.132156"/>
        <path id="path3649" sodipodi:nodetypes="caaaaaaaaaaaaaaaaaaaaaaaaaaaaaaaaaaaaaaa" style="opacity:0.5;fill:#ffffff;filter:url(#filter3655)" inkscape:connector-curvature="0" d="m 299.52,774.24 c 4.1684,0.20848 8.6229,1.6855 11.67,4.5382 2.6112,2.4449 1.521,7.8031 4.5382,9.7246 2.1873,1.393 5.2167,-0.39506 7.7797,0 4.2556,0.65596 8.8049,1.4 12.318,3.8898 2.6446,1.8744 2.9932,6.2198 5.8348,7.7797 2.47,1.3559 5.6172,0.45237 8.428,0.6483 3.456,0.24091 6.978,1.3387 10.373,0.64831 2.3676,-0.48146 4.7746,-1.5331 6.4831,-3.2415 1.3668,-1.3668 1.133,-3.92 2.5932,-5.1864 2.065,-1.791 5.9224,-0.5876 7.7797,-2.5932 3.027,-3.2688 0.0913,-9.8159 3.2415,-12.966 1.2601,-1.2601 3.6741,-2.2392 5.1864,-1.2966 2.6258,1.6366 0.05,6.6303 1.9449,9.0763 0.8878,1.146 2.5423,1.4105 3.8898,1.9449 2.0973,0.83173 4.2314,1.8025 6.4831,1.9449 2.6238,0.16592 5.39,-0.2008 7.7797,-1.2966 3.0684,-1.407 4.6585,-5.1974 7.7797,-6.4831 4.6131,-1.9002 10.994,1.7933 14.911,-1.2966 1.0731,-0.84647 1.478,-2.5352 1.2966,-3.8898 -0.20684,-1.5446 -2.9417,-2.371 -2.5932,-3.8898 0.95315,-4.1543 8.3398,-3.17 11.021,-6.4831 0.85984,-1.0624 0.60888,-2.7087 1.2966,-3.8898 1.4629,-2.5125 3.8337,-4.3739 5.8348,-6.4831 2.3138,-2.4388 4.219,-5.4522 7.1314,-7.1314 2.9064,-1.6757 6.8182,-0.91756 9.7246,-2.5932 0.52952,-0.3053 1.1033,-0.71675 1.2966,-1.2966 0.96644,-2.8993 -0.38537,-6.1592 -1.2966,-9.0763 -0.7204,-2.3062 -1.2557,-5.1069 -3.2415,-6.4831 -3.3934,-2.3516 -8.245,-1.9729 -12.318,-1.2966 -9.6334,1.5995 -16.909,10.968 -26.581,12.318 -8.2338,1.1492 -16.414,-5.1228 -24.636,-3.8898 -10.227,1.5336 -18.449,9.3663 -27.877,13.614 -6.1836,2.7861 -12.149,6.4577 -18.801,7.7797 -4.6631,0.92667 -9.5247,0.39213 -14.263,0 -13.1,-1.0842 -25.757,-6.1871 -38.898,-6.4831 -12.622,-0.28429 -32.245,-6.8939 -37.602,4.5382 -1.8566,3.9623 3.8542,8.1217 7.1314,11.021 6.2976,5.5718 14.317,10.26 22.691,11.021 4.0206,0.36528 7.6374,-3.4432 11.67,-3.2415 z"/>
        <path id="path3661" style="opacity:0.51999996;fill:#ffffff" inkscape:connector-curvature="0" d="m 343.07,869.73 c -3.3754,0.89926 -4.5624,4.9436 -3.8696,8.0346 0.47021,3.9012 1.1579,7.7866 1.7858,11.656 1.6102,4.9784 6.3791,8.9757 5.8446,14.563 -0.35199,2.6234 1.1737,5.4404 3.9508,5.822 3.7998,0.8854 7.7669,-1.5803 9.1065,-5.158 1.4112,-3.1137 2.1426,-6.8531 0.93474,-10.138 -1.3869,-2.0571 -3.4075,-3.6014 -4.9985,-5.5039 -2.0548,-2.1069 -3.968,-4.4068 -6.1903,-6.3173 -3.3353,-1.9407 -3.2941,-6.1706 -4.0715,-9.4811 -0.38917,-1.397 -1.153,-2.7953 -2.4925,-3.477 z"/>
        <path id="path3674" style="opacity:0.51999996;fill:#ffffff" inkscape:connector-curvature="0" d="m 431.58,846.53 c -6.2659,-1.7997 -11.481,7.4573 -6.7186,11.915 2.8862,2.9596 3.4208,7.0887 4.3411,10.899 2.2261,4.1816 0.54935,8.813 1.9714,13.045 2.473,5.8505 10.762,6.4909 15.152,2.4764 4.2883,-1.937 5.5668,-7.5054 2.0081,-10.852 -3.505,-3.212 -6.7452,-6.7183 -9.138,-10.843 -3.1981,-3.2568 -6.107,-7.1363 -6.3944,-11.87 -0.25407,-1.6167 -0.45364,-3.298 -1.2217,-4.7683 z"/>
      </g>
      <g transform="translate(63.893,35.705)" id="g4587">
        <path id="path4473" style="fill:#000000" inkscape:connector-curvature="0" d="m 337.79,956.04 c -7.139,12.929 -24.379,16.328 -30.412,30.095 -3.0096,5.8173 0.0289,12.574 6.0327,14.858 7.887,3.42 16.757,3.4667 24.708,6.7597 14.977,4.3071 31.412,6.2251 46.33,0.6732 18.117,-3.423 36.504,1.3946 54.702,-0.7128 16.532,-6.3229 34.679,-12.49 45.664,-27.284 2.7485,-11.562 -6.2363,-22.561 -16.837,-26.035 -8.2408,-3.0851 -18.18,-2.5245 -25.268,3.0175 -10.998,6.5263 -23.777,0.6915 -34.161,-4.1767 -12.217,-6.8724 -27.395,0.45492 -39.575,-6.7622 -6.4343,-5.6373 -15.914,-2.6137 -22.168,1.7765 -3.2996,2.2301 -6.278,4.9073 -9.0171,7.7906 z"/>
        <path id="path4410" style="fill:#f2ac00" inkscape:connector-curvature="0" d="m 335.69,954.65 c -7.139,12.929 -24.379,16.328 -30.412,30.095 -3.0095,5.8173 0.0289,12.574 6.0327,14.858 7.887,3.42 16.757,3.4667 24.708,6.7597 14.977,4.3071 31.412,6.2251 46.33,0.6732 18.117,-3.423 36.504,1.3947 54.702,-0.7128 16.532,-6.3228 34.679,-12.49 45.664,-27.284 2.7485,-11.562 -6.2363,-22.561 -16.837,-26.035 -8.2408,-3.0851 -18.181,-2.5245 -25.268,3.0175 -10.998,6.5263 -23.777,0.69151 -34.161,-4.1767 -12.217,-6.8724 -27.395,0.45491 -39.575,-6.7622 -6.4343,-5.6373 -15.914,-2.6137 -22.168,1.7765 -3.2996,2.23 -6.278,4.9073 -9.0171,7.7906 z"/>
        <g id="g4569">
          <path id="path4425" style="opacity:0.51999996;fill:#ffffff" inkscape:connector-curvature="0" d="m 350.35,948.36 c -4.1642,6.468 -18.488,14.441 -5.5141,21.026 9.3115,5.8571 19.555,-1.673 29.513,0.31472 9.2822,-0.16794 23.311,6.9068 27.851,-5.2084 -0.62413,-11.347 -15.464,-4.9619 -22.651,-8.4716 -9.6786,-0.33495 -17.973,-7.1449 -27.621,-7.4841 l -1.577,-0.17619 0,-4e-5 z"/>
          <path id="path4436" style="opacity:0.51999996;fill:#ffffff" inkscape:connector-curvature="0" d="m 463.46,959.53 c 13.321,-0.61039 0.72721,23.271 -3.3766,9.1788 -0.3831,-3.3306 0.7874,-6.9707 3.3766,-9.1788 z"/>
        </g>
        <path id="path4434" style="opacity:0.51999996;fill:#ffffff" inkscape:connector-curvature="0" d="m 318.59,978.73 c -17.594,8.8963 16.992,27.911 14.824,9.7323 -2.6159,-6.1859 -10.665,-5.3102 -14.824,-9.7323 z"/>
      </g>
    </g>
  </g>
  <metadata id="metadata200">
    <rdf:RDF>
      <cc:Work>
        <dc:format>image/svg+xml</dc:format>
        <dc:type rdf:resource="http://purl.org/dc/dcmitype/StillImage"/>
        <cc:license rdf:resource="http://creativecommons.org/publicdomain/zero/1.0/"/>
        <dc:publisher>
          <cc:Agent rdf:about="http://openclipart.org/">
            <dc:title>Openclipart</dc:title>
          </cc:Agent>
        </dc:publisher>
        <dc:title/>
      </cc:Work>
      <cc:License rdf:about="http://creativecommons.org/publicdomain/zero/1.0/">
        <cc:permits rdf:resource="http://creativecommons.org/ns#Reproduction"/>
        <cc:permits rdf:resource="http://creativecommons.org/ns#Distribution"/>
        <cc:permits rdf:resource="http://creativecommons.org/ns#DerivativeWorks"/>
      </cc:License>
    </rdf:RDF>
  </metadata>
</svg>
