<?xml version="1.0"?>
<svg xmlns:rdf="http://www.w3.org/1999/02/22-rdf-syntax-ns#" xmlns="http://www.w3.org/2000/svg" xmlns:cc="http://creativecommons.org/ns#" xmlns:dc="http://purl.org/dc/elements/1.1/" xmlns:svg="http://www.w3.org/2000/svg" id="svg2" viewBox="0 0 200 200" version="1.0">
  <g id="layer1" transform="translate(-476.3 -259.32)">
    <g id="g2807" transform="translate(426.3 209.32)">
      <path id="path6233" d="m111.22 248.87c-0.34-0.63-0.61-1.61-0.61-2.18 0-0.56-0.84-1.72-1.86-2.57-1.86-1.54-1.86-1.56-0.88-3.45 1.4-2.69-0.39-2.61-4.06 0.18-1.86 1.41-3.36 2.07-4.71 2.07-1.283 0-2.898 0.65-4.558 1.85-3.185 2.3-4.476 1.82-4.378-1.63 0.156-5.43 2.476-8.5 6.439-8.51 1.327-0.01 2.814-0.28 3.304-0.6 1.413-0.95-0.919-2.35-3.903-2.35-1.368 0-3.274-0.16-4.237-0.35-1.348-0.27-2.18 0.01-3.629 1.23-3.624 3.03-4.42-0.58-0.863-3.91 5.899-5.54 9.816-6.08 14.415-1.98 4.83 4.3 9.51 1.59 9.51-5.5 0-1.23 0.44-2.87 0.99-3.63 0.77-1.11 0.83-1.63 0.29-2.49-0.92-1.47-0.86-3.19 0.19-5.21 0.79-1.53 0.77-1.76-0.3-2.72-1.47-1.33-1.48-3.05-0.01-5.26 1.12-1.7 1.12-1.76 0-3.94-0.9-1.76-1.01-2.57-0.53-3.93 0.46-1.31 0.39-2.13-0.31-3.45-0.5-0.96-0.91-3.23-0.91-5.06-0.01-6.23-0.4-7.12-2.59-5.8-1.03 0.63-2.59 1.14-3.47 1.14-1.44 0-1.64 0.26-2.01 2.75-0.29 1.94-1.02 3.42-2.49 5.03-2.803 3.09-3.788 3.01-3.336-0.27 0.35-2.54 0.35-2.54-5.362-8.35-4.01-4.07-5.712-5.46-5.712-4.66 0 2.86-1.54 3.58-3.56 1.66-2.014-1.92-3.448-2.03-6.992-0.57-3.061 1.27-2.886 5.48 0.297 7.14 2.423 1.27 3.344 4.15 1.883 5.91-0.962 1.15 0.208 3.39 2.256 4.32 1.737 0.79 1.099 2.06-1.34 2.67-1.859 0.46-5.99-1.57-6.511-3.2-0.214-0.67-0.899-1.19-1.568-1.19-2.828 0-3.66-1.09-3.314-4.35 0.178-1.67 0.123-3.56-0.123-4.2-0.747-1.92-1.932 3.99-1.479 7.38 0.374 2.8 0.32 2.95-1.466 3.96-2.991 1.69-1.937 4.79 1.351 3.97 2.134-0.53 2.119 1.57-0.023 3.25-2.396 1.87-7.348 0.42-8.516-2.5-2.452-6.12-2.811-9.03-1.219-9.87 1.367-0.73 2.656-3.03 4.201-7.5 1.207-3.49 1.024-3.9-0.746-1.66-0.819 1.04-1.655 1.44-2.737 1.33-1.193-0.12-1.744 0.22-2.356 1.46-0.934 1.91-2.22 2.11-3.091 0.49-1.174-2.18-0.644-4.13 2.102-7.72 2.767-3.62 3.656-4.04 6.386-3.01 1.351 0.51 1.474 0.4 1.77-1.63 0.175-1.19 1.018-6.95 1.873-12.8 2.892-19.78 5.805-23.89 12.666-17.87 1.933 1.7 6.311 4.55 6.985 4.55 0.126 0-0.156-0.73-0.625-1.63-1.838-3.5-0.664-8.31 2.506-10.26 1.475-0.91 1.888-1.46 1.434-1.91-1.666-1.65 0.311-5.96 3.772-8.21 1.14-0.74 2.222-1.94 2.405-2.67 0.183-0.72 1.278-1.95 2.434-2.73 2.496-1.69 1.866-2.16-2.907-2.17-7.09-0.01-19.421-5.47-19.421-8.6 0-1.08-0.729-1.61-4.013-2.91-6.634-2.62-9.16-5.91-6.951-9.048 1.07-1.52 2.642-1.747 2.642-0.382 0 2.926 8.188 6.74 16.478 7.67 4.519 0.51 5.22-2.24 0.763-2.984-10.739-1.805-19.085-11.086-14.82-16.48 1.65-2.087 2.929-2.022 2.929 0.151 0 4.74 17.68 7.196 23.504 3.265 2.456-1.658 2.827-1.704 4.939-0.604 7.702 4.01 13.382 1.712 25.342-10.256 7.71-7.713 10.19-8.603 7.74-2.78-2.23 5.323-0.67 7.067 3.52 3.921 7.48-5.617 15.24-7.69 10.68-2.852-4.75 5.033-6.15 9.054-4.33 12.437 0.6 1.123 1.17 0.692 7.58-5.826 3.81-3.872 9.2-8.836 11.98-11.031s5.59-4.437 6.24-4.981c17.09-14.22 30.5-19.968 18.58-7.97-10.51 10.594-12.79 16.442-8.36 21.504 0.77 0.885 1.43 0.632 7.5-2.878 16.82-9.725 36.6-17.931 43.11-17.885 3.18 0.022 2.85 0.507-2.38 3.529-16.77 9.692-22.73 35.243-9.64 41.36 3.64 1.71 2.59 2.94-4.27 5-10.12 3.04-10.38 22.72-0.38 29.41 8.22 5.5 8.25 9.35 0.04 5.55-3.53-1.63-8.56-1.96-12.68-0.82-2.36 0.65-2.36 0.65 0.4 1.69 1.51 0.57 3.61 1.65 4.66 2.39 1.81 1.28 1.98 1.3 3.56 0.37 4.53-2.66 8.66-0.59 5.49 2.76-1.59 1.67-1.6 1.74-0.46 2.39 0.64 0.37 2.94 2.34 5.09 4.37 4.92 4.63 7.15 5.29 8.58 2.54 1.56-3 3.58-2.25 5.05 1.9 0.73 2.03 3.12 2.19 6.56 0.44 3.68-1.87 5.31-6.47 3.01-8.53-1.62-1.47-1.55-2.47 0.26-3.65 2.15-1.4-1.39-11.39-5.61-15.87-1.04-1.1-2.25-3.54-6.1-12.24-1.26-2.85-1.38-13.96-0.18-16.72 0.91-2.09-3.29 0.87-4.36 3.07-1.18 2.45-3.27 2.46-3.56 0.02-0.54-4.67 4.25-9.33 12.41-12.056 8.5-2.844 12.4-6.31 12.44-11.05 0.01-1.997 1.35-2.155 2.65-0.312 1.93 2.734 0.81 7.569-4.06 17.598-2.66 5.48-2.67 6.47-0.07 9.22 3.44 3.62 2.15 4.27-3.51 1.78-3.21-1.41-5.01-3.53-5.18-6.08-0.12-1.9-1.05 3.59-1.07 6.33-0.01 1.52 0.61 4.18 1.45 6.21 0.81 1.95 1.47 3.79 1.47 4.09 0.01 0.74 3.39 6.05 5.71 8.96 1.95 2.43 5 9.09 5 10.91 0 0.54 0.53 2.53 1.19 4.42 5.6 16.21-5.37 27.16-22.89 22.85-5.72-1.4-5.4-1.66-4.39 3.49 0.82 4.2 0.82 4.2 4.09 5.55 1.8 0.74 5.14 2.45 7.42 3.8 4.98 2.95 7.22 3.14 10.21 0.87 1.72-1.3 2.18-1.43 2.62-0.73 1.26 1.98-0.51 5.25-3.79 6.99-0.98 0.52-1.63 1.5-1.88 2.87-0.22 1.14-0.61 2.5-0.87 3.03-0.27 0.53-0.95 2.56-1.52 4.51s-1.18 3.95-1.35 4.44c-1.3 3.65-3.11 10.94-3.11 12.53 0 0.94-0.52 2.11-1.19 2.68-1.41 1.21-1.53 2.69-0.3 3.71 1.09 0.9 1.15 2.56 0.15 4.18-0.99 1.63 0.88 3.15 3.27 2.66 5.64-1.15 5.07-1.29 8.21 1.96 3.31 3.41 3.82 5.7 1.71 7.79-1.74 1.73-3.17 1.26-3.53-1.17-0.26-1.8-0.38-1.91-1.11-1.03-1.48 1.79-4.87 1.01-12.99-2.97-3.54-1.74-4.87 0.74-2.14 3.97 1.42 1.68 1.5 2.02 0.79 3.15-1.04 1.63-2.11 3.8-2.91 5.85-1.1 2.83-4.23 1.58-4.23-1.69 0-0.56-0.84-1.72-1.86-2.58-1.85-1.53-1.86-1.55-0.88-3.44 1.4-2.69-0.38-2.61-4.05 0.17-1.86 1.42-3.36 2.07-4.72 2.07-1.28 0-2.89 0.66-4.55 1.86-3.19 2.29-4.48 1.81-4.38-1.63 0.15-5.43 2.47-8.5 6.44-8.51 1.32-0.01 2.81-0.28 3.3-0.61 1.42-0.94-0.92-2.34-3.9-2.34-1.37 0-3.28-0.16-4.24-0.35-1.35-0.27-2.18 0.01-3.63 1.22-3.62 3.04-4.42-0.57-0.86-3.91 5.9-5.53 9.82-6.07 14.42-1.98 4.57 4.07 9.51 1.63 9.51-4.71 0-0.79 0.28-1.61 0.63-1.83 0.35-0.21 0.5-0.75 0.33-1.18-0.17-0.44-0.03-1.68 0.3-2.75 2.62-8.39 1.11-18.22-2.8-18.22-1.89 0-3.34-0.44-4.87-1.48-1.21-0.81-2.68-1.48-3.27-1.48-1.72 0-4.26-1.54-6.23-3.77-1-1.13-2.71-2.49-3.8-3.03-1.1-0.53-3.09-2.19-4.43-3.68-2.44-2.71-2.44-2.71-2.86 1.48-0.77 7.8 2.06 11.05 8.87 10.17 5.34-0.69 5.05-0.7 5.05 0.19 0 1.74-4.43 5.15-6.7 5.15-1.93 0-2.33 0.26-3.36 2.21-1.61 3.09-5.56 7.67-10.33 12-2.21 2.02-4.44 4.45-4.93 5.41-0.5 0.95-1.49 1.95-2.21 2.22-2.59 0.98 1.46 2.17 4.26 1.25 5.51-1.81 12.21 6.24 8.37 10.06-1.74 1.73-3.17 1.25-3.53-1.17-0.27-1.8-0.38-1.91-1.11-1.03-1.49 1.79-4.87 1.01-12.99-2.98-3.54-1.73-4.88 0.75-2.14 3.98 1.42 1.68 1.5 2.02 0.78 3.15-1.03 1.63-2.11 3.79-2.91 5.85-1.09 2.83-4.22 1.58-4.22-1.69 0-0.57-0.84-1.73-1.86-2.58-1.86-1.54-1.86-1.56-0.88-3.44 1.4-2.69-0.39-2.62-4.06 0.17-1.86 1.41-3.35 2.07-4.71 2.07-1.28 0-2.9 0.66-4.56 1.85-3.18 2.3-4.47 1.82-4.37-1.63 0.15-5.43 2.47-8.49 6.43-8.51 1.33 0 2.82-0.27 3.31-0.6 1.41-0.94-0.92-2.35-3.9-2.35-1.37 0-3.28-0.15-4.24-0.34-1.35-0.27-2.18 0.01-3.63 1.22-3.62 3.03-4.42-0.57-0.86-3.91 6.08-5.71 9.64-6.09 14.87-1.61 1.91 1.64 4.27 2.59 5.43 2.19 1.54-0.54 12.12-9.77 12.89-11.24 0.47-0.92 1.5-1.83 2.29-2.02 0.84-0.21 1.57-0.94 1.78-1.78 0.19-0.78 1-1.84 1.8-2.35 0.79-0.52 1.3-1.3 1.13-1.74s-0.01-1.35 0.35-2.03c0.54-0.98 0.49-1.22-0.21-1.22-1.14 0-2.73-2.27-2.73-3.89 0-0.75-0.58-1.51-1.46-1.91-0.8-0.36-1.88-1.47-2.39-2.46-0.52-0.99-1.32-1.8-1.79-1.8-1.86 0-4.02-3.01-3.67-5.14 0.22-1.37-0.03-2.6-0.81-3.91-0.94-1.59-1.11-2.88-0.98-7.63 0.2-7.03-0.29-7.51-5.68-5.55-2.67 0.96-3.66 1.09-4.49 0.57-0.85-0.52-1.35-0.44-2.37 0.37-0.71 0.58-2.57 1.23-4.13 1.46-1.57 0.23-4.05 1.17-5.52 2.1-2.22 1.39-4.04 1.87-10.6 2.77-7.93 1.08-7.93 1.08-5.8 3.26 2.46 2.52 2.59 3.13 0.91 4.16-3.08 1.87-3.58 3.8-5.96 22.81-1.97 15.84-2.15 18.25-1.4 19.07 1.05 1.16 1.09 2.55 0.11 4.15-1 1.62 0.87 3.14 3.27 2.65 5.64-1.15 5.07-1.28 8.21 1.96 3.31 3.41 3.81 5.71 1.71 7.8-1.74 1.73-3.17 1.25-3.53-1.18-0.27-1.8-0.38-1.91-1.12-1.02-1.48 1.78-4.86 1.01-12.99-2.98-3.53-1.74-4.87 0.74-2.14 3.97 1.42 1.68 1.51 2.02 0.79 3.15-1.03 1.63-2.11 3.8-2.91 5.86-0.74 1.92-2.69 2.18-3.61 0.48zm-36.619-80.76c1.93-2.41 2.577-2.52 4.748-0.82 2.714 2.12 2.225 0.94-1.187-2.87-1.795-2.01-3.907-5.06-4.694-6.78-1.432-3.14-1.432-3.14-1.467 3.45-0.026 5.09-0.235 6.74-0.926 7.31-1.29 1.07-1.095 1.78 0.488 1.78 0.864 0 1.999-0.78 3.038-2.07zm11.039-59.36c0-0.89-0.61-1.19-3.042-1.51-3.774-0.5-4.081-0.24-1.59 1.35 2.498 1.59 4.632 1.66 4.632 0.16zm10.998 0.18c-3.926-1.09-5.105-1.08-4.674 0.04 0.256 0.66 1.261 0.87 3.994 0.83 3.652-0.05 3.652-0.05 0.68-0.87zm5.672-4.07c-1.6-1.93-10.586-3.4-11.805-1.94-0.619 0.75 0.017 0.92 4.51 1.27 2.878 0.23 5.625 0.66 6.105 0.96 1.32 0.83 1.99 0.67 1.19-0.29zm36.77-10.136c1.04-1.453 1.28-2.231 0.83-2.68-1.47-1.459-5.52 2.85-5.52 5.878 0 1.735 2.27 0.186 4.69-3.198z" fill="#ff0"/>
      <path id="path2455" d="m111.22 248.87c-0.34-0.63-0.61-1.61-0.61-2.18 0-0.56-0.84-1.72-1.86-2.57-1.86-1.54-1.86-1.56-0.88-3.45 1.4-2.69-0.39-2.61-4.06 0.18-1.86 1.41-3.36 2.07-4.71 2.07-1.283 0-2.898 0.65-4.558 1.85-3.185 2.3-4.476 1.82-4.378-1.63 0.156-5.43 2.476-8.5 6.439-8.51 1.327-0.01 2.814-0.28 3.304-0.6 1.413-0.95-0.919-2.35-3.903-2.35-1.368 0-3.274-0.16-4.237-0.35-1.348-0.27-2.18 0.01-3.629 1.23-3.624 3.03-4.42-0.58-0.863-3.91 5.899-5.54 9.816-6.08 14.415-1.98 4.83 4.3 9.51 1.59 9.51-5.5 0-1.23 0.44-2.87 0.99-3.63 0.77-1.11 0.83-1.63 0.29-2.49-0.92-1.47-0.86-3.19 0.19-5.21 0.79-1.53 0.77-1.76-0.3-2.72-1.47-1.33-1.48-3.05-0.01-5.26 1.12-1.7 1.12-1.76 0-3.94-0.9-1.76-1.01-2.57-0.53-3.93 0.46-1.31 0.39-2.13-0.31-3.45-0.5-0.96-0.91-3.23-0.91-5.06-0.01-6.23-0.4-7.12-2.59-5.8-1.03 0.63-2.59 1.14-3.47 1.14-1.44 0-1.64 0.26-2.01 2.75-0.29 1.94-1.02 3.42-2.49 5.03-2.803 3.09-3.788 3.01-3.336-0.27 0.35-2.54 0.35-2.54-5.362-8.35-4.01-4.07-5.712-5.46-5.712-4.66 0 2.86-1.54 3.58-3.56 1.66-2.014-1.92-3.448-2.03-6.992-0.57-3.061 1.27-2.886 5.48 0.297 7.14 2.423 1.27 3.344 4.15 1.883 5.91-0.962 1.15 0.208 3.39 2.256 4.32 1.737 0.79 1.099 2.06-1.34 2.67-1.859 0.46-5.99-1.57-6.511-3.2-0.214-0.67-0.899-1.19-1.568-1.19-2.828 0-3.66-1.09-3.314-4.35 0.178-1.67 0.123-3.56-0.123-4.2-0.747-1.92-1.932 3.99-1.479 7.38 0.374 2.8 0.32 2.95-1.466 3.96-2.991 1.69-1.937 4.79 1.351 3.97 2.134-0.53 2.119 1.57-0.023 3.25-2.396 1.87-7.348 0.42-8.516-2.5-2.452-6.12-2.811-9.03-1.219-9.87 1.367-0.73 2.656-3.03 4.201-7.5 1.207-3.49 1.024-3.9-0.746-1.66-0.819 1.04-1.655 1.44-2.737 1.33-1.193-0.12-1.744 0.22-2.356 1.46-0.934 1.91-2.22 2.11-3.091 0.49-1.174-2.18-0.644-4.13 2.102-7.72 2.767-3.62 3.656-4.04 6.386-3.01 1.351 0.51 1.474 0.4 1.77-1.63 0.175-1.19 1.018-6.95 1.873-12.8 2.892-19.78 5.805-23.89 12.666-17.87 1.933 1.7 6.311 4.55 6.985 4.55 0.126 0-0.156-0.73-0.625-1.63-1.838-3.5-0.664-8.31 2.506-10.26 1.475-0.91 1.888-1.46 1.434-1.91-1.666-1.65 0.311-5.96 3.772-8.21 1.14-0.74 2.222-1.94 2.405-2.67 0.183-0.72 1.278-1.95 2.434-2.73 2.496-1.69 1.866-2.16-2.907-2.17-7.09-0.01-19.421-5.47-19.421-8.6 0-1.08-0.729-1.61-4.013-2.91-6.634-2.62-9.16-5.91-6.951-9.048 1.07-1.52 2.642-1.747 2.642-0.382 0 2.926 8.188 6.74 16.478 7.67 4.519 0.51 5.22-2.24 0.763-2.984-10.739-1.805-19.085-11.086-14.82-16.48 1.65-2.087 2.929-2.022 2.929 0.151 0 4.74 17.68 7.196 23.504 3.265 2.456-1.658 2.827-1.704 4.939-0.604 7.702 4.01 13.382 1.712 25.342-10.256 7.71-7.713 10.19-8.603 7.74-2.78-2.23 5.323-0.67 7.067 3.52 3.921 7.48-5.617 15.24-7.69 10.68-2.852-4.75 5.033-6.15 9.054-4.33 12.437 0.6 1.123 1.17 0.692 7.58-5.826 3.81-3.872 9.2-8.836 11.98-11.031s5.59-4.437 6.24-4.981c17.09-14.22 30.5-19.968 18.58-7.97-10.51 10.594-12.79 16.442-8.36 21.504 0.77 0.885 1.43 0.632 7.5-2.878 16.82-9.725 36.6-17.931 43.11-17.885 3.18 0.022 2.85 0.507-2.38 3.529-16.77 9.692-22.73 35.243-9.64 41.36 3.64 1.71 2.59 2.94-4.27 5-10.12 3.04-10.38 22.72-0.38 29.41 8.22 5.5 8.25 9.35 0.04 5.55-3.53-1.63-8.56-1.96-12.68-0.82-2.36 0.65-2.36 0.65 0.4 1.69 1.51 0.57 3.61 1.65 4.66 2.39 1.81 1.28 1.98 1.3 3.56 0.37 4.53-2.66 8.66-0.59 5.49 2.76-1.59 1.67-1.6 1.74-0.46 2.39 0.64 0.37 2.94 2.34 5.09 4.37 4.92 4.63 7.15 5.29 8.58 2.54 1.56-3 3.58-2.25 5.05 1.9 0.73 2.03 3.12 2.19 6.56 0.44 3.68-1.87 5.31-6.47 3.01-8.53-1.62-1.47-1.55-2.47 0.26-3.65 2.15-1.4-1.39-11.39-5.61-15.87-1.04-1.1-2.25-3.54-6.1-12.24-1.26-2.85-1.38-13.96-0.18-16.72 0.91-2.09-3.29 0.87-4.36 3.07-1.18 2.45-3.27 2.46-3.56 0.02-0.54-4.67 4.25-9.33 12.41-12.056 8.5-2.844 12.4-6.31 12.44-11.05 0.01-1.997 1.35-2.155 2.65-0.312 1.93 2.734 0.81 7.569-4.06 17.598-2.66 5.48-2.67 6.47-0.07 9.22 3.44 3.62 2.15 4.27-3.51 1.78-3.21-1.41-5.01-3.53-5.18-6.08-0.12-1.9-1.05 3.59-1.07 6.33-0.01 1.52 0.61 4.18 1.45 6.21 0.81 1.95 1.47 3.79 1.47 4.09 0.01 0.74 3.39 6.05 5.71 8.96 1.95 2.43 5 9.09 5 10.91 0 0.54 0.53 2.53 1.19 4.42 5.6 16.21-5.37 27.16-22.89 22.85-5.72-1.4-5.4-1.66-4.39 3.49 0.82 4.2 0.82 4.2 4.09 5.55 1.8 0.74 5.14 2.45 7.42 3.8 4.98 2.95 7.22 3.14 10.21 0.87 1.72-1.3 2.18-1.43 2.62-0.73 1.26 1.98-0.51 5.25-3.79 6.99-0.98 0.52-1.63 1.5-1.88 2.87-0.22 1.14-0.61 2.5-0.87 3.03-0.27 0.53-0.95 2.56-1.52 4.51s-1.18 3.95-1.35 4.44c-1.3 3.65-3.11 10.94-3.11 12.53 0 0.94-0.52 2.11-1.19 2.68-1.41 1.21-1.53 2.69-0.3 3.71 1.09 0.9 1.15 2.56 0.15 4.18-0.99 1.63 0.88 3.15 3.27 2.66 5.64-1.15 5.07-1.29 8.21 1.96 3.31 3.41 3.82 5.7 1.71 7.79-1.74 1.73-3.17 1.26-3.53-1.17-0.26-1.8-0.38-1.91-1.11-1.03-1.48 1.79-4.87 1.01-12.99-2.97-3.54-1.74-4.87 0.74-2.14 3.97 1.42 1.68 1.5 2.02 0.79 3.15-1.04 1.63-2.11 3.8-2.91 5.85-1.1 2.83-4.23 1.58-4.23-1.69 0-0.56-0.84-1.72-1.86-2.58-1.85-1.53-1.86-1.55-0.88-3.44 1.4-2.69-0.38-2.61-4.05 0.17-1.86 1.42-3.36 2.07-4.72 2.07-1.28 0-2.89 0.66-4.55 1.86-3.19 2.29-4.48 1.81-4.38-1.63 0.15-5.43 2.47-8.5 6.44-8.51 1.32-0.01 2.81-0.28 3.3-0.61 1.42-0.94-0.92-2.34-3.9-2.34-1.37 0-3.28-0.16-4.24-0.35-1.35-0.27-2.18 0.01-3.63 1.22-3.62 3.04-4.42-0.57-0.86-3.91 5.9-5.53 9.82-6.07 14.42-1.98 4.57 4.07 9.51 1.63 9.51-4.71 0-0.79 0.28-1.61 0.63-1.83 0.35-0.21 0.5-0.75 0.33-1.18-0.17-0.44-0.03-1.68 0.3-2.75 2.62-8.39 1.11-18.22-2.8-18.22-1.89 0-3.34-0.44-4.87-1.48-1.21-0.81-2.68-1.48-3.27-1.48-1.72 0-4.26-1.54-6.23-3.77-1-1.13-2.71-2.49-3.8-3.03-1.1-0.53-3.09-2.19-4.43-3.68-2.44-2.71-2.44-2.71-2.86 1.48-0.77 7.8 2.06 11.05 8.87 10.17 5.34-0.69 5.05-0.7 5.05 0.19 0 1.74-4.43 5.15-6.7 5.15-1.93 0-2.33 0.26-3.36 2.21-1.61 3.09-5.56 7.67-10.33 12-2.21 2.02-4.44 4.45-4.93 5.41-0.5 0.95-1.49 1.95-2.21 2.22-2.59 0.98 1.46 2.17 4.26 1.25 5.51-1.81 12.21 6.24 8.37 10.06-1.74 1.73-3.17 1.25-3.53-1.17-0.27-1.8-0.38-1.91-1.11-1.03-1.49 1.79-4.87 1.01-12.99-2.98-3.54-1.73-4.88 0.75-2.14 3.98 1.42 1.68 1.5 2.02 0.78 3.15-1.03 1.63-2.11 3.79-2.91 5.85-1.09 2.83-4.22 1.58-4.22-1.69 0-0.57-0.84-1.73-1.86-2.58-1.86-1.54-1.86-1.56-0.88-3.44 1.4-2.69-0.39-2.62-4.06 0.17-1.86 1.41-3.35 2.07-4.71 2.07-1.28 0-2.9 0.66-4.56 1.85-3.18 2.3-4.47 1.82-4.37-1.63 0.15-5.43 2.47-8.49 6.43-8.51 1.33 0 2.82-0.27 3.31-0.6 1.41-0.94-0.92-2.35-3.9-2.35-1.37 0-3.28-0.15-4.24-0.34-1.35-0.27-2.18 0.01-3.63 1.22-3.62 3.03-4.42-0.57-0.86-3.91 6.08-5.71 9.64-6.09 14.87-1.61 1.91 1.64 4.27 2.59 5.43 2.19 1.54-0.54 12.12-9.77 12.89-11.24 0.47-0.92 1.5-1.83 2.29-2.02 0.84-0.21 1.57-0.94 1.78-1.78 0.19-0.78 1-1.84 1.8-2.35 0.79-0.52 1.3-1.3 1.13-1.74s-0.01-1.35 0.35-2.03c0.54-0.98 0.49-1.22-0.21-1.22-1.14 0-2.73-2.27-2.73-3.89 0-0.75-0.58-1.51-1.46-1.91-0.8-0.36-1.88-1.47-2.39-2.46-0.52-0.99-1.32-1.8-1.79-1.8-1.86 0-4.02-3.01-3.67-5.14 0.22-1.37-0.03-2.6-0.81-3.91-0.94-1.59-1.11-2.88-0.98-7.63 0.2-7.03-0.29-7.51-5.68-5.55-2.67 0.96-3.66 1.09-4.49 0.57-0.85-0.52-1.35-0.44-2.37 0.37-0.71 0.58-2.57 1.23-4.13 1.46-1.57 0.23-4.05 1.17-5.52 2.1-2.22 1.39-4.04 1.87-10.6 2.77-7.93 1.08-7.93 1.08-5.8 3.26 2.46 2.52 2.59 3.13 0.91 4.16-3.08 1.87-3.58 3.8-5.96 22.81-1.97 15.84-2.15 18.25-1.4 19.07 1.05 1.16 1.09 2.55 0.11 4.15-1 1.62 0.87 3.14 3.27 2.65 5.64-1.15 5.07-1.28 8.21 1.96 3.31 3.41 3.81 5.71 1.71 7.8-1.74 1.73-3.17 1.25-3.53-1.18-0.27-1.8-0.38-1.91-1.12-1.02-1.48 1.78-4.86 1.01-12.99-2.98-3.53-1.74-4.87 0.74-2.14 3.97 1.42 1.68 1.51 2.02 0.79 3.15-1.03 1.63-2.11 3.8-2.91 5.86-0.74 1.92-2.69 2.18-3.61 0.48zm3.11-3.32c0.87-2.62 0.86-2.69-0.31-2.52-1.65 0.25-2.48 1.75-2 3.64 0.57 2.28 1.3 1.93 2.31-1.12zm108.19-1.19c0.87-2.61 0.86-2.68-0.31-2.51-1.65 0.25-2.47 1.75-2 3.64 0.58 2.28 1.3 1.93 2.31-1.13zm-125.68-2.95c0.488-0.41-1.166-2.52-2.185-2.78-1.223-0.32-3.065 2.63-3.065 4.91 0 1.06 2.812-0.08 5.25-2.13zm17.825 0.32c2 0 2 0 0.46-1.82-3.24-3.83 0.16-9.02 4.19-6.38 1.26 0.83 3.37 1.86 4.67 2.28 1.31 0.42 3.1 1.12 3.98 1.56 1.59 0.81 1.59 0.81 1.27-1.17-0.26-1.63-0.05-2.18 1.25-3.2 1.71-1.34 1.1-2.36-0.8-1.35-1.68 0.9-5.19 0.76-7.21-0.28-2.04-1.05-2.1-1.36-0.73-3.74 0.97-1.68 0.97-1.83-0.03-2.93-1.01-1.11-0.97-1.84 1.06-18.04 2.42-19.39 2.36-18.64 1.39-17.68-0.39 0.39-1.12 0.71-1.62 0.71-0.58 0-0.22-0.62 1.01-1.74 1.06-0.96 1.92-2.01 1.92-2.34s1.08-1.64 2.41-2.91c2.4-2.3 2.4-2.3 0.98-3.22-3.48-2.27-5.98-8.12-3.47-8.12 1.13 0 3.65-2.06 3.65-2.98 0-0.71-0.15-0.71-2.17 0.05-1.63 0.62-1.63 0.61-0.54-0.59 0.66-0.72 0.82-1.21 0.4-1.21-0.5 0-0.54-0.32-0.12-1.09 0.4-0.76 0.37-1.31-0.1-1.78-0.52-0.51-0.51-0.68 0.01-0.68 0.46 0 0.6-0.85 0.43-2.51-0.14-1.39-0.11-2.98 0.06-3.55 0.39-1.25 1.43-1.38 1.43-0.19 0 0.47 0.82 1.43 1.82 2.13 1 0.71 1.68 1.43 1.51 1.6s-0.03 0.84 0.32 1.49c0.41 0.75 0.42 1.04 0.03 0.8-0.63-0.38-2.26 3.61-1.71 4.16 0.17 0.17 0.85-0.22 1.5-0.87 0.65-0.66 1.34-1.03 1.54-0.84 0.19 0.19 0.34-0.1 0.34-0.64 0-0.55 0.2-0.96 0.45-0.92 1.35 0.21 1.4-0.22 0.15-1.55-1.51-1.59-0.96-1.89 1.46-0.79 1.18 0.54 1.44 0.98 1.14 1.93-0.47 1.45-3.15 5.07-3.77 5.07-0.58 0-2.72 4.02-2.34 4.4 0.97 0.97 6.75-5.89 6.77-8.04 0-0.22 0.21-0.6 0.45-0.84 0.25-0.25 0.45 0.36 0.45 1.35s-0.4 2.14-0.89 2.54c-0.49 0.41-0.9 1.02-0.9 1.38 0 0.35-0.85 1.51-1.9 2.58-1.32 1.36-1.61 1.95-0.97 1.95 2.21 0 5.24-3.89 6.11-7.83 0.19-0.9 0.65-1.63 1.01-1.63 1.04 0 0.06 4.64-1.4 6.69-1.28 1.79-1.28 1.79 0.17 1.4 0.79-0.21 1.92-0.39 2.5-0.39 0.58-0.01 2.25-1.11 3.71-2.45 4.16-3.81 3.56-5.51-2.48-7.06-4.07-1.04-4.07-1.04-0.99-1.09 6.24-0.11 10.88 4.63 6.88 7.01-0.78 0.46-0.36 0.52 1.63 0.23 5.1-0.73 8.66-4.58 6.69-7.22-2.81-3.78-7.35-4.98-12.37-3.28-3.53 1.19-4.06 0.69-0.94-0.89 7.67-3.89 16.86 1.18 14.89 8.22-0.45 1.6 2.07 1.27 5.27-0.71 2.79-1.72 3.11-2.12 2.84-3.56-0.21-1.18-0.05-1.63 0.58-1.63 1.07 0 1.2 2.99 0.18 4.01-0.85 0.85 0.92 3.1 2.42 3.07 1.92-0.02 6.02-2.33 6.67-3.75 1-2.17 0.16-7.21-1.03-6.23-0.71 0.59-1.04 0.49-1.78-0.55-0.49-0.71-1.18-1.28-1.53-1.28-0.39 0-0.34 0.35 0.13 0.91 0.58 0.69 0.59 1.08 0.07 1.6-0.41 0.4-0.69 0.44-0.69 0.09 0-1.11-2.41-3.19-3.69-3.19-1.26 0-1.26 0.01 0.12 1.47 1.98 2.1 1.15 2.41-1.56 0.58-1.75-1.18-2.72-1.46-4.08-1.17-4.64 0.98-6 1.02-4.93 0.15 1.92-1.57 9.1-2.5 13.45-1.76 5.73 0.97 4.5-1.18-5.52-9.63-6.36-5.37-7.34-5.57-8.31-1.72-0.2 0.79-0.8 1.43-1.33 1.43-0.86 0-0.88-0.12-0.11-1.03 1.69-2.02 2.39-4.34 1.6-5.29-0.61-0.73-0.85-0.45-1.48 1.69-0.42 1.41-1.5 3.38-2.41 4.37-0.92 0.99-1.38 1.39-1.04 0.89 2.21-3.3 3.4-7.78 1.44-5.44-1.35 1.61-1.64 0.42-0.35-1.41 0.67-0.95 0.68-1.3 0.06-1.87-0.99-0.93-1.47-0.37-1.47 1.68 0 3.63-3.27 9.96-5.15 9.96-1.17 0-0.98-1.36 0.35-2.48 0.67-0.58 1.02-1.44 0.85-2.1-0.17-0.61 0.12-1.47 0.63-1.89 1.2-0.98 1.18-1.74-0.05-3.1-1.09-1.19-0.6-2.3 0.52-1.18 0.39 0.38 0.97 0.7 1.3 0.7 0.32 0-0.32-0.93-1.43-2.07-1.39-1.43-1.72-2.07-1.08-2.07 0.52 0 1.27 0.4 1.67 0.88 1.35 1.62 1.85 0.23 0.62-1.74-1.44-2.32-1.49-2.69-0.31-2.69 1.32 0 1.08-0.92-0.51-1.96-12.74-8.3 14.49-40.448 47.47-56.021 17.71-8.365 22.63-10.621 23.18-10.638 0.33-0.011 1.13-0.436 1.79-0.945 3.89-3.032-13.57 3.706-25.86 9.98-41.9 21.378-61.93 44.604-54.72 63.424 3.2 8.34 1.85 11.68-5.98 14.82-3.34 1.34-4.74 3.91-3.1 5.7 1.26 1.39 0.76 1.85-1.22 1.1-1.79-0.68-2.1-2.65-0.69-4.5 1.71-2.26 0.87-2.24-1.47 0.03-2.65 2.58-3.2 1.78-0.86-1.27 1.91-2.5 0.37-2.85-1.75-0.4-0.84 0.97-1.51 1.33-1.75 0.94-0.22-0.35 0.4-1.3 1.37-2.11 1.45-1.22 1.59-1.54 0.8-1.84-0.52-0.21-0.81-0.51-0.64-0.68 0.4-0.39 5.88 0.93 6.8 1.64 1.77 1.37 8.52-3.63 8.51-6.31-0.01-5.73-6-6.46-11.76-1.43-4.04 3.53-7.79 4.34-10.45 2.26-3.23-2.53-1.31-6.42 3.63-7.34 3.22-0.6 1.03-2.08-3.08-2.09-3.01 0-3.01 0-1.22-1.08 2.93-1.79 6.03-5.66 7.1-8.88 0.9-2.69 1.32-3.17 3.79-4.27 2.78-1.23 2.78-1.23-0.04-2.68-1.56-0.79-2.83-1.72-2.83-2.05 0-0.34 0.27-0.46 0.6-0.25 0.67 0.41 0.78-2.37 0.21-5.75-0.34-2.1-0.42-2.16-1.61-1.33-2.6 1.81-6.97 0.44-10.49-3.3-0.82-0.87-1.85-1.69-2.28-1.83-0.62-0.19-0.53-0.574 0.35-1.655 1.29-1.588 2.78-1.181 2.21 0.604-0.28 0.881-0.07 1.131 0.94 1.131 1.05 0 1.17 0.16 0.61 0.83-0.55 0.66-0.19 1.06 1.9 2.07 3.62 1.74 4.38 1.6 7.62-1.42 1.58-1.46 3.41-2.66 4.08-2.66 0.93 0 1.21-0.383 1.21-1.637 0-3.928 5.01-8.118 8.06-6.738 1.78 0.811 1.89 0.08 0.21-1.438-4.22-3.792-4-9.26 0.54-13.991 2.5-2.601 1.92-2.81-1.9-0.686-2.65 1.475-19.16 16.565-21.77 19.906-1.53 1.952-2.77 2.189-1.52 0.29 1.93-2.934-2.26-4.557-17.501-6.779-1.145-0.167-2.421-0.575-2.835-0.907-0.529-0.422-1.063-0.339-1.784 0.276-0.566 0.484-1.507 1.048-2.09 1.254-0.957 0.338-0.979 0.536-0.224 2.012 2.467 4.823 1.52 5.817-1.277 1.341-1.745-2.792-1.987-2.957-4.361-2.957-2.514 0-2.514 0-0.805 1.774 0.94 0.976 2.161 1.774 2.713 1.774 0.553 0 1.303 0.357 1.666 0.792 0.53 0.636 0.268 0.778-1.335 0.723-1.608-0.056-2.443-0.604-4.303-2.824-2.166-2.586-4.582-3.623-5.745-2.467-0.709 0.706 1.5 3.185 2.838 3.185 0.74 0 1.678 0.399 2.084 0.886 0.644 0.772 0.369 0.841-2.157 0.541-3.84-0.457-4.532-0.706-4.063-1.46 0.704-1.134-1.572-2.924-3.719-2.924-2.655 0-4.133-0.837-5.546-3.142-1.155-1.885-1.155-1.885-1.157 0.331-0.007 6.898 9.31 11.27 33.13 15.545 5.051 0.91 5.681 1.18 7.901 3.39 5.31 5.28 2.88 6.45-12.796 6.12-12.626-0.26-13.212-0.35-16.158-2.52-2.925-2.15-5.083-2.84-4.836-1.54 0.442 2.33 13.319 7.24 19.036 7.25 2.743 0.01 8.414 1.33 9.574 2.23 0.39 0.3 1.94 0.85 3.45 1.22 1.52 0.36 3.19 0.83 3.73 1.04 0.72 0.27 0.88 0.12 0.6-0.58-0.28-0.73 0.01-0.96 1.19-0.96 1.02 0 1.55-0.32 1.55-0.95 0-0.76 0.4-0.88 2.03-0.57 1.18 0.22 2.19 0.12 2.41-0.23s-0.21-0.64-0.99-0.68c-0.76-0.03-0.18-0.32 1.28-0.65 2.63-0.58 2.64-0.59 1.19-1.39-1.4-0.77-1.4-0.81-0.19-0.83 1.49-0.02 2.23-2.13 1.61-4.6-0.41-1.63-0.41-1.63 1.62 0.02 1.12 0.91 2.5 1.81 3.07 2 2.16 0.7 0.09 7.88-2.27 7.88-1.1 0-1.09-1.58 0.01-2.19 1.47-0.82 1.67-3.93 0.32-4.78-0.97-0.59-1.18-0.57-1.18 0.12 0 0.46 0.33 0.95 0.73 1.08 1.11 0.37-1.09 3.41-2.45 3.41-0.61 0-1.24 0.5-1.41 1.12-0.35 1.36-4.17 3.27-5.74 2.86-0.78-0.21-1.23 0.07-1.44 0.89-0.31 1.18-1.29 1.2-4.2 0.09-0.74-0.28-0.94 0.04-0.94 1.48 0 1.1-0.48 2.25-1.19 2.87-0.66 0.57-1.73 1.5-2.38 2.07-0.66 0.57-1.19 1.78-1.19 2.69 0 1.75-3.19 6.63-4.331 6.63-0.457 0-0.442 0.21 0.052 0.71 1.139 1.13 0.87 6.43-0.427 8.39-1.117 1.68-1.116 1.74 0.07 4 0.662 1.26 1.374 3.57 1.582 5.12 0.504 3.74 3.654 7.89 3.654 4.81 0-1.8 1.55-4.47 4.16-7.14 1.28-1.31 2.49-2.89 2.69-3.52s0.68-1.14 1.06-1.15c0.39 0 1.37-0.15 2.19-0.34 1.21-0.26 1.12-0.14-0.45 0.68-3.17 1.65-7.77 8.81-8.72 13.57-0.33 1.66-0.3 1.7 0.52 0.65 0.49-0.62 0.76-1.33 0.6-1.58-0.16-0.26 0.21-0.82 0.81-1.25 0.61-0.43 1.23-1.15 1.38-1.61 0.29-0.86 2.29-1.47 2.29-0.7 0 0.23-0.6 1.06-1.33 1.84-2.49 2.62-2.73 4.04-1.22 7.04 2.32 4.62 4.93 11.13 4.93 12.3 0 0.62 0.83 1.91 1.84 2.86 2.3 2.18 3.12 3.62 2.33 4.1-0.32 0.2-1.12-0.52-1.78-1.59-1.78-2.91-1.73 2.8 0.06 6.48 0.94 1.92 1.1 2.77 0.6 3.26-1.11 1.1-0.76 3.19 0.84 5.09 1.59 1.87 3.55 1.95 2.96 0.12-0.33-1.04 1.12-3.55 1.71-2.97 0.19 0.19 0.07 1.25-0.26 2.37s-0.63 2.96-0.67 4.1c-0.07 2.17-0.8 3.55-1.87 3.55-0.45 0-0.44-0.21 0.02-0.67 0.68-0.67 0.44-1.99-0.6-3.34-0.45-0.57-0.93-0.26-1.99 1.3-1.71 2.5-1.74 3.08-0.22 3.89 1.44 0.77 1.5 1.83 0.24 4.25-0.79 1.53-0.82 2.05-0.17 3.26 0.63 1.17 0.62 1.77-0.02 3.32-0.43 1.04-0.96 3.22-1.18 4.86-0.91 6.98-8.85 14.16-15.659 14.17-3.139 0.01-4.03 1.02-1.309 1.49 1.363 0.23 1.811 0.68 2.047 2.02 0.338 1.93 1.628 2.71 2.081 1.28 0.17-0.52 0.44-1.38 0.62-1.93 0.24-0.75 0.48-0.82 1.01-0.29 0.97 0.97 1.67 0.86 1.26-0.2-0.26-0.7 0.17-0.89 2.01-0.89 2.21 0 2.42-0.16 3.43-2.51 1.07-2.51 1.07-2.51 1.65 0.53 0.45 2.41 0.39 3.42-0.32 4.83-1.13 2.26-0.28 3.44 1.56 2.15 0.68-0.47 2.14-0.86 3.24-0.86zm0.12-13.38c-0.01-2.82 2.05-13.32 2.95-14.99 0.83-1.53 0.76-2.26-0.24-2.48-0.64-0.15-0.51-0.61 0.57-1.94 1.6-1.99 2.68-1.7 1.25 0.34-0.6 0.84-0.74 1.57-0.39 1.98 0.34 0.42 0.12 2.31-0.6 5.07-0.63 2.43-1.16 5.51-1.16 6.86-0.01 1.35-0.54 3.61-1.19 5.03-1.17 2.57-1.17 2.57-1.19 0.13zm2.37-21.17c0-0.48 1.87-2.11 2.42-2.11 0.31 0 0.23 0.53-0.18 1.18-0.64 1.02-2.24 1.68-2.24 0.93zm-0.05-13c0.53-0.63 0.51-0.9-0.08-1.14-0.56-0.23-0.44-0.57 0.42-1.26 2.59-2.07 1.6-10.96-1.22-10.96-0.76 0-1.56-0.28-1.77-0.63-0.67-1.07 0.24-1.37 1.87-0.63 2.42 1.1 3.8 0.36 3.8-2.03 0-2.04-0.92-2.66-2.15-1.43-0.4 0.4-1.04-0.19-1.96-1.82-1.49-2.64-1.28-3.67 0.44-2.13 1.21 1.09 3.4 1.31 3.97 0.39 0.53-0.86 2.22-0.73 1.93 0.15-0.14 0.41 0.15 1.04 0.65 1.4 0.78 0.57 0.72 0.76-0.41 1.36-1.67 0.89-1.12 1.82 1.07 1.82 3.01 0 2.87 2.93-0.25 4.96-1.29 0.84-1.51 0.86-1.51 0.1 0-0.48 0.54-1.16 1.19-1.51 1.21-0.64 1.66-2.36 0.62-2.36-1.35 0-3 2.66-3 4.84 0 2.96 0.76 2.86 4.25-0.62 1.59-1.58 2.88-2.58 2.88-2.22-0.02 0.83-5.11 6.27-5.87 6.27-0.31 0-0.74 0.79-0.95 1.75-0.65 2.96-2.66 6.53-3.66 6.53-0.75 0-0.81-0.17-0.26-0.83zm-3.65-17.94c-2.19-2.26-5.22-8.24-5.22-10.31 0-0.63-0.24-1-0.53-0.82-0.94 0.58-1.31-1.57-0.45-2.56 0.46-0.52 1.02-1.52 1.23-2.23 0.22-0.7 1.32-1.98 2.45-2.84 1.13-0.85 2.06-1.86 2.06-2.24 0-0.49-0.2-0.48-0.72 0.03-0.39 0.39-0.99 0.7-1.34 0.69-0.91-0.03 2.04-2.34 3-2.34 1.17 0 0.02 2.78-2.08 5.02-2.14 2.29-2.51 3.42-2.06 6.26 0.35 2.17 1.41 3.3 1.41 1.5 0-0.45 0.53-1.45 1.17-2.22 1.57-1.88 1.56-0.43-0.02 2.83-1.44 2.96-0.77 5.15 2.72 8.83 1.71 1.8 1.99 2.62 0.91 2.62-0.21 0-1.35-1-2.53-2.22zm1.32-11.94c0-0.31 0.27-0.72 0.59-0.92 0.33-0.21 0.6 0.04 0.6 0.55s-0.27 0.92-0.6 0.92c-0.32 0-0.59-0.25-0.59-0.55zm3.68-1.85c0.14-0.43 0.61-0.89 1.04-1.03 0.44-0.15 0.67 0.07 0.52 0.51-0.14 0.43-0.61 0.9-1.04 1.04-0.45 0.15-0.67-0.08-0.52-0.52zm43.98-2.74c-0.46-0.85-0.5-1.42-0.1-1.66 0.7-0.43 1.42 1.09 1.04 2.2-0.16 0.49-0.49 0.3-0.94-0.54zm8.22 0.18c0-0.13 0.42-0.39 0.92-0.58 0.53-0.21 0.77-0.11 0.56 0.23-0.35 0.56-1.48 0.83-1.48 0.35zm4.25-0.62c0.12-0.54 0.48-0.97 0.8-0.95 0.89 0.04 0.72 1.37-0.2 1.67-0.5 0.17-0.73-0.1-0.6-0.72zm-74.4-2.63c0-1.48 2.33-4.36 2.36-2.91 0.03 1.51-1.06 4.03-1.75 4.03-0.33 0-0.61-0.51-0.61-1.12zm38.44-3.89c-1.02-0.76-0.95-0.84 0.89-1.01 1.58-0.15 2.17-0.59 2.93-2.18 1.48-3.14 2.93-3.62 2.53-0.83-0.55 3.81-3.86 5.9-6.35 4.02zm-38.16-2.27c-0.21-0.82-0.26-1.99-0.1-2.58 0.23-0.88 0.29-0.84 0.35 0.23 0.05 0.91 0.34 1.21 0.96 0.97 1.11-0.42 1.11 0.33 0.01 1.78-0.81 1.06-0.86 1.04-1.22-0.4zm14.29-0.41c0.2-0.33 0.63-0.59 0.96-0.59s0.43 0.26 0.23 0.59c-0.21 0.32-0.64 0.59-0.97 0.59-0.32 0-0.43-0.27-0.22-0.59zm24.07-0.59c0-0.33 0.27-0.59 0.6-0.59 0.32 0 0.59 0.26 0.59 0.59 0 0.32-0.27 0.59-0.59 0.59-0.33 0-0.6-0.27-0.6-0.59zm22.57-2.91c0.68-1.27 1.81-1.68 1.81-0.66 0 0.31-0.56 0.86-1.24 1.23-1.13 0.6-1.18 0.55-0.57-0.57zm-2.52-0.21c-0.21-0.54-0.12-1.14 0.19-1.33 0.31-0.2 0.57-0.64 0.57-0.98 0-0.39-0.34-0.35-0.91 0.12-1.52 1.25-1.45 0.39 0.12-1.49 1.28-1.53 1.43-1.59 1.09-0.44-0.27 0.95-0.09 1.44 0.63 1.72 0.89 0.33 0.9 0.47 0.14 1.03-0.48 0.35-1.01 1.03-1.16 1.5-0.23 0.7-0.36 0.68-0.67-0.13zm-37.88-0.43c0-0.33 0.27-0.59 0.59-0.59 0.33 0 0.6 0.26 0.6 0.59 0 0.32-0.27 0.59-0.6 0.59-0.32 0-0.59-0.27-0.59-0.59zm-18.09-1.12c-0.18-0.29 0.37-0.7 1.22-0.92 1.72-0.43 2.33-0.14 1.73 0.82-0.47 0.76-2.5 0.83-2.95 0.1zm15.12-0.08c0-0.34 0.41-0.77 0.91-0.96 1.4-0.53 1.56 0.04 0.25 0.86-0.74 0.45-1.16 0.49-1.16 0.1zm9.67-0.98c0.58-0.15 1.38-0.14 1.78 0.02s-0.07 0.28-1.05 0.27-1.31-0.14-0.73-0.29zm6.67-0.78c-0.2-0.32 0.03-0.59 0.51-0.59 0.49 0 1.37-0.17 1.97-0.37 0.96-0.33 0.95-0.26-0.1 0.57-1.4 1.11-1.88 1.19-2.38 0.39zm-24.22-0.45c-1.2-0.26-1.39-1.24-0.3-1.61 1.68-0.56 3.01-0.56 3.21 0 0.29 0.81-1.64 1.88-2.91 1.61zm20.06-0.73c-0.2-0.33 0.05-0.59 0.56-0.59s0.93 0.26 0.93 0.59c0 0.32-0.25 0.59-0.56 0.59s-0.73-0.27-0.93-0.59zm3.87-2.07c0.81-0.47 1.88-0.85 2.37-0.85 0.52 0 0.27 0.36-0.59 0.85-0.82 0.46-1.89 0.84-2.38 0.84-0.51 0-0.26-0.35 0.6-0.84zm-26.75-0.89c0-0.32 0.55-0.59 1.22-0.59s1.06 0.27 0.86 0.59c-0.21 0.33-0.76 0.59-1.23 0.59s-0.85-0.26-0.85-0.59zm30.91-1.18c0-0.33 0.28-0.59 0.63-0.59 0.34 0 0.46 0.26 0.26 0.59s-0.49 0.59-0.63 0.59-0.26-0.26-0.26-0.59zm-27.07-4.18c-0.55-0.88 0.08-1.36 1.22-0.92 0.53 0.2 0.79 0.63 0.59 0.96-0.49 0.77-1.32 0.76-1.81-0.04zm-6.83-4.42c-0.41-0.49-0.62-1.02-0.45-1.19 0.42-0.41 2.25 0.35 2.25 0.95 0 0.97-1.07 1.12-1.8 0.24zm10.12 0.39c0-0.8 1.66-1.98 2.44-1.73 0.46 0.16 0.36 0.57-0.32 1.24-1.1 1.09-2.12 1.33-2.12 0.49zm3.7-6.07c0.3-0.93 1.63-1.09 1.68-0.21 0.02 0.33-0.41 0.68-0.96 0.8-0.62 0.12-0.89-0.1-0.72-0.59zm-0.78-3.7c0.38-0.45 1.21-0.69 1.85-0.52 1.58 0.41 0.87 1.35-1.01 1.35-1.24 0-1.4-0.16-0.84-0.83zm-16.89-5.08c-1.309-0.61-3.181-1.12-4.162-1.15s-2.185-0.32-2.675-0.65c-1.553-1.03 7.037 0.1 9.237 1.22 3.6 1.82 1.44 2.34-2.4 0.58zm5.65 0c0.49-0.32 1.34-0.58 1.89-0.59 4.17-0.03 4.39-5.87 0.36-9.58-1.86-1.71-2.71-2.84-2.14-2.84 5.68 0 8.97 10.18 4.1 12.68-2 1.03-5.76 1.32-4.21 0.33zm-2.64-1.12c-1.72-0.68 0.09-1.1 2.64-0.62 1.14 0.22 1.63 0.43 1.09 0.48-0.55 0.04-1.35 0.19-1.79 0.33-0.43 0.14-1.3 0.05-1.94-0.19zm-7.034-13.521c-0.515-0.569-1.121-1.769-1.347-2.667-0.225-0.897-0.647-1.778-0.938-1.957-1.623-0.998-0.435-2.562 2.25-2.963 2.778-0.414 2.778-0.414 0.446-1.662-2.7-1.445 1.114-2.205 5.193-1.036 1.93 0.553 1.94 0.57 0.33 0.622-2.09 0.067-0.75 2.148 3.9 6.043 2.85 2.395 5.38 2.593 3.45 0.27-1.17-1.392-0.14-2.392 1.2-1.18 2.09 1.877 0.19 4.871-2.64 4.162-0.92-0.23-1.71-0.042-2.18 0.519-1.07 1.29-5.5 1.16-6.738-0.198-1.119-1.23-1.309-4.272-0.327-5.248 0.479-0.477 0.102-0.638-1.391-0.595-2.24 0.063-2.247 1.042-0.041 5.299 0.946 1.822 0.264 2.172-1.167 0.591zm8.344-1.209c0.18-0.535-0.16-0.666-1.14-0.437-2.18 0.511-3.37-0.526-2.4-2.09 0.95-1.514 0.49-2.195-0.77-1.155-1.176 0.974-1.15 2.638 0.06 3.846 1.1 1.094 3.87 0.987 4.25-0.164zm16.2-1.197c0.68-0.917 2.17-2 3.3-2.407s1.89-1.011 1.68-1.342c-0.25-0.401-0.58-0.388-1.02 0.042-1.1 1.102-1.83 0.702-0.79-0.439 0.54-0.595 0.98-1.352 0.98-1.682 0-1.121 2.32-2.711 3.51-2.403 1.23 0.321 1.84-0.544 1.84-2.612 0-1.651 2.52-5.751 5.03-8.162 2.41-2.328 2.67-1.617 0.86 2.339-0.68 1.463-1.34 3.845-1.48 5.292-0.26 2.648-2.57 5.944-4.17 5.944-0.75 0-3.26 3.806-3.48 5.281-0.17 1.122-1.85 1.723-4.95 1.774-2.55 0.042-2.55 0.042-1.31-1.625zm-12.79-3.656c-0.2-0.325 0.06-0.591 0.59-0.591s0.8 0.266 0.6 0.591c-0.21 0.325-0.47 0.592-0.6 0.592-0.12 0-0.39-0.267-0.59-0.592zm-1.6-1.587c0.43-0.17 0.94-0.149 1.14 0.047 0.2 0.197-0.15 0.336-0.78 0.311-0.69-0.029-0.83-0.169-0.36-0.358zm-2.27-0.813c0-0.345 0.27-0.462 0.6-0.261 0.32 0.201 0.59 0.483 0.59 0.626 0 0.144-0.27 0.261-0.59 0.261-0.33 0-0.6-0.282-0.6-0.626zm100.37 148.74c0.49-0.41-1.17-2.52-2.19-2.78-1.22-0.32-3.06 2.63-3.06 4.9 0 1.07 2.81-0.07 5.25-2.12zm17.82 0.32c2 0 2 0 0.46-1.82-3.24-3.83 0.17-9.02 4.19-6.38 1.27 0.83 3.37 1.85 4.68 2.27s3.09 1.13 3.97 1.57c1.6 0.8 1.6 0.8 1.28-1.17-0.27-1.64-0.06-2.18 1.24-3.2 1.71-1.34 1.11-2.36-0.79-1.35-1.69 0.9-5.19 0.76-7.22-0.28-2.04-1.05-2.1-1.36-0.73-3.74 0.97-1.68 0.97-1.84 0-2.9-1.23-1.36-1.28-4.33-0.11-7.54 0.47-1.3 0.86-2.91 0.86-3.58 0.01-0.67 0.4-1.74 0.88-2.37s0.89-1.62 0.9-2.2 0.44-1.22 0.96-1.41c0.67-0.26 0.74-0.49 0.24-0.79-0.51-0.32-0.53-0.73-0.05-1.55 1-1.73 3.66-9.13 4.22-11.76 0.6-2.84-1.51-5.28-4.08-4.7-0.97 0.22-1.31 0.09-1.14-0.45 0.42-1.27 2.9-1.23 4.68 0.07 1.45 1.07 1.89 1.14 3.27 0.51 1.6-0.72 1.6-0.72 0.18-1.12-1.3-0.36-1.27-0.4 0.41-0.46 1.63-0.05 4.94-2.42 3.38-2.42-0.34 0-0.95 0.4-1.35 0.89-1.65 1.96-7 1.15-12.13-1.84-4.13-2.41-4.85-2.64-6.17-2.04-1.24 0.56-1.69 0.49-2.74-0.46-0.69-0.63-2.26-1.31-3.49-1.53-2.15-0.38-3.15-1.53-1.33-1.53 0.49 0 0.89-0.26 0.89-0.59 0-0.32 0.43-0.59 0.95-0.59 0.56 0 0.83-0.33 0.65-0.79-0.17-0.44-0.49-2.37-0.73-4.29-0.23-1.92-0.85-3.99-1.38-4.58-0.53-0.6-1.65-2.33-2.48-3.85-1.21-2.2-1.8-2.72-2.91-2.6-1.12 0.13-1.26 0-0.72-0.65 0.55-0.66-0.1-1.2-3.32-2.82-3.88-1.95-5.41-3.48-3.48-3.48 0.53 0 1.96 0.62 3.17 1.39 1.22 0.76 2.8 1.57 3.51 1.8 2.21 0.69 4.25 2.65 5.89 5.66 5.91 10.79 26.96 8.38 29.75-3.41 0.99-4.15 1.1-8.64 0.18-7.07-0.33 0.57-1 1.03-1.49 1.03-0.69 0-0.62-0.34 0.35-1.64 1.16-1.56 1.18-1.79 0.31-4.22-0.5-1.41-0.91-3.17-0.91-3.92 0-2.08-1.9-6-5.43-11.21-8.68-12.78-10.51-24.97-4.77-31.787 1.47-1.744 2.56-1.329 1.55 0.587-1.68 3.22-0.31 7.77 2.84 9.39 2.16 1.11 2.67 0.79 1.06-0.66-1.81-1.63-1.46-4.21 1.27-9.465 3.05-5.884 4.67-10.485 4.67-13.251 0-2.125 0-2.125-1.24 0.365-1.94 3.908-5.17 6.396-10.46 8.072-8.58 2.721-10.68 4.097-12.9 8.479-1.39 2.74-1.27 4.53 0.15 2.25 1.57-2.53 2.94-3.55 6.28-4.65 4.23-1.398 4.96-1.261 3.1 0.58-4.88 4.86-3.05 19.35 3.65 28.89 7.49 10.65 9.72 17.02 6.58 18.69-1.14 0.61-1.15 0.7-0.18 1.76 1.48 1.63 0.92 6.6-0.99 8.62-3.98 4.24-12.42 4.54-12.42 0.43 0-1.71-0.99-2.33-1.45-0.9-0.51 1.59-2.92 2.69-4.84 2.21-1.63-0.41-1.63-0.41-0.22 1.05 1.26 1.3 1.49 1.35 2.1 0.52s0.78-0.77 1.46 0.5c0.9 1.69 2.32 2.87 3.47 2.9 0.65 0.01 0.67-0.16 0.1-0.84-0.4-0.48-0.54-1.15-0.32-1.5 0.24-0.4 0.86-0.05 1.61 0.89 0.66 0.85 1.58 1.4 2.03 1.23 0.45-0.18 0.82-0.06 0.82 0.26 0 0.31-1 0.61-2.23 0.66-3.44 0.15-4.46-0.04-5.55-1.03-0.76-0.68-1.08-0.72-1.26-0.17-0.14 0.4-1.73-1.11-3.55-3.37-3.06-3.81-6.98-7.62-11-10.7-1.68-1.28-1.68-1.28 0.01-3.04 2.28-2.39 1.02-3.05-2-1.06-2.45 1.61-3.55 1.91-3.55 0.97 0-0.73-4.39-3.29-7.55-4.4-6.4-2.24-15.26 8.45-10.8 13.03 1.63 1.68 1.88 2.37 2.02 5.65 0.09 2.05 0.19 3.92 0.22 4.15 0.03 0.22 0.71 1.11 1.51 1.97s1.56 1.85 1.68 2.22c0.13 0.4 1.06 0.13 2.46-0.73 2.23-1.37 6.22-1.01 7.26 0.66 0.41 0.67-1.15 0.61-3.05-0.11-1.28-0.48-1.87-0.37-3.09 0.59-0.84 0.66-1.86 1.19-2.28 1.19-1.17 0-1.38 1.31-0.5 3.05 1.19 2.34 5.72 3.77 8.15 2.57 2.45-1.22 4.64-1.18 4.16 0.07-0.3 0.78-0.11 0.87 1.06 0.52 0.78-0.24 1.24-0.24 1.01 0s-1.92 0.5-3.77 0.58c-4.46 0.2-6.51 1.9-4.7 3.9 2.99 3.28 9.34 4.16 10.03 1.38 0.5-1.98 2.46-4.1 2.99-3.24 0.22 0.35 0.23 0.9 0.03 1.23-0.21 0.32 0.08 0.59 0.62 0.59 0.67 0 0.87 0.31 0.62 0.95-0.26 0.68-0.11 0.85 0.53 0.61 0.52-0.2 0.9-0.02 0.9 0.43 0 1.23-0.64 1.53-1.77 0.83-0.82-0.51-1.42-0.38-2.77 0.57-0.94 0.67-2.38 1.31-3.19 1.43-2.52 0.36 1.38 3.83 4.9 4.35 3.44 0.51 4.79 0.08 7.65-2.5 1.53-1.37 2.32-1.78 2.32-1.19 0 0.49-1.05 1.82-2.32 2.97-3.4 3.05-0.4 4.8 4.18 2.44 2.08-1.07 2.78-0.81 1.43 0.53-2.94 2.92 0.04 4.63 4.27 2.43 4.45-2.32 5.83-4.26 2.78-3.9-2.15 0.24-4.99-0.81-4.99-1.85 0-0.34 1.12-0.4 2.82-0.15 3.57 0.53 4.78 0.53 6.93-0.01 1.72-0.43 1.73-0.42 0.74 0.97-0.54 0.77-0.98 2.24-0.98 3.26s-0.54 2.54-1.19 3.36c-0.66 0.83-1.19 1.93-1.19 2.45s-0.56 1.49-1.24 2.17-1.08 1.63-0.89 2.12c0.2 0.52-0.34 1.62-1.29 2.62-1.98 2.08-2.91 2.26-1.61 0.3 0.57-0.88 0.71-1.57 0.35-1.79-0.33-0.2 0.33-1.25 1.45-2.33 2.39-2.31 2.52-2.74 0.7-2.32-1.26 0.3-1.25 0.23 0.3-1.26 1.88-1.81 2.09-2.44 0.59-1.79-0.57 0.26-2.5 0.62-4.3 0.81-2.53 0.26-3.31 0.59-3.47 1.42-0.36 1.91 0.49 3.98 1.85 4.5 1.3 0.5 1.29 0.52-0.33 1.15-2.09 0.82-2.59 2.11-1.57 4.01 0.7 1.31 0.67 1.56-0.22 2.06-1.12 0.62-1.44 4.32-0.43 4.94s0.66 1.48-0.59 1.48c-0.95 0-1.19 0.4-1.19 1.94 0 5.7-9.11 13.71-15.6 13.73-3.14 0-4.03 1.02-1.31 1.49 1.36 0.23 1.81 0.67 2.04 2.02 0.34 1.92 1.63 2.71 2.09 1.27 0.16-0.51 0.44-1.38 0.61-1.92 0.24-0.75 0.48-0.82 1.01-0.29 0.98 0.96 1.68 0.85 1.27-0.2-0.27-0.7 0.16-0.89 2.01-0.89 2.2 0 2.42-0.16 3.42-2.51 1.07-2.52 1.07-2.52 1.65 0.53 0.46 2.41 0.39 3.42-0.32 4.83-1.13 2.26-0.27 3.43 1.57 2.15 0.68-0.47 2.13-0.86 3.23-0.86zm0.33-15.08c0.31-4.43 0.78-6.21 1.63-6.21 1 0 0.53 5.19-0.7 7.77s-1.23 2.58-0.93-1.56zm3.95-6.54c0.02-0.82 1.07-2.34 1.4-2.02 0.15 0.16-0.1 0.8-0.56 1.43-0.47 0.63-0.84 0.9-0.84 0.59zm-0.6-3.69c0-0.67 3.66-5.55 3.95-5.26 0.24 0.24-0.68 2.11-2.18 4.4-0.86 1.33-1.77 1.76-1.77 0.86zm-4.75-24.3c-1.01-0.28-1.25-0.55-0.74-0.87 0.89-0.54 3.11 0.06 3.11 0.84 0 0.62-0.23 0.62-2.37 0.03zm-4.87-3.43c0.43-0.17 0.94-0.15 1.14 0.05 0.19 0.2-0.16 0.34-0.78 0.31-0.7-0.03-0.84-0.17-0.36-0.36zm-2.27-0.78c0-0.32 0.27-0.59 0.6-0.59 0.32 0 0.59 0.27 0.59 0.59 0 0.33-0.27 0.6-0.59 0.6-0.33 0-0.6-0.27-0.6-0.6zm15.29 0.24c-0.21-0.22-0.1-0.92 0.24-1.56 0.47-0.86 0.81-0.99 1.29-0.51 0.49 0.49 0.43 0.9-0.23 1.56-0.5 0.49-1.08 0.72-1.3 0.51zm-6.37-3.19c0-0.33 0.53-0.59 1.19-0.59 0.65 0 1.19 0.26 1.19 0.59 0 0.32-0.54 0.59-1.19 0.59-0.66 0-1.19-0.27-1.19-0.59zm3.56 0.36c0-0.13 0.41-0.39 0.9-0.58 0.49-0.18 0.89-0.08 0.89 0.24 0 0.31-0.4 0.57-0.89 0.57s-0.9-0.11-0.9-0.23zm-7.72-1.19c0-0.12 0.41-0.39 0.92-0.58 0.53-0.2 0.77-0.1 0.56 0.23-0.35 0.56-1.48 0.83-1.48 0.35zm-12.49-1.28c0-0.77 1.28-2.62 1.81-2.62 0.84 0 0.69 1.14-0.28 2.11-0.88 0.87-1.53 1.09-1.53 0.51zm5.64-5.56c0.21-0.33 1-0.61 1.77-0.61 0.76 0 1.54-0.4 1.72-0.89 0.41-1.05 2.97-1.22 2.62-0.18-0.13 0.39-0.88 0.88-1.68 1.09-4.25 1.11-4.8 1.19-4.43 0.59zm-9.8-1.09c0-0.32 0.43-0.74 0.94-0.94 0.58-0.22 0.85-0.09 0.71 0.35-0.3 0.88-1.65 1.37-1.65 0.59zm-1.64-3.1c0.66-1.08 0.53-1.42-1.08-2.86-1.29-1.15-1.71-1.96-1.44-2.73 0.34-0.96 0.69-0.79 2.87 1.38 2.75 2.73 2.97 3.44 1.44 4.6-1.7 1.28-2.69 1.07-1.79-0.39zm12.64 0.02c-1.16-0.5-1.15-0.52 0.15-0.91 0.77-0.23 1.34-0.87 1.34-1.51 0-0.62 0.4-1.12 0.89-1.12 0.98 0 1.2 0.92 0.35 1.45-0.3 0.18-0.4 0.86-0.23 1.51 0.34 1.28-0.46 1.47-2.5 0.58zm-6.24-1.69c0-0.33 0.26-0.76 0.59-0.96s0.6-0.1 0.6 0.22c0 0.33-0.27 0.76-0.6 0.96s-0.59 0.1-0.59-0.22zm3.56-2.22c0-1.1 0.32-1.4 1.49-1.4 0.82 0 1.48-0.33 1.47-0.74-0.03-1.04-1.47-2.81-2.28-2.81-0.37 0-0.68-0.4-0.68-0.89s0.53-0.88 1.19-0.88 1.19 0.37 1.19 0.82 0.4 0.97 0.88 1.16c1.77 0.67 0.93 4.12-1.27 5.19-1.96 0.94-1.99 0.94-1.99-0.45zm-14.86-1.67c0-1 1.53-3.28 2.19-3.28s0.64 0.33-0.11 1.77c-0.77 1.49-2.08 2.44-2.08 1.51zm11.51-3.9c0.06-2.28 0.29-2.92 0.98-2.79 1.45 0.27 1.52 4.37 0.09 5.13-1.09 0.58-1.16 0.43-1.07-2.34zm26.09 2.59c-1.05-0.42-0.3-1.38 1.08-1.38 0.63 0 1.15 0.4 1.15 0.89 0 0.88-0.81 1.06-2.23 0.49zm5.58-1.08c0.19-0.49 0.84-0.89 1.45-0.89 0.74 0 1 0.29 0.77 0.89-0.19 0.48-0.84 0.88-1.45 0.88-0.74 0-0.99-0.29-0.77-0.88zm-44.37-0.59c0-0.49-0.4-0.89-0.89-0.89-0.55 0-0.89-0.56-0.89-1.48 0-1.82 0.15-1.83 2.06-0.07 0.96 0.89 1.39 1.76 1.15 2.36-0.46 1.21-1.43 1.26-1.43 0.08zm47.86-0.89c0.2-0.33 0.48-0.59 0.63-0.59 0.14 0 0.26 0.26 0.26 0.59 0 0.32-0.28 0.59-0.63 0.59s-0.46-0.27-0.26-0.59zm-52.37-3.26c-0.06-2.48 0-2.58 0.8-1.44 0.5 0.72 0.7 1.81 0.49 2.66-0.58 2.3-1.23 1.68-1.29-1.22zm-1.94-1.11c-0.77-1.84-0.47-2.75 0.57-1.72 0.35 0.34 0.53 1.26 0.39 2.03-0.23 1.37-0.25 1.36-0.96-0.31zm56.79-2.57c-0.15-0.25 0.1-0.8 0.55-1.22 0.68-0.62 0.83-0.6 0.83 0.12 0 1-0.97 1.78-1.38 1.1zm-49.59-4.53c1.37-1.04 1.31-1.48-0.28-2.06-1.31-0.49-1.31-0.49 0.01-1.2 1.48-0.78 2.5-0.43 2.5 0.87 0 0.48 0.58 0.86 1.33 0.87 1.07 0.02 0.87 0.26-0.99 1.18-2.66 1.32-4.13 1.51-2.57 0.34zm-4.89-0.67c0.03-1.02 3.44-4.73 3.92-4.25 0.25 0.25-0.53 1.44-1.74 2.65-1.21 1.2-2.19 1.92-2.18 1.6zm-1.35-1.75c0.75-0.54 1.22-1.2 1.05-1.46-0.39-0.63 1.37-2.1 1.89-1.58 0.6 0.59-1.88 3.6-3.16 3.82-0.96 0.16-0.93 0.05 0.22-0.78zm-20.51 89.85c0.87-2.61 0.86-2.69-0.31-2.51-1.65 0.24-2.48 1.75-2 3.63 0.58 2.29 1.3 1.94 2.31-1.12zm-32.85-0.6c0-2.17-2.64-4.85-3.98-4.04-1.65 1.01-1.38 2.87 0.41 2.89 1.25 0.01 1.52 0.32 1.68 1.97 0.22 2.32 1.89 1.59 1.89-0.82zm108.19-1.18c0-2.17-2.64-4.85-3.97-4.04-1.65 1.01-1.39 2.87 0.41 2.88 1.24 0.01 1.51 0.33 1.67 1.98 0.23 2.31 1.89 1.59 1.89-0.82zm-92.83-2.36c0.48-0.41-1.17-2.51-2.19-2.78-1.22-0.32-3.06 2.63-3.06 4.91 0 1.06 2.81-0.08 5.25-2.13zm17.82 0.33c2 0 2 0 0.46-1.82-3.24-3.84 0.17-9.03 4.19-6.38 1.26 0.83 3.37 1.85 4.68 2.27 1.3 0.42 3.09 1.12 3.97 1.57 1.6 0.8 1.6 0.8 1.27-1.17-0.26-1.64-0.05-2.19 1.25-3.2 1.71-1.34 1.11-2.37-0.8-1.35-2.36 1.26-8.96 0.05-8.96-1.65 0-0.82 1.4-1.87 2.48-1.87 0.61 0 1.58-0.95 2.29-2.22 0.67-1.22 2.9-3.68 4.96-5.47 2.05-1.79 4.47-4.39 5.37-5.77 0.91-1.38 1.83-2.51 2.05-2.51 0.56 0 2.72-4.08 2.36-4.44-0.54-0.54-4.07 0.99-3.69 1.6 0.4 0.64-0.61 2.89-2.28 5.14-1.49 1.98-1.5-0.23-0.02-2.32 0.57-0.8 1.04-2.12 1.04-2.92 0-1.94 2.12-2.95 6.24-2.98 4.23-0.02 5.54-0.39 6.46-1.86 0.73-1.17 0.66-1.19-3-0.8-3.31 0.36-3.95 0.25-5.39-0.87-1.63-1.28-1.63-1.28-1.63 0.2 0 2.01-0.7 2.3-3.06 1.3-2-0.85-2-0.85 0.08-1.59 2.08-0.75 2.08-0.75-0.22-1.23-1.44-0.3-2.59-0.25-3.05 0.13-0.46 0.37-1.27 0.41-2.15 0.08-1.58-0.58-1.25-0.69 4.71-1.59 1.56-0.24 2.46-0.65 2.3-1.07-0.26-0.71-0.54-0.72-2.48-0.08-1.01 0.34-0.98 0.23 0.23-0.75 2.49-2.03 1.15-2.63-1.69-0.75-2.96 1.94-4.29 1.77-1.54-0.2 4.68-3.37 6.01-6.14 2.85-5.95-2.76 0.17-2.88 0.28-1.1 1.03 1.72 0.74 1.72 0.74-0.89 1.88-1.44 0.62-3.47 1.77-4.52 2.54-1.46 1.07-2.14 1.26-2.97 0.8-0.94-0.53-0.78-0.73 1.31-1.69 5.1-2.34 5.27-2.5 4.14-3.75-0.97-1.06-0.94-1.14 0.69-1.79 4.33-1.71 5.05-2.7 3.56-4.96-0.99-1.5-1.11-1.54-2.34-0.64-1.88 1.38-4.56 2.48-6.94 2.86-2 0.32-1.98 0.29 0.59-0.81 4.71-2.03 6.72-3.18 7.36-4.21 1.05-1.69 0.01-1.81-1.73-0.21-0.91 0.84-2.33 1.5-3.19 1.49-1.55-0.03-1.55-0.03 0.24-0.96 2.49-1.32 3.89-2.63 3.49-3.28-0.19-0.31-0.77-0.17-1.32 0.31-0.54 0.47-1.65 1.04-2.47 1.27-1.43 0.4-1.42 0.36 0.3-1.06 0.98-0.81 1.61-1.65 1.4-1.86s-1.12 0.3-2.02 1.13-2.07 1.51-2.59 1.5c-0.62-0.01-0.38-0.37 0.68-1.03 0.9-0.55 1.63-1.34 1.63-1.75 0-0.93-1.56-1-2.11-0.1-0.67 1.07-4.52 2.45-5.13 1.83-0.35-0.34 0.2-0.72 1.41-1.01 1.97-0.46 1.97-0.46-0.11-0.84-2.6-0.46-0.69-1.19 3.27-1.24 2.38-0.03 2.38-0.03 0.3-1.17-4.5-2.45-10.92 0.42-8.99 4.01 0.69 1.28 7.21 3.28 8.76 2.69 0.73-0.29 0.88-0.18 0.54 0.37-0.47 0.76-5.93 0.57-8.19-0.29-2.88-1.1-1.38 4.36 1.65 5.98 2.59 1.39 11.64 0.28 13.81-1.69 1.08-0.99 1.33-1.05 1.33-0.3 0 2.26-4.3 3.51-12.6 3.66-5.11 0.09-5.24 4.02-0.19 5.67 1.16 0.38 1.94 0.96 1.74 1.28-0.51 0.82 2.11 3.46 3.43 3.46 1.19 0 1.49 0.95 0.41 1.31-1.5 0.5 1.12 3.78 3.61 4.52 1.33 0.4 2.42 1 2.42 1.33s-0.5 0.45-1.11 0.26c-1.51-0.48-2.9 1.21-2.08 2.51 0.49 0.77 0.24 1.22-1.22 2.21-1.62 1.1-1.82 1.56-1.72 3.79 0.11 2.39 0.06 2.48-0.94 1.58-2.12-1.91-5.38 0.21-3.59 2.35 0.87 1.05 0.21 1.92-0.74 0.98-0.65-0.65-9.95 6.53-12.49 9.66-1.86 2.28-8.25 5.25-11.34 5.26-3.14 0.02-4.02 1.03-1.31 1.5 1.37 0.24 1.81 0.68 2.05 2.02 0.34 1.93 1.63 2.72 2.09 1.28 0.16-0.52 0.44-1.38 0.61-1.92 0.24-0.75 0.48-0.82 1.01-0.3 0.97 0.97 1.67 0.86 1.27-0.2-0.27-0.69 0.16-0.88 2.01-0.88 2.2 0 2.41-0.16 3.42-2.52 1.07-2.51 1.07-2.51 1.65 0.54 0.46 2.4 0.39 3.41-0.32 4.83-1.13 2.26-0.28 3.43 1.57 2.15 0.67-0.48 2.13-0.86 3.23-0.86zm7.35-56.17c0.87-0.26 1.94-0.66 2.37-0.88 0.44-0.22 0.27 0.01-0.36 0.53-0.63 0.51-1.7 0.9-2.38 0.88-0.98-0.04-0.91-0.15 0.37-0.53zm0.38-4.56c0.43-0.17 0.94-0.15 1.14 0.05 0.19 0.2-0.16 0.33-0.78 0.31-0.7-0.03-0.84-0.17-0.36-0.36zm-72.44 58.3c2.05-1.25 2.05-1.25-0.21-2.02-1.24-0.43-2.83-1.29-3.54-1.92-4.228-3.79-6.458-3.76-6.57 0.1-0.06 2.08-0.06 2.08 3.21 2.25 2.73 0.14 3.37 0.39 3.86 1.5 0.71 1.63 0.7 1.63 3.25 0.09zm86.22-1.46c0-2.17-2.64-4.85-3.97-4.03-1.66 1-1.39 2.87 0.41 2.88 1.24 0.01 1.51 0.33 1.67 1.97 0.22 2.32 1.89 1.6 1.89-0.82zm21.97 0.27c2.05-1.24 2.05-1.24-0.21-2.01-1.24-0.43-2.83-1.29-3.53-1.92-4.23-3.79-6.46-3.76-6.58 0.1-0.06 2.08-0.06 2.08 3.21 2.25 2.74 0.14 3.37 0.39 3.86 1.5 0.72 1.62 0.71 1.62 3.25 0.08zm-121.62-1.51c2.338-0.38 2.636-0.84 1.277-1.96-0.933-0.77-5.662 2.3-5.662 3.68 0 0.35 0.502 0.18 1.115-0.37 0.614-0.55 2.085-1.16 3.27-1.35zm108.2-1.18c2.34-0.38 2.63-0.84 1.27-1.96-0.93-0.77-5.66 2.3-5.66 3.68 0 0.35 0.51 0.18 1.12-0.37 0.61-0.56 2.08-1.16 3.27-1.35zm-40.08-3.22c2.05-1.25 2.05-1.25-0.21-2.02-1.24-0.42-2.83-1.29-3.54-1.92-4.23-3.79-6.46-3.75-6.57 0.11-0.06 2.07-0.06 2.07 3.21 2.24 2.73 0.15 3.37 0.4 3.86 1.51 0.71 1.62 0.71 1.62 3.25 0.08zm-13.42-2.7c2.33-0.38 2.63-0.83 1.27-1.95-0.93-0.77-5.66 2.3-5.66 3.67 0 0.35 0.5 0.19 1.12-0.37 0.61-0.55 2.08-1.16 3.27-1.35zm-82.083-21.27c0.209-0.21-0.482-0.81-1.536-1.33-1.702-0.85-1.936-1.26-2.097-3.76-0.18-2.79-0.746-3.33-2.391-2.29-1.408 0.88 0.212 5.24 2.454 6.6 1.99 1.21 2.933 1.41 3.57 0.78zm12.572-7.58c-0.803-0.8-1.459-2.13-1.459-2.95 0-1.12-0.312-1.51-1.189-1.51-2.1 0-1.202 3.74 1.219 5.07 2.311 1.27 3.018 0.97 1.429-0.61zm-12.994-2.37c-0.215-0.85-0.963-1.76-1.663-2.02-0.9-0.33-1.057-0.6-0.537-0.92 0.404-0.25 0.903-0.28 1.109-0.08 0.365 0.36 1.248-2.42 2.561-8.09 0.781-3.36 2.336-3.9 2.336-0.8 0 1.1 0.403 2.76 0.896 3.69 0.595 1.13 0.778 2.5 0.544 4.09-0.45 3.08 0.943 4.68 2.021 2.33 0.557-1.21 1.095-1.47 3.066-1.47 2.004 0 2.39-0.2 2.39-1.2 0-1.34-3.074-2.93-3.456-1.79-0.577 1.72-1.299-0.48-1.299-3.95 0-2.88-0.275-4.22-1.041-5.09-1-1.14-0.994-1.17 0.149-0.74 0.654 0.24 1.323 0.46 1.486 0.5 0.251 0.05 2.282-0.48 6.482-1.71 0.656-0.2 0.605-0.41-0.236-1.03-0.79-0.57-0.965-1.19-0.668-2.37 0.677-2.68-0.206-2.89-2.721-0.63-2.039 1.84-2.67 2.1-4.26 1.77-1.027-0.21-2.453-0.4-3.169-0.42-1.21-0.03-1.158-0.18 0.726-2.11 2.03-2.08 2.03-2.08 2.195-10.07 0.141-6.81 0.317-8.09 1.189-8.64 1.464-0.92 2.755 0.38 1.672 1.67-0.419 0.51-0.51 0.92-0.203 0.92s1.195 1.53 1.974 3.4c0.897 2.15 2.771 4.83 5.11 7.31 2.031 2.15 4.248 4.99 4.926 6.32 1.497 2.91 2.295 3.48 3.222 2.28 0.588-0.76 0.822-0.78 1.42-0.11 0.566 0.63 0.527 0.87-0.185 1.14-1.405 0.54 0.567 3.43 4.968 7.29 3.238 2.84 3.715 3.53 3.715 5.35 0 3.05 2.106 1.04 2.646-2.52 0.41-2.76-4.417-9.24-5.261-7.05-0.176 0.46-0.588 0.83-0.915 0.83-0.326 0-0.44-0.4-0.252-0.88 0.545-1.42-0.271-3.01-1.112-2.17-0.382 0.38-1.242 0.68-1.913 0.67-1.139-0.02-1.151-0.07-0.178-0.81 1.785-1.34 0.125-3.77-4.013-5.85-3.084-1.55-4.595-3.64-4.717-6.51-0.061-1.43-0.694-3.58-1.412-4.79-1.434-2.42-1.836-8.46-0.643-9.64 0.481-0.48 0.308-0.85-0.646-1.35-0.717-0.39-1.356-0.61-1.421-0.5-0.064 0.11-0.507 0.96-0.984 1.9-0.868 1.71-0.868 1.71-1.305-0.84-0.51-2.97-3.004-5.89-5.034-5.89-3.259 0-4.154 2.82-6.751 21.29-0.664 4.71-1.359 9.07-1.546 9.68-0.22 0.72-0.109 0.97 0.319 0.71 0.887-0.55 0.842 1.02-0.055 1.91-0.891 0.88-3.14 0.91-4.745 0.06-1.986-1.06-3.302 0.62-2.018 2.57 0.531 0.8 0.796 1.9 0.59 2.43-0.55 1.42-0.062 1.21 2.469-1.1 2.938-2.68 3.14-2.62 2.599 0.74-0.67 4.16-2.748 9.23-4.43 10.8-2.293 2.14-1.941 2.99 1.07 2.58 1.95-0.27 2.741-0.12 3.363 0.63 1.105 1.32 2.076 0.26 1.576-1.72zm34.801-9.38c-0.491-0.59-0.46-0.79 0.126-0.79 0.43 0 0.783 0.35 0.783 0.79 0 0.43-0.057 0.79-0.126 0.79s-0.421-0.36-0.783-0.79zm-18.98-22.68c-0.748-1.16-1.193-2.28-0.989-2.48 0.498-0.5 3.242 2.72 3.242 3.8 0 1.41-0.81 0.93-2.253-1.32zm-0.673-4.08c0.029-0.69 0.17-0.83 0.359-0.36 0.172 0.43 0.151 0.94-0.046 1.13-0.198 0.2-0.339-0.15-0.313-0.77zm-1.83-0.67c-2.705-0.8-2.725-0.81-1.631-1.43 0.839-0.46 0.917-0.81 0.398-1.78-0.701-1.3-0.405-2.04 0.577-1.43 0.542 0.33 2.017 4.54 1.68 4.8-0.073 0.05-0.534-0.02-1.024-0.16zm-22.538 25.64c1.14-0.79 1.214-1.06 0.526-1.88-1.082-1.3-2.941 0.99-2.905 3.57 0.022 1.59 0.078 1.64 0.539 0.51 0.282-0.7 1.11-1.69 1.84-2.2zm52.215-1.25c2.41-1.23 2.57-2.25 0.92-5.77-0.8-1.72-1.47-3.52-1.49-4.01-0.01-0.49-0.4-0.19-0.89 0.7-0.83 1.53-5.684 5.22-6.859 5.22-0.968 0 1.298 2.95 2.949 3.84 2 1.09 3.3 1.09 5.37 0.02zm-4.41-0.91c0.2-0.32 0.48-0.59 0.63-0.59 0.14 0 0.26 0.27 0.26 0.59 0 0.33-0.28 0.6-0.63 0.6s-0.46-0.27-0.26-0.6zm2.08-0.27c0-0.14 0.67-1.25 1.48-2.44 1.49-2.18 1.49-2.18 1.49-0.35 0 1.21-0.39 2.05-1.15 2.45-1.24 0.66-1.82 0.77-1.82 0.34zm-1.52-2.94c0.63-0.51 1.69-0.93 2.35-0.93 1.67 0 0.49 1.01-1.72 1.48-1.7 0.36-1.73 0.33-0.63-0.55zm-19.539-2.42c-1.372-2.08-3.233-2.96-3.701-1.74-0.242 0.62 0.424 1.76 1.94 3.31 2.547 2.61 3.783 1.5 1.761-1.57zm17.449 0.04c3.67-2.3 4.96-4.72 3.63-6.81-0.47-0.74-0.83-0.63-2.23 0.71-1.8 1.72-5.946 3.41-8.342 3.41-1.804 0-1.002 1.27 1.931 3.06 2.256 1.37 2.246 1.37 5.011-0.37zm-25.859-4.16c1.93-2.41 2.577-2.52 4.748-0.82 2.714 2.12 2.225 0.94-1.187-2.87-1.795-2.01-3.907-5.06-4.694-6.78-1.432-3.14-1.432-3.14-1.467 3.45-0.026 5.09-0.235 6.74-0.926 7.31-1.29 1.07-1.095 1.78 0.488 1.78 0.864 0 1.999-0.78 3.038-2.07zm23.326-0.85c5.353-2.42 3.743-8.88-2.023-8.1-1.486 0.21-4.532 0.37-6.769 0.37-3.879 0-4.085 0.07-4.453 1.53-1.217 4.83 7.379 8.85 13.245 6.2zm-5.593-1.79c-0.883-1.4-0.272-2 0.879-0.86 0.792 0.79 1.112 0.64 2.877-1.33 1.092-1.22 2.151-2.06 2.352-1.86 0.343 0.35-3.142 3.84-4.71 4.73-0.4 0.22-1.02-0.08-1.398-0.68zm3.524 0.53c0.33-0.99 2.861-2.65 2.861-1.88 0 0.33-0.7 1.05-1.556 1.61-1.012 0.66-1.468 0.75-1.305 0.27zm91.252 1.11c-0.19-0.47-0.33-0.33-0.36 0.36-0.03 0.62 0.11 0.97 0.31 0.77 0.2-0.19 0.22-0.7 0.05-1.13zm-2.16-1.11c1.72-1.7 1.36-4.61-0.71-5.83-0.87-0.52-2.43-1.57-3.47-2.34-1.9-1.41-1.9-1.41-1.51 1.77 0.29 2.36 0.16 3.49-0.49 4.35-1.81 2.43 3.89 4.33 6.18 2.05zm-94.554-8.36c-5.609-0.95-5.945-1.07-5.945-1.96 0-0.49 0.268-0.88 0.595-0.88s0.594 0.25 0.594 0.56c0 0.66 3.521 0.51 4.659-0.2 0.447-0.28 1.046-0.24 1.368 0.08 0.934 0.93 3.485 0.15 3.485-1.07 0-0.59-0.268-1.24-0.595-1.44s-0.594-0.75-0.594-1.22c0-1.57 1.018-0.87 1.99 1.37 0.963 2.22 0.963 2.22 0.627-0.11-0.591-4.11-2.258-5.47-7.076-5.79-2.289-0.15-4.569-0.45-5.066-0.67-1.254-0.56-2.959 2.46-2.959 5.24 0 4.74 2.633 6.71 8.917 6.67 3.269-0.03 3.269-0.03 0-0.58zm94.844-10.57c3.82-3.87 10.28-7.1 15.28-7.63 4.06-0.44 1.62-2.13-7.58-5.24-1.96-0.66-5.44-1.91-7.73-2.77-2.28-0.86-5.63-1.81-7.43-2.12-1.79-0.3-5.81-0.97-8.91-1.49-7.05-1.16-7.73-1.35-7.73-2.07 0-0.68 3.93-0.25 9.11 1.01 1.91 0.46 4.24 0.84 5.19 0.84 3.53 0 23.73 7.26 32.16 11.56 2.83 1.45 5.51 2.62 5.95 2.61 2.12-0.07-4.1-3.82-11.33-6.83-8.39-3.5-12.59-5.27-14.63-6.15-0.65-0.28-3.66-1.25-6.69-2.16-4.72-1.41-8.02-3.32-4.16-2.4 5.1 1.21 13.79 4.27 20.36 7.17 4.25 1.87 8.13 3.56 8.62 3.76s0.15-0.52-0.76-1.6c-6.03-7.15-4.79-19.36 2.74-26.85 3.65-3.64-27.57 0.56-40.62 5.46-3.23 1.21-0.87 1.39 3.2 0.24 0.67-0.19 0.96-0.08 0.74 0.29-0.21 0.34-2.19 0.8-4.39 1.03-5.74 0.6-9.87 2.78-6.09 3.22 2.65 0.3 2.61 0.32-3.27 1.78-5.94 1.47-5.94 1.47-2.67 1.66 1.79 0.1 4.34-0.09 5.64-0.42 4.12-1.05 8.63-1.42 8.63-0.71 0 0.4-1.35 0.65-3.44 0.65-2.25 0-4.24 0.4-5.74 1.16-1.85 0.94-2.98 1.1-5.82 0.8-3.51-0.36-3.51-0.36-3.32 1.94 0.21 2.57-0.19 2.47 6.67 1.65 4.1-0.49 4.29 0.55 0.22 1.21-2.54 0.42-2.54 0.42-0.91 1.28 0.9 0.48 1.64 1.12 1.64 1.44 0 0.31 0.73 0.59 1.63 0.61 2.64 0.07 4.5 1.05 2.08 1.1-2.53 0.06-2.46 0.28 0.98 3.36 3.01 2.69 13.1 13.88 16.73 18.55 2.06 2.64 2.06 2.64 2.38-0.16 0.28-2.35 0.8-3.27 3.27-5.78zm-8.94-15.93c1.63-0.69 2.57-0.69 1.48 0-0.49 0.32-1.29 0.56-1.78 0.55-0.59-0.03-0.49-0.21 0.3-0.55zm-6.84-1.18c0.49-0.31 1.7-0.55 2.68-0.52 1.74 0.05 1.75 0.06 0.29 0.52-2.27 0.73-4.1 0.73-2.97 0zm0.57-6.83c-0.42-0.5-1.32-0.87-2-0.82-2.19 0.17-8.88-0.03-8.63-0.25 0.14-0.12 3.73-0.38 7.98-0.57 6.59-0.3 7.43-0.24 5.73 0.39-2.01 0.74-2.01 0.74-0.6 1.42 1.41 0.67 1.41 0.67-0.15 0.71-0.86 0.02-1.91-0.37-2.33-0.88zm-4.88-6.57c0.41-0.16 1.08-0.16 1.49 0s0.07 0.3-0.75 0.3c-0.81 0-1.15-0.14-0.74-0.3zm14.7-7.27c0.19-0.31 0.74-0.42 1.22-0.23 1.23 0.47 1.09 0.79-0.35 0.79-0.67 0-1.07-0.25-0.87-0.56zm4.47-0.62c0-0.32 0.6-0.59 1.34-0.58 1.08 0.01 1.17 0.12 0.45 0.58-1.16 0.74-1.79 0.74-1.79 0zm5-0.43c0.21-0.22 1.86-0.56 3.64-0.75 1.79-0.2 3.05-0.18 2.81 0.04-0.59 0.52-6.97 1.22-6.45 0.71zm8.36-0.14c0.21-0.33 1.08-0.61 1.94-0.61 1.86 0 1.64 0.28-0.63 0.83-1.11 0.26-1.56 0.19-1.31-0.22zm4.48-0.61c1.17-0.75 2.55-0.75 2.08 0-0.2 0.32-0.96 0.59-1.67 0.58-1.06-0.01-1.14-0.11-0.41-0.58zm-26.45 42.15c-5.38-7.27-20.51-20.89-22.08-19.87-1.77 1.15-1.34 1.66 5.79 6.9 4.78 3.52 15.21 12.74 16.32 14.43 0.52 0.79 1.1 1.29 1.28 1.11 0.19-0.19-0.41-1.34-1.31-2.57zm-82.044-4.04c4.221-1.13 3.163-9.02-1.355-10.1-0.89-0.21-2.354-0.75-3.253-1.2-4.561-2.29-8.646 5.92-4.71 9.47 2.062 1.85 6.186 2.66 9.318 1.83zm-7.83-2.4c-0.523-0.8-0.752-1.64-0.509-1.87 0.244-0.24 0.844 0.17 1.334 0.89 0.714 1.06 1.115 1.2 2.027 0.71 0.626-0.33 1.381-0.45 1.679-0.27s0.717 0.05 0.932-0.3c0.275-0.44 0.63-0.43 1.189 0.03 1.14 0.94 2.464-1.48 1.465-2.68-0.378-0.46-0.49-1.14-0.248-1.53 0.54-0.87 2.041 0.95 2.041 2.47 0 3.66-7.852 5.67-9.91 2.55zm39.284-2.95c0.52-0.2 0.76-0.64 0.55-0.98-0.23-0.38-0.1-0.44 0.35-0.17 0.44 0.27 1.37-0.15 2.32-1.06 2.17-2.06 8.33-4.78 10.51-4.64 0.98 0.06 1.51-0.08 1.18-0.33-0.32-0.25-0.65-1.11-0.73-1.93-0.64-7.04-0.89-7.92-1.78-6.23-1.05 1.99-1.65 1.62-0.71-0.44 0.56-1.21 0.51-1.75-0.25-2.84-0.76-1.08-1.01-1.16-1.29-0.44-0.19 0.49-0.73 0.89-1.21 0.89-0.73 0-0.72-0.16 0.07-1.03 0.86-0.95 0.85-1.09-0.15-1.66-0.97-0.56-0.92-0.63 0.42-0.65 0.83-0.01 2.07 0.38 2.76 0.86 1.2 0.84 1.28 0.78 1.67-1.29 1.21-6.44 13.78-21.089 25.77-30.041 1.75-1.301 4.15-3.187 5.35-4.191 1.2-1.003 3.04-2.314 4.08-2.912 1.89-1.086 1.89-1.086 0.14-3.188-3.08-3.721-1.23-11.332 4.07-16.765 2.94-3.013 1.81-2.811-1.64 0.296-1.54 1.382-5.05 4.415-7.79 6.739-18.82 15.923-18.59 15.707-29.85 28.549-4.16 4.743-7.55 7.763-6.1 5.443 0.23-0.37-0.02-0.84-0.56-1.05-3.84-1.461-3.41 11.51 0.45 13.47 2.71 1.38 2.14 2.79-1.68 4.16-1.61 0.58-2.16 1.27-3.16 4.02-0.7 1.88-2.12 4.17-3.3 5.32-2.08 2-2.08 2 0.28 3.06 3.12 1.39 2.98 2.47-0.52 3.97-5.36 2.3-4.65 7.12 0.75 5.06zm-2.33-2.01c-0.2-0.32-0.08-0.59 0.27-0.59 0.34 0 0.63 0.27 0.63 0.59 0 0.33-0.12 0.59-0.27 0.59-0.14 0-0.42-0.26-0.63-0.59zm1.49 0.05c0-0.6 2.31-2.09 2.67-1.72 0.1 0.1-0.46 0.67-1.24 1.26-0.79 0.58-1.43 0.79-1.43 0.46zm3.57-3.01c-0.9-0.57-0.08-0.84 2.27-0.74 0.43 0.02 0.64-0.33 0.46-0.8-0.18-0.46-0.02-1.56 0.35-2.45s0.63-1.84 0.57-2.11c-0.07-0.27 0.12-0.34 0.41-0.16 0.3 0.18 1.01-0.2 1.59-0.83 0.57-0.64 1.31-1 1.63-0.8s-0.56 1.39-1.95 2.66c-1.4 1.26-2.36 2.48-2.14 2.69 0.21 0.21 0.77-0.12 1.24-0.75 0.81-1.08 0.84-1.06 0.51 0.34-0.35 1.48-0.35 1.48 1.07 0.01 0.78-0.81 1.36-1.65 1.29-1.86-0.07-0.22 0.4-0.26 1.04-0.09 1.33 0.34 1.53-0.4 0.43-1.58-0.6-0.64-0.6-0.71 0-0.38 0.42 0.24 0.76 0.09 0.78-0.36 0.02-0.42 0.33-0.17 0.69 0.57 0.35 0.73 0.54 1.4 0.4 1.48-0.13 0.08-1.31 0.97-2.62 1.97-4.34 3.34-6.48 4.19-8.02 3.19zm0.12-3.07c-1.25-1.24-0.81-2.03 3.17-5.73 3.47-3.23 6.36-5.03 4.51-2.82-0.36 0.44-0.48 0.97-0.27 1.18 0.22 0.22-0.07 0.39-0.64 0.39-1.4 0-4.71 3.35-4.16 4.23 0.23 0.37 0.17 0.53-0.14 0.34-1.19-0.73-2.16 0.53-1.44 1.86 0.73 1.37 0.12 1.69-1.03 0.55zm-2.05-2.59c-0.44-0.44 1.92-3.92 4.28-6.32 1.81-1.84 2.55-3.56 0.97-2.25-0.49 0.41-0.98 0.46-1.18 0.14-0.19-0.31 0.19-0.69 0.84-0.86 1.56-0.41 2 0.43 1.08 2.08-0.41 0.74-0.68 1.56-0.61 1.83 0.08 0.27-0.1 0.34-0.4 0.15-0.66-0.4-2.01 1.09-1.46 1.63 0.21 0.22 0.08 0.39-0.3 0.39-0.39 0-0.7 0.36-0.7 0.8 0 0.96-2.03 2.9-2.52 2.41zm10.25-12.8c0-1.14 1.56-2.49 2.01-1.75 0.19 0.3-0.19 1.02-0.83 1.6-0.99 0.89-1.18 0.91-1.18 0.15zm0.03-2.44c-0.04-0.61 2.72-3.95 3.03-3.67 0.11 0.11 2.22-2.18 4.67-5.09 6.42-7.613 19.65-19.588 20.59-18.65 0.13 0.132-0.77 0.926-2 1.765-2.82 1.923-15.05 13.805-21.43 20.825-2.66 2.93-4.85 5.09-4.86 4.82zm-0.89-2.2c1-1.12 2.6-3.21 3.57-4.65 1.96-2.94 18.33-19.644 20.18-20.602 0.66-0.339-2.69 3.289-7.43 8.063s-9.92 10.409-11.5 12.509c-1.58 2.11-3.72 4.48-4.75 5.27-1.88 1.43-1.88 1.43-0.07-0.59zm-2.99-0.52c-0.5-0.82 3.33-5.96 4.1-5.49 0.3 0.18 0.37-0.12 0.16-0.68-0.22-0.56-0.16-0.87 0.14-0.69 0.29 0.18 3.75-2.93 7.67-6.919 5.97-6.051 14.37-13.086 14.37-12.027 0 0.157-2.34 2.228-5.2 4.602s-6.94 6.172-9.07 8.441c-2.12 2.273-4.93 5.193-6.24 6.503s-3.08 3.41-3.94 4.66c-0.98 1.41-1.73 2.02-1.99 1.6zm-1.36-5.66c0.25-0.26 0.13-0.9-0.26-1.41-0.58-0.77-0.57-0.82 0.06-0.26 0.6 0.52 1.24 0.41 2.76-0.48 2.1-1.23 3.24-2.38 12.65-12.693 3.29-3.616 7.65-8.007 9.69-9.758 2.03-1.751 4.11-3.649 4.62-4.218 0.51-0.57 1.24-1.035 1.63-1.035s0.8-0.2 0.91-0.444c0.27-0.597 5.08-4.287 5.59-4.287 0.78 0-1.19 1.891-3.87 3.723-5.01 3.418-14.66 12.69-22.47 21.588-4.81 5.474-6.16 6.754-8.5 8.084-2.54 1.45-3.38 1.8-2.81 1.19zm-35.093 26.92c0.557-0.98 1.325-1.78 1.708-1.78 0.517 0 0.51 0.23-0.029 0.87-0.398 0.48-0.605 1.21-0.461 1.63 0.402 1.16 2.818-3.14 2.82-5.02 0.002-1.25-0.392-1.79-1.632-2.26-0.899-0.35-2.668-1.13-3.929-1.75-2.695-1.32-3.715-0.97-6.054 2.08-3.259 4.25 2.126 8.54 5.949 4.73 1.156-1.15 2.102-1.73 2.102-1.29 0 0.45-0.661 1.43-1.468 2.18-0.808 0.75-1.327 1.6-1.154 1.88 0.547 0.88 1.106 0.55 2.148-1.27zm8.343-9.76c0.65-0.88 0.54-2.79-0.13-2.37-0.33 0.2-0.45-0.02-0.26-0.49 0.21-0.55-0.35-1.19-1.59-1.81-4.56-2.26-10.701 1.27-7.463 4.29 1.778 1.67 2.087 1.61 3.999-0.65 0.891-1.06 1.824-1.73 2.074-1.48s-0.14 1.08-0.876 1.86c-0.784 0.83-1.088 1.56-0.737 1.78 0.329 0.2 0.765 0.1 0.973-0.23 0.2-0.33 0.96-0.9 1.67-1.28 1.27-0.66 1.27-0.64 0.27 0.49-0.58 0.64-0.87 1.35-0.65 1.56 0.38 0.39 1.88-0.53 2.72-1.67zm65.25-12.9c12.57-4.26 21.43-5.7 35.19-5.72 8.2-0.01 11.5-0.64 7.95-1.53-11.05-2.76-48.26 4.05-55.82 10.21-0.92 0.75-2.02 1.37-2.44 1.37-1.15 0-3.9 2.32-3.9 3.3 0 0.59 1.92-0.11 6.39-2.34 3.51-1.75 9.2-4.13 12.63-5.29zm-8.25-4.44c4.19-2.79 8.2-4.8 7.87-3.94-0.16 0.42-0.75 0.92-1.29 1.12-3 1.08-13.68 9.53-12.95 10.25 0.16 0.16 1.82-1.05 3.68-2.7 3.26-2.89 13.21-7.8 15.81-7.79 0.55 0 1.17-0.27 1.37-0.59 0.2-0.33 0.81-0.59 1.35-0.59 1.62 0 0.11 0.86-4.62 2.64-7.02 2.65-9.72 3.85-9.39 4.17 0.16 0.16 1.5-0.24 2.98-0.89 6.77-2.98 20.44-5.28 34.78-5.86 9.05-0.36 9.05-0.36 7.01-3.317-5.01-7.253-1.8-21.841 6.88-31.287 3.18-3.462 3.35-4.114 0.55-2.133-0.91 0.648-4.16 2.345-7.22 3.773s-8.11 3.785-11.23 5.238c-6.87 3.206-16.78 9.534-21.84 13.939-4.45 3.872-4.47 4.688-0.04 1.487 3.4-2.454 6.44-3.99 6.44-3.254 0 0.249-1.67 1.451-3.72 2.67-6.75 4.032-7.83 4.721-12.51 7.961-2.56 1.768-4.54 3.323-4.41 3.443 0.38 0.38 3.55-1.379 5.43-3.003 0.95-0.823 1.94-1.496 2.21-1.496 0.26 0 1.67-0.829 3.11-1.844 1.45-1.014 2.96-1.735 3.36-1.601 0.41 0.133-1.37 1.496-3.95 3.028-11.9 7.076-19.84 13.556-19.84 16.166 0 0.17 2.21-1.7 4.9-4.17 2.69-2.46 5.13-4.48 5.4-4.48 0.28 0 1.19-0.53 2.02-1.18 0.84-0.66 1.81-1.18 2.18-1.17 0.66 0.02-0.78 1.37-4.41 4.12-5.11 3.88-11.28 9.63-11.28 10.52 0 0.62 1.57-0.54 4.31-3.21 2.37-2.3 5.55-5.01 7.06-6.02zm7.66-7.497c0.4-0.488 1-0.887 1.33-0.887s0.27 0.392-0.14 0.887c-0.41 0.488-1.01 0.887-1.34 0.887s-0.27-0.393 0.15-0.887zm2.67-1.479c0.2-0.325 0.49-0.591 0.63-0.591 0.15 0 0.26 0.266 0.26 0.591s-0.28 0.592-0.63 0.592c-0.34 0-0.46-0.267-0.26-0.592zm-85.9 11.906c0-0.89-0.61-1.19-3.042-1.51-3.774-0.5-4.081-0.24-1.59 1.35 2.498 1.59 4.632 1.66 4.632 0.16zm4.459-0.67c-1.071-2.06-1.794-2.23-2.655-0.63-1.023 1.9-0.713 2.4 1.481 2.4 2.096 0 2.096 0 1.174-1.77zm6.539 0.85c-3.926-1.09-5.105-1.08-4.674 0.04 0.256 0.66 1.261 0.87 3.994 0.83 3.652-0.05 3.652-0.05 0.68-0.87zm8.622 0.3c0-1.72-11.069-4.61-13.742-3.59-1.667 0.64-1.318 0.8 4.054 1.79 2.03 0.38 4.568 1.07 5.648 1.53 2.34 1.02 4.04 1.13 4.04 0.27zm-19.025-3.4c0-1.18-1.675-1.89-4.483-1.89-6.289 0-16.905-3.71-18.958-6.625-0.928-1.318-0.933-1.318-0.933-0.072 0 3.187 9.284 7.677 17.537 8.467 6.411 0.62 6.837 0.63 6.837 0.12zm16.075-0.97c-1.6-1.93-10.586-3.4-11.805-1.94-0.619 0.75 0.017 0.92 4.51 1.27 2.878 0.23 5.625 0.66 6.105 0.96 1.32 0.83 1.99 0.67 1.19-0.29zm-13.103-3.58c0-0.35-4.3-0.95-4.602-0.65-0.176 0.18 0.424 1.29 1.333 2.48 1.514 1.97 3.269 0.99 3.269-1.83zm49.873-6.556c1.04-1.453 1.28-2.231 0.83-2.68-1.47-1.459-5.52 2.85-5.52 5.878 0 1.735 2.27 0.186 4.69-3.198zm-13.04-10.543c3.01-3.039 3.69-4.039 3.12-4.599-0.99-0.99-0.9-4.806 0.18-7.447 0.76-1.851-0.2-1.064-6.09 4.98-4.58 4.705-8.19 7.839-10.45 9.097-2.06 1.141-3.24 2.135-2.92 2.453 0.51 0.507 8.55-4.138 12.98-7.499 1.06-0.81 2.24-1.472 2.61-1.472 0.98 0-4.07 4.082-8.38 6.763-2.06 1.28-3.4 2.44-2.99 2.577 0.42 0.137 1.34-0.281 2.05-0.928s2.23-1.644 3.38-2.214c1.14-0.571 3.05-1.8 4.24-2.731s2.4-1.692 2.68-1.69c0.9 0.005-3.97 4.12-6.23 5.267-3.35 1.703-4.65 3.324-3.28 4.086 1.27 0.709 3.28-0.756 9.1-6.643zm36.44-12.471c4.17-3.578 8.84-7.511 10.4-8.741 8.29-6.565 10.25-8.184 10.25-8.465 0-0.382-0.33-0.175-6.24 3.826-6.2 4.202-7.56 5.214-10.89 8.09-1.53 1.318-3.98 3.303-5.46 4.411-6.91 5.209-18.79 17.254-18.1 18.362 0.24 0.393 2.79-1.65 6.44-5.163 3.32-3.198 9.44-8.742 13.6-12.32z"/>
    </g>
  </g>
  <metadata>
    <rdf:RDF>
      <cc:Work>
        <dc:format>image/svg+xml</dc:format>
        <dc:type rdf:resource="http://purl.org/dc/dcmitype/StillImage"/>
        <cc:license rdf:resource="http://creativecommons.org/licenses/publicdomain/"/>
        <dc:publisher>
          <cc:Agent rdf:about="http://openclipart.org/">
            <dc:title>Openclipart</dc:title>
          </cc:Agent>
        </dc:publisher>
        <dc:title>dragon passant</dc:title>
        <dc:date>2008-07-22T19:52:21</dc:date>
        <dc:description>A Complete Guide to Heraldry by Arthur Charles Fox-Davies 1909</dc:description>
        <dc:source>http://openclipart.org/detail/18024/dragon-passant-by-szquirrel</dc:source>
        <dc:creator>
          <cc:Agent>
            <dc:title>szquirrel</dc:title>
          </cc:Agent>
        </dc:creator>
        <dc:subject>
          <rdf:Bag>
            <rdf:li>animal</rdf:li>
            <rdf:li>clip art</rdf:li>
            <rdf:li>clipart</rdf:li>
            <rdf:li>dragon</rdf:li>
            <rdf:li>externalsource</rdf:li>
            <rdf:li>heraldry</rdf:li>
            <rdf:li>image</rdf:li>
            <rdf:li>media</rdf:li>
            <rdf:li>public domain</rdf:li>
            <rdf:li>svg</rdf:li>
          </rdf:Bag>
        </dc:subject>
      </cc:Work>
      <cc:License rdf:about="http://creativecommons.org/licenses/publicdomain/">
        <cc:permits rdf:resource="http://creativecommons.org/ns#Reproduction"/>
        <cc:permits rdf:resource="http://creativecommons.org/ns#Distribution"/>
        <cc:permits rdf:resource="http://creativecommons.org/ns#DerivativeWorks"/>
      </cc:License>
    </rdf:RDF>
  </metadata>
</svg>
