<?xml version="1.0"?>
<svg xmlns:rdf="http://www.w3.org/1999/02/22-rdf-syntax-ns#" xmlns="http://www.w3.org/2000/svg" xmlns:cc="http://creativecommons.org/ns#" xmlns:xlink="http://www.w3.org/1999/xlink" xmlns:dc="http://purl.org/dc/elements/1.1/" xmlns:svg="http://www.w3.org/2000/svg" id="svg6129" viewBox="0 0 532.14 534.9" version="1.1">
  <defs id="defs6131">
    <filter id="filter5980" width="1.5188" y="-.25737" x="-.25939" height="1.5147" color-interpolation-filters="sRGB">
      <feGaussianBlur id="feGaussianBlur5982" stdDeviation="43.660715"/>
    </filter>
    <linearGradient id="linearGradient6068" y2="18.076" xlink:href="#linearGradient5878" gradientUnits="userSpaceOnUse" x2="-1176.4" gradientTransform="matrix(.79138 0 0 .72297 1209 -648.63)" y1="-33.352" x1="-1174.3"/>
    <linearGradient id="linearGradient5878">
      <stop id="stop5880" stop-color="#fff" offset="0"/>
      <stop id="stop5882" stop-color="#fff" stop-opacity="0" offset="1"/>
    </linearGradient>
    <linearGradient id="linearGradient6064" y2="18.076" xlink:href="#linearGradient5878" gradientUnits="userSpaceOnUse" x2="-1176.4" gradientTransform="matrix(.79138 0 0 .72297 1304 -648.63)" y1="-33.352" x1="-1174.3"/>
    <filter id="filter5930" width="1.1066" y="-.16337" x="-.053305" height="1.3267" color-interpolation-filters="sRGB">
      <feGaussianBlur id="feGaussianBlur5932" stdDeviation="2.6923198"/>
    </filter>
  </defs>
  <g id="layer1" transform="translate(-61.8 -160.11)">
    <g id="g6079" transform="matrix(.86733 0 0 .86733 38.515 946.56)">
      <path id="path5970" style="color:#000000" d="m-12.764-476.51-19.646 8.0522 7.1327 14.69-18.345 0.21478 3.554 28.237-14.624-2.1757-1.4062 13.241-15.461-2.7559-3.0575 25.643-18.769-2.9981-8.8974 16.803-12.607-4.0388-13.055 12.21-18.351-2.5662-8.4364 17.527-10.887-21.29-12.865 23.322-18.227-20.56-6.4212 15.793-18.993-11.7-10.782 13.118-9.6281-21.695-14.625 12.816-12.328-23.389-13.399 12.114-5.407-18.794-16.981 4.8215-6.0461-16.205-20.451 1.4137 6.2562-22.783-21.52 3.9208 1.5539-22.883-24.765-6.769 11.504-14.03-22.48-3.9043 11.967-16.907-17.256-13.583 6.2896-18.602-17.482-6.9293 21.932-18.663-21.935-4.7628 15.369-20.942-12.914-9.0773 17.682-13.439-8.132-13.169 15.677-14.33-13.761-15.839 23.849-4.3769-7.6453-19.399 24.185-2.8853-8.722-18.227 19.951-3.0574-3.9115-16.861 25.151 2.756-1.3151-23.095 18.256 10.126 1.5914-18.615 19.744 2.3828 7.8962-13.199 18.341 10.346 13.605-25.391 15.772 12.689 6.5342-15.383 12.909 15.867 13.185-10.438 13.676 17.77 20.463-13.955 7.8195 10.574 14.635-2.289 4.4368 14.292 23.782-12.791-1.4561 21.423 23.675-1.2289-4.007 14.363 20.302-3.2073-0.24663 24.653 25.351-2.9245-11.244 21.81 20.765 2.3048-7.1417 20.336 27.977 3.212-14.458 24.534 21.459 5.4222-14.012 14.047 16.638 15.485-10.716 9.666 11.754 11.105-9.7205 14.517 10.946 12.56-15.714 9.9565 11.501 21.946-15.97 4.1374z" transform="translate(529.34 -42.426)" filter="url(#filter5980)" fill="#fbcc35"/>
      <path id="path5815" d="m-12.764-476.51-19.646 8.0522 7.1327 14.69-18.345 0.21478 3.554 28.237-14.624-2.1757-1.4062 13.241-15.461-2.7559-3.0575 25.643-18.769-2.9981-8.8974 16.803-12.607-4.0388-13.055 12.21-18.351-2.5662-8.4364 17.527-10.887-21.29-12.865 23.322-18.227-20.56-6.4212 15.793-18.993-11.7-10.782 13.118-9.6281-21.695-14.625 12.816-12.328-23.389-13.399 12.114-5.407-18.794-16.981 4.8215-6.0461-16.205-20.451 1.4137 6.2562-22.783-21.52 3.9208 1.5539-22.883-24.765-6.769 11.504-14.03-22.48-3.9043 11.967-16.907-17.256-13.583 6.2896-18.602-17.482-6.9293 21.932-18.663-21.935-4.7628 15.369-20.942-12.914-9.0773 17.682-13.439-8.132-13.169 15.677-14.33-13.761-15.839 23.849-4.3769-7.6453-19.399 24.185-2.8853-8.722-18.227 19.951-3.0574-3.9115-16.861 25.151 2.756-1.3151-23.095 18.256 10.126 1.5914-18.615 19.744 2.3828 7.8962-13.199 18.341 10.346 13.605-25.391 15.772 12.689 6.5342-15.383 12.909 15.867 13.185-10.438 13.676 17.77 20.463-13.955 7.8195 10.574 14.635-2.289 4.4368 14.292 23.782-12.791-1.4561 21.423 23.675-1.2289-4.007 14.363 20.302-3.2073-0.24663 24.653 25.351-2.9245-11.244 21.81 20.765 2.3048-7.1417 20.336 27.977 3.212-14.458 24.534 21.459 5.4222-14.012 14.047 16.638 15.485-10.716 9.666 11.754 11.105-9.7205 14.517 10.946 12.56-15.714 9.9565 11.501 21.946-15.97 4.1374z" style="color:#000000" fill="#fbcc35" transform="translate(529.34 -42.426)"/>
      <path id="path5843" d="m-68.69-555.8c0 63.6-52.462 115.16-117.18 115.16-64.715 0-117.18-51.558-117.18-115.16 0-63.6 52.462-115.16 117.18-115.16 64.715 0 117.18 51.558 117.18 115.16z" style="color:#000000" fill="#f6d638" transform="matrix(1.1579 0 0 1.1579 548.91 47.352)"/>
      <path id="path5823" opacity=".97309" d="m328.06-629.07c0 18.15-20.043 32.864-44.767 32.864s-44.767-14.714-44.767-32.864 20.043-32.864 44.767-32.864 44.767 14.714 44.767 32.864z" style="color:#000000" fill="#1d1c18"/>
      <path id="rect5841" d="m455.72-666.2-37.341 30.486 0.54145 9.502 37.341-30.486z" fill-rule="evenodd"/>
      <path id="rect5845" d="m325.35-632.45h11.078v7.3031h-11.078z" fill-rule="evenodd"/>
      <path id="path5847" opacity=".75336" d="m281.81-659.02c-12.814 0.27156-26.099 5.0342-34.128 14.482 15.971 20.482 52.87 21.232 70.903 3.1178 3.2979-2.2804-1.5912-4.4954-2.8935-6.4389-8.8622-7.8674-21.632-11.478-33.881-11.161z" style="color:#000000" fill="url(#linearGradient6068)"/>
      <path id="path5895" opacity=".97309" d="m423.02-629.07c0 18.15-20.043 32.864-44.767 32.864s-44.768-14.714-44.768-32.864 20.043-32.864 44.768-32.864c24.724 0 44.767 14.714 44.767 32.864z" style="color:#000000" fill="#1d1c18"/>
      <path id="path5897" opacity=".75336" d="m376.78-659.02c-12.814 0.27156-26.099 5.0342-34.128 14.482 15.971 20.482 52.87 21.232 70.903 3.1178 3.2979-2.2804-1.5912-4.4954-2.8935-6.4389-8.8622-7.8674-21.632-11.478-33.881-11.161z" style="color:#000000" fill="url(#linearGradient6064)"/>
      <path id="path5912" d="m268.72-549.74c34.072 40.788 71.135 62.637 121.22 2.0203" filter="url(#filter5930)" stroke="#f1b628" stroke-width="10" fill="none"/>
      <path id="path6005" d="m206.79-666.2 37.341 30.486-0.54145 9.502-37.341-30.486z" fill-rule="evenodd"/>
    </g>
  </g>
  <metadata>
    <rdf:RDF>
      <cc:Work>
        <dc:format>image/svg+xml</dc:format>
        <dc:type rdf:resource="http://purl.org/dc/dcmitype/StillImage"/>
        <cc:license rdf:resource="http://creativecommons.org/licenses/publicdomain/"/>
        <dc:publisher>
          <cc:Agent rdf:about="http://openclipart.org/">
            <dc:title>Openclipart</dc:title>
          </cc:Agent>
        </dc:publisher>
        <dc:title>Cool Sun</dc:title>
        <dc:date>2011-02-23T23:17:23</dc:date>
        <dc:description>Glowing sun with sunglasses</dc:description>
        <dc:source>http://openclipart.org/detail/121963/cool-sun-by-cgillis73</dc:source>
        <dc:creator>
          <cc:Agent>
            <dc:title>cgillis73</dc:title>
          </cc:Agent>
        </dc:creator>
        <dc:subject>
          <rdf:Bag>
            <rdf:li>Sun</rdf:li>
            <rdf:li>cartoon</rdf:li>
            <rdf:li>clip art</rdf:li>
            <rdf:li>clipart</rdf:li>
            <rdf:li>cool sun</rdf:li>
            <rdf:li>graphic</rdf:li>
            <rdf:li>image</rdf:li>
            <rdf:li>png</rdf:li>
            <rdf:li>summer</rdf:li>
            <rdf:li>sunglasses</rdf:li>
            <rdf:li>svg</rdf:li>
          </rdf:Bag>
        </dc:subject>
      </cc:Work>
      <cc:License rdf:about="http://creativecommons.org/licenses/publicdomain/">
        <cc:permits rdf:resource="http://creativecommons.org/ns#Reproduction"/>
        <cc:permits rdf:resource="http://creativecommons.org/ns#Distribution"/>
        <cc:permits rdf:resource="http://creativecommons.org/ns#DerivativeWorks"/>
      </cc:License>
    </rdf:RDF>
  </metadata>
</svg>
