<?xml version="1.0" encoding="UTF-8" standalone="no"?>
<!--part of the matt icon theme by sixsixfive released under CC0 (https://creativecommons.org/publicdomain/zero/1.0/) on openclipart-->
<svg xmlns="http://www.w3.org/2000/svg" xmlns:xlink="http://www.w3.org/1999/xlink" viewBox="0 0 128 128">
 <defs id="0">
  <linearGradient id="2">
   <stop id="9" stop-color="#eee"/>
   <stop id="A" offset="1" stop-color="#eee" stop-opacity="0"/>
  </linearGradient>
  <linearGradient id="3">
   <stop id="B" stop-color="#8bb300"/>
   <stop id="C" offset="1" stop-color="#f0ff80"/>
  </linearGradient>
  <radialGradient cx="60.33" cy="946.4" r="58.09" id="4" xlink:href="#2" gradientUnits="userSpaceOnUse" gradientTransform="matrix(1.4962883,0.04473576,-0.05901066,1.9737451,20.348375,-917.55386)"/>
  <linearGradient y1="1041.66" x2="0" y2="930.03" id="5" xlink:href="#3" gradientUnits="userSpaceOnUse"/>
 </defs>
 <g transform="translate(0,-924.36218)" id="1">
  <path d="m 102.28125,936.15625 a 1.8034609,1.8034609 0 0 0 -1.5,1.125 c -3.825848,9.28227 -11.56278,25.04111 -18.46875,40.4375 -5.714212,12.73945 -10.712589,24.86995 -12.6875,33.65625 -4.456056,-7.6749 -11.881047,-15.43786 -19.96875,-22.5 -9.725976,-8.49267 -20.159586,-15.84522 -26.6875,-20.15625 a 1.8034609,1.8034609 0 0 0 -2.59375,0.625 l -16.0625,29.5 a 1.8034609,1.8034609 0 0 0 1.0625,2.59375 c 26.497449,8.0928 50.767476,24.287 70,41.9375 a 1.8034609,1.8034609 0 0 0 2.90625,-0.6562 c 11.279601,-27.9111 28.05773,-69.60652 45.78125,-94.7813 a 1.8034609,1.8034609 0 0 0 -0.75,-2.6875 l -20.15625,-8.9375 a 1.8034609,1.8034609 0 0 0 -0.875,-0.15625 z" transform="matrix(1,0,0,1.0726738,0,-76.098188)" id="6" fill="#638000"/>
  <path d="M 21.977381,964.62774 5.8946676,996.27071 c 26.8443014,8.79459 51.3069364,26.31119 70.6913294,45.39409 11.278357,-29.9362 28.050663,-74.70022 46.002833,-102.05292 l -20.14018,-9.58002 c -7.754258,20.18062 -30.877832,67.48468 -32.016561,84.46444 -6.91639,-18.39679 -35.501797,-40.6928 -48.454708,-49.86856 l 0,0 z" id="7" fill="url(#5)"/>
  <path d="m 102.71875,930.75 c -3.939759,10.16757 -11.491788,26.67064 -18.28125,42.90625 -6.883709,16.46098 -12.913265,32.59205 -13.46875,40.87495 a 0.53248669,0.53248669 0 0 1 -1.03125,0.1563 C 66.539433,1005.6491 57.700636,995.49724 48.09375,986.5 38.686176,977.68943 28.640451,970.05211 22.15625,965.4375 L 6.65625,996 c 26.449903,8.8039 50.528356,25.9553 69.71875,44.7188 11.209891,-29.7572 27.70743,-73.59733 45.46875,-100.87505 l -19.125,-9.09375 z" id="8" fill="none" stroke="url(#4)"/>
 </g>
</svg>
